<svg xmlns="http://www.w3.org/2000/svg" width="143" height="143" viewBox="0 0 143 143">
  <g id="Grupo_96611" data-name="Grupo 96611" transform="translate(-729 -3353)">
    <circle id="Elipse_6666" data-name="Elipse 6666" cx="71.5" cy="71.5" r="71.5" transform="translate(729 3353)" fill="#baa6f7"/>
    <g id="votar" transform="translate(705.862 3389)">
      <path id="Trazado_129276" data-name="Trazado 129276" d="M76.633,7.5V76.27h33.106l16.512-16.512V7.5Z" transform="translate(-6.457 -6.464)" fill="#fff"/>
      <path id="Trazado_129277" data-name="Trazado 129277" d="M312.85,396.339l16.513-16.513v-.8H312.4v17.314Z" transform="translate(-209.568 -326.532)" fill="#fff"/>
      <path id="Trazado_129278" data-name="Trazado 129278" d="M118.116,106.988h11.633v11.633H118.116Z" transform="translate(-42.195 -92.171)" fill="#ff6a47"/>
      <path id="Trazado_129279" data-name="Trazado 129279" d="M118.116,246.441h11.633v11.633H118.116Z" transform="translate(-42.195 -212.31)" fill="#e1fda0"/>
      <path id="Trazado_129280" data-name="Trazado 129280" d="M76.633,7.5H79.4V76.27h-2.77Z" transform="translate(-6.457 -6.464)" fill="#c6fff6"/>
      <path id="Trazado_129281" data-name="Trazado 129281" d="M315.166,379.025H312.4v17.314h.454l2.316-2.316Z" transform="translate(-209.568 -326.532)" fill="#c6fff6"/>
      <path id="Trazado_129282" data-name="Trazado 129282" d="M118.116,106.988h2.77v11.633h-2.77Z" transform="translate(-42.195 -92.171)" fill="#c51239"/>
      <path id="Trazado_129283" data-name="Trazado 129283" d="M118.116,246.441h2.77v11.633h-2.77Z" transform="translate(-42.195 -212.31)" fill="#69bdc6"/>
      <g id="Grupo_96120" data-name="Grupo 96120" transform="translate(69.138)">
        <path id="Trazado_129284" data-name="Trazado 129284" d="M71.215,414.02H69.138v13.506H98.673v-2.077H71.215Z" transform="translate(-69.138 -356.68)"/>
        <path id="Trazado_129285" data-name="Trazado 129285" d="M427.4,114.49h2.077v32.481H427.4Z" transform="translate(-377.78 -98.634)"/>
        <path id="Trazado_129286" data-name="Trazado 129286" d="M71.215,2.077h47.54v11.7h2.077V0H69.138V55.262h2.077Z" transform="translate(-69.138)"/>
        <path id="Trazado_129287" data-name="Trazado 129287" d="M304.9,371.525v19.391h1.923l17.121-17.121v-2.27Zm2.077,16.3V373.6h14.221Z" transform="translate(-272.245 -320.071)"/>
        <path id="Trazado_129288" data-name="Trazado 129288" d="M124.326,103.957l3.028-2.649-1.368-1.564-1.661,1.452V99.488h-13.71V113.2h13.71Zm-11.633,7.164v-9.556h9.556v1.449l-4.52,3.953-2.09-2.511-1.6,1.329,3.452,4.147,4.755-4.158v5.347h-9.556Z" transform="translate(-104.872 -85.709)"/>
        <path id="Trazado_129289" data-name="Trazado 129289" d="M110.616,252.651h13.71v-13.71h-13.71Zm2.077-11.633h9.556v9.556h-9.556Z" transform="translate(-104.872 -205.849)"/>
        <path id="Trazado_129290" data-name="Trazado 129290" d="M250.768,99.488h20.843v2.077H250.768Z" transform="translate(-225.613 -85.709)"/>
        <path id="Trazado_129291" data-name="Trazado 129291" d="M250.768,139.488h20.843v2.077H250.768Z" transform="translate(-225.613 -120.17)"/>
        <path id="Trazado_129292" data-name="Trazado 129292" d="M250.768,183.484h20.843v2.077H250.768Z" transform="translate(-225.613 -158.072)"/>
        <path id="Trazado_129293" data-name="Trazado 129293" d="M250.768,238.941h20.843v2.077H250.768Z" transform="translate(-225.613 -205.849)"/>
        <path id="Trazado_129294" data-name="Trazado 129294" d="M250.768,278.941h20.843v2.077H250.768Z" transform="translate(-225.613 -240.309)"/>
        <path id="Trazado_129295" data-name="Trazado 129295" d="M250.768,322.937h20.843v2.077H250.768Z" transform="translate(-225.613 -278.212)"/>
      </g>
      <g id="Grupo_96121" data-name="Grupo 96121" transform="translate(100.594 5.854)">
        <path id="Trazado_129296" data-name="Trazado 129296" d="M310.8,44.347h-2.077V42.27H310.8Zm-6.232,0h-2.077V42.27h2.077Zm-6.232,0h-2.077V42.27h2.077Z" transform="translate(-296.262 -42.27)"/>
      </g>
      <g id="Grupo_96124" data-name="Grupo 96124" transform="translate(74.873 5.854)">
        <g id="Grupo_96122" data-name="Grupo 96122" transform="translate(0)">
          <path id="Trazado_129297" data-name="Trazado 129297" d="M110.546,42.27h2.077v2.077h-2.077Z" transform="translate(-110.546 -42.27)"/>
        </g>
        <g id="Grupo_96123" data-name="Grupo 96123" transform="translate(0 57.06)">
          <path id="Trazado_129298" data-name="Trazado 129298" d="M110.546,454.27h2.077v2.077h-2.077Z" transform="translate(-110.546 -454.27)"/>
        </g>
      </g>
    </g>
  </g>
</svg>
