<svg xmlns="http://www.w3.org/2000/svg" width="143" height="143" viewBox="0 0 143 143">
  <g id="Grupo_96612" data-name="Grupo 96612" transform="translate(-1077 -3353)">
    <circle id="Elipse_6667" data-name="Elipse 6667" cx="71.5" cy="71.5" r="71.5" transform="translate(1077 3353)" fill="#baa6f7"/>
    <g id="recreacion" transform="translate(1110.76 3387)">
      <g id="Grupo_96118" data-name="Grupo 96118" transform="translate(1.339 1.1)">
        <path id="Trazado_129254" data-name="Trazado 129254" d="M220.448,207.154h12.524v15.081h-12.6Z" transform="translate(-189.194 -177.88)" fill="#ffcabd"/>
        <path id="Trazado_129255" data-name="Trazado 129255" d="M83.482,311.82l-.083-.083a5.937,5.937,0,0,0-6.255-1.357c-3.57,1.313-11.2,4.315-27.362,4.315s-23.792-3-27.362-4.315a5.937,5.937,0,0,0-6.255,1.357l-.083.083a5.925,5.925,0,0,0-1.443,6.01c1.231,3.822,4.471,9.942,13,15.632H71.923c8.531-5.691,11.772-11.81,13-15.632A5.924,5.924,0,0,0,83.482,311.82Z" transform="translate(-13.381 -265.655)" fill="#fde896"/>
        <path id="Trazado_129256" data-name="Trazado 129256" d="M30.275,312.788a58,58,0,0,1-7.854-2.408,5.937,5.937,0,0,0-6.255,1.357l-.083.083a5.925,5.925,0,0,0-1.443,6.01c1.231,3.822,4.471,9.942,13,15.632h14.98A27.042,27.042,0,0,1,30.275,312.788Z" transform="translate(-13.382 -265.655)" fill="#fddb56"/>
        <path id="Trazado_129257" data-name="Trazado 129257" d="M97.448,384.2h-50.6a6.287,6.287,0,0,0,0,12.574h50.6a6.287,6.287,0,0,0,0-12.574Z" transform="translate(-35.746 -328.971)" fill="#fddb56"/>
        <path id="Trazado_129258" data-name="Trazado 129258" d="M169.922,7.5H150.215a12.3,12.3,0,0,0-12.3,12.3V26.2h37.308V12.8A5.3,5.3,0,0,0,169.922,7.5Z" transform="translate(-118.824 -7.5)" fill="#77718a"/>
        <circle id="Elipse_6689" data-name="Elipse 6689" cx="5.109" cy="5.109" r="5.109" transform="translate(48.442 14.613)" fill="#ffcabd"/>
        <path id="Trazado_129259" data-name="Trazado 129259" d="M158.133,7.5h-7.918a12.3,12.3,0,0,0-12.3,12.3V26.2h6.743A21.274,21.274,0,0,1,158.133,7.5Z" transform="translate(-118.824 -7.5)" fill="#6a647f"/>
        <path id="Trazado_129260" data-name="Trazado 129260" d="M186.833,65.226a7.3,7.3,0,0,0-7.3-3.575,50.325,50.325,0,0,1-12.843,0,7.288,7.288,0,0,0-7.285,3.552,15.731,15.731,0,0,0-2.1,7.745c-.075,8.657,6.929,14.384,15.585,14.5,8.835.123,16.036-5.558,16.036-14.365A15.734,15.734,0,0,0,186.833,65.226Z" transform="translate(-135.372 -53.655)" fill="#ffdcce"/>
        <path id="Trazado_129261" data-name="Trazado 129261" d="M135.2,85.908a21.267,21.267,0,0,1-.183-23.888,7.26,7.26,0,0,0-5.347,3.554A15.72,15.72,0,0,0,128.3,68.7a4.465,4.465,0,0,0-.731-.057,5.109,5.109,0,0,0,0,10.217,4.232,4.232,0,0,0,.988-.109A13.865,13.865,0,0,0,135.2,85.908Z" transform="translate(-105.64 -54.026)" fill="#ffcabd"/>
        <g id="Grupo_96115" data-name="Grupo 96115" transform="translate(35.143 17.57)">
          <g id="Grupo_96114" data-name="Grupo 96114">
            <ellipse id="Elipse_6690" data-name="Elipse 6690" cx="2.372" cy="2.655" rx="2.372" ry="2.655" fill="#423e4f"/>
          </g>
        </g>
        <path id="Trazado_129262" data-name="Trazado 129262" d="M265.927,311.844v.933a4.334,4.334,0,0,1-4.455,4.332,4.394,4.394,0,0,1-4.212-4.423v-.842A3.262,3.262,0,0,0,254,308.583l-1.588-4.95,4.664-3.316a11.931,11.931,0,0,1,8.853,11.528Z" transform="translate(-216.536 -257.384)" fill="#ffdcce"/>
        <path id="Trazado_129263" data-name="Trazado 129263" d="M188.831,297.98l-3.076,8.266h-8.471a4.8,4.8,0,0,1-4.8-4.753l-.04-3.915h13.313A11.868,11.868,0,0,1,188.831,297.98Z" transform="translate(-148.293 -255.046)" fill="#aeec94"/>
        <g id="Grupo_96116" data-name="Grupo 96116" transform="translate(10.562 26.325)">
          <path id="Trazado_129264" data-name="Trazado 129264" d="M96.68,200.007a22.211,22.211,0,0,1-15.809-6.548,3.759,3.759,0,1,1,5.316-5.316,14.742,14.742,0,0,0,10.493,4.346Z" transform="translate(-79.77 -187.042)" fill="#ffdcce"/>
        </g>
        <g id="Grupo_96117" data-name="Grupo 96117" transform="translate(47.559 26.325)">
          <path id="Trazado_129265" data-name="Trazado 129265" d="M332.1,200.007a22.211,22.211,0,0,0,15.809-6.548,3.759,3.759,0,1,0-5.316-5.316,14.742,14.742,0,0,1-10.493,4.346Z" transform="translate(-332.103 -187.042)" fill="#ffdcce"/>
        </g>
        <path id="Trazado_129266" data-name="Trazado 129266" d="M175.938,297.578h-3.495l.04,3.915a4.8,4.8,0,0,0,4.8,4.753h3.505A20.48,20.48,0,0,1,175.938,297.578Z" transform="translate(-148.294 -255.046)" fill="#8fdb7b"/>
        <path id="Trazado_129267" data-name="Trazado 129267" d="M166.178,207.154h-4.845a3.176,3.176,0,0,0-3.12,2.579L156.86,216.8a4.576,4.576,0,0,0,4.494,5.437H166.1a3.253,3.253,0,0,0,3.253-3.253V210.33A3.176,3.176,0,0,0,166.178,207.154Z" transform="translate(-134.924 -177.88)" fill="#fd8f9c"/>
        <path id="Trazado_129268" data-name="Trazado 129268" d="M287.822,207.154h4.845a3.176,3.176,0,0,1,3.12,2.579l1.353,7.065a4.576,4.576,0,0,1-4.494,5.437H287.9a3.253,3.253,0,0,1-3.253-3.253V210.33A3.176,3.176,0,0,1,287.822,207.154Z" transform="translate(-244.045 -177.88)" fill="#fd8f9c"/>
        <path id="Trazado_129269" data-name="Trazado 129269" d="M161.855,215.031a20.449,20.449,0,0,1,1.568-7.877h-2.089a3.176,3.176,0,0,0-3.12,2.578l-1.353,7.065a4.576,4.576,0,0,0,4.494,5.437h1.8A20.46,20.46,0,0,1,161.855,215.031Z" transform="translate(-134.925 -177.88)" fill="#fd737d"/>
        <path id="Trazado_129270" data-name="Trazado 129270" d="M54.546,384.2h-7.7a6.287,6.287,0,1,0,0,12.573h18.14A27.149,27.149,0,0,1,54.546,384.2Z" transform="translate(-35.746 -328.971)" fill="#fdca02"/>
        <path id="Trazado_129271" data-name="Trazado 129271" d="M80.538,436.544a12.563,12.563,0,0,0-10.4,0,12.563,12.563,0,0,1-10.4,0,12.563,12.563,0,0,0-10.4,0,12.563,12.563,0,0,1-10.4,0,12.563,12.563,0,0,0-10.4,0,12.563,12.563,0,0,1-10.4,0,12.563,12.563,0,0,0-10.4,0v9h72.8v-9Z" transform="translate(-7.737 -372.676)" fill="#7de4fd"/>
      </g>
      <g id="Grupo_96119" data-name="Grupo 96119" transform="translate(0.24 0)">
        <path id="Trazado_129272" data-name="Trazado 129272" d="M243.393,127.345a3.766,3.766,0,1,0-3.472-3.754A3.626,3.626,0,0,0,243.393,127.345Zm0-5.309a1.586,1.586,0,1,1-1.273,1.555A1.437,1.437,0,0,1,243.393,122.035Z" transform="translate(-204.779 -102.265)"/>
        <path id="Trazado_129273" data-name="Trazado 129273" d="M184.429,113.546a3.092,3.092,0,0,0-3.088,3.088,1.1,1.1,0,1,0,2.2,0,.889.889,0,0,1,1.778,0,1.1,1.1,0,1,0,2.2,0A3.092,3.092,0,0,0,184.429,113.546Z" transform="translate(-154.788 -96.898)"/>
        <path id="Trazado_129274" data-name="Trazado 129274" d="M303.669,117.734a1.1,1.1,0,0,0,1.1-1.1.889.889,0,1,1,1.778,0,1.1,1.1,0,0,0,2.2,0,3.088,3.088,0,1,0-6.176,0A1.1,1.1,0,0,0,303.669,117.734Z" transform="translate(-258.241 -96.898)"/>
        <path id="Trazado_129275" data-name="Trazado 129275" d="M74.6,63.967a13.656,13.656,0,0,0-4.172-1.145,7.267,7.267,0,0,0-.227-2.042,25.443,25.443,0,0,0,3.734-7.17,7.109,7.109,0,0,0-9.208-8.819,58.762,58.762,0,0,1-15.041,3.6,13.091,13.091,0,0,0-1.468-1.843H49.94A5.674,5.674,0,0,0,55.6,40.519a23.425,23.425,0,0,0,9.882-5.9,4.859,4.859,0,1,0-6.871-6.871,13.762,13.762,0,0,1-5.208,3.271,4.3,4.3,0,0,0-.812-.836,14.253,14.253,0,0,0,2.013-3.16,6.206,6.206,0,0,0,4.227-10.993V6.4a6.4,6.4,0,0,0-6.4-6.4h-3.8a1.1,1.1,0,0,0,0,2.2h3.8a4.2,4.2,0,0,1,4.2,4.2v8.466a6.423,6.423,0,0,0-1.711-.248,17.427,17.427,0,0,0-1.169-2.49,8.354,8.354,0,0,0-8.4-4.117,49.183,49.183,0,0,1-12.549,0A8.345,8.345,0,0,0,24.42,12.1a17,17,0,0,0-1.185,2.515,6.428,6.428,0,0,0-1.71.248V13.4A11.218,11.218,0,0,1,32.73,2.2H44.24a1.1,1.1,0,1,0,0-2.2H32.73a13.419,13.419,0,0,0-13.4,13.4V16.03a6.206,6.206,0,0,0,4.248,10.993,14.272,14.272,0,0,0,1.854,2.938A4.293,4.293,0,0,0,24.3,31.019,13.764,13.764,0,0,1,19.1,27.748a4.859,4.859,0,1,0-6.871,6.871,23.425,23.425,0,0,0,9.882,5.9,5.666,5.666,0,0,0,2.3,4.932l.022,2.107a5.873,5.873,0,0,0,.047.674,57.711,57.711,0,0,1-13.719-3.44A7.109,7.109,0,0,0,1.55,53.611a25.435,25.435,0,0,0,3.734,7.17,7.274,7.274,0,0,0-.227,2.042A13.657,13.657,0,0,0,.885,63.967a1.1,1.1,0,0,0-.645,1v9a1.1,1.1,0,0,0,1.1,1.1h72.8a1.1,1.1,0,0,0,1.1-1.1v-9a1.1,1.1,0,0,0-.645-1ZM50.8,50.476a60.9,60.9,0,0,0,14.683-3.62,4.909,4.909,0,0,1,6.356,6.081,22.557,22.557,0,0,1-2.7,5.513,7.424,7.424,0,0,0-6.1-3.217H51.826A13.147,13.147,0,0,0,50.8,50.476Zm-1.167,6.018a3.231,3.231,0,0,1-3.3,3.232h-.025A3.3,3.3,0,0,1,43.163,56.4v-.07a7.457,7.457,0,0,0-.128-1.82,4.384,4.384,0,0,0-2.743-3.051l0,0L42.542,45.4a10.792,10.792,0,0,1,2.008.986l.025.013a10.84,10.84,0,0,1,5.056,9.163c0,.047,0,.949,0,.934ZM38.8,42.532H36.856c.012-.16.012-.315.012-.33V35.874a20.932,20.932,0,0,0,3.972.054c.011,6.426-.024,6.3.028,6.767A13.661,13.661,0,0,0,38.8,42.532Zm13.817.561a3.466,3.466,0,0,1-2.68,1.262H45.449a12.933,12.933,0,0,0-2.064-.99A2.118,2.118,0,0,1,43.04,42.2V33.55a2.079,2.079,0,0,1,2.077-2.077h4.845c.055,0,.11,0,.164.007a2.206,2.206,0,0,1,1.941,2.02L53.3,39.924h0A3.58,3.58,0,0,1,52.619,43.093ZM60.169,29.3a2.659,2.659,0,0,1,3.761,3.761,21.239,21.239,0,0,1-8.7,5.272l-.885-4.621-.125-.651A15.968,15.968,0,0,0,60.169,29.3Zm-4.744-4.508a16.627,16.627,0,0,0,.166-7.921,4.009,4.009,0,0,1-.166,7.921ZM45.647,10.186a6.235,6.235,0,0,1,3.16.389c1.981.8,3,2.277,3.837,4.262,1.97,4.694,1.528,10.486-2.208,14.464a4.734,4.734,0,0,0-.475-.027H45.117a4.281,4.281,0,0,0-4.276,4.276v.168a18.061,18.061,0,0,1-3.972-.06V33.55a4.281,4.281,0,0,0-4.276-4.276H27.749a12.162,12.162,0,0,1-2.468-3.855,12.943,12.943,0,0,1-.912-5.017,14.879,14.879,0,0,1,1.743-6.821,6.154,6.154,0,0,1,6.4-3.4,51.371,51.371,0,0,0,13.136,0ZM19.26,20.821a4.016,4.016,0,0,1,3.307-3.947,17.2,17.2,0,0,0-.4,3.509,15.783,15.783,0,0,0,.574,4.413,4.015,4.015,0,0,1-3.484-3.975ZM13.779,29.3a2.658,2.658,0,0,1,3.761,0,15.968,15.968,0,0,0,5.947,3.761l-.43,2.243-.58,3.029a21.239,21.239,0,0,1-8.7-5.271,2.662,2.662,0,0,1,0-3.761ZM24.412,39.925h0l1.3-6.765a2.087,2.087,0,0,1,2.04-1.686h4.845a2.079,2.079,0,0,1,2.077,2.077V42.2h0a2.158,2.158,0,0,1-2.153,2.153H27.764a3.478,3.478,0,0,1-2.675-1.261,3.661,3.661,0,0,1-.678-3.168Zm3.357,6.629H32.52a4.331,4.331,0,0,0,3.539-1.823,27.443,27.443,0,0,1,4.341.119L38.038,51.2H30.331a3.685,3.685,0,0,1-2.341-.84c-1.755-1.44-1.283-3.394-1.372-3.923a5.959,5.959,0,0,0,1.152.118ZM6.341,58.45a22.547,22.547,0,0,1-2.7-5.513A4.909,4.909,0,0,1,10,46.856a61.45,61.45,0,0,0,15.283,3.7A5.942,5.942,0,0,0,30.331,53.4H38.8a2.16,2.16,0,0,1,2.135,1.835H22.365a1.1,1.1,0,1,0,0,2.2h18.7a5.509,5.509,0,0,0,5.186,4.493,5.432,5.432,0,0,0,5.5-4.493H63.042a5.2,5.2,0,0,1,5.185,5.328,13.7,13.7,0,0,0-4.942,1.207,11.467,11.467,0,0,1-9.49,0,13.643,13.643,0,0,0-7.28-1.127,19.073,19.073,0,0,0-5.18,1.577,11.479,11.479,0,0,1-8.34-.45,13.669,13.669,0,0,0-11.311,0,11.461,11.461,0,0,1-9.49,0,13.717,13.717,0,0,0-4.942-1.207,5.2,5.2,0,0,1,5.185-5.328h5.585a1.1,1.1,0,1,0,0-2.2H12.438A7.4,7.4,0,0,0,6.341,58.45Zm66.7,14.421H2.439V65.7A11.455,11.455,0,0,1,6.3,64.945c4.664-.1,5.543,2.25,10.644,2.25a13.659,13.659,0,0,0,5.655-1.226,11.468,11.468,0,0,1,9.49,0,13.66,13.66,0,0,0,11.311,0,11.471,11.471,0,0,1,9.49,0,13.659,13.659,0,0,0,11.311,0,11.481,11.481,0,0,1,8.845-.27Z" transform="translate(-0.24 0)"/>
      </g>
    </g>
  </g>
</svg>
