<svg xmlns="http://www.w3.org/2000/svg" width="143" height="143" viewBox="0 0 143 143">
  <g id="Grupo_96618" data-name="Grupo 96618" transform="translate(6624 8358)">
    <circle id="Elipse_6668" data-name="Elipse 6668" cx="71.5" cy="71.5" r="71.5" transform="translate(-6624 -8358)" fill="#baa6f7"/>
    <g id="empresario" transform="translate(-6601.574 -8322)">
      <g id="Grupo_96112" data-name="Grupo 96112" transform="translate(17.422 0.918)">
        <path id="Trazado_129229" data-name="Trazado 129229" d="M127.83,7.349a12.466,12.466,0,0,0-12.466,12.467v4.933a3.974,3.974,0,0,1,3.176-1.038V23.09a.85.85,0,0,1,.911-.847,22.319,22.319,0,0,0,13.434-3.608.849.849,0,0,1,1.086.132c3.171,3.408,3.152,3.276,3.152,3.721v1.22a3.771,3.771,0,0,1,3.175.929V19.816A12.466,12.466,0,0,0,127.83,7.349Z" transform="translate(-101.893 -7.349)" fill="#576574"/>
        <g id="Grupo_96109" data-name="Grupo 96109" transform="translate(12.97 0)">
          <path id="Trazado_129230" data-name="Trazado 129230" d="M117.863,19.816a12.468,12.468,0,0,1,11.217-12.4q-.616-.061-1.249-.062a12.466,12.466,0,0,0-12.466,12.467V24.75a4.032,4.032,0,0,1,2.5-1.063Z" transform="translate(-115.364 -7.35)" fill="#3e4b5a"/>
        </g>
        <path id="Trazado_129231" data-name="Trazado 129231" d="M288.141,133.983v6.829c0,.074,0,.147-.006.221a3.6,3.6,0,1,0,.006-7.05Z" transform="translate(-251.552 -116.355)" fill="#f2bb88"/>
        <path id="Trazado_129232" data-name="Trazado 129232" d="M111.96,140.942v-6.826a3.786,3.786,0,0,0-4.3,3.523,3.622,3.622,0,0,0,4.309,3.525C111.963,141.089,111.96,141.015,111.96,140.942Z" transform="translate(-96.009 -116.484)" fill="#f2bb88"/>
        <path id="Trazado_129233" data-name="Trazado 129233" d="M290.64,134.417a3.863,3.863,0,0,0-2.5-.435v6.829c0,.074,0,.147-.006.221a3.859,3.859,0,0,0,2.5-.434Z" transform="translate(-251.666 -116.356)" fill="#e3a76f"/>
        <path id="Trazado_129234" data-name="Trazado 129234" d="M111.96,140.729a3.463,3.463,0,0,1,0-6.081v-.533a3.787,3.787,0,0,0-4.3,3.523,3.622,3.622,0,0,0,4.309,3.525c0-.074-.005-.147-.005-.221v-.213Z" transform="translate(-96.009 -116.484)" fill="#e3a76f"/>
        <path id="Trazado_129235" data-name="Trazado 129235" d="M179.562,249.633a9.616,9.616,0,0,1-5.232-1.478v4.893l5.209,6.43,5.209-6.43v-5.031A9.1,9.1,0,0,1,179.562,249.633Z" transform="translate(-153.214 -214.309)" fill="#f2bb88"/>
        <path id="Trazado_129236" data-name="Trazado 129236" d="M176.83,250.234a9.238,9.238,0,0,1-2.5-1.112v4.893l2.5,3.085Z" transform="translate(-153.537 -215.494)" fill="#e3a76f"/>
        <path id="Trazado_129237" data-name="Trazado 129237" d="M66.423,290.973l-13.781-5.337-5.209,6.43-5.209-6.43-13.766,5.337a8.732,8.732,0,0,0-5.1,7.906v12.9a1.186,1.186,0,0,0,1.186,1.186h45.8a1.175,1.175,0,0,0,1.175-1.175V298.879A8.732,8.732,0,0,0,66.423,290.973Z" transform="translate(-23.361 -244.74)" fill="#e4eaf8"/>
        <g id="Grupo_96110" data-name="Grupo 96110" transform="translate(0 45.818)">
          <path id="Trazado_129238" data-name="Trazado 129238" d="M25.859,346.244V332.1a8.487,8.487,0,0,1,3.668-7.071l-1.07.415a8.732,8.732,0,0,0-5.1,7.906v12.9a1.186,1.186,0,0,0,1.186,1.186h2.5A1.185,1.185,0,0,1,25.859,346.244Z" transform="translate(-23.36 -325.028)" fill="#d8dce5"/>
        </g>
        <path id="Trazado_129239" data-name="Trazado 129239" d="M156.209,94.2a.849.849,0,0,0-1.086-.132,22.319,22.319,0,0,1-13.434,3.608.85.85,0,0,0-.911.847v7.448a9.292,9.292,0,0,0,18.582,0V97.917C159.361,97.472,159.38,97.6,156.209,94.2Z" transform="translate(-123.992 -81.487)" fill="#f2d1a5"/>
        <path id="Trazado_129240" data-name="Trazado 129240" d="M143.278,132.188V123.94c-.529.006-1.059-.008-1.588-.046a.849.849,0,0,0-.911.847v7.448a9.394,9.394,0,0,0,10.541,9.088A9.17,9.17,0,0,1,143.278,132.188Z" transform="translate(-124.352 -107.332)" fill="#f2bb88"/>
        <path id="Trazado_129241" data-name="Trazado 129241" d="M222.312,295.369l3.9-7.807-4.976-1.927-5.209,6.43,5.079,3.607A.822.822,0,0,0,222.312,295.369Z" transform="translate(-189.089 -246.761)" fill="#d8dce5"/>
        <path id="Trazado_129242" data-name="Trazado 129242" d="M138.46,295.369l-3.9-7.807,4.976-1.927,5.209,6.43-5.079,3.607A.821.821,0,0,1,138.46,295.369Z" transform="translate(-119.019 -246.761)" fill="#d8dce5"/>
        <path id="Trazado_129243" data-name="Trazado 129243" d="M190.162,337.1v0l0,0,0,0v0l-3.694,2.624,1.746,2.628h3.9l1.746-2.628Z" transform="translate(-163.795 -291.455)" fill="#ee5253"/>
        <path id="Trazado_129244" data-name="Trazado 129244" d="M179.253,394.8h9.2L185.8,379.162h-3.9Z" transform="translate(-157.507 -326.58)" fill="#ff6b6b"/>
        <path id="Trazado_129245" data-name="Trazado 129245" d="M191.409,337.987l-1.246-.885v0l0,0,0,0v0l-3.694,2.624,1.746,2.628h2.5l-1.359-2.046a.721.721,0,0,1,.183-.987Z" transform="translate(-163.901 -291.456)" fill="#d83941"/>
        <path id="Trazado_129246" data-name="Trazado 129246" d="M181.9,379.161,179.253,394.8h2.5l2.647-15.638Z" transform="translate(-157.681 -326.579)" fill="#ee5253"/>
        <g id="Grupo_96111" data-name="Grupo 96111" transform="translate(39.447 38.99)">
          <path id="Trazado_129247" data-name="Trazado 129247" d="M305.733,294.57a12.1,12.1,0,1,1,12.1-12.1A12.109,12.109,0,0,1,305.733,294.57Z" transform="translate(-293.638 -270.38)" fill="#15ba8b"/>
        </g>
        <path id="Trazado_129248" data-name="Trazado 129248" d="M296.136,282.468a12.112,12.112,0,0,1,10.846-12.031,12.1,12.1,0,1,0,0,24.062A12.112,12.112,0,0,1,296.136,282.468Z" transform="translate(-255.57 -231.383)" fill="#11aa7b"/>
        <path id="Trazado_129249" data-name="Trazado 129249" d="M328.818,296.761a8.8,8.8,0,1,0,8.8,8.8A8.809,8.809,0,0,0,328.818,296.761Z" transform="translate(-277.276 -254.475)" fill="#3fefbc"/>
        <path id="Trazado_129250" data-name="Trazado 129250" d="M322.518,305.559a8.811,8.811,0,0,1,7.549-8.708,8.8,8.8,0,1,0,0,17.417A8.811,8.811,0,0,1,322.518,305.559Z" transform="translate(-278.561 -254.474)" fill="#1dd1a1"/>
      </g>
      <g id="Grupo_96113" data-name="Grupo 96113" transform="translate(16.574)">
        <path id="Trazado_129251" data-name="Trazado 129251" d="M18.9,70.094H69.042a2.316,2.316,0,0,0,2.313-2.315V64.125a14.284,14.284,0,0,0-.966-27.879,1.027,1.027,0,0,0-.37,2.02,12.229,12.229,0,0,1,.149,24.022l-.033,0A12.225,12.225,0,1,1,65.6,38.266a1.027,1.027,0,0,0-.37-2.02,14.221,14.221,0,0,0-8.165,4.65l-6.379-2.472V34.86a11.063,11.063,0,0,0,4.268-7.469,4.934,4.934,0,0,0,3.557-8.2V14.687a14.675,14.675,0,1,0-29.35,0V19.31a4.652,4.652,0,0,0-1.235,3.144,4.95,4.95,0,0,0,4.793,4.938,10.941,10.941,0,0,0,4.509,7.641v3.391L22.81,44.018l-.019.008a10.522,10.522,0,0,0-6.216,9.612v14.13A2.328,2.328,0,0,0,18.9,70.094Zm42.959-6.826a14.175,14.175,0,0,0,5.952,1.3,14.355,14.355,0,0,0,1.493-.078v3.286a.261.261,0,0,1-.261.261H61.857ZM55.784,42.6A14.284,14.284,0,0,0,59.8,62.107V68.04H49.861l-.921-5.446a1.026,1.026,0,1,0-2.023.343l.863,5.1h-7.64l2.551-15.081H45.23l.877,5.187A1.026,1.026,0,1,0,48.13,57.8l-.954-5.641,1.1-1.658.646.459a1.925,1.925,0,0,0,2.838-.711h0l3.848-7.718ZM43.96,47.435,46.6,49.313,45.546,50.9H42.374l-1.057-1.592Zm0-2.9-4.681-5.783V36.191a12.069,12.069,0,0,0,4.7.945,11.016,11.016,0,0,0,4.653-1.029v2.656Zm9.726-2.748-3.7,7.413-4.549-3.233,4.545-5.614ZM56.7,24.623a2.981,2.981,0,0,1-1.668.7V19.582A2.879,2.879,0,0,1,56.7,24.623Zm-24.065.7a2.888,2.888,0,0,1-2.66-2.872,3.049,3.049,0,0,1,2.66-2.825Zm.034-7.772a5.823,5.823,0,0,0-1.458.346V14.687a12.623,12.623,0,1,1,25.246,0v3.122a5.148,5.148,0,0,0-1.424-.288c0-1.234.15-.883-3.425-4.721a2.378,2.378,0,0,0-1.33-.906,1.949,1.949,0,0,0-1.472.278,23.285,23.285,0,0,1-13.951,3.8A1.942,1.942,0,0,0,32.671,17.554Zm2.019,8.52V18.016a25.37,25.37,0,0,0,15.173-4.081c1.854,1.994,2.852,3.028,3.121,3.376,0,10.243,0,8.42-.006,8.988a9.148,9.148,0,0,1-18.288-.225Zm3.239,14.283,4.546,5.615L37.93,49.2l-3.7-7.413Zm-19.3,13.281a8.473,8.473,0,0,1,4.938-7.71l8.747-3.394,3.848,7.718h0a1.924,1.924,0,0,0,1.256,1.009,2.507,2.507,0,0,0,2.228-.758l1.1,1.658L38.059,68.04H28.124V55.826a1.026,1.026,0,1,0-2.052,0V68.04H18.9a.273.273,0,0,1-.272-.272Z" transform="translate(-16.574)"/>
        <path id="Trazado_129252" data-name="Trazado 129252" d="M363.876,348.742a.937.937,0,0,0,1.31,0l4.34-4.23a.937.937,0,1,0-1.308-1.342l-3.684,3.591-1.543-1.513a.937.937,0,0,0-1.312,1.339Z" transform="translate(-312.636 -295.526)"/>
        <path id="Trazado_129253" data-name="Trazado 129253" d="M313.174,299.148a9.736,9.736,0,1,0,9.736-9.736A9.747,9.747,0,0,0,313.174,299.148Zm9.736-7.862a7.862,7.862,0,1,1-7.862,7.862A7.871,7.871,0,0,1,322.91,291.286Z" transform="translate(-270.438 -247.126)"/>
      </g>
    </g>
  </g>
</svg>
