<svg xmlns="http://www.w3.org/2000/svg" width="143" height="143" viewBox="0 0 143 143">
  <g id="Grupo_96620" data-name="Grupo 96620" transform="translate(5906 8358)">
    <circle id="Elipse_6670" data-name="Elipse 6670" cx="71.5" cy="71.5" r="71.5" transform="translate(-5906 -8358)" fill="#baa6f7"/>
    <g id="_x34_40_x2C__Air_x2C__Balloon_x2C__Hot" transform="translate(-5895.5 -8361.495)">
      <g id="Grupo_96108" data-name="Grupo 96108" transform="translate(27.5 42.495)">
        <path id="Trazado_129177" data-name="Trazado 129177" d="M40.976,50.446a6.152,6.152,0,0,0-2.15,4.68q0,.166.009.327a3.521,3.521,0,0,0-4.921-.382,4.356,4.356,0,1,1,7.062-4.624Z" transform="translate(-31.774 -46.776)" fill="#f2d057"/>
        <path id="Trazado_129178" data-name="Trazado 129178" d="M53.844,62.793a3.526,3.526,0,1,1,0,7.052H37.1A3.526,3.526,0,1,1,39.749,64q-.009-.161-.009-.327a6.17,6.17,0,0,1,12.327-.4A3.514,3.514,0,0,1,53.844,62.793Z" transform="translate(-32.689 -55.325)" fill="#66cded"/>
        <g id="Grupo_96107" data-name="Grupo 96107" transform="translate(2.904 25.41)">
          <path id="Trazado_129179" data-name="Trazado 129179" d="M49.315,217.5a1.815,1.815,0,1,1-1.815,1.815A1.816,1.816,0,0,1,49.315,217.5Z" transform="translate(-47.5 -217.503)" fill="#7cdaaf"/>
          <path id="Trazado_129180" data-name="Trazado 129180" d="M450.041,327.5a2.541,2.541,0,1,1-2.541,2.541A2.54,2.54,0,0,1,450.041,327.5Z" transform="translate(-389.424 -311.533)" fill="#7cdaaf"/>
          <ellipse id="Elipse_6677" data-name="Elipse 6677" cx="5.317" cy="4.908" rx="5.317" ry="4.908" transform="translate(2.631 20.482)" fill="#7cdaaf"/>
        </g>
        <path id="Trazado_129181" data-name="Trazado 129181" d="M279.279,377.5v2.9H257.5v-2.9h21.779Z" transform="translate(-224.106 -328.864)" fill="#aa6b3f"/>
        <ellipse id="Elipse_6678" data-name="Elipse 6678" cx="1.227" cy="0.818" rx="1.227" ry="0.818" transform="translate(62.797 52.436)"/>
        <circle id="Elipse_6679" data-name="Elipse 6679" cx="0.818" cy="0.818" r="0.818" transform="translate(61.979 0.9)"/>
        <path id="Trazado_129182" data-name="Trazado 129182" d="M356.133,69.66c0,7.366-10.795,18.1-11.615,25.764H340.3c.5-7.663,7.119-18.4,7.119-25.764,0-12.129-6.072-21.982-13.6-22.147A22.324,22.324,0,0,1,356.133,69.66Z" transform="translate(-289.345 -46.784)" fill="#ed5a5a"/>
        <path id="Trazado_129183" data-name="Trazado 129183" d="M386.13,397.5v7.913a2.977,2.977,0,0,1-2.976,2.976H382.5V397.5Z" transform="translate(-330.957 -345.96)" fill="#845c21"/>
        <path id="Trazado_129184" data-name="Trazado 129184" d="M346.293,69.652c0,7.366-6.616,18.1-7.119,25.764H334.96c.184-7.663,2.622-18.4,2.622-25.764,0-12.232-2.275-22.149-5.082-22.149h.192C340.221,47.67,346.293,57.523,346.293,69.652Z" transform="translate(-288.217 -46.776)" fill="#c13636"/>
        <path id="Trazado_129185" data-name="Trazado 129185" d="M357.5,397.5h3.63v10.889H357.5Z" transform="translate(-309.587 -345.96)" fill="#9e7430"/>
        <path id="Trazado_129186" data-name="Trazado 129186" d="M307.663,69.652c0,7.366-2.438,18.1-2.622,25.764h-4.918c-.186-7.7-2.624-18.351-2.624-25.764,0-12.232,2.275-22.149,5.082-22.149S307.663,57.42,307.663,69.652Z" transform="translate(-258.298 -46.776)" fill="#ed5a5a"/>
        <path id="Trazado_129187" data-name="Trazado 129187" d="M332.5,397.5h3.63v10.889H332.5Z" transform="translate(-288.217 -345.96)" fill="#845c21"/>
        <path id="Trazado_129188" data-name="Trazado 129188" d="M307.5,397.5h3.63v10.889H307.5Z" transform="translate(-266.847 -345.96)" fill="#9e7430"/>
        <path id="Trazado_129189" data-name="Trazado 129189" d="M251.059,47.506c.078,0,.155,0,.234,0-2.807,0-5.082,9.917-5.082,22.149,0,7.413,2.438,18.069,2.624,25.764h-4.216c-.5-7.7-7.119-18.351-7.119-25.764C237.5,57.545,243.549,47.706,251.059,47.506Z" transform="translate(-207.01 -46.776)" fill="#c13636"/>
        <path id="Trazado_129190" data-name="Trazado 129190" d="M282.5,397.5h3.63v10.889H282.5Z" transform="translate(-245.476 -345.96)" fill="#845c21"/>
        <path id="Trazado_129191" data-name="Trazado 129191" d="M193.33,95.433h-4.215c-.822-7.7-11.615-18.351-11.615-25.764a21.725,21.725,0,0,1,2.332-9.824,22.527,22.527,0,0,1,19.939-12.322c-7.511.2-13.559,10.038-13.559,22.146C186.211,77.082,192.826,87.738,193.33,95.433Z" transform="translate(-155.721 -46.793)" fill="#ed5a5a"/>
        <path id="Trazado_129192" data-name="Trazado 129192" d="M261.13,397.5v10.889h-.653a2.977,2.977,0,0,1-2.976-2.976V397.5Z" transform="translate(-224.106 -345.96)" fill="#9e7430"/>
        <ellipse id="Elipse_6680" data-name="Elipse 6680" cx="0.818" cy="1.227" rx="0.818" ry="1.227" transform="translate(24.35 54.89)"/>
        <ellipse id="Elipse_6681" data-name="Elipse 6681" cx="1.227" cy="0.818" rx="1.227" ry="0.818" transform="translate(21.896 0.9)"/>
        <circle id="Elipse_6682" data-name="Elipse 6682" cx="1.227" cy="1.227" r="1.227" transform="translate(18.624 38.53)"/>
        <ellipse id="Elipse_6683" data-name="Elipse 6683" cx="0.818" cy="1.227" rx="0.818" ry="1.227" transform="translate(3.081 36.076)"/>
        <ellipse id="Elipse_6684" data-name="Elipse 6684" cx="1.227" cy="0.818" rx="1.227" ry="0.818" transform="translate(1.445 59.798)"/>
        <circle id="Elipse_6685" data-name="Elipse 6685" cx="1.227" cy="1.227" r="1.227" transform="translate(0.627 19.715)"/>
        <path id="Trazado_129193" data-name="Trazado 129193" d="M240.343,91.885a.726.726,0,0,1-.724-.678c-.235-3.592-1.9-8-3.506-12.256-1.777-4.707-3.615-9.575-3.615-13.556a30.848,30.848,0,0,1,4.07-15.918c2.686-4.381,6.307-6.85,10.2-6.954a.726.726,0,1,1,.039,1.451c-7.087.189-12.853,9.8-12.853,21.42,0,3.716,1.79,8.458,3.521,13.043,1.645,4.359,3.347,8.866,3.6,12.674a.726.726,0,0,1-.677.772l-.048,0Z" transform="translate(-202.735 -42.519)"/>
        <path id="Trazado_129194" data-name="Trazado 129194" d="M336.029,91.877l-.048,0a.726.726,0,0,1-.677-.772c.249-3.794,1.951-8.313,3.6-12.684,1.73-4.593,3.52-9.343,3.52-13.033,0-11.656-5.783-21.265-12.892-21.422a.726.726,0,0,1,.016-1.452h.016c3.9.086,7.531,2.548,10.227,6.933a30.825,30.825,0,0,1,4.085,15.94c0,3.954-1.837,8.83-3.613,13.545-1.609,4.271-3.273,8.688-3.507,12.267a.726.726,0,0,1-.724.678Z" transform="translate(-285.071 -42.511)"/>
        <path id="Trazado_129195" data-name="Trazado 129195" d="M300.768,91.869h-.018a.726.726,0,0,1-.708-.743,118.993,118.993,0,0,1,1.315-12.56,105.342,105.342,0,0,0,1.307-13.186,72.729,72.729,0,0,0-1.47-15.5c-1.073-4.676-2.319-5.924-2.886-5.924S296.5,45.2,295.423,49.88a72.729,72.729,0,0,0-1.47,15.5,104.815,104.815,0,0,0,1.308,13.2,118.348,118.348,0,0,1,1.315,12.547.726.726,0,1,1-1.451.035,117.413,117.413,0,0,0-1.3-12.382,105.7,105.7,0,0,1-1.322-13.4,74.2,74.2,0,0,1,1.507-15.824c1.074-4.679,2.52-7.051,4.3-7.051s3.227,2.372,4.3,7.051a74.2,74.2,0,0,1,1.507,15.824,106.246,106.246,0,0,1-1.32,13.386,118.119,118.119,0,0,0-1.3,12.4A.726.726,0,0,1,300.768,91.869Z" transform="translate(-254.025 -42.503)"/>
        <path id="Trazado_129196" data-name="Trazado 129196" d="M406.13,373.956h-2.9a.726.726,0,0,1,0-1.452h2.9a.726.726,0,0,1,0,1.452Z" transform="translate(-348.053 -324.59)"/>
        <path id="Trazado_129197" data-name="Trazado 129197" d="M236.13,373.956h-2.9a.726.726,0,1,1,0-1.452h2.9a.726.726,0,0,1,0,1.452Z" transform="translate(-202.736 -324.59)"/>
        <path id="Trazado_129198" data-name="Trazado 129198" d="M184.84,91.861a.726.726,0,0,1-.721-.649c-.378-3.537-3.078-7.921-5.69-12.161-2.915-4.732-5.929-9.626-5.929-13.68a22.447,22.447,0,0,1,2.41-10.151,23.07,23.07,0,0,1,8.318-9.131A23.412,23.412,0,0,1,195.48,42.5c.153-.006.3,0,.458,0a23.254,23.254,0,0,1,16.279,6.758,22.556,22.556,0,0,1,6.744,16.115c0,4.028-3.013,8.929-5.926,13.67-2.613,4.252-5.316,8.648-5.693,12.172a.726.726,0,0,1-1.444-.155c.412-3.849,3.2-8.388,5.9-12.778,2.808-4.568,5.712-9.292,5.712-12.91a21.658,21.658,0,0,0-21.593-21.421c-.069,0-.128,0-.186,0s-.138,0-.207,0h-.02a21.716,21.716,0,0,0-19.3,11.923,21,21,0,0,0-2.254,9.5c0,3.643,2.9,8.358,5.713,12.918,2.7,4.378,5.485,8.9,5.9,12.769a.726.726,0,0,1-.645.8A.643.643,0,0,1,184.84,91.861Z" transform="translate(-151.447 -42.495)"/>
        <path id="Trazado_129199" data-name="Trazado 129199" d="M29.64,51.522a.724.724,0,0,1-.49-.19,5.082,5.082,0,1,1,8.239-5.4.726.726,0,0,1-1.374.471,3.63,3.63,0,1,0-5.885,3.853.726.726,0,0,1-.49,1.262Z" transform="translate(-27.5 -42.502)"/>
        <path id="Trazado_129200" data-name="Trazado 129200" d="M49.57,66.3H32.823a4.252,4.252,0,1,1,2.006-8,6.9,6.9,0,0,1,13.553-.334A4.251,4.251,0,1,1,49.57,66.3ZM32.823,59.244a2.8,2.8,0,1,0,0,5.6H49.57a2.8,2.8,0,1,0-1.411-5.216.726.726,0,0,1-1.09-.581,5.444,5.444,0,0,0-10.876.352q0,.145.008.287a.726.726,0,0,1-1.271.517A2.8,2.8,0,0,0,32.823,59.244Z" transform="translate(-28.415 -51.05)"/>
        <path id="Trazado_129201" data-name="Trazado 129201" d="M104.678,118.955h-1.452a.726.726,0,0,1,0-1.452h1.452a.726.726,0,0,1,0,1.452Z" transform="translate(-91.611 -106.612)"/>
        <path id="Trazado_129202" data-name="Trazado 129202" d="M134.76,118.955h-6.534a.726.726,0,1,1,0-1.452h6.534a.726.726,0,1,1,0,1.452Z" transform="translate(-112.981 -106.612)"/>
        <path id="Trazado_129203" data-name="Trazado 129203" d="M275,376.86a.726.726,0,0,1-.726-.726v-2.178H253.952v2.178a.726.726,0,1,1-1.452,0v-2.9a.726.726,0,0,1,.726-.726H275a.726.726,0,0,1,.726.726v2.9A.726.726,0,0,1,275,376.86Z" transform="translate(-219.832 -324.59)"/>
        <path id="Trazado_129204" data-name="Trazado 129204" d="M272.028,404.845H256.2a3.706,3.706,0,0,1-3.7-3.7V393.23a.726.726,0,0,1,.726-.726H275a.726.726,0,0,1,.726.726v7.913A3.707,3.707,0,0,1,272.028,404.845Zm-18.076-10.889v7.187a2.253,2.253,0,0,0,2.25,2.25h15.826a2.253,2.253,0,0,0,2.25-2.25v-7.187Z" transform="translate(-219.832 -341.686)"/>
        <path id="Trazado_129205" data-name="Trazado 129205" d="M378.226,404.845a.726.726,0,0,1-.726-.726V393.23a.726.726,0,0,1,1.452,0v10.889A.726.726,0,0,1,378.226,404.845Z" transform="translate(-326.683 -341.686)"/>
        <path id="Trazado_129206" data-name="Trazado 129206" d="M353.226,404.845a.726.726,0,0,1-.726-.726V393.23a.726.726,0,0,1,1.452,0v10.889A.726.726,0,0,1,353.226,404.845Z" transform="translate(-305.313 -341.686)"/>
        <path id="Trazado_129207" data-name="Trazado 129207" d="M328.226,404.845a.726.726,0,0,1-.726-.726V393.23a.726.726,0,0,1,1.452,0v10.889A.726.726,0,0,1,328.226,404.845Z" transform="translate(-283.943 -341.686)"/>
        <path id="Trazado_129208" data-name="Trazado 129208" d="M303.226,404.845a.726.726,0,0,1-.726-.726V393.23a.726.726,0,0,1,1.452,0v10.889A.726.726,0,0,1,303.226,404.845Z" transform="translate(-262.573 -341.686)"/>
        <path id="Trazado_129209" data-name="Trazado 129209" d="M278.226,404.845a.726.726,0,0,1-.726-.726V393.23a.726.726,0,0,1,1.452,0v10.889A.726.726,0,0,1,278.226,404.845Z" transform="translate(-241.202 -341.686)"/>
        <path id="Trazado_129210" data-name="Trazado 129210" d="M71.129,170.272a.725.725,0,0,1-.579-.288,2.389,2.389,0,0,0-2.17-1.181.726.726,0,0,1-.31-1.419,3.756,3.756,0,0,1,3.638,1.723.726.726,0,0,1-.578,1.164Z" transform="translate(-61.691 -149.218)"/>
        <path id="Trazado_129211" data-name="Trazado 129211" d="M88.225,170.272a.726.726,0,0,1-.578-1.164,3.756,3.756,0,0,1,3.638-1.723.726.726,0,0,1-.3,1.421,2.393,2.393,0,0,0-2.181,1.179A.725.725,0,0,1,88.225,170.272Z" transform="translate(-78.789 -149.218)"/>
        <path id="Trazado_129212" data-name="Trazado 129212" d="M116.129,195.272a.725.725,0,0,1-.579-.288,2.389,2.389,0,0,0-2.17-1.181.726.726,0,0,1-.31-1.419,3.756,3.756,0,0,1,3.638,1.723.726.726,0,0,1-.578,1.164Z" transform="translate(-100.158 -170.588)"/>
        <path id="Trazado_129213" data-name="Trazado 129213" d="M133.225,195.272a.726.726,0,0,1-.578-1.164,3.756,3.756,0,0,1,3.638-1.723.726.726,0,0,1-.3,1.421,2.394,2.394,0,0,0-2.181,1.179.725.725,0,0,1-.579.288Z" transform="translate(-117.255 -170.588)"/>
        <path id="Trazado_129214" data-name="Trazado 129214" d="M91.129,255.272a.725.725,0,0,1-.579-.288,2.388,2.388,0,0,0-2.17-1.181.726.726,0,1,1-.31-1.419,3.756,3.756,0,0,1,3.638,1.723.726.726,0,0,1-.578,1.164Z" transform="translate(-78.788 -221.877)"/>
        <path id="Trazado_129215" data-name="Trazado 129215" d="M108.225,255.271a.726.726,0,0,1-.578-1.164,3.756,3.756,0,0,1,3.638-1.723.726.726,0,0,1-.3,1.421,2.392,2.392,0,0,0-2.181,1.178A.725.725,0,0,1,108.225,255.271Z" transform="translate(-95.885 -221.876)"/>
        <path id="Trazado_129216" data-name="Trazado 129216" d="M68.308,364.119a5.808,5.808,0,1,1,5.808-5.808A5.814,5.814,0,0,1,68.308,364.119Zm0-10.163a4.356,4.356,0,1,0,4.356,4.356A4.361,4.361,0,0,0,68.308,353.956Z" transform="translate(-57.418 -307.493)"/>
        <path id="Trazado_129217" data-name="Trazado 129217" d="M445.767,329.038a3.267,3.267,0,1,1,3.267-3.267A3.271,3.271,0,0,1,445.767,329.038Zm0-5.082a1.815,1.815,0,1,0,1.815,1.815A1.817,1.817,0,0,0,445.767,323.956Z" transform="translate(-382.246 -281.849)"/>
        <path id="Trazado_129218" data-name="Trazado 129218" d="M45.041,217.585a2.541,2.541,0,1,1,2.541-2.541A2.544,2.544,0,0,1,45.041,217.585Zm0-3.63a1.089,1.089,0,1,0,1.089,1.089A1.09,1.09,0,0,0,45.041,213.955Z" transform="translate(-40.322 -187.819)"/>
      </g>
    </g>
  </g>
</svg>
