<svg xmlns="http://www.w3.org/2000/svg" width="143" height="143" viewBox="0 0 143 143">
  <g id="Grupo_96621" data-name="Grupo 96621" transform="translate(5532 8358)">
    <circle id="Elipse_6672" data-name="Elipse 6672" cx="71.5" cy="71.5" r="71.5" transform="translate(-5532 -8358)" fill="#baa6f7"/>
    <g id="demografico" transform="translate(-5496.594 -8323)">
      <path id="Trazado_129162" data-name="Trazado 129162" d="M48.884,47.23l-5.953.011C39.473,47.857,37,49.5,37,51.449c0,2.473,4.006,4.476,8.952,4.476s8.952-2,8.952-4.476c0-1.958-2.518-3.626-6.02-4.219Z" transform="translate(4.213 5.382)" fill="#bfbfbd"/>
      <path id="Trazado_129163" data-name="Trazado 129163" d="M46.9,56.712c6.987-10.481,17.9-22.5,17.9-35.808A17.9,17.9,0,1,0,29,20.9C29,34.84,39.313,45.8,46.9,56.712Z" transform="translate(3.261 0.119)" fill="#eb4f53"/>
      <path id="Trazado_129164" data-name="Trazado 129164" d="M39.249,45.717c2.174,2.988,4.4,5.916,6.435,8.84C52.255,44.7,62.3,33.485,63.473,21.111A46.029,46.029,0,0,1,39.249,45.717Z" transform="translate(4.481 2.274)" fill="#d1464a"/>
      <circle id="Elipse_6673" data-name="Elipse 6673" cx="13.428" cy="13.428" r="13.428" transform="translate(7.571 36.689)" fill="#5eb2d0"/>
      <circle id="Elipse_6674" data-name="Elipse 6674" cx="8.952" cy="8.952" r="8.952" transform="translate(12.047 41.165)" fill="#d9d9d7"/>
      <path id="Trazado_129165" data-name="Trazado 129165" d="M0,0H4.476V8.952H0Z" transform="translate(5.534 59.24) rotate(-45)" fill="#529bb5"/>
      <path id="Trazado_129166" data-name="Trazado 129166" d="M6.957,54.571,3,58.528l3.165,3.165,3.947-3.966Z" transform="translate(0.167 6.256)" fill="#5eb2d0"/>
      <path id="Trazado_129167" data-name="Trazado 129167" d="M27.869,10.539,23.121,5.791,28.66,5Z" transform="translate(2.562 0.357)" fill="#5eb2d0"/>
      <circle id="Elipse_6675" data-name="Elipse 6675" cx="13.428" cy="13.428" r="13.428" transform="translate(36.737 7.595)" fill="#d9d9d7"/>
      <circle id="Elipse_6676" data-name="Elipse 6676" cx="2.238" cy="2.238" r="2.238" transform="translate(47.927 12.071)" fill="#5eb2d0"/>
      <path id="Trazado_129168" data-name="Trazado 129168" d="M46.476,15H44.238A2.245,2.245,0,0,0,42,17.238v4.476l1.119,1.119v5.6H47.6v-5.6l1.119-1.119V17.238A2.245,2.245,0,0,0,46.476,15Z" transform="translate(4.808 1.547)" fill="#5eb2d0"/>
      <path id="Trazado_129169" data-name="Trazado 129169" d="M48.384,15a3.32,3.32,0,0,0,.449-1.646,3.357,3.357,0,1,0-6.714,0A3.32,3.32,0,0,0,42.568,15,3.35,3.35,0,0,0,41,17.833v4.476a1.114,1.114,0,0,0,.328.791l.791.791v5.132a1.118,1.118,0,0,0,1.119,1.119h4.476a1.118,1.118,0,0,0,1.119-1.119V23.891l.791-.791a1.114,1.114,0,0,0,.328-.791V17.833A3.35,3.35,0,0,0,48.384,15Zm-2.908-2.765a1.119,1.119,0,1,1-1.119,1.119A1.119,1.119,0,0,1,45.476,12.238Zm2.238,9.608-.791.791a1.114,1.114,0,0,0-.328.791V27.9H44.357V23.428a1.114,1.114,0,0,0-.328-.791l-.791-.791V17.833a1.119,1.119,0,0,1,1.119-1.119H46.6a1.119,1.119,0,0,1,1.119,1.119Z" transform="translate(4.689 0.952)"/>
      <path id="Trazado_129170" data-name="Trazado 129170" d="M46.547,6A14.547,14.547,0,1,0,61.094,20.547,14.564,14.564,0,0,0,46.547,6Zm0,26.856A12.309,12.309,0,1,1,58.856,20.547,12.324,12.324,0,0,1,46.547,32.856Z" transform="translate(3.618 0.476)"/>
      <path id="Trazado_129171" data-name="Trazado 129171" d="M66.046,21.023a19.023,19.023,0,1,0-38.046,0c0,11.841,7.073,21.412,13.916,30.666l.181.246c-3.17.95-5.145,2.773-5.145,4.9,0,3.19,4.329,5.6,10.071,5.6s10.071-2.4,10.071-5.6c0-2.161-2.012-4-5.249-4.934.154-.215.3-.419.454-.636C58.743,42.3,66.046,32.133,66.046,21.023ZM54.856,56.831c0,1.585-3.349,3.357-7.833,3.357s-7.833-1.773-7.833-3.357c0-1.021,1.5-2.307,4.333-2.956.88,1.2,1.755,2.406,2.582,3.6a1.119,1.119,0,0,0,.919.48h.011a1.117,1.117,0,0,0,.92-.5c.784-1.176,1.624-2.375,2.488-3.591,2.861.632,4.414,1.956,4.414,2.97Zm-4.374-6.876c-1.216,1.693-2.38,3.312-3.477,4.908-1.076-1.51-2.2-3.026-3.289-4.5C37.089,41.4,30.238,32.128,30.238,21.023a16.785,16.785,0,1,1,33.57,0c0,10.389-7.08,20.241-13.326,28.932Z" transform="translate(3.142)"/>
      <path id="Trazado_129172" data-name="Trazado 129172" d="M20.95,32A14.544,14.544,0,0,0,7.5,52.084l-2.8,2.8a1.118,1.118,0,0,0,0,1.582l.791.791L2.328,60.422a1.118,1.118,0,0,0,0,1.582l3.165,3.165a1.116,1.116,0,0,0,.791.328h0a1.114,1.114,0,0,0,.792-.33L10.233,62l.8.8a1.118,1.118,0,0,0,1.582,0L15.406,60A14.55,14.55,0,1,0,20.95,32ZM6.281,62.794,4.7,61.214,7.075,58.84l1.574,1.574Zm5.541-2.372L7.075,55.675l1.5-1.5a14.114,14.114,0,0,0,4.746,4.75Zm17.831-5.171a12.308,12.308,0,1,1,3.605-8.7A12.226,12.226,0,0,1,29.654,55.251Z" transform="translate(0.048 3.57)"/>
      <path id="Trazado_129173" data-name="Trazado 129173" d="M12.884,38.949a10.071,10.071,0,1,0,14.242,0A10.084,10.084,0,0,0,12.884,38.949Zm12.66,12.66a7.83,7.83,0,1,1,0-11.078,7.842,7.842,0,0,1,0,11.078Z" transform="translate(0.993 4.047)"/>
      <path id="Trazado_129174" data-name="Trazado 129174" d="M15,44.476h2.238a2.24,2.24,0,0,1,2.238-2.238V40A4.481,4.481,0,0,0,15,44.476Z" transform="translate(1.595 4.522)"/>
      <path id="Trazado_129175" data-name="Trazado 129175" d="M12.011,11.987l6.2,4.134a1.122,1.122,0,0,0,1.292-.035l8.447-6.326,1.689,1.689a1.12,1.12,0,0,0,.791.328,1.1,1.1,0,0,0,.354-.058,1.119,1.119,0,0,0,.754-.9l.791-5.539a1.124,1.124,0,0,0-.317-.95,1.111,1.111,0,0,0-.95-.316L25.525,4.8a1.119,1.119,0,0,0-.633,1.9l1.46,1.46L18.8,13.819,12.74,9.783a1.12,1.12,0,0,0-1.075-.092L1.594,14.167,2.5,16.213ZM29.9,6.438l-.263,1.846L28.057,6.7Z" transform="translate(0 0.238)"/>
      <path id="Trazado_129176" data-name="Trazado 129176" d="M4.238,17.357v5.6H2V25.19H28.856V22.952H26.618V14H24.38v8.952H19.9v-5.6H17.666v5.6H13.19V14H10.952v8.952H6.476v-5.6Z" transform="translate(0.048 1.428)"/>
    </g>
  </g>
</svg>
