<svg xmlns="http://www.w3.org/2000/svg" width="121" height="121" viewBox="0 0 121 121">
  <g id="Grupo_96615" data-name="Grupo 96615" transform="translate(-180 -3920)">
    <rect id="Rectángulo_34163" data-name="Rectángulo 34163" width="121" height="121" transform="translate(180 3920)" fill="#26d19e"/>
    <g id="funcional" transform="translate(203 3943)">
      <g id="Grupo_95229" data-name="Grupo 95229" transform="translate(1.145 1.145)">
        <g id="Grupo_95206" data-name="Grupo 95206" transform="translate(55.54 11.452)">
          <path id="Trazado_123016" data-name="Trazado 123016" d="M53.52,44.026l-.412-.172a2.343,2.343,0,0,1-1.351-1.443A2.387,2.387,0,0,0,49.5,40.774h8.589V11h4.581V45.355H59.188l-.011.011a.557.557,0,0,0-.126-.16l-.813-.813a2.365,2.365,0,0,0-2.748-.435,2.313,2.313,0,0,1-1.065.252,2.243,2.243,0,0,1-.9-.183Z" transform="translate(-49.5 -11)" fill="#cf9e76"/>
        </g>
        <g id="Grupo_95207" data-name="Grupo 95207" transform="translate(0 11.452)">
          <path id="Trazado_123017" data-name="Trazado 123017" d="M35.355,40.774H55.4a2.387,2.387,0,0,0-2.256,1.638,2.343,2.343,0,0,1-1.351,1.443l-.412.172a2.326,2.326,0,0,1-1.97-.069,2.408,2.408,0,0,0-1.076-.263,2.369,2.369,0,0,0-1.672.7l-.813.813a.557.557,0,0,0-.126.16l-.011-.011H38.79V46.5a3.435,3.435,0,1,1-6.871,0V45.355H1V11H5.581V40.774Z" transform="translate(-1 -11)" fill="#cf9e76"/>
        </g>
        <g id="Grupo_95208" data-name="Grupo 95208" transform="translate(4.581)">
          <path id="Trazado_123018" data-name="Trazado 123018" d="M34.774,1H5V42.226H64.548V1Z" transform="translate(-5 -1)" fill="#e6e9ed"/>
        </g>
        <g id="Grupo_95209" data-name="Grupo 95209" transform="translate(9.161 4.581)">
          <circle id="Elipse_5725" data-name="Elipse 5725" cx="8" cy="8" r="8" transform="translate(-0.307 0.274)" fill="#ffeaa7"/>
        </g>
        <g id="Grupo_95210" data-name="Grupo 95210" transform="translate(12.803 16.032)">
          <path id="Trazado_123019" data-name="Trazado 123019" d="M16.555,15a4.579,4.579,0,0,1,4.375,3.275,7.982,7.982,0,0,1-8.749,0A4.58,4.58,0,0,1,16.555,15Z" transform="translate(-12.18 -15)" fill="#ff826e"/>
        </g>
        <g id="Grupo_95211" data-name="Grupo 95211" transform="translate(13.742 9.161)">
          <circle id="Elipse_5726" data-name="Elipse 5726" cx="3.5" cy="3.5" r="3.5" transform="translate(0.113 -0.307)" fill="#ff826e"/>
        </g>
        <g id="Grupo_95212" data-name="Grupo 95212" transform="translate(46.677 11.452)">
          <path id="Trazado_123020" data-name="Trazado 123020" d="M53.486,11a6.876,6.876,0,0,1-6.871,6.871,6.807,6.807,0,0,1-4.855-2.015L46.615,11Z" transform="translate(-41.76 -11)" fill="#fcd770"/>
        </g>
        <g id="Grupo_95213" data-name="Grupo 95213" transform="translate(44.661 4.581)">
          <path id="Trazado_123021" data-name="Trazado 123021" d="M46.871,5v6.871l-4.855,4.855A6.807,6.807,0,0,1,40,11.871,6.876,6.876,0,0,1,46.871,5Z" transform="translate(-40 -5)" fill="#ff826e"/>
        </g>
        <g id="Grupo_95214" data-name="Grupo 95214" transform="translate(51.532 4.581)">
          <path id="Trazado_123022" data-name="Trazado 123022" d="M52.871,11.871H46V5A6.876,6.876,0,0,1,52.871,11.871Z" transform="translate(-46 -5)" fill="#b4dd7f"/>
        </g>
        <g id="Grupo_95215" data-name="Grupo 95215" transform="translate(43.516 22.903)">
          <path id="Trazado_123023" data-name="Trazado 123023" d="M39,21H55.032v4.581H39Z" transform="translate(-39 -21)" fill="#ff826e"/>
        </g>
        <g id="Grupo_95216" data-name="Grupo 95216" transform="translate(29.774 32.065)">
          <path id="Trazado_123024" data-name="Trazado 123024" d="M36.161,30.145v2.29a1.149,1.149,0,0,1-1.145,1.145H28.145A1.149,1.149,0,0,1,27,32.435v-2.29A1.149,1.149,0,0,1,28.145,29h6.871A1.149,1.149,0,0,1,36.161,30.145Z" transform="translate(-27 -29)" fill="#fcd770"/>
        </g>
        <g id="Grupo_95217" data-name="Grupo 95217" transform="translate(29.774 22.903)">
          <path id="Trazado_123025" data-name="Trazado 123025" d="M36.161,22.145v2.29a1.149,1.149,0,0,1-1.145,1.145H28.145A1.149,1.149,0,0,1,27,24.435v-2.29A1.149,1.149,0,0,1,28.145,21h6.871A1.149,1.149,0,0,1,36.161,22.145Z" transform="translate(-27 -21)" fill="#fcd770"/>
        </g>
        <g id="Grupo_95218" data-name="Grupo 95218" transform="translate(29.774 13.742)">
          <path id="Trazado_123026" data-name="Trazado 123026" d="M36.161,14.145v2.29a1.149,1.149,0,0,1-1.145,1.145H28.145A1.149,1.149,0,0,1,27,16.435v-2.29A1.149,1.149,0,0,1,28.145,13h6.871A1.149,1.149,0,0,1,36.161,14.145Z" transform="translate(-27 -13)" fill="#fcd770"/>
        </g>
        <g id="Grupo_95219" data-name="Grupo 95219" transform="translate(29.774 4.581)">
          <path id="Trazado_123027" data-name="Trazado 123027" d="M36.161,6.145v2.29a1.149,1.149,0,0,1-1.145,1.145H28.145A1.149,1.149,0,0,1,27,8.435V6.145A1.149,1.149,0,0,1,28.145,5h6.871A1.149,1.149,0,0,1,36.161,6.145Z" transform="translate(-27 -5)" fill="#fcd770"/>
        </g>
        <g id="Grupo_95220" data-name="Grupo 95220" transform="translate(32.065 59.548)">
          <path id="Trazado_123028" data-name="Trazado 123028" d="M34.852,55.92a1.862,1.862,0,0,1,0,3.321L29,62.161V53Z" transform="translate(-29 -53)" fill="#ccd1d9"/>
        </g>
        <g id="Grupo_95221" data-name="Grupo 95221" transform="translate(0 59.548)">
          <path id="Trazado_123029" data-name="Trazado 123029" d="M10.161,57.581v4.581H3.29A2.3,2.3,0,0,1,1,59.871V55.29A2.3,2.3,0,0,1,3.29,53h6.871Z" transform="translate(-1 -53)" fill="#ccd1d9"/>
        </g>
        <g id="Grupo_95222" data-name="Grupo 95222" transform="translate(9.161 64.129)">
          <path id="Trazado_123030" data-name="Trazado 123030" d="M9,57H31.9v4.581H9Z" transform="translate(-9 -57)" fill="#ff826e"/>
        </g>
        <g id="Grupo_95223" data-name="Grupo 95223" transform="translate(9.161 59.548)">
          <path id="Trazado_123031" data-name="Trazado 123031" d="M9,53H31.9v4.581H9Z" transform="translate(-9 -53)" fill="#fcd770"/>
        </g>
        <g id="Grupo_95224" data-name="Grupo 95224" transform="translate(18.323 50.387)">
          <ellipse id="Elipse_5727" data-name="Elipse 5727" cx="2.5" cy="2" rx="2.5" ry="2" transform="translate(-0.468 0.468)" fill="#ff826e"/>
        </g>
        <g id="Grupo_95225" data-name="Grupo 95225" transform="translate(9.161 50.387)">
          <ellipse id="Elipse_5728" data-name="Elipse 5728" cx="2.5" cy="2" rx="2.5" ry="2" transform="translate(-0.307 0.468)" fill="#ff826e"/>
        </g>
        <g id="Grupo_95226" data-name="Grupo 95226" transform="translate(0 50.387)">
          <ellipse id="Elipse_5729" data-name="Elipse 5729" cx="2.5" cy="2" rx="2.5" ry="2" transform="translate(-0.145 0.468)" fill="#ff826e"/>
        </g>
        <g id="Grupo_95227" data-name="Grupo 95227" transform="translate(41.226 41.226)">
          <path id="Trazado_123032" data-name="Trazado 123032" d="M61.3,44.18a2.326,2.326,0,0,0-.069,1.97l.172.412a2.343,2.343,0,0,0,1.443,1.351,2.387,2.387,0,0,1,1.638,2.256v1.145a2.387,2.387,0,0,1-1.638,2.256A2.343,2.343,0,0,0,61.4,54.922l-.172.412a2.243,2.243,0,0,0-.183.9A2.313,2.313,0,0,0,61.3,57.3a2.365,2.365,0,0,1-.435,2.748l-.813.813a2.369,2.369,0,0,1-1.672.7A2.408,2.408,0,0,1,57.3,61.3a2.326,2.326,0,0,0-1.97-.069l-.412.172a2.343,2.343,0,0,0-1.351,1.443,2.387,2.387,0,0,1-2.256,1.638H50.169a2.387,2.387,0,0,1-2.256-1.638A2.343,2.343,0,0,0,46.562,61.4l-.412-.172a2.243,2.243,0,0,0-.9-.183,2.313,2.313,0,0,0-1.065.252,2.365,2.365,0,0,1-2.748-.435l-.813-.813a2.369,2.369,0,0,1-.7-1.672,2.408,2.408,0,0,1,.263-1.076,2.326,2.326,0,0,0,.069-1.97l-.172-.412a2.343,2.343,0,0,0-1.443-1.351A2.387,2.387,0,0,1,37,51.315V50.169a2.387,2.387,0,0,1,1.638-2.256,2.343,2.343,0,0,0,1.443-1.351l.172-.412a2.243,2.243,0,0,0,.183-.9,2.313,2.313,0,0,0-.252-1.065,2.328,2.328,0,0,1,.309-2.588.557.557,0,0,1,.126-.16l.813-.813a2.369,2.369,0,0,1,1.672-.7,2.408,2.408,0,0,1,1.076.263,2.326,2.326,0,0,0,1.97.069l.412-.172a2.343,2.343,0,0,0,1.351-1.443A2.387,2.387,0,0,1,50.169,37h1.145a2.387,2.387,0,0,1,2.256,1.638,2.343,2.343,0,0,0,1.351,1.443l.412.172a2.243,2.243,0,0,0,.9.183,2.313,2.313,0,0,0,1.065-.252,2.365,2.365,0,0,1,2.748.435l.813.813a.557.557,0,0,1,.126.16,2.263,2.263,0,0,1,.573,1.512A2.408,2.408,0,0,1,61.3,44.18Zm-3.687,6.562a6.871,6.871,0,1,0-6.871,6.871A6.876,6.876,0,0,0,57.613,50.742Z" transform="translate(-37 -37)" fill="#ffc729"/>
        </g>
        <g id="Grupo_95228" data-name="Grupo 95228" transform="translate(48.097 48.097)">
          <path id="Trazado_123033" data-name="Trazado 123033" d="M49.871,43A6.871,6.871,0,1,1,43,49.871,6.876,6.876,0,0,1,49.871,43Zm2.29,6.871a2.29,2.29,0,1,0-2.29,2.29A2.3,2.3,0,0,0,52.161,49.871Z" transform="translate(-43 -43)" fill="#fcd770"/>
        </g>
      </g>
      <g id="Grupo_95230" data-name="Grupo 95230">
        <path id="Trazado_123034" data-name="Trazado 123034" d="M71,11.452H66.419V0H4.581V11.452H0V48.1H30.919a4.581,4.581,0,1,0,9.161,0h4.1a3.511,3.511,0,0,0,.35,1.971,1.177,1.177,0,0,1,.044,1c-.064.148-.126.3-.184.447a1.172,1.172,0,0,1-.742.683,3.515,3.515,0,0,0-2.422,3.345v1.141a3.515,3.515,0,0,0,2.423,3.345,1.174,1.174,0,0,1,.74.68c.058.151.119.3.184.45a1.179,1.179,0,0,1-.044,1,3.513,3.513,0,0,0,.653,4.078l.806.807a3.514,3.514,0,0,0,4.078.653,1.169,1.169,0,0,1,1-.044c.148.064.3.126.447.184a1.172,1.172,0,0,1,.683.742A3.518,3.518,0,0,0,55.543,71h1.141a3.515,3.515,0,0,0,3.345-2.423,1.174,1.174,0,0,1,.68-.74c.151-.058.3-.119.45-.184a1.175,1.175,0,0,1,1,.044,3.514,3.514,0,0,0,4.078-.653l.807-.806a3.513,3.513,0,0,0,.653-4.078,1.178,1.178,0,0,1-.044-1c.064-.148.126-.3.184-.447a1.172,1.172,0,0,1,.742-.683A3.518,3.518,0,0,0,71,56.683V55.543A3.515,3.515,0,0,0,68.577,52.2a1.174,1.174,0,0,1-.74-.68c-.058-.151-.119-.3-.184-.45a1.179,1.179,0,0,1,.044-1,3.509,3.509,0,0,0,.35-1.971H71ZM56.683,41.226H36.645v-2.29h2.29a2.293,2.293,0,0,0,2.29-2.29v-2.29a2.293,2.293,0,0,0-2.29-2.29h-2.29v-2.29h2.29a2.293,2.293,0,0,0,2.29-2.29v-2.29a2.293,2.293,0,0,0-2.29-2.29h-2.29v-2.29h2.29a2.293,2.293,0,0,0,2.29-2.29v-2.29a2.293,2.293,0,0,0-2.29-2.29h-2.29v-2.29h2.29a2.293,2.293,0,0,0,2.29-2.29V6.871a2.293,2.293,0,0,0-2.29-2.29h-2.29V2.29H64.129V41.226ZM38.935,34.355v2.29H32.065v-2.29Zm0-9.161v2.29H32.065v-2.29Zm0-9.161v2.29H32.065v-2.29Zm0-9.161v2.29H32.065V6.871ZM6.871,2.29H34.355v2.29h-2.29a2.293,2.293,0,0,0-2.29,2.29v2.29a2.293,2.293,0,0,0,2.29,2.29h2.29v2.29h-2.29a2.293,2.293,0,0,0-2.29,2.29v2.29a2.293,2.293,0,0,0,2.29,2.29h2.29V22.9h-2.29a2.293,2.293,0,0,0-2.29,2.29v2.29a2.293,2.293,0,0,0,2.29,2.29h2.29v2.29h-2.29a2.293,2.293,0,0,0-2.29,2.29v2.29a2.293,2.293,0,0,0,2.29,2.29h2.29v2.29H6.871ZM37.79,45.806V48.1a2.29,2.29,0,1,1-4.581,0v-2.29H2.29V13.742h2.29V43.516H52.253c-.017.046-.04.087-.056.133a1.171,1.171,0,0,1-.683.74c-.15.058-.3.119-.448.184a1.175,1.175,0,0,1-1-.044,3.513,3.513,0,0,0-4.078.653l-.623.624Zm30.073,8.567a1.228,1.228,0,0,1,.846,1.169v1.141a1.229,1.229,0,0,1-.847,1.169,3.454,3.454,0,0,0-2.16,2.029c-.048.123-.1.245-.15.364a3.458,3.458,0,0,0,.1,2.945,1.227,1.227,0,0,1-.228,1.425l-.807.807a1.227,1.227,0,0,1-1.425.228,3.455,3.455,0,0,0-2.944-.1q-.18.077-.368.151a3.458,3.458,0,0,0-2.028,2.161,1.228,1.228,0,0,1-1.169.846H55.543a1.229,1.229,0,0,1-1.169-.847,3.454,3.454,0,0,0-2.029-2.16c-.123-.048-.245-.1-.364-.15a3.389,3.389,0,0,0-1.358-.283,3.528,3.528,0,0,0-1.587.381,1.228,1.228,0,0,1-1.425-.228l-.807-.807a1.227,1.227,0,0,1-.228-1.425,3.455,3.455,0,0,0,.1-2.944q-.077-.18-.151-.368a3.458,3.458,0,0,0-2.161-2.028,1.226,1.226,0,0,1-.846-1.168V55.543a1.229,1.229,0,0,1,.846-1.169,3.453,3.453,0,0,0,2.161-2.029c.048-.123.1-.245.15-.364a3.458,3.458,0,0,0-.1-2.945,1.229,1.229,0,0,1,.228-1.426l.806-.806a1.223,1.223,0,0,1,1.426-.228,3.455,3.455,0,0,0,2.944.1c.121-.053.244-.1.366-.15a3.465,3.465,0,0,0,2.029-2.161,1.228,1.228,0,0,1,1.169-.847h1.141a1.229,1.229,0,0,1,1.169.847,3.458,3.458,0,0,0,2.028,2.16c.123.048.245.1.365.15a3.462,3.462,0,0,0,2.945-.1,1.227,1.227,0,0,1,1.426.228l.806.806a1.229,1.229,0,0,1,.228,1.426,3.455,3.455,0,0,0-.1,2.944q.077.18.151.368a3.455,3.455,0,0,0,2.161,2.028Zm.846-8.567H66.86l-.623-.623a3.513,3.513,0,0,0-4.078-.653,1.173,1.173,0,0,1-1,.044c-.147-.064-.3-.125-.447-.184a1.175,1.175,0,0,1-.683-.742c-.015-.046-.038-.086-.055-.131h6.445V13.742h2.29Z"/>
        <path id="Trazado_123035" data-name="Trazado 123035" d="M17.161,4a9.161,9.161,0,1,0,9.161,9.161A9.172,9.172,0,0,0,17.161,4Zm-2.9,15.383a3.38,3.38,0,0,1,5.8,0,6.794,6.794,0,0,1-5.8,0Zm.608-6.222a2.29,2.29,0,1,1,2.29,2.29A2.293,2.293,0,0,1,14.871,13.161Zm7.075,4.922a5.645,5.645,0,0,0-1.6-1.643,4.581,4.581,0,1,0-6.376,0,5.66,5.66,0,0,0-1.6,1.643,6.871,6.871,0,1,1,9.569,0Z" transform="translate(1.161 0.581)"/>
        <path id="Trazado_123036" data-name="Trazado 123036" d="M8,24h2.29v2.29H8Z" transform="translate(1.161 3.484)"/>
        <path id="Trazado_123037" data-name="Trazado 123037" d="M8,28h2.29v2.29H8Z" transform="translate(1.161 4.065)"/>
        <path id="Trazado_123038" data-name="Trazado 123038" d="M8,32h2.29v2.29H8Z" transform="translate(1.161 4.645)"/>
        <path id="Trazado_123039" data-name="Trazado 123039" d="M12,24H25.742v2.29H12Z" transform="translate(1.742 3.484)"/>
        <path id="Trazado_123040" data-name="Trazado 123040" d="M12,28H25.742v2.29H12Z" transform="translate(1.742 4.065)"/>
        <path id="Trazado_123041" data-name="Trazado 123041" d="M12,32H25.742v2.29H12Z" transform="translate(1.742 4.645)"/>
        <path id="Trazado_123042" data-name="Trazado 123042" d="M47.016,20.032A8.016,8.016,0,1,0,39,12.016,8.025,8.025,0,0,0,47.016,20.032Zm0-2.29a5.69,5.69,0,0,1-3.153-.954l3.627-3.627h5.136A5.737,5.737,0,0,1,47.016,17.742Zm5.61-6.871H48.161V6.406A5.744,5.744,0,0,1,52.626,10.871ZM45.871,6.406v5.136l-3.627,3.627a5.715,5.715,0,0,1,3.627-8.763Z" transform="translate(5.661 0.581)"/>
        <path id="Trazado_123043" data-name="Trazado 123043" d="M38,26.871H56.323V20H38Zm2.29-4.581H54.032v2.29H40.29Z" transform="translate(5.516 2.903)"/>
        <path id="Trazado_123044" data-name="Trazado 123044" d="M38,28H56.323v2.29H38Z" transform="translate(5.516 4.065)"/>
        <path id="Trazado_123045" data-name="Trazado 123045" d="M38,32H56.323v2.29H38Z" transform="translate(5.516 4.645)"/>
        <path id="Trazado_123046" data-name="Trazado 123046" d="M50.016,42a8.016,8.016,0,1,0,8.016,8.016A8.025,8.025,0,0,0,50.016,42Zm0,13.742a5.726,5.726,0,1,1,5.726-5.726A5.732,5.732,0,0,1,50.016,55.742Z" transform="translate(6.097 6.097)"/>
        <path id="Trazado_123047" data-name="Trazado 123047" d="M49.435,46a3.435,3.435,0,1,0,3.435,3.435A3.44,3.44,0,0,0,49.435,46Zm0,4.581a1.145,1.145,0,1,1,1.145-1.145A1.147,1.147,0,0,1,49.435,50.581Z" transform="translate(6.677 6.677)"/>
        <path id="Trazado_123048" data-name="Trazado 123048" d="M39.569,55.044,33.48,52H3.435A3.44,3.44,0,0,0,0,55.435v4.581a3.44,3.44,0,0,0,3.435,3.435H33.48l6.088-3.044a3,3,0,0,0,0-5.364ZM11.452,54.29H32.065v2.29H11.452Zm0,4.581H32.065v2.29H11.452ZM2.29,60.016V55.435A1.147,1.147,0,0,1,3.435,54.29H9.161v6.871H3.435A1.147,1.147,0,0,1,2.29,60.016Zm36.254-1.657-4.189,2.094V55l4.19,2.094a.708.708,0,0,1,0,1.267Z" transform="translate(0 7.548)"/>
        <path id="Trazado_123049" data-name="Trazado 123049" d="M3.435,50.871A3.435,3.435,0,1,0,0,47.435,3.44,3.44,0,0,0,3.435,50.871Zm0-4.581A1.145,1.145,0,1,1,2.29,47.435,1.147,1.147,0,0,1,3.435,46.29Z" transform="translate(0 6.387)"/>
        <path id="Trazado_123050" data-name="Trazado 123050" d="M14.871,47.435a3.435,3.435,0,1,0-3.435,3.435A3.44,3.44,0,0,0,14.871,47.435Zm-4.581,0a1.145,1.145,0,1,1,1.145,1.145A1.147,1.147,0,0,1,10.29,47.435Z" transform="translate(1.161 6.387)"/>
        <path id="Trazado_123051" data-name="Trazado 123051" d="M22.871,47.435a3.435,3.435,0,1,0-3.435,3.435A3.44,3.44,0,0,0,22.871,47.435Zm-4.581,0a1.145,1.145,0,1,1,1.145,1.145A1.147,1.147,0,0,1,18.29,47.435Z" transform="translate(2.323 6.387)"/>
      </g>
    </g>
  </g>
</svg>
