<svg xmlns="http://www.w3.org/2000/svg" width="121" height="121" viewBox="0 0 121 121">
  <g id="Grupo_96614" data-name="Grupo 96614" transform="translate(-600 -3920)">
    <rect id="Rectángulo_34160" data-name="Rectángulo 34160" width="121" height="121" transform="translate(600 3920)" fill="#26d19e"/>
    <g id="posicion" transform="translate(622 3938.47)">
      <circle id="Elipse_5722" data-name="Elipse 5722" cx="37.023" cy="37.023" r="37.023" transform="translate(2.343 7.612)" fill="#6bc13b"/>
      <path id="Trazado_123006" data-name="Trazado 123006" d="M59.42,65.209a37.035,37.035,0,0,0-20.04-58.3h0L30,16.286V26.864l7.934,10.578,10.578,3.967V48.02l-5.289,9.256,7.934,7.934Z" transform="translate(9.366 1.904)" fill="#3b5892"/>
      <circle id="Elipse_5723" data-name="Elipse 5723" cx="15.867" cy="15.867" r="15.867" transform="translate(49.944 7.612)" fill="#f0ae42"/>
      <path id="Trazado_123007" data-name="Trazado 123007" d="M39.314,67.454q-.661.024-1.322.024A37.023,37.023,0,0,1,5.2,47.644H15.514L23.447,45l7.934,2.645v7.934l7.934,2.645Z" transform="translate(1.374 14.18)" fill="#3b5892"/>
      <path id="Trazado_123008" data-name="Trazado 123008" d="M2.265,36.294A37.014,37.014,0,0,1,17.8,11.01h0L29.682,21.575v11.9l5.289,7.934V48.02H16.459l-3.967-9.256H7.2Z" transform="translate(0.428 3.227)" fill="#3b5892"/>
      <path id="Trazado_123009" data-name="Trazado 123009" d="M33.322,34h5.289v7.934L32,44.578V39.289Z" transform="translate(10.01 10.635)" fill="#3b5892"/>
      <path id="Trazado_123010" data-name="Trazado 123010" d="M52.9,32.8A11.9,11.9,0,1,1,64.8,20.9,11.9,11.9,0,0,1,52.9,32.8Zm0-21.156A9.256,9.256,0,1,0,62.156,20.9,9.256,9.256,0,0,0,52.9,11.645Z" transform="translate(12.91 2.579)" fill="#fce797"/>
      <path id="Trazado_123011" data-name="Trazado 123011" d="M51.611,26.223a6.611,6.611,0,1,1,6.611-6.611,6.611,6.611,0,0,1-6.611,6.611Zm0-10.578a3.967,3.967,0,1,0,3.967,3.967A3.967,3.967,0,0,0,51.611,15.645Z" transform="translate(14.199 3.868)" fill="#fce797"/>
      <path id="Trazado_123012" data-name="Trazado 123012" d="M59.867,9.934h0A7.934,7.934,0,0,0,51.934,2h0A7.934,7.934,0,0,0,44,9.934h0a10.729,10.729,0,0,0,2.58,6.978l5.354,6.245,5.352-6.244a10.73,10.73,0,0,0,2.581-6.979Z" transform="translate(13.877 0.323)" fill="#b52f28"/>
      <path id="Trazado_123013" data-name="Trazado 123013" d="M50.645,10.289a2.645,2.645,0,1,1,2.645-2.645A2.645,2.645,0,0,1,50.645,10.289Zm0-2.645Z" transform="translate(15.166 1.29)" fill="#fff"/>
      <path id="Trazado_123014" data-name="Trazado 123014" d="M38.934,33H33.645a1.322,1.322,0,0,0-1.283,1L31.04,39.291a1.3,1.3,0,0,0-.04.32V44.9a1.323,1.323,0,0,0,1.813,1.228l6.611-2.644a1.322,1.322,0,0,0,.832-1.228V34.322A1.322,1.322,0,0,0,38.934,33Zm-1.322,8.361-3.967,1.587V39.774l1.033-4.129h2.934Z" transform="translate(9.688 10.313)"/>
      <path id="Trazado_123015" data-name="Trazado 123015" d="M83,23.479A17.243,17.243,0,0,0,74.961,8.935a9.243,9.243,0,0,0-18.3,0c-.435.274-.861.561-1.265.87A37.974,37.974,0,0,0,39.366,6.29,38.386,38.386,0,1,0,76.858,36.629,17.155,17.155,0,0,0,83,23.479Zm-2.645,0A14.545,14.545,0,1,1,56.714,12.154a12.042,12.042,0,0,0,.809,2.8,11.9,11.9,0,1,0,16.576,0,12.042,12.042,0,0,0,.809-2.8,14.586,14.586,0,0,1,5.448,11.325ZM69.233,21.517a3.967,3.967,0,1,1-6.844,0l2.418,2.822a1.322,1.322,0,0,0,2.007,0Zm-3.422,8.573a6.611,6.611,0,0,0,5.216-10.667l1.14-1.322c.2-.237.39-.483.573-.733a9.256,9.256,0,1,1-13.857,0c.182.25.37.5.573.733l1.14,1.322a6.611,6.611,0,0,0,5.216,10.667Zm0-26.445a6.619,6.619,0,0,1,6.611,6.611,9.4,9.4,0,0,1-2.262,6.118l-4.349,5.073-4.349-5.072A9.4,9.4,0,0,1,59.2,10.257a6.619,6.619,0,0,1,6.611-6.611ZM18.552,15.657,28.788,25.37V36.7a1.33,1.33,0,0,0,.222.734l5.067,7.6v4.892H17.759L14.136,41.47a1.322,1.322,0,0,0-1.215-.8H7.944l-3.79-1.895a35.742,35.742,0,0,1,14.4-23.117Zm-9.7,47.49h8.038a1.322,1.322,0,0,0,.418-.069l7.516-2.5,6.611,2.2v6.98a1.322,1.322,0,0,0,.9,1.253l7.029,2.344v6.98A35.714,35.714,0,0,1,8.85,63.147ZM42.01,80.228V72.4a1.322,1.322,0,0,0-.9-1.254L34.077,68.8v-6.98a1.322,1.322,0,0,0-.9-1.253l-7.934-2.645a1.31,1.31,0,0,0-.836,0L16.673,60.5H7.4A35.473,35.473,0,0,1,3.665,44.635c0-1.038.054-2.063.141-3.078l3.234,1.624a1.322,1.322,0,0,0,.591.132h4.418l3.623,8.454a1.322,1.322,0,0,0,1.215.8H35.4a1.322,1.322,0,0,0,1.322-1.322V44.635A1.33,1.33,0,0,0,36.5,43.9l-5.067-7.6V24.8a1.322,1.322,0,0,0-.413-.96L20.807,14.149A35.484,35.484,0,0,1,39.366,8.935a35.878,35.878,0,0,1,6.743.644l-7.677,7.677a1.322,1.322,0,0,0-.389.935V28.768a1.322,1.322,0,0,0,.264.793L46.241,40.14a1.335,1.335,0,0,0,.592.446l9.721,3.644v5.343l-5.114,8.946a1.322,1.322,0,0,0,.213,1.587l7.934,7.934a1.322,1.322,0,0,0,.935.4h5.421A35.632,35.632,0,0,1,42.01,80.228ZM75.066,44.635A35.506,35.506,0,0,1,68.1,65.791H61.069l-6.832-6.832,4.788-8.374a1.322,1.322,0,0,0,.175-.661V43.313a1.322,1.322,0,0,0-.857-1.239L48.126,38.24l-7.438-9.912v-9.59l8.449-8.449a35.65,35.65,0,0,1,4.132,1.454A17.165,17.165,0,0,0,74.5,38.289a36.016,36.016,0,0,1,.567,6.347Z" transform="translate(0 0)"/>
      <circle id="Elipse_5724" data-name="Elipse 5724" cx="2.645" cy="2.645" r="2.645" transform="translate(63.166 6.29)"/>
    </g>
  </g>
</svg>
