<svg xmlns="http://www.w3.org/2000/svg" width="121" height="121" viewBox="0 0 121 121">
  <g id="Grupo_96613" data-name="Grupo 96613" transform="translate(-1020 -3920)">
    <rect id="Rectángulo_34162" data-name="Rectángulo 34162" width="121" height="121" transform="translate(1020 3920)" fill="#26d19e"/>
    <g id="moneda-digital" transform="translate(1042.235 3945.074)">
      <g id="Grupo_95205" data-name="Grupo 95205" transform="translate(2.201 3.313)">
        <circle id="Elipse_5712" data-name="Elipse 5712" cx="2.323" cy="2.323" r="2.323" fill="#6d8299"/>
        <circle id="Elipse_5713" data-name="Elipse 5713" cx="2.323" cy="2.323" r="2.323" transform="translate(2.323 9.29)" fill="#6d8299"/>
        <circle id="Elipse_5714" data-name="Elipse 5714" cx="2.323" cy="2.323" r="2.323" transform="translate(0 18.58)" fill="#6d8299"/>
        <circle id="Elipse_5715" data-name="Elipse 5715" cx="2.323" cy="2.323" r="2.323" transform="translate(65.031 18.58)" fill="#6d8299"/>
        <circle id="Elipse_5716" data-name="Elipse 5716" cx="2.323" cy="2.323" r="2.323" transform="translate(62.708 9.29)" fill="#6d8299"/>
        <circle id="Elipse_5717" data-name="Elipse 5717" cx="2.323" cy="2.323" r="2.323" transform="translate(65.031)" fill="#6d8299"/>
      </g>
      <circle id="Elipse_5718" data-name="Elipse 5718" cx="12.774" cy="12.774" r="12.774" transform="translate(24.265 2.152)" fill="#ffe38f"/>
      <path id="Trazado_122982" data-name="Trazado 122982" d="M51.129,46.333C46.639,46.333,43,48.066,43,50.2V60.655c0,2.138,3.639,3.871,8.129,3.871s8.129-1.733,8.129-3.871V50.2C59.258,48.066,55.618,46.333,51.129,46.333Z" transform="translate(6.813 7.301)" fill="#ffe38f"/>
      <path id="Trazado_122983" data-name="Trazado 122983" d="M51.129,58.093C46.639,58.093,43,56.36,43,54.222v5.161c0,2.138,3.639,3.871,8.129,3.871s8.129-1.733,8.129-3.871V54.222C59.258,56.36,55.618,58.093,51.129,58.093Z" transform="translate(6.813 8.573)" fill="#ccb473"/>
      <path id="Trazado_122984" data-name="Trazado 122984" d="M33.129,37C28.639,37,25,38.725,25,40.853V61.017c0,2.128,3.639,3.853,8.129,3.853s8.129-1.725,8.129-3.853V40.853c0-2.128-3.639-3.853-8.129-3.853Z" transform="translate(3.91 5.796)" fill="#ffe38f"/>
      <ellipse id="Elipse_5719" data-name="Elipse 5719" cx="8.129" cy="3.87" rx="8.129" ry="3.87" transform="translate(28.91 42.796)" fill="#e6cd81"/>
      <ellipse id="Elipse_5720" data-name="Elipse 5720" cx="8.129" cy="3.87" rx="8.129" ry="3.87" transform="translate(49.813 53.635)" fill="#e6cd81"/>
      <path id="Trazado_122985" data-name="Trazado 122985" d="M33.129,57.2C28.639,57.2,25,55.471,25,53.333v5.05c0,2.128,3.639,3.853,8.129,3.853s8.129-1.725,8.129-3.853v-5.05C41.258,55.471,37.618,57.2,33.129,57.2Z" transform="translate(3.91 8.43)" fill="#ccb473"/>
      <path id="Trazado_122986" data-name="Trazado 122986" d="M33.129,48.649c-4.489,0-8.129-1.733-8.129-3.871V49.81c0,2.138,3.639,3.871,8.129,3.871s8.129-1.733,8.129-3.871V44.778C41.258,46.916,37.618,48.649,33.129,48.649Z" transform="translate(3.91 7.05)" fill="#ccb473"/>
      <path id="Trazado_122987" data-name="Trazado 122987" d="M15.129,46.333C10.639,46.333,7,48.066,7,50.2V60.655c0,2.138,3.639,3.871,8.129,3.871s8.129-1.733,8.129-3.871V50.2C23.258,48.066,19.618,46.333,15.129,46.333Z" transform="translate(1.008 7.301)" fill="#ffe38f"/>
      <path id="Trazado_122988" data-name="Trazado 122988" d="M15.129,58.093C10.639,58.093,7,56.36,7,54.222v5.161c0,2.138,3.639,3.871,8.129,3.871s8.129-1.733,8.129-3.871V54.222C23.258,56.36,19.618,58.093,15.129,58.093Z" transform="translate(1.008 8.573)" fill="#ccb473"/>
      <ellipse id="Elipse_5721" data-name="Elipse 5721" cx="8.129" cy="3.87" rx="8.129" ry="3.87" transform="translate(8.008 53.635)" fill="#e6cd81"/>
      <path id="Trazado_122989" data-name="Trazado 122989" d="M5.765,50.311V60.763c0,2.869,3.994,5.032,9.29,5.032s9.29-2.163,9.29-5.032V50.311c0-2.869-3.994-5.032-9.29-5.032s-9.29,2.163-9.29,5.032ZM22.022,60.763c0,1.1-2.714,2.709-6.968,2.709s-6.968-1.6-6.968-2.709V58.992a13.719,13.719,0,0,0,6.968,1.641,13.719,13.719,0,0,0,6.968-1.641Zm0-5.161c0,1.1-2.714,2.709-6.968,2.709s-6.968-1.6-6.968-2.709V53.7a13.719,13.719,0,0,0,6.968,1.641A13.719,13.719,0,0,0,22.022,53.7Zm0-5.29c0,1.1-2.714,2.709-6.968,2.709s-6.968-1.6-6.968-2.709S10.8,47.6,15.055,47.6,22.022,49.207,22.022,50.311Z" transform="translate(0.808 7.131)"/>
      <path id="Trazado_122990" data-name="Trazado 122990" d="M41.765,50.311V60.763c0,2.869,3.994,5.032,9.29,5.032s9.29-2.163,9.29-5.032V50.311c0-2.869-3.994-5.032-9.29-5.032S41.765,47.442,41.765,50.311Zm9.29-2.709c4.254,0,6.968,1.6,6.968,2.709s-2.714,2.709-6.968,2.709-6.968-1.6-6.968-2.709S46.8,47.6,51.055,47.6Zm-6.968,6.1a13.719,13.719,0,0,0,6.968,1.641A13.719,13.719,0,0,0,58.022,53.7v1.9c0,1.1-2.714,2.709-6.968,2.709s-6.968-1.6-6.968-2.709Zm0,5.29a13.719,13.719,0,0,0,6.968,1.641,13.719,13.719,0,0,0,6.968-1.641v1.771c0,1.1-2.714,2.709-6.968,2.709s-6.968-1.6-6.968-2.709Z" transform="translate(6.614 7.131)"/>
      <path id="Trazado_122991" data-name="Trazado 122991" d="M23.875,40.208h-.11V61.236c0,2.868,3.994,5.032,9.29,5.032s9.29-2.164,9.29-5.032V40.208h-.11c-.647-2.476-4.371-4.262-9.18-4.262s-8.532,1.786-9.18,4.262Zm9.18-1.939c4.254,0,6.968,1.606,6.968,2.71s-2.714,2.709-6.968,2.709-6.968-1.6-6.968-2.709S28.8,38.268,33.055,38.268Zm-6.968,6.1a13.719,13.719,0,0,0,6.968,1.641,13.719,13.719,0,0,0,6.968-1.641V46.14c0,1.1-2.714,2.709-6.968,2.709s-6.968-1.6-6.968-2.709Zm0,5.161a13.719,13.719,0,0,0,6.968,1.641,13.719,13.719,0,0,0,6.968-1.641v1.641c0,1.1-2.714,2.709-6.968,2.709s-6.968-1.6-6.968-2.709Zm0,5.032A13.719,13.719,0,0,0,33.055,56.2a13.719,13.719,0,0,0,6.968-1.641v1.513c0,1.1-2.714,2.709-6.968,2.709s-6.968-1.6-6.968-2.709Zm0,4.9a13.719,13.719,0,0,0,6.968,1.641,13.719,13.719,0,0,0,6.968-1.641v1.771c0,1.1-2.714,2.709-6.968,2.709s-6.968-1.6-6.968-2.709Z" transform="translate(3.711 5.626)"/>
      <path id="Trazado_122992" data-name="Trazado 122992" d="M33.7,1.057A13.935,13.935,0,1,0,47.635,14.992,13.935,13.935,0,0,0,33.7,1.057Zm0,25.548A11.613,11.613,0,1,1,45.312,14.992,11.613,11.613,0,0,1,33.7,26.6Z" transform="translate(3.066)"/>
      <path id="Trazado_122993" data-name="Trazado 122993" d="M6.251,10.057A3.484,3.484,0,1,0,9.52,14.7h9.5V12.38H9.52a3.478,3.478,0,0,0-3.27-2.323Zm0,4.645a1.161,1.161,0,1,1,1.161-1.161A1.161,1.161,0,0,1,6.251,14.7Z" transform="translate(0.322 1.451)"/>
      <path id="Trazado_122994" data-name="Trazado 122994" d="M11.023,4.9a1.162,1.162,0,0,0-.966-.517H7.52a3.484,3.484,0,1,0,0,2.323H9.435l1.978,2.967a1.162,1.162,0,0,0,.966.517h3.484V7.863H13ZM4.251,6.7A1.161,1.161,0,1,1,5.412,5.541,1.161,1.161,0,0,1,4.251,6.7Z" transform="translate(0 0.161)"/>
      <path id="Trazado_122995" data-name="Trazado 122995" d="M4.248,25.186a3.478,3.478,0,0,0,3.27-2.323h2.537a1.161,1.161,0,0,0,.966-.517L13,19.38h2.862V17.057H12.377a1.161,1.161,0,0,0-.966.517L9.433,20.541H7.518a3.478,3.478,0,1,0-3.27,4.645Zm0-4.645A1.161,1.161,0,1,1,3.087,21.7a1.161,1.161,0,0,1,1.161-1.161Z" transform="translate(0.002 2.58)"/>
      <path id="Trazado_122996" data-name="Trazado 122996" d="M61.377,18.218a3.478,3.478,0,0,0-3.27,2.323H56.192l-1.978-2.967a1.162,1.162,0,0,0-.966-.517H49.765V19.38h2.862L54.6,22.346a1.162,1.162,0,0,0,.966.517h2.537a3.478,3.478,0,1,0,3.27-4.645Zm0,4.645A1.161,1.161,0,1,1,62.539,21.7,1.161,1.161,0,0,1,61.377,22.863Z" transform="translate(7.904 2.58)"/>
      <path id="Trazado_122997" data-name="Trazado 122997" d="M46.765,14.7h9.5a3.484,3.484,0,1,0,0-2.323h-9.5ZM59.539,12.38a1.161,1.161,0,1,1-1.161,1.161A1.161,1.161,0,0,1,59.539,12.38Z" transform="translate(7.42 1.451)"/>
      <path id="Trazado_122998" data-name="Trazado 122998" d="M61.377,2.057a3.478,3.478,0,0,0-3.27,2.323H55.571A1.161,1.161,0,0,0,54.6,4.9L52.627,7.863H49.765v2.323h3.484a1.161,1.161,0,0,0,.966-.517L56.192,6.7h1.915a3.478,3.478,0,1,0,3.27-4.645Zm0,4.645a1.161,1.161,0,1,1,1.161-1.161A1.161,1.161,0,0,1,61.377,6.7Z" transform="translate(7.904 0.161)"/>
      <path id="Trazado_122999" data-name="Trazado 122999" d="M14.765,7.057h2.323V9.38H14.765Z" transform="translate(2.26 0.968)"/>
      <path id="Trazado_123000" data-name="Trazado 123000" d="M14.765,17.057h2.323V19.38H14.765Z" transform="translate(2.26 2.58)"/>
      <path id="Trazado_123001" data-name="Trazado 123001" d="M46.765,17.057h2.323V19.38H46.765Z" transform="translate(7.42 2.58)"/>
      <path id="Trazado_123002" data-name="Trazado 123002" d="M46.765,7.057h2.323V9.38H46.765Z" transform="translate(7.42 0.968)"/>
      <path id="Trazado_123003" data-name="Trazado 123003" d="M30.765,27.057h2.323V29.38H30.765Z" transform="translate(4.84 4.193)"/>
      <path id="Trazado_123004" data-name="Trazado 123004" d="M30.765,31.057h2.323V33.38H30.765Z" transform="translate(4.84 4.838)"/>
      <path id="Trazado_123005" data-name="Trazado 123005" d="M33.568,7.438l-.005-2.383-2.323,0,.005,2.379a4.055,4.055,0,0,0,.583,8.07H32.99a1.742,1.742,0,1,1,0,3.484H31.829a1.744,1.744,0,0,1-1.742-1.742V16.67H27.765v.581a4.059,4.059,0,0,0,3.478,4.005l.005,2.384,2.323,0-.005-2.378a4.055,4.055,0,0,0-.575-8.071H31.829a1.742,1.742,0,0,1,0-3.484H32.99a1.744,1.744,0,0,1,1.742,1.742v.581h2.323v-.581a4.058,4.058,0,0,0-3.486-4.006Z" transform="translate(4.356 0.645)"/>
    </g>
  </g>
</svg>
