<svg xmlns="http://www.w3.org/2000/svg" width="133.667" height="133.667" viewBox="0 0 133.667 133.667">
  <g id="filled_outline" data-name="filled outline" transform="translate(-16 -16)">
    <path id="Trazado_128917" data-name="Trazado 128917" d="M227.644,70.683H192L194.228,64h31.189Z" transform="translate(-126.989 -34.634)" fill="#cbcbcb"/>
    <rect id="Rectángulo_35529" data-name="Rectángulo 35529" width="129" height="84" rx="16" transform="translate(18 36.666)" fill="#27c5a7"/>
    <path id="Trazado_128918" data-name="Trazado 128918" d="M88.605,240H24v37.872a4.456,4.456,0,0,0,4.456,4.456h60.15Z" transform="translate(-5.772 -161.623)" fill="#6ee7f5"/>
    <path id="Trazado_128919" data-name="Trazado 128919" d="M256,240h64.605v37.872a4.456,4.456,0,0,1-4.456,4.456H256Z" transform="translate(-173.167 -161.623)" fill="#fbb540"/>
    <path id="Trazado_128920" data-name="Trazado 128920" d="M256,130.328h64.605V92.456A4.456,4.456,0,0,0,316.15,88H256Z" transform="translate(-173.167 -51.95)" fill="#43dcfe"/>
    <path id="Trazado_128921" data-name="Trazado 128921" d="M96.911,192l-5.525,2.762A6.126,6.126,0,0,0,88,200.243v5.124h26.733v-5.124a6.126,6.126,0,0,0-3.387-5.48L105.822,192Z" transform="translate(-51.95 -126.989)" fill="#02a437"/>
    <path id="Trazado_128922" data-name="Trazado 128922" d="M96.911,344l-5.525,2.762A6.126,6.126,0,0,0,88,352.243v5.124h26.733v-5.124a6.126,6.126,0,0,0-3.387-5.48L105.822,344Z" transform="translate(-51.95 -236.662)" fill="#0bafea"/>
    <path id="Trazado_128923" data-name="Trazado 128923" d="M328.911,192l-5.525,2.762A6.126,6.126,0,0,0,320,200.243v5.124h26.733v-5.124a6.126,6.126,0,0,0-3.387-5.48L337.822,192Z" transform="translate(-219.345 -126.989)" fill="#e82f3e"/>
    <path id="Trazado_128924" data-name="Trazado 128924" d="M328.911,344l-5.525,2.762A6.126,6.126,0,0,0,320,352.243v5.124h26.733v-5.124a6.126,6.126,0,0,0-3.387-5.48L337.822,344Z" transform="translate(-219.345 -236.662)" fill="#dc651e"/>
    <path id="Trazado_128925" data-name="Trazado 128925" d="M163.9,456h45.669a3.9,3.9,0,0,1,3.9,3.9v5.013H160V459.9A3.9,3.9,0,0,1,163.9,456Z" transform="translate(-103.9 -317.473)" fill="#eaeae8"/>
    <path id="Trazado_128926" data-name="Trazado 128926" d="M221.872,392H210.353a6.683,6.683,0,1,1-12.606,0H186.228L184,409.822h40.1Z" transform="translate(-121.217 -271.295)" fill="#cbcbcb"/>
    <rect id="Rectángulo_35530" data-name="Rectángulo 35530" width="14" height="17" rx="7" transform="translate(43 49.666)" fill="#fdc9a6"/>
    <path id="Trazado_128927" data-name="Trazado 128927" d="M112,144.911l4.456-2.228,8.911,2.228v-2.228A6.683,6.683,0,0,0,118.683,136h0A6.683,6.683,0,0,0,112,142.683Z" transform="translate(-69.267 -86.584)" fill="#ea9d2d"/>
    <rect id="Rectángulo_35531" data-name="Rectángulo 35531" width="14" height="18" rx="7" transform="translate(43 91.666)" fill="#fdc9a6"/>
    <path id="Trazado_128928" data-name="Trazado 128928" d="M112,296.911l4.456-2.228h4.456l4.456,2.228v-2.228A6.683,6.683,0,0,0,118.683,288h0A6.683,6.683,0,0,0,112,294.683Z" transform="translate(-69.267 -196.256)" fill="#683b0d"/>
    <circle id="Elipse_6654" data-name="Elipse 6654" cx="4.5" cy="4.5" r="4.5" transform="translate(45 84.666)" fill="#683b0d"/>
    <rect id="Rectángulo_35532" data-name="Rectángulo 35532" width="13" height="17" rx="6.5" transform="translate(108 49.666)" fill="#fdc9a6"/>
    <rect id="Rectángulo_35533" data-name="Rectángulo 35533" width="13" height="18" rx="6.5" transform="translate(108 91.666)" fill="#fdc9a6"/>
    <path id="Trazado_128929" data-name="Trazado 128929" d="M348.907,285.489l-4.456-2.228H340l-4.456,2.228-2.685-5.37a5.493,5.493,0,0,1,1.029-6.341h0a5.493,5.493,0,0,1,7.768,0l.572.572.5-.251a6.135,6.135,0,0,1,7.082,1.149h0a6.135,6.135,0,0,1,.766,7.742Z" transform="translate(-228.201 -184.834)" fill="#683b0d"/>
    <rect id="Rectángulo_35534" data-name="Rectángulo 35534" width="9" height="9" transform="translate(65 44.666)" fill="#02a437"/>
    <rect id="Rectángulo_35535" data-name="Rectángulo 35535" width="9" height="9" transform="translate(129 87.666)" fill="#dc651e"/>
    <circle id="Elipse_6655" data-name="Elipse 6655" cx="4.5" cy="4.5" r="4.5" transform="translate(65 87.666)" fill="#0bafea"/>
    <circle id="Elipse_6656" data-name="Elipse 6656" cx="4.5" cy="4.5" r="4.5" transform="translate(129 44.666)" fill="#e82f3e"/>
    <circle id="Elipse_6657" data-name="Elipse 6657" cx="11.081" cy="11.081" r="11.081" transform="translate(71.694 18.227)" fill="#eaeae8"/>
    <circle id="Elipse_6658" data-name="Elipse 6658" cx="4.5" cy="4.5" r="4.5" transform="translate(78 24.666)" fill="#0a9acd"/>
    <circle id="Elipse_6659" data-name="Elipse 6659" cx="2" cy="2" r="2" transform="translate(81 27.666)" fill="#0bafea"/>
    <path id="Trazado_128930" data-name="Trazado 128930" d="M350.683,136h0a6.683,6.683,0,0,1,6.683,6.683v2.228H344v-2.228A6.683,6.683,0,0,1,350.683,136Z" transform="translate(-236.661 -86.584)" fill="#ea9d2d"/>
    <path id="Trazado_128931" data-name="Trazado 128931" d="M334.278,164.456h-20.05a2.228,2.228,0,1,1,0-4.456h20.05a2.228,2.228,0,1,1,0,4.456Z" transform="translate(-213.572 -103.9)" fill="#683b0d"/>
    <path id="Trazado_128932" data-name="Trazado 128932" d="M142.983,33.822H102.261l-1.72-5.16a2.228,2.228,0,0,0-2.113-1.523H95.905a13.307,13.307,0,0,0-26.259,0H67.239a2.228,2.228,0,0,0-2.113,1.523l-1.72,5.16H22.683A6.691,6.691,0,0,0,16,40.505V116.25a6.691,6.691,0,0,0,6.683,6.683h39.8L60.817,136.3H60a6.133,6.133,0,0,0-6.126,6.126v5.012a2.228,2.228,0,0,0,2.228,2.228h53.467a2.228,2.228,0,0,0,2.228-2.228v-5.012a6.133,6.133,0,0,0-6.126-6.126h-.818l-1.671-13.367h39.8a6.691,6.691,0,0,0,6.683-6.683V40.505A6.691,6.691,0,0,0,142.983,33.822Zm-47.1-2.228h.938l.743,2.228H95.3A13.223,13.223,0,0,0,95.884,31.594ZM82.776,20.455a8.854,8.854,0,1,1-8.853,8.854,8.854,8.854,0,0,1,8.853-8.854Zm.058,106.933a4.461,4.461,0,0,1-4.456-4.456h8.911A4.461,4.461,0,0,1,82.833,127.388Zm8.911-4.456h6.945L100.36,136.3H65.307l1.671-13.367h6.945a8.911,8.911,0,0,0,17.822,0Zm-22.9-91.339h.823a13.169,13.169,0,0,0,.589,2.228H68.1ZM20.456,40.505a2.23,2.23,0,0,1,2.228-2.228H72.952a13.3,13.3,0,0,0,7.654,4.161V76.15H65.011v-2.9a8.308,8.308,0,0,0-4.618-7.472l-2.906-1.453a8.857,8.857,0,0,0,.84-3.773V56.1a8.911,8.911,0,0,0-17.822,0v4.456a8.855,8.855,0,0,0,.84,3.772L38.44,65.78a8.308,8.308,0,0,0-4.618,7.473v2.9H20.456ZM47.448,58.461l6.424,1.606v.488a4.456,4.456,0,1,1-8.911,0V59.7Zm-2.217-3.873a4.449,4.449,0,0,1,8.591.873l-6.092-1.523a2.222,2.222,0,0,0-1.537.169Zm4.186,14.878a8.859,8.859,0,0,0,5.127-1.629L58.4,69.765a3.878,3.878,0,0,1,2.155,3.488v2.9H38.278v-2.9a3.878,3.878,0,0,1,2.155-3.487l3.857-1.928A8.859,8.859,0,0,0,49.417,69.466Zm11.139,49.011H38.278v-2.9a3.878,3.878,0,0,1,2.155-3.487l3.857-1.928a8.88,8.88,0,0,0,10.254,0l3.857,1.928a3.878,3.878,0,0,1,2.155,3.487ZM49.417,93.972A4.459,4.459,0,0,1,53.6,96.916l-.962-.481a2.226,2.226,0,0,0-1-.235H47.189a2.226,2.226,0,0,0-1,.235l-.962.481a4.459,4.459,0,0,1,4.186-2.944Zm-2.228-4.456a2.228,2.228,0,1,1,4.436.278,8.932,8.932,0,0,0-4.416,0,2.238,2.238,0,0,1-.02-.278Zm.526,11.139h3.4l2.754,1.377v.851a4.456,4.456,0,1,1-8.911,0v-.851Zm12.678,7.453-2.906-1.453a8.857,8.857,0,0,0,.84-3.772V98.427a8.883,8.883,0,0,0-2.718-6.4,6.683,6.683,0,1,0-12.385,0,8.883,8.883,0,0,0-2.719,6.4v4.456a8.855,8.855,0,0,0,.84,3.772l-2.906,1.453a8.308,8.308,0,0,0-4.618,7.473v2.9H22.683a2.23,2.23,0,0,1-2.228-2.228V80.605h60.15v37.872H65.011v-2.9A8.308,8.308,0,0,0,60.393,108.108Zm45.275,32.647a1.673,1.673,0,0,1,1.671,1.671v2.785H58.328v-2.785A1.673,1.673,0,0,1,60,140.755Zm19.493-22.278H102.883v-2.9a3.878,3.878,0,0,1,2.155-3.487l3.857-1.928a8.88,8.88,0,0,0,10.254,0l3.857,1.928a3.878,3.878,0,0,1,2.155,3.487Zm-7.915-22.042a2.226,2.226,0,0,0-1-.235h-4.456a2.226,2.226,0,0,0-1,.235l-2.463,1.231-1.689-3.378a3.265,3.265,0,0,1,5.229-3.77l.571.572a2.228,2.228,0,0,0,2.572.418l.5-.251a3.908,3.908,0,0,1,5,5.662l-.575.863Zm1.231,5.6v.851a4.456,4.456,0,0,1-8.911,0v-.851l2.754-1.377h3.4Zm26.733,14.217a2.23,2.23,0,0,1-2.228,2.228H129.617v-2.9A8.308,8.308,0,0,0,125,108.109l-2.906-1.453a8.855,8.855,0,0,0,.84-3.773V101.33l1.292-1.937a8.364,8.364,0,0,0-9.749-12.523,7.721,7.721,0,0,0-11.815,9.412l2.451,4.9v1.7a8.857,8.857,0,0,0,.84,3.772l-2.906,1.453a8.308,8.308,0,0,0-4.619,7.473v2.9H85.061V80.605h60.15ZM118.478,60.555a4.456,4.456,0,1,1-8.911,0ZM109.567,56.1a4.456,4.456,0,0,1,8.911,0Zm4.456,13.367a8.859,8.859,0,0,0,5.127-1.629l3.857,1.928a3.878,3.878,0,0,1,2.155,3.488v2.9H102.883v-2.9a3.878,3.878,0,0,1,2.155-3.487l3.857-1.928a8.858,8.858,0,0,0,5.127,1.628Zm31.189,6.683H129.617v-2.9A8.308,8.308,0,0,0,125,65.781l-2.906-1.453a8.857,8.857,0,0,0,.84-3.773V56.1a8.911,8.911,0,0,0-17.822,0h-4.456a2.228,2.228,0,0,0,0,4.456h4.456a8.857,8.857,0,0,0,.84,3.772l-2.906,1.453a8.308,8.308,0,0,0-4.618,7.473v2.9H85.061V42.417a13.3,13.3,0,0,0,7.539-4.14h50.383a2.23,2.23,0,0,1,2.228,2.228Z"/>
    <path id="Trazado_128933" data-name="Trazado 128933" d="M186.228,125.367h8.911a2.228,2.228,0,0,0,2.228-2.228v-8.911A2.228,2.228,0,0,0,195.139,112h-8.911A2.228,2.228,0,0,0,184,114.228v8.911A2.228,2.228,0,0,0,186.228,125.367Zm2.228-8.911h4.456v4.456h-4.456Z" transform="translate(-121.217 -69.267)"/>
    <path id="Trazado_128934" data-name="Trazado 128934" d="M416,275.139a2.228,2.228,0,0,0,2.228,2.228h8.911a2.228,2.228,0,0,0,2.228-2.228v-8.911A2.228,2.228,0,0,0,427.139,264h-8.911A2.228,2.228,0,0,0,416,266.228Zm4.456-6.683h4.456v4.456h-4.456Z" transform="translate(-288.611 -178.939)"/>
    <path id="Trazado_128935" data-name="Trazado 128935" d="M190.683,277.367A6.683,6.683,0,1,0,184,270.683,6.683,6.683,0,0,0,190.683,277.367Zm0-8.911a2.228,2.228,0,1,1-2.228,2.228A2.228,2.228,0,0,1,190.683,268.456Z" transform="translate(-121.217 -178.939)"/>
    <path id="Trazado_128936" data-name="Trazado 128936" d="M422.683,112a6.683,6.683,0,1,0,6.683,6.683A6.683,6.683,0,0,0,422.683,112Zm0,8.911a2.228,2.228,0,1,1,2.228-2.228A2.228,2.228,0,0,1,422.683,120.911Z" transform="translate(-288.611 -69.267)"/>
    <circle id="Elipse_6660" data-name="Elipse 6660" cx="4.5" cy="4.5" r="4.5" transform="translate(78 24.666)"/>
  </g>
</svg>
