<svg xmlns="http://www.w3.org/2000/svg" width="87" height="87" viewBox="0 0 87 87">
  <g id="Grupo_96129" data-name="Grupo 96129" transform="translate(-303 -5112)">
    <circle id="Elipse_5732" data-name="Elipse 5732" cx="43.5" cy="43.5" r="43.5" transform="translate(303 5112)" fill="#764cf0"/>
    <g id="compartir" transform="translate(319 5128)">
      <ellipse id="Elipse_5736" data-name="Elipse 5736" cx="5.5" cy="5" rx="5.5" ry="5" transform="translate(5 2)" fill="#f0d0b4"/>
      <ellipse id="Elipse_5737" data-name="Elipse 5737" cx="5.5" cy="5" rx="5.5" ry="5" transform="translate(22 2)" fill="#f0d0b4"/>
      <path id="Trazado_123087" data-name="Trazado 123087" d="M34.823,25.968H22V22.548a8.548,8.548,0,1,1,17.1,0v3.419Z" transform="translate(-3.048 -1.887)" fill="#b4dd7f"/>
      <path id="Trazado_123088" data-name="Trazado 123088" d="M14.823,25.968H2V22.548a8.548,8.548,0,0,1,17.1,0v3.419Z" transform="translate(-0.145 -1.887)" fill="#ff826e"/>
      <path id="Trazado_123089" data-name="Trazado 123089" d="M58.173,15.5a5.081,5.081,0,0,1,1.5,3.625,5.133,5.133,0,0,1-5.129,5.129H46V19.129A5.133,5.133,0,0,1,51.129,14h3.419a5.081,5.081,0,0,1,3.625,1.5Z" transform="translate(-6.532 -1.887)" fill="#fcd770"/>
      <path id="Trazado_123090" data-name="Trazado 123090" d="M24.147,47.694h3.479a6.84,6.84,0,1,1-.863-4.274H23.831a2.1,2.1,0,0,0-1.3.445,3.422,3.422,0,1,0,1.616,3.83Z" transform="translate(-1.887 -5.661)" fill="#fcd770"/>
      <path id="Trazado_123091" data-name="Trazado 123091" d="M52.065,59.387H38.387V50.411a2.138,2.138,0,0,0-2.137-2.137H25.137A2.131,2.131,0,0,1,23,46.137,2.145,2.145,0,0,1,25.137,44H47.79a8.552,8.552,0,0,1,8.548,8.548v6.839Z" transform="translate(-3.194 -6.242)" fill="#e6e9ed"/>
      <circle id="Elipse_5738" data-name="Elipse 5738" cx="6" cy="6" r="6" transform="translate(36 26)" fill="#f0d0b4"/>
      <path id="Trazado_123092" data-name="Trazado 123092" d="M31.935,46.823v1.71l-2.188.539a10.283,10.283,0,0,1-.675,1.607l1.171,1.94-3.625,3.625-1.94-1.171a10.283,10.283,0,0,1-1.607.675l-.539,2.188H17.4l-.539-2.188a10.283,10.283,0,0,1-1.607-.675l-1.94,1.171L9.693,52.618l1.171-1.94a10.283,10.283,0,0,1-.675-1.607L8,48.532V43.4l2.188-.539a10.283,10.283,0,0,1,.675-1.607l-1.171-1.94,1.9-1.9,1.727-1.727,1.94,1.171a10.283,10.283,0,0,1,1.607-.675L17.4,34h5.129l.539,2.188a10.283,10.283,0,0,1,1.607.675l1.94-1.171,1.727,1.727,1.9,1.9-1.171,1.94a9.667,9.667,0,0,1,.564,1.291H25.892a6.838,6.838,0,1,0,.863,4.274Z" transform="translate(-1.016 -4.79)" fill="#ffc729"/>
      <path id="Trazado_123093" data-name="Trazado 123093" d="M46.348,37.073a6.843,6.843,0,1,0-8.824-.17h-8.33c-.056-.132-.1-.266-.164-.4L30.306,34.4l-.914-.914h1.528a2.568,2.568,0,0,0,2.565-2.565V29.21a2.568,2.568,0,0,0-2.565-2.565H29.21a.855.855,0,0,1-.855-.855v-.855H36.9V20.661A9.41,9.41,0,0,0,30.9,11.9a5.984,5.984,0,1,0-6.8,0,9.444,9.444,0,0,0-5.15,4.863A9.441,9.441,0,0,0,13.8,11.9a5.984,5.984,0,1,0-6.8,0A9.41,9.41,0,0,0,1,20.661v4.274H9.548v.855a.855.855,0,0,1-.855.855H6.984A2.568,2.568,0,0,0,4.419,29.21v1.71a2.568,2.568,0,0,0,2.565,2.565H8.511L7.6,34.4,8.873,36.5q-.2.424-.356.851l-2.388.587v6.469L8.517,45q.158.426.356.851L7.6,47.957l4.575,4.575,2.107-1.275c.282.132.567.25.851.356L15.717,54h6.469l.587-2.388q.426-.158.851-.356l2.107,1.275,4.575-4.575-1.275-2.107c.132-.282.25-.567.356-.851l2.388-.586V42.887h1.282a1.284,1.284,0,0,1,1.282,1.282V54H54V46.306A9.414,9.414,0,0,0,46.348,37.073Zm-9.445-5.3A5.129,5.129,0,1,1,42.032,36.9,5.134,5.134,0,0,1,36.9,31.774ZM23.226,6.984A4.274,4.274,0,1,1,27.5,11.258,4.279,4.279,0,0,1,23.226,6.984ZM27.5,12.968a7.7,7.7,0,0,1,7.694,7.694v2.565H32.629V16.387h-1.71v6.839H24.081V16.387h-1.71v6.839H19.806V20.661A7.7,7.7,0,0,1,27.5,12.968ZM6.129,6.984A4.274,4.274,0,1,1,10.4,11.258,4.279,4.279,0,0,1,6.129,6.984ZM2.71,20.661a7.694,7.694,0,0,1,15.387,0v2.565H15.532V16.387h-1.71v6.839H6.984V16.387H5.274v6.839H2.71ZM6.984,31.774a.855.855,0,0,1-.855-.855V29.21a.855.855,0,0,1,.855-.855h1.71a2.568,2.568,0,0,0,2.565-2.565v-.855H26.645v.855a2.568,2.568,0,0,0,2.565,2.565h1.71a.855.855,0,0,1,.855.855v1.71a.855.855,0,0,1-.855.855H27.682l-1.951-1.951L23.624,31.1q-.424-.2-.851-.356l-.587-2.388H15.717l-.587,2.388q-.426.158-.851.356l-2.107-1.275-1.951,1.951Zm23.081,11.3-2,.493-.145.456A9.348,9.348,0,0,1,27.3,45.5l-.221.426L28.148,47.7,25.47,50.375,23.7,49.3l-.426.221a9.313,9.313,0,0,1-1.475.617l-.458.144-.492,2.005H17.057l-.493-2-.456-.145a9.348,9.348,0,0,1-1.476-.618l-.426-.221-1.773,1.073L9.754,47.7l1.073-1.773-.221-.426a9.313,9.313,0,0,1-.617-1.475l-.144-.458-2.005-.492V39.283l2.006-.493.144-.458a9.38,9.38,0,0,1,.617-1.475l.221-.426L9.755,34.658l2.678-2.678,1.773,1.073.426-.221a9.313,9.313,0,0,1,1.475-.617l.458-.144.492-2.005h3.789l.493,2.006.458.144a9.38,9.38,0,0,1,1.475.617l.426.221,1.773-1.073,2.678,2.678-1.073,1.773.221.426.022.046H25.329a7.675,7.675,0,1,0,1.124,5.983h3.612Zm-9.071-.354a2.562,2.562,0,1,1-2.042-4.1,2.4,2.4,0,0,1,.28.037,2.951,2.951,0,0,0-.28,1.245,2.985,2.985,0,0,0,2.042,2.823ZM20.6,37.236a4.274,4.274,0,1,0,2.266,5.651h1.817A5.989,5.989,0,1,1,23.133,36.9H21.944a2.96,2.96,0,0,0-1.342.333ZM52.29,52.29H49.726v-9.4h-1.71v9.4H36.048V44.169a3,3,0,0,0-2.992-2.992H21.944a1.282,1.282,0,1,1,0-2.565H44.6a7.7,7.7,0,0,1,7.694,7.694Z"/>
      <path id="Trazado_123094" data-name="Trazado 123094" d="M60.387,18.984A5.992,5.992,0,0,0,54.4,13H50.984A5.992,5.992,0,0,0,45,18.984v5.984h9.4A5.992,5.992,0,0,0,60.387,18.984Zm-13.677,0a4.279,4.279,0,0,1,4.274-4.274H54.4a4.274,4.274,0,0,1,0,8.548H46.71Z" transform="translate(-6.387 -1.742)"/>
      <path id="Trazado_123095" data-name="Trazado 123095" d="M49,21h1.71v1.71H49Z" transform="translate(-6.968 -2.903)"/>
      <path id="Trazado_123096" data-name="Trazado 123096" d="M53,21h1.71v1.71H53Z" transform="translate(-7.548 -2.903)"/>
      <path id="Trazado_123097" data-name="Trazado 123097" d="M57,21h1.71v1.71H57Z" transform="translate(-8.129 -2.903)"/>
      <path id="Trazado_123098" data-name="Trazado 123098" d="M49,17h8.548v1.71H49Z" transform="translate(-6.968 -2.323)"/>
    </g>
  </g>
</svg>
