<svg xmlns="http://www.w3.org/2000/svg" width="87" height="87" viewBox="0 0 87 87">
  <g id="Grupo_96130" data-name="Grupo 96130" transform="translate(-303 -5244)">
    <circle id="Elipse_5733" data-name="Elipse 5733" cx="43.5" cy="43.5" r="43.5" transform="translate(303 5244)" fill="#764cf0"/>
    <g id="aprendiendo" transform="translate(318.996 5260)">
      <path id="Trazado_123073" data-name="Trazado 123073" d="M46.334,42.171C46.334,39.315,38.617,37,29.1,37s-17.235,2.315-17.235,5.171a43.95,43.95,0,0,0,0,17.235H46.334a43.95,43.95,0,0,0,0-17.235Z" transform="translate(-1.383 -4.977)" fill="#ffc173"/>
      <path id="Trazado_123074" data-name="Trazado 123074" d="M46.471,42.171c0,2.37-5.3,4.361-12.547,4.972-.06.009-.112.009-.172.017-1.439.121-2.956.181-4.516.181s-3.051-.06-4.481-.181c-.879-.069-1.732-.164-2.542-.267C16.188,46.083,12,44.273,12,42.171c0-1.163,1.275-2.232,3.438-3.094v-.009a32.194,32.194,0,0,1,8.187-1.784A52.638,52.638,0,0,1,29.235,37a52.912,52.912,0,0,1,6.256.353,31.444,31.444,0,0,1,7.161,1.577C45.04,39.818,46.471,40.947,46.471,42.171Z" transform="translate(-1.52 -4.976)" fill="#5a6c80"/>
      <path id="Trazado_123075" data-name="Trazado 123075" d="M40.372,43.066a1.048,1.048,0,0,1-1.008-.724,9.57,9.57,0,0,0-.664-1.594,1.063,1.063,0,0,1,.2-1.224,1.04,1.04,0,0,0,0-1.465l-.913-.913-.638-.638a1.034,1.034,0,0,0-1.465,0,1.075,1.075,0,0,1-.655.3.42.42,0,0,1-.1.009.815.815,0,0,1-.284-.043.775.775,0,0,1-.181-.069,9.571,9.571,0,0,0-1.594-.664,1.048,1.048,0,0,1-.724-1.008A1.034,1.034,0,0,0,31.306,34H29.1a1.034,1.034,0,0,0-1.034,1.034v.026a1.012,1.012,0,0,1-.7.974,9.175,9.175,0,0,0-1.62.672.917.917,0,0,1-.215.078.76.76,0,0,1-.31.026,1.074,1.074,0,0,1-.7-.3,1.04,1.04,0,0,0-1.465,0l-.638.638-.913.913a1.034,1.034,0,0,0,0,1.465,1.107,1.107,0,0,1,.31.758,1,1,0,0,1-.112.465,9.571,9.571,0,0,0-.664,1.594,1.048,1.048,0,0,1-1.008.724A1.034,1.034,0,0,0,19,44.1v1.586a37.321,37.321,0,0,0,4.18.793c.379.052.767.095,1.163.138a5.877,5.877,0,0,1-.172-1.413,6.032,6.032,0,1,1,12.065,0,5.878,5.878,0,0,1-.172,1.414,39.271,39.271,0,0,0,5.343-.931V44.1a1.034,1.034,0,0,0-1.034-1.034Z" transform="translate(-2.488 -4.562)" fill="#f2f2f2"/>
      <rect id="Rectángulo_35220" data-name="Rectángulo 35220" width="10.341" height="10.341" transform="translate(22.545 1.862)" fill="#ffc44d"/>
      <path id="Trazado_123076" data-name="Trazado 123076" d="M2,12.341H12.341L7.171,2Z" transform="translate(-0.138 -0.138)" fill="#ff6668"/>
      <path id="Trazado_123077" data-name="Trazado 123077" d="M57.1,2h-5.97L48.144,7.171l2.985,5.171H57.1l2.985-5.171Z" transform="translate(-6.516 -0.138)" fill="#5ab360"/>
      <path id="Trazado_123078" data-name="Trazado 123078" d="M22.171,58.447A3.447,3.447,0,0,1,18.724,55H17a5.171,5.171,0,1,0,10.341,0H25.618A3.447,3.447,0,0,1,22.171,58.447Z" transform="translate(-2.211 -7.465)"/>
      <path id="Trazado_123079" data-name="Trazado 123079" d="M45.341,55H43.618a3.447,3.447,0,1,1-6.894,0H35a5.171,5.171,0,1,0,10.341,0Z" transform="translate(-4.699 -7.465)"/>
      <path id="Trazado_123080" data-name="Trazado 123080" d="M21.2,35.757l-1.551,1.551a1.9,1.9,0,0,0-.014,2.671.252.252,0,0,1,.058.227,10.562,10.562,0,0,0-.722,1.736.188.188,0,0,1-.186.121,1.9,1.9,0,0,0-1.9,1.9v.461c-2.776-.849-4.309-1.914-4.309-2.805,0-.7,1.193-1.878,4.552-2.865L16.649,37.1c-3.67,1.079-5.646,2.585-5.766,4.351h0a44.548,44.548,0,0,0,0,17.573l1.689-.338a42.856,42.856,0,0,1-.385-14.65c2.84,2.383,9.839,3.617,16.776,3.617S42.9,46.415,45.735,44.03a42.856,42.856,0,0,1-.385,14.65l1.689.338a44.548,44.548,0,0,0,0-17.573h-.006c-.12-1.768-2.1-3.275-5.766-4.351l-.486,1.654c3.359.992,4.552,2.166,4.552,2.87,0,.891-1.533,1.956-4.309,2.805v-.461a1.9,1.9,0,0,0-1.9-1.9.189.189,0,0,1-.186-.119,10.473,10.473,0,0,0-.718-1.73A.2.2,0,0,1,38.263,40a1.9,1.9,0,0,0,0-2.687l-1.551-1.551a1.954,1.954,0,0,0-2.671-.016.222.222,0,0,1-.12.065l-.055.006a.585.585,0,0,0-.066-.019,10.368,10.368,0,0,0-1.724-.716.189.189,0,0,1-.12-.186,1.9,1.9,0,0,0-1.9-1.9H27.856a1.9,1.9,0,0,0-1.9,1.922.156.156,0,0,1-.086.15,10.143,10.143,0,0,0-1.736.717.658.658,0,0,0-.14.022.205.205,0,0,1-.106-.052,1.967,1.967,0,0,0-2.689,0Zm12.883,9.934c-1.57.148-3.282.234-5.127.234s-3.557-.086-5.13-.232a5.171,5.171,0,1,1,10.26,0Zm-10.268-8.17a1.648,1.648,0,0,0,.7-.05,1.3,1.3,0,0,0,.387-.147,8.386,8.386,0,0,1,1.465-.608A1.891,1.891,0,0,0,27.684,34.9a.172.172,0,0,1,.172-.172h2.206a.172.172,0,0,1,.172.172,1.9,1.9,0,0,0,1.329,1.831,8.655,8.655,0,0,1,1.424.589,1.384,1.384,0,0,0,.4.156,1.644,1.644,0,0,0,.494.069,1.3,1.3,0,0,0,.225-.016,1.955,1.955,0,0,0,1.143-.546.152.152,0,0,1,.246,0l1.551,1.551a.178.178,0,0,1,.048.122.183.183,0,0,1-.057.131,1.926,1.926,0,0,0-.345,2.226,8.763,8.763,0,0,1,.6,1.452,1.9,1.9,0,0,0,1.833,1.328.172.172,0,0,1,.172.172v.915c-1.042.241-2.194.457-3.474.625.009-.146.027-.291.027-.437a6.894,6.894,0,1,0-13.788,0c0,.146.017.291.027.437-1.28-.172-2.432-.383-3.474-.625v-.915a.172.172,0,0,1,.172-.172,1.9,1.9,0,0,0,1.83-1.328,8.83,8.83,0,0,1,.6-1.446,1.844,1.844,0,0,0,.215-.871,1.987,1.987,0,0,0-.563-1.367.172.172,0,0,1,0-.247l1.551-1.551a.177.177,0,0,1,.259.015,1.9,1.9,0,0,0,1.136.532Z" transform="translate(-1.244 -4.423)"/>
      <path id="Trazado_123081" data-name="Trazado 123081" d="M37.065,12.2V1.862A.862.862,0,0,0,36.2,1H25.862A.862.862,0,0,0,25,1.862V12.2a.862.862,0,0,0,.862.862H36.2A.862.862,0,0,0,37.065,12.2Zm-1.724-.862H26.724V2.724h8.618Z" transform="translate(-3.317)"/>
      <path id="Trazado_123082" data-name="Trazado 123082" d="M7.809,1.483a.9.9,0,0,0-1.543,0L1.1,11.824a.862.862,0,0,0,.767,1.247H12.2a.862.862,0,0,0,.771-1.247ZM3.257,11.347,7.033,3.795l3.776,7.552Z" transform="translate(0 -0.006)"/>
      <path id="Trazado_123083" data-name="Trazado 123083" d="M30.613,18v6.894l-1.034-1.379L28.2,24.549,30.785,28a.862.862,0,0,0,1.379,0l2.585-3.447-1.379-1.034-1.034,1.379V18Z" transform="translate(-3.759 -2.35)"/>
      <path id="Trazado_123084" data-name="Trazado 123084" d="M47.966,18.466A49.166,49.166,0,0,0,43.7,27.358l-.5-1.6-1.644.517,1.285,4.111a.862.862,0,0,0,.534.555.851.851,0,0,0,.288.048.862.862,0,0,0,.477-.144l3.588-2.385-.955-1.435L45.3,28a47.8,47.8,0,0,1,4.121-8.618Z" transform="translate(-5.606 -2.414)"/>
      <path id="Trazado_123085" data-name="Trazado 123085" d="M19.039,27.358a49.171,49.171,0,0,0-4.267-8.893l-1.458.921A47.8,47.8,0,0,1,17.435,28l-1.47-.977-.955,1.436L18.6,30.848a.862.862,0,0,0,.477.143.851.851,0,0,0,.288-.05.862.862,0,0,0,.534-.555l1.285-4.112-1.644-.517Z" transform="translate(-1.702 -2.414)"/>
      <path id="Trazado_123086" data-name="Trazado 123086" d="M57.706,12.634l2.985-5.171a.862.862,0,0,0,0-.862L57.706,1.431A.862.862,0,0,0,56.959,1H50.99a.862.862,0,0,0-.746.431L47.258,6.6a.862.862,0,0,0,0,.862l2.985,5.171a.862.862,0,0,0,.746.431h5.971a.862.862,0,0,0,.745-.431Zm-1.242-1.293H51.488L49,7.032,51.49,2.724h4.976l2.488,4.309Z" transform="translate(-6.378)"/>
    </g>
  </g>
</svg>
