<svg xmlns="http://www.w3.org/2000/svg" xmlns:xlink="http://www.w3.org/1999/xlink" width="295" height="295" viewBox="0 0 295 295">
  <defs>
    <clipPath id="clip-path">
      <rect id="Rect치ngulo_35625" data-name="Rect치ngulo 35625" width="295" height="295" transform="translate(180 376)" fill="#fff" stroke="#707070" stroke-width="1"/>
    </clipPath>
    <clipPath id="clip-path-2">
      <rect id="Rect치ngulo_34787" data-name="Rect치ngulo 34787" width="295" height="259" transform="translate(180 366)" fill="#fff" stroke="#707070" stroke-width="1"/>
    </clipPath>
    <linearGradient id="linear-gradient" y1="0.5" x2="1" y2="0.5" gradientUnits="objectBoundingBox">
      <stop offset="0" stop-color="#444b8c"/>
      <stop offset="0.996" stop-color="#26264f"/>
    </linearGradient>
    <linearGradient id="linear-gradient-2" y1="0.5" x2="1" y2="0.5" gradientUnits="objectBoundingBox">
      <stop offset="0" stop-color="#aa80f9"/>
      <stop offset="0.996" stop-color="#6165d7"/>
    </linearGradient>
    <linearGradient id="linear-gradient-4" y1="0.5" x2="1" y2="0.5" gradientUnits="objectBoundingBox">
      <stop offset="0" stop-color="#fff"/>
      <stop offset="0.996" stop-color="#ebeff2"/>
    </linearGradient>
    <clipPath id="clip-path-3">
      <path id="Trazado_131035" data-name="Trazado 131035" d="M2038.843,600.189l-68.564.99V530.226l68.564,1.949Z" transform="translate(-1970.279 -530.226)" fill="none"/>
    </clipPath>
    <linearGradient id="linear-gradient-5" x1="0.841" y1="-0.06" x2="0.568" y2="0.478" gradientUnits="objectBoundingBox">
      <stop offset="0" stop-color="#ab316d"/>
      <stop offset="1" stop-color="#792d3d"/>
    </linearGradient>
    <linearGradient id="linear-gradient-6" x1="0.847" y1="-0.084" x2="0.572" y2="0.467" xlink:href="#linear-gradient-5"/>
    <linearGradient id="linear-gradient-7" x1="0.579" y1="1.442" x2="0.437" y2="0.103" gradientUnits="objectBoundingBox">
      <stop offset="0.004" stop-color="#e38ddd"/>
      <stop offset="1" stop-color="#9571f6"/>
    </linearGradient>
    <linearGradient id="linear-gradient-8" x1="0.527" y1="1.046" x2="0.468" y2="0.006" gradientUnits="objectBoundingBox">
      <stop offset="0" stop-color="#ffc444"/>
      <stop offset="0.996" stop-color="#f36f56"/>
    </linearGradient>
    <linearGradient id="linear-gradient-9" x1="0.481" y1="0.924" x2="0.512" y2="0.054" xlink:href="#linear-gradient-8"/>
    <linearGradient id="linear-gradient-10" x1="0.461" y1="1.713" x2="0.575" y2="-1.837" xlink:href="#linear-gradient-8"/>
    <linearGradient id="linear-gradient-11" x1="0.458" y1="1.798" x2="0.573" y2="-1.749" xlink:href="#linear-gradient-8"/>
    <clipPath id="clip-path-4">
      <path id="Trazado_131057" data-name="Trazado 131057" d="M2050.835,1854.261l-56.12,3.479v-59.232l56.12-1.464Z" transform="translate(-1994.715 -1797.044)" fill="none"/>
    </clipPath>
    <linearGradient id="linear-gradient-13" x1="0.504" y1="1.141" x2="0.491" y2="-1.691" gradientUnits="objectBoundingBox">
      <stop offset="0" stop-color="#311944"/>
      <stop offset="1" stop-color="#893976"/>
    </linearGradient>
    <linearGradient id="linear-gradient-14" x1="0.503" y1="1.272" x2="0.497" y2="0.376" xlink:href="#linear-gradient-5"/>
    <linearGradient id="linear-gradient-15" x1="0.441" y1="0.85" x2="0.581" y2="-0.358" xlink:href="#linear-gradient-5"/>
    <linearGradient id="linear-gradient-16" x1="0.42" y1="1.321" x2="0.885" y2="-2.776" xlink:href="#linear-gradient-5"/>
    <linearGradient id="linear-gradient-17" x1="0.396" y1="1.535" x2="0.875" y2="-2.554" xlink:href="#linear-gradient-5"/>
    <linearGradient id="linear-gradient-18" x1="0.424" y1="0.699" x2="0.707" y2="-0.21" gradientUnits="objectBoundingBox">
      <stop offset="0" stop-color="#311944"/>
      <stop offset="1" stop-color="#6b3976"/>
    </linearGradient>
    <linearGradient id="linear-gradient-19" x1="0.463" y1="0.59" x2="0.773" y2="-0.646" xlink:href="#linear-gradient-18"/>
    <clipPath id="clip-path-5">
      <path id="Trazado_131084" data-name="Trazado 131084" d="M914.911,1144.6l-86.132,3.578v-81.157l86.132.472Z" transform="translate(-828.778 -1067.024)" fill="#26d19e"/>
    </clipPath>
    <linearGradient id="linear-gradient-21" x1="0.478" y1="1.967" x2="0.509" y2="-0.575" gradientUnits="objectBoundingBox">
      <stop offset="0" stop-color="#311944"/>
      <stop offset="0.555" stop-color="#6f2b60"/>
      <stop offset="1" stop-color="#a03976"/>
    </linearGradient>
    <linearGradient id="linear-gradient-22" x1="0.528" y1="0.734" x2="0.743" y2="1.639" xlink:href="#linear-gradient-8"/>
    <linearGradient id="linear-gradient-23" x1="0.501" y1="0.37" x2="0.463" y2="2.575" xlink:href="#linear-gradient-8"/>
    <linearGradient id="linear-gradient-24" x1="2.996" y1="-0.092" x2="2.822" y2="7.768" xlink:href="#linear-gradient-8"/>
    <linearGradient id="linear-gradient-25" x1="0.529" y1="-0.396" x2="0.325" y2="6.722" xlink:href="#linear-gradient-8"/>
    <linearGradient id="linear-gradient-26" x1="0.863" y1="-13.174" x2="0.544" y2="-1.426" xlink:href="#linear-gradient-8"/>
    <linearGradient id="linear-gradient-27" x1="-6.764" y1="0.5" x2="-5.764" y2="0.5" xlink:href="#linear-gradient-2"/>
    <linearGradient id="linear-gradient-28" x1="-7.167" y1="0.082" x2="-6.229" y2="1.712" xlink:href="#linear-gradient-2"/>
  </defs>
  <g id="Enmascarar_grupo_368" data-name="Enmascarar grupo 368" transform="translate(-180 -376)" clip-path="url(#clip-path)">
    <g id="Enmascarar_grupo_270" data-name="Enmascarar grupo 270" transform="translate(0 49)" clip-path="url(#clip-path-2)">
      <path id="Trazado_131093" data-name="Trazado 131093" d="M16.27.193,180.718,2.14A16.593,16.593,0,0,1,197.181,18.3l1.948,161.385a15.663,15.663,0,0,1-16.077,15.774L18.6,193.511A16.593,16.593,0,0,1,2.14,177.352L.193,15.966A15.663,15.663,0,0,1,16.27.193Z" transform="translate(205.649 445.378) rotate(-25.905)" fill="#ffd41c"/>
      <path id="Trazado_131094" data-name="Trazado 131094" d="M7.993-.041,19.322-.1a7.784,7.784,0,0,1,7.952,7.727l-.058,11.01a7.982,7.982,0,0,1-8.034,7.809L7.853,26.5A7.784,7.784,0,0,1-.1,18.778l.058-11.01A7.982,7.982,0,0,1,7.993-.041Z" transform="matrix(0.985, 0.174, -0.174, 0.985, 214.606, 459.11)" fill="#26d19e"/>
      <ellipse id="Elipse_4918" data-name="Elipse 4918" cx="13.797" cy="13.384" rx="13.797" ry="13.384" transform="translate(436.576 389.967)" fill="#764cf0"/>
    </g>
    <g id="Grupo_96603" data-name="Grupo 96603" transform="translate(-248.913 -100.06)">
      <g id="Grupo_96567" data-name="Grupo 96567" transform="translate(549.615 543.507)">
        <g id="Grupo_96563" data-name="Grupo 96563" transform="translate(35.767 15.801)">
          <path id="Trazado_131002" data-name="Trazado 131002" d="M1747.546,1088.421c-8.63-1.573-10.766-20.105-11.037-22.741-.678-6.6-1.519-14.775,3.253-21.693,6.9-10,18.639-7.4,21.441-15.7,1.722-5.1-2.516-6.671-2.716-16.428-.058-2.8-.265-12.91,6.8-21.081a28.555,28.555,0,0,1,14.838-8.8,32.617,32.617,0,0,0,2.359-12.19c-.048-8.285-3.435-11.483-1.678-15.876,2.014-5.035,9.195-7.664,14.659-7.613,14.555.136,22.53,19.338,23.076,20.7,1.412,3.53,5.884,14.713.766,22.851-4.043,6.43-10.913,5.935-11.961,11.221s5.485,7.328,7.029,15.378a22.379,22.379,0,0,1-6.717,19.687c-8.576,7.71-19.074,1.553-23.666,7.941-5.346,7.437,5.439,20.573.669,25.005-4.528,4.207-16.366-5.657-22.134-.744-4.169,3.552-.3,10.682-5.926,16.388C1756.27,1085.069,1752.05,1089.242,1747.546,1088.421Z" transform="translate(-1735.983 -946.296)" fill="#d8dee8"/>
          <path id="Trazado_131003" data-name="Trazado 131003" d="M1831.987,1007.765c5.53,1.275,8.089,17.931,5.167,32.191-2.012,9.819-4.881,10-12.25,26.625-9.987,22.527-6.276,25.707-13.538,33.578-9.965,10.8-20.185,8.319-25.669,18.71-3.712,7.033-2.638,15.006-1.027,20.866a39.1,39.1,0,0,1-6.149-16.92c-.581-5.156-1.632-14.48,3.732-20.156,6.437-6.81,15.918-1.813,20.336-8.145,2.5-3.589.254-6.337-.325-18.6-.584-12.365-.877-18.548,2.47-23.824,5.971-9.412,16.707-5.574,20.381-13.74,3.809-8.465-5.864-16.736-.832-25.314C1825.907,1010.275,1829.259,1007.135,1831.987,1007.765Z" transform="translate(-1775.094 -1003.393)" fill="#f4f7fa" opacity="0.5" style="mix-blend-mode: soft-light;isolation: isolate"/>
        </g>
        <g id="Grupo_96564" data-name="Grupo 96564" transform="translate(0 0)">
          <path id="Trazado_131004" data-name="Trazado 131004" d="M1305.517,875.929c9.453-1.723,11.793-22.024,12.09-24.911.743-7.227,1.664-16.185-3.563-23.764-7.555-10.955-20.419-8.1-23.488-17.2-1.887-5.59,2.756-7.308,2.975-18,.063-3.068.29-14.142-7.454-23.094a31.279,31.279,0,0,0-16.254-9.643,35.729,35.729,0,0,1-2.584-13.353c.052-9.076,3.763-12.579,1.838-17.391-2.207-5.515-10.072-8.4-16.058-8.339-15.944.149-24.681,21.184-25.279,22.68-1.546,3.867-6.445,16.117-.839,25.032,4.429,7.043,11.955,6.5,13.1,12.292s-6.008,8.027-7.7,16.846c-1.444,7.53,1.734,16.509,7.358,21.566,9.4,8.446,20.895,1.7,25.925,8.7,5.856,8.147-5.959,22.536-.733,27.392,4.96,4.609,17.929-6.2,24.247-.815,4.567,3.891.332,11.7,6.492,17.953C1295.961,872.257,1300.583,876.828,1305.517,875.929Z" transform="translate(-1224.281 -720.238)" fill="#ffd41c"/>
          <path id="Trazado_131005" data-name="Trazado 131005" d="M1582.965,787.573c-6.058,1.4-8.861,19.642-5.66,35.264,2.2,10.756,5.347,10.957,13.419,29.166,10.94,24.678,6.875,28.16,14.83,36.783,10.916,11.833,22.112,9.113,28.119,20.5,4.066,7.7,2.89,16.438,1.125,22.858a42.836,42.836,0,0,0,6.736-18.535c.636-5.648,1.788-15.863-4.089-22.08-7.051-7.46-17.438-1.987-22.277-8.922-2.744-3.932-.278-6.942.357-20.37.64-13.546.96-20.319-2.706-26.1-6.541-10.31-18.3-6.106-22.326-15.051-4.172-9.273,6.423-18.334.911-27.73C1589.626,790.323,1585.954,786.884,1582.965,787.573Z" transform="translate(-1551.385 -782.784)" fill="#f4f7fa" opacity="0.5" style="mix-blend-mode: soft-light;isolation: isolate"/>
        </g>
        <g id="Grupo_96565" data-name="Grupo 96565" transform="translate(36.14 54.796)">
          <path id="Trazado_131006" data-name="Trazado 131006" d="M1748.463,1608.4c-5.163-.887-8.016-13.61-6.911-23.479.428-3.818.853-7.615,3.631-11.075,4.688-5.839,10.107-3.28,14.231-7.99,6.089-6.954-1.488-17.375,4.373-23.029,4.311-4.159,9.776.162,14.921-4.344,5.968-5.228,2.333-14.3,7.468-16.61,2.983-1.341,4.995,1.367,13.072.8,3.16-.223,4.74-.334,6.185-1.206,5.068-3.055,2.618-9.965,6.673-14.2,4.463-4.661,14.129-3.284,19.879-.709,10.3,4.613,14.938,16.165,15.1,25.353.034,1.968.05,14.787-9.14,21.574-6.682,4.936-15.667,4.788-17.124,4.764-5.677-.094-6.814-1.742-8.829-.55-5.825,3.445,2.3,18.026-5.142,27.326a18.189,18.189,0,0,1-12.81,6.354c-7.425.34-10.623-5.026-14.568-3.184-5.1,2.382-2.017,12.42-7.613,15.378-3.959,2.093-7-2.141-13.677-.377C1752.252,1604.758,1751.521,1608.922,1748.463,1608.4Z" transform="translate(-1741.316 -1504.188)" fill="#d1c3fa"/>
          <path id="Trazado_131007" data-name="Trazado 131007" d="M1802.538,1647.679c2.355.583,3.61-5.814,11.649-14.213,8.779-9.172,13.5-8.037,21.671-16.288,9.33-9.42,5.025-12.764,12.842-20.058,10.6-9.886,19.6-4.769,32.344-16.343,3.822-3.472,8.91-8.228,8.082-14.064-.718-5.06-5.79-10.269-11.541-10.279a11.434,11.434,0,0,0-8.164,3.784c-3.786,4.56-.53,9.3-4.041,12.762-1.839,1.812-4.707,2.021-10.443,2.441-8.249.6-9.623-1.141-11.88.367-5.1,3.406,0,13.595-5.18,17.82-4.446,3.628-10.846-1.726-14.742,1.75-4.7,4.2,2.621,13.78-2.224,20.79-4.171,6.036-11.97,2.361-17.589,8.667C1796.688,1632.26,1799.139,1646.837,1802.538,1647.679Z" transform="translate(-1795.101 -1552.781)" fill="#f4f7fa" opacity="0.5" style="mix-blend-mode: soft-light;isolation: isolate"/>
        </g>
        <g id="Grupo_96566" data-name="Grupo 96566" transform="translate(64.666 91.555)">
          <path id="Trazado_131008" data-name="Trazado 131008" d="M2158.213,2092.237c3.921.274,4.453-6.932,11.3-9.089,7.575-2.387,12.383,4.709,17.659,2,5.929-3.047,2.59-13.409,9.249-17.3,4.549-2.657,7.717,1.239,13.438-1.2,5.963-2.542,11.785-10.723,9.495-18.747-1.91-6.694-8.8-10.938-14.342-10.978-4.535-.033-5.823,2.764-9.789,1.94-4.941-1.027-4.824-5.76-10-7.891-5.152-2.12-12.194-.286-16.07,3.921-3.223,3.5-3.552,7.874-3.839,11.69-.77,10.244,3.906,14.191,1.408,18.128-3.116,4.912-11.652.748-15.543,5.618C2146.311,2076.423,2152.573,2091.843,2158.213,2092.237Z" transform="translate(-2149.432 -2030.085)" fill="#26d19e"/>
          <path id="Trazado_131009" data-name="Trazado 131009" d="M2218.942,2156.97c1.435.286,1.858-4.383,6.368-8.281,5.171-4.469,9.063-2.177,14.849-5.706,7.169-4.373,4.445-9.875,10.827-14.312,8.947-6.219,20.062.588,23.065-4.489,1.755-2.967-.216-8.374-3.381-10.138-3.378-1.883-5.772,1.69-11.571.844-5.432-.793-5.736-4.278-12.439-6.028-3.268-.854-7.56-1.975-10.3.127-5.373,4.119-2.456,18.818-1.566,23.305.819,4.128,1.579,5.731.5,7.412-2.815,4.4-12.151-.141-16.469,4.614C2215.214,2148.3,2217.088,2156.6,2218.942,2156.97Z" transform="translate(-2212.063 -2102.354)" fill="#f4f7fa" opacity="0.5" style="mix-blend-mode: soft-light;isolation: isolate"/>
        </g>
      </g>
      <g id="Grupo_96570" data-name="Grupo 96570" transform="translate(498.913 601.698)">
        <g id="Grupo_96569" data-name="Grupo 96569" transform="translate(0 0)">
          <path id="Trazado_131010" data-name="Trazado 131010" d="M718.457,2909.659l-192.081-1.637v4.844a2.578,2.578,0,0,0,1.972,2.632l54.315,9.54a7.623,7.623,0,0,0,1.949.089l131.758-10.876a2.459,2.459,0,0,0,2.087-2.57Z" transform="translate(-524.456 -2813.292)" fill="#26264f"/>
          <g id="Grupo_96568" data-name="Grupo 96568">
            <path id="Trazado_131011" data-name="Trazado 131011" d="M623.208,1641.361l-120.389,8.862a3.649,3.649,0,0,1-3.906-3.764v-89.65a3.983,3.983,0,0,1,3.906-4.052H623.208a3.457,3.457,0,0,1,3.21,3.663v81.042A3.781,3.781,0,0,1,623.208,1641.361Z" transform="translate(-498.913 -1552.757)" fill="#26264f"/>
            <path id="Trazado_131012" data-name="Trazado 131012" d="M650.671,1641.361l-120.389,8.862a3.649,3.649,0,0,1-3.906-3.764v-89.65a3.983,3.983,0,0,1,3.906-4.052H650.671a3.457,3.457,0,0,1,3.21,3.663v81.042A3.781,3.781,0,0,1,650.671,1641.361Z" transform="translate(-524.456 -1552.757)" fill="url(#linear-gradient)"/>
            <path id="Trazado_131013" data-name="Trazado 131013" d="M716.605,1704.909l-112.13,7.7a2.991,2.991,0,0,1-3.178-3.089v-78.489a3.263,3.263,0,0,1,3.178-3.321l112.13-.483a2.833,2.833,0,0,1,2.648,3v71.489A3.1,3.1,0,0,1,716.605,1704.909Z" transform="translate(-594.141 -1622.019)" fill="url(#linear-gradient-2)"/>
            <path id="Trazado_131014" data-name="Trazado 131014" d="M1467.37,1567.78a1.391,1.391,0,1,1-1.385-1.507A1.456,1.456,0,0,1,1467.37,1567.78Z" transform="translate(-1397.098 -1565.328)" fill="#fff"/>
            <path id="Trazado_131015" data-name="Trazado 131015" d="M530.28,1650.222l119.78-8.818.609-.045a3.231,3.231,0,0,0,2.12-1.073c-8.62-.472-13.973-3.53-17.427-6.691-6.935-6.347-5.732-12.607-13.212-16.78-9.328-5.205-16.663,1.391-23.742-5.117-4.291-3.945-2.185-6.887-7.465-12.783-5.849-6.53-9.657-4.335-15.535-10.212-7.432-7.431-3.715-13.213-10.117-18.548-7.766-6.473-16.142-.482-23.535-6.689-3.189-2.677-4.938-6.57-5.852-10.709h-5.625a3.983,3.983,0,0,0-3.906,4.052v89.65A3.649,3.649,0,0,0,530.28,1650.222Z" transform="translate(-524.455 -1552.756)" fill="#fff" opacity="0.48" style="mix-blend-mode: soft-light;isolation: isolate"/>
          </g>
          <path id="Trazado_131016" data-name="Trazado 131016" d="M655.469,2813l-129.093,9.328,56.287,9.886a7.634,7.634,0,0,0,1.949.089l133.845-11.049-60.934-8.192A9.994,9.994,0,0,0,655.469,2813Z" transform="translate(-524.456 -2724.887)" fill="url(#linear-gradient)"/>
          <path id="Trazado_131017" data-name="Trazado 131017" d="M795.865,2843.069l107.474-7.882,33.262,4.436-106.548,8.426Z" transform="translate(-775.109 -2745.548)" fill="#26264f"/>
        </g>
      </g>
      <g id="Grupo_96597" data-name="Grupo 96597" transform="translate(508.794 530.226)">
        <g id="Grupo_96579" data-name="Grupo 96579" transform="translate(82.472 0)">
          <g id="Grupo_96573" data-name="Grupo 96573" transform="translate(0 3.822)">
            <path id="Trazado_131018" data-name="Trazado 131018" d="M1908.257,592.927v58.624c0,2.7-1.839,4.941-4.152,5l-19.27.471-59.437,1.454a5,5,0,0,1-4.937-4.5c-.021-.2-.287-.4-.287-.6v-62.46a5.688,5.688,0,0,1,1.032-2.834c.014-.023.156-.042.169-.063a4.568,4.568,0,0,1,3.967-2.185l9.016.239,69.732,1.85C1906.4,587.982,1908.257,590.222,1908.257,592.927Z" transform="translate(-1820.173 -585.766)" fill="#fff"/>
            <path id="Trazado_131019" data-name="Trazado 131019" d="M1852.376,678.922a3.3,3.3,0,0,1-3.206-3.471V613.067a3.292,3.292,0,0,1,3.206-3.465l78.729,2a3.221,3.221,0,0,1,2.849,3.408v58.681a3.213,3.213,0,0,1-2.849,3.4Z" transform="translate(-1847.143 -607.875)" fill="url(#linear-gradient-4)"/>
            <path id="Trazado_131020" data-name="Trazado 131020" d="M1911.029,587.938,1832.3,585.85a4.83,4.83,0,0,0-4.714,5.09v3.741l87.624,1.776v-3.512C1915.21,590.241,1913.342,588,1911.029,587.938Z" transform="translate(-1827.068 -585.782)" fill="#d8dee8"/>
            <path id="Trazado_131021" data-name="Trazado 131021" d="M1906.785,631.024a1.5,1.5,0,0,1-1.532,1.519,1.588,1.588,0,0,1-1.535-1.591,1.5,1.5,0,0,1,1.535-1.519A1.589,1.589,0,0,1,1906.785,631.024Z" transform="translate(-1897.878 -626.32)" fill="#fff"/>
            <path id="Trazado_131022" data-name="Trazado 131022" d="M1983.677,632.891a1.493,1.493,0,0,1-1.52,1.514,1.58,1.58,0,0,1-1.523-1.585,1.493,1.493,0,0,1,1.523-1.514A1.58,1.58,0,0,1,1983.677,632.891Z" transform="translate(-1969.418 -628.063)" fill="#fff"/>
            <path id="Trazado_131023" data-name="Trazado 131023" d="M2059.991,634.744a1.485,1.485,0,0,1-1.509,1.508,1.571,1.571,0,0,1-1.512-1.578,1.485,1.485,0,0,1,1.512-1.508A1.571,1.571,0,0,1,2059.991,634.744Z" transform="translate(-2040.419 -629.792)" fill="#fff"/>
            <path id="Trazado_131024" data-name="Trazado 131024" d="M1983.463,895.464l-77.249,1.607V847.94L1983.463,849Z" transform="translate(-1900.2 -829.554)" fill="#d8dee8"/>
            <g id="Grupo_96571" data-name="Grupo 96571" transform="translate(6.014 13.297)" opacity="0.5">
              <path id="Trazado_131025" data-name="Trazado 131025" d="M1947.519,775.86l-41.3-.713V777.8l41.3.636Z" transform="translate(-1906.214 -775.147)" fill="#fff"/>
              <path id="Trazado_131026" data-name="Trazado 131026" d="M2947.569,793.116v2.518l4.46.069v-2.51Z" transform="translate(-2874.781 -791.86)" fill="#fff"/>
            </g>
            <g id="Grupo_96572" data-name="Grupo 96572" transform="translate(0.488)" opacity="0.5" style="mix-blend-mode: soft-light;isolation: isolate">
              <path id="Trazado_131027" data-name="Trazado 131027" d="M1891.832,656.16l-59.444,1.454a5.021,5.021,0,0,1-4.956-4.5c0-.058-.277-.112-.277-.17V590.027a5.767,5.767,0,0,1,1.017-2.806c.014-.023.163-.042.177-.063a4.572,4.572,0,0,1,4-2.25l8.968.238c.006.022.031.044.038.066.167.546.359,1.1.561,1.663a36.006,36.006,0,0,0,3.283,6.87c.087.142.177.281.267.42a29.446,29.446,0,0,0,3.328,4.309,27.416,27.416,0,0,0,2.879,2.668,30.264,30.264,0,0,0,3.557,2.452c8.728,5.178,18.53,5.855,25.032,16.237,5.573,8.9,1.581,13.568,6.971,27.181q.879,2.22,1.883,4.247.851,1.732,1.779,3.332C1891.2,655.126,1891.515,655.649,1891.832,656.16Z" transform="translate(-1827.155 -584.907)" fill="#fff"/>
            </g>
          </g>
          <g id="Grupo_96577" data-name="Grupo 96577" transform="translate(10.492)">
            <g id="Grupo_96576" data-name="Grupo 96576" clip-path="url(#clip-path-3)">
              <g id="Grupo_96575" data-name="Grupo 96575" transform="translate(4.52 12.592)">
                <g id="Grupo_96574" data-name="Grupo 96574">
                  <path id="Trazado_131028" data-name="Trazado 131028" d="M2053.641,767.039c-13.412-2.066-16.4-3.59-17.783-6.436-2.015-4.141-.549-10.88,2.892-15.027,3.008-3.624,6.748-4.329,6.639-6.836-.09-2.063-2.652-2.339-4.538-6.235a9.69,9.69,0,0,1-1.155-6,9.285,9.285,0,0,1,4.435-6.019c3.617-2,5.674.39,8.386-1.4,3.383-2.24,1.851-7.083,5.017-8.415,2.3-.967,5.227.7,5.99,1.132,2.541,1.445,2.274,2.854,4.416,3.757,2.507,1.057,3.7-.529,6.6.164,2.39.571,4.117,2.335,5.525,4.1,3.155,3.963,1.588,6.272,3.916,11.129,3.267,6.817,8.181,6.059,9.05,11.493.454,2.839-.712,4.128.184,8.477.6,2.935,1.365,3.457,1.5,5.183.387,4.962-5.219,9.379-6.269,10.159C2081.742,771.244,2072.391,769.926,2053.641,767.039Z" transform="translate(-2034.942 -710.372)" fill="url(#linear-gradient-5)"/>
                  <path id="Trazado_131029" data-name="Trazado 131029" d="M2074.968,763.362c-8.778-.614-14.756,7.765-17.136,5.71-2.26-1.952,4.111-8.631,1.939-16.389-2.136-7.63-10.558-9.273-9.89-13.585.755-4.876,12.013-6,11.75-9.58-.155-2.113-4.124-2.625-4.918-6a5.4,5.4,0,0,1,.082-2.66c-2.19,1.741-1.195,5.939-4.276,7.979-2.712,1.795-4.769-.593-8.386,1.4a9.285,9.285,0,0,0-4.435,6.019,9.69,9.69,0,0,0,1.155,6c1.886,3.9,4.448,4.172,4.538,6.235.109,2.507-3.631,3.212-6.639,6.836-3.442,4.147-4.908,10.886-2.892,15.027,1.385,2.846,4.372,4.371,17.783,6.436,18.75,2.888,28.1,4.2,34.806-.775,2.588-1.922,5.631-5.18,6.283-8.058a7.574,7.574,0,0,1-3.771,2.077C2085.386,771.134,2082.8,763.91,2074.968,763.362Z" transform="translate(-2034.942 -720.127)" opacity="0.7" fill="url(#linear-gradient-6)" style="mix-blend-mode: multiply;isolation: isolate"/>
                </g>
                <path id="Trazado_131030" data-name="Trazado 131030" d="M2073.205,1289.47c-2.033-5.1-.793-13.149-.532-14.845a32.714,32.714,0,0,1,4.289-12.173c5.967-9.962,14.993-9.889,21.763-9.833,3.337.027,6.786-.048,10.993,1.506a28.8,28.8,0,0,1,6.121,3.271c8.344,6.089,14.907,26.025,8.2,33.677-4.286,4.891-8.693-1.194-27.942,2.066-7.789,1.319-16.031,3.474-20.944-.782A7.256,7.256,0,0,1,2073.205,1289.47Z" transform="translate(-2069.465 -1214.71)" fill="url(#linear-gradient-7)"/>
                <path id="Trazado_131031" data-name="Trazado 131031" d="M2314.392,1081.886s1.427,10.677-5.825,12.811a1.185,1.185,0,0,0-.462,1.974l8.938,8.691a1.281,1.281,0,0,0,1.882-.1l8.009-9.326a1.179,1.179,0,0,0-.437-1.856c-2.563-.985-7.171-3.866-6.2-11.652Z" transform="translate(-2288.681 -1055.918)" fill="url(#linear-gradient-8)"/>
                <path id="Trazado_131032" data-name="Trazado 131032" d="M2339.168,881.026c0,.117,1.959,10.569,6.962,10.581,4.711.011,6.495-7.615,7.074-11.172l.185-1.816a3.451,3.451,0,0,1-2.058.041,3.3,3.3,0,0,1-2.086-1.649c-.565-1.32.474-2.351-.118-3.507a2.542,2.542,0,0,0-1.564-1.159,3.51,3.51,0,0,1,.649,2.846c-.26.732-.986,1.427-2.608,1.838C2340.946,878.209,2339.122,878.659,2339.168,881.026Z" transform="translate(-2317.902 -861.024)" fill="url(#linear-gradient-9)"/>
                <path id="Trazado_131033" data-name="Trazado 131033" d="M2318.38,996.488s-2.593-2.3-2.819-.908c-.472,2.909,1.748,4.53,2.95,3.668S2318.38,996.488,2318.38,996.488Z" transform="translate(-2295.886 -975.227)" fill="url(#linear-gradient-10)"/>
                <path id="Trazado_131034" data-name="Trazado 131034" d="M2510.6,998.478s2.548-2.238,2.77-.854c.462,2.885-1.715,4.463-2.9,3.593S2510.6,998.478,2510.6,998.478Z" transform="translate(-2476.775 -977.125)" fill="url(#linear-gradient-11)"/>
              </g>
            </g>
          </g>
          <g id="Grupo_96578" data-name="Grupo 96578" transform="translate(30.383 62.394)">
            <path id="Trazado_131036" data-name="Trazado 131036" d="M2260.186,1429a2.756,2.756,0,0,1-2.662,2.8,2.681,2.681,0,0,1-2.671-2.737,2.755,2.755,0,0,1,2.671-2.8A2.682,2.682,0,0,1,2260.186,1429Z" transform="translate(-2254.853 -1426.023)" fill="#fff"/>
            <path id="Trazado_131037" data-name="Trazado 131037" d="M2438.2,1427.269a2.726,2.726,0,0,1-2.622,2.776,2.651,2.651,0,0,1-2.63-2.716,2.725,2.725,0,0,1,2.63-2.776A2.652,2.652,0,0,1,2438.2,1427.269Z" transform="translate(-2420.503 -1424.435)" fill="#fff"/>
            <path id="Trazado_131038" data-name="Trazado 131038" d="M2613.525,1425.566a2.7,2.7,0,0,1-2.582,2.755,2.622,2.622,0,0,1-2.59-2.7,2.694,2.694,0,0,1,2.59-2.755A2.623,2.623,0,0,1,2613.525,1425.566Z" transform="translate(-2583.643 -1422.87)" fill="#fff"/>
          </g>
        </g>
        <g id="Grupo_96587" data-name="Grupo 96587" transform="translate(86.376 88.548)">
          <path id="Trazado_131039" data-name="Trazado 131039" d="M1948.007,1865.37v48.219c0,2.225-1.51,4.143-3.426,4.28l-15.9,1.137-.017,0-48.673,3.479a3.48,3.48,0,0,1-.932-.059c-.056-.01-.11-.024-.166-.036-.108-.029-.215-.061-.32-.1s-.208-.081-.31-.129a3.655,3.655,0,0,1-.437-.246c-.093-.061-.183-.127-.268-.2s-.173-.144-.254-.222a4.05,4.05,0,0,1-1.191-2.506,4.567,4.567,0,0,1-.085-.49v-50.889c0-.046,0-.09,0-.137s.007-.1.01-.159a4.867,4.867,0,0,1,.681-2.025c.01-.02.051-.037.063-.054a3.993,3.993,0,0,1,2.452-1.852,3.533,3.533,0,0,1,.361-.071,3.176,3.176,0,0,1,.376-.021l7.325-.194h0l15.809-.465,41.465-1.19a1.142,1.142,0,0,1,.129,0c.051,0,.1,0,.154,0s.1.006.149.011A3.711,3.711,0,0,1,1948.007,1865.37Z" transform="translate(-1876.027 -1856.946)" fill="#fff"/>
          <path id="Trazado_131040" data-name="Trazado 131040" d="M1898.008,1938.263a2.541,2.541,0,0,1-2.608-2.705v-50.825a2.864,2.864,0,0,1,2.608-2.966l64.631-1.9a2.487,2.487,0,0,1,2.36,2.674V1930.8a2.806,2.806,0,0,1-2.36,2.91Z" transform="translate(-1894.046 -1874.073)" fill="url(#linear-gradient-4)"/>
          <path id="Trazado_131041" data-name="Trazado 131041" d="M1946.318,1861.412l-64.631,1.841a4.2,4.2,0,0,0-3.834,4.357v3.047l71.93-2.428v-2.889A3.65,3.65,0,0,0,1946.318,1861.412Z" transform="translate(-1877.724 -1856.912)" fill="#d8dee8"/>
          <path id="Trazado_131042" data-name="Trazado 131042" d="M1942.27,1923.132a1.307,1.307,0,0,1-1.247,1.307,1.212,1.212,0,0,1-1.249-1.229,1.306,1.306,0,0,1,1.249-1.307A1.212,1.212,0,0,1,1942.27,1923.132Z" transform="translate(-1935.318 -1913.175)" fill="#fff"/>
          <path id="Trazado_131043" data-name="Trazado 131043" d="M2004.887,1921.236a1.3,1.3,0,0,1-1.239,1.3,1.206,1.206,0,0,1-1.241-1.225,1.3,1.3,0,0,1,1.241-1.3A1.206,1.206,0,0,1,2004.887,1921.236Z" transform="translate(-1993.573 -1911.416)" fill="#fff"/>
          <path id="Trazado_131044" data-name="Trazado 131044" d="M2067.109,1919.352a1.3,1.3,0,0,1-1.231,1.3,1.2,1.2,0,0,1-1.233-1.221,1.294,1.294,0,0,1,1.233-1.3A1.2,1.2,0,0,1,2067.109,1919.352Z" transform="translate(-2051.46 -1909.666)" fill="#fff"/>
          <path id="Trazado_131045" data-name="Trazado 131045" d="M2005.222,2103.423l-63.417,4.334V2067.71l63.417-2.492Z" transform="translate(-1937.207 -2046.474)" fill="#d8dee8"/>
          <g id="Grupo_96580" data-name="Grupo 96580" transform="translate(4.598 14.788)" opacity="0.5">
            <path id="Trazado_131046" data-name="Trazado 131046" d="M1975.577,2024.007l-33.772,1.226v2.163l33.772-1.279Z" transform="translate(-1941.805 -2022.931)" fill="#fff"/>
            <path id="Trazado_131047" data-name="Trazado 131047" d="M2796.269,2008.749v2.069l3.692-.14v-2.064Z" transform="translate(-2736.543 -2008.615)" fill="#fff"/>
          </g>
          <g id="Grupo_96581" data-name="Grupo 96581" transform="translate(0 6.081)" opacity="0.5" style="mix-blend-mode: soft-light;isolation: isolate">
            <path id="Trazado_131048" data-name="Trazado 131048" d="M1928.682,1940.032l-48.693,3.477a3.48,3.48,0,0,1-.932-.059c-.056-.01-.11-.024-.166-.036-.108-.029-.215-.061-.32-.1s-.208-.081-.31-.129a3.655,3.655,0,0,1-.437-.246c-.093-.061-.183-.127-.268-.2s-.173-.144-.254-.222a4.032,4.032,0,0,1-1.2-2.5c0-.046-.078-.1-.078-.142v-51.24c0-.047,0-.09,0-.137s.007-.1.01-.159a4.934,4.934,0,0,1,.669-2.025c.01-.02.059-.037.068-.054a3.917,3.917,0,0,1,3.216-2.011l7.263-.2c0,.017,0,.034,0,.051v0a8.436,8.436,0,0,1,.477,1.33,27.5,27.5,0,0,0,2.69,5.461c.071.112.15.222.223.332a22.161,22.161,0,0,0,2.719,3.37,20.5,20.5,0,0,0,2.354,2.054,22.585,22.585,0,0,0,2.907,1.847s0,0,0,0a38.094,38.094,0,0,0,4.488,2.008c5.849,2.245,11.8,3.672,16.043,10.207,4.053,6.237,1.959,10.08,4.477,18.434.264.873.576,1.8.954,2.779q.147.384.307.783c.481,1.191,1,2.325,1.549,3.409q.7,1.387,1.466,2.665.381.637.771,1.244S1928.682,1940.029,1928.682,1940.032Z" transform="translate(-1876.027 -1884.048)" fill="#fff"/>
          </g>
          <g id="Grupo_96585" data-name="Grupo 96585" transform="translate(8.296)">
            <g id="Grupo_96584" data-name="Grupo 96584" clip-path="url(#clip-path-4)">
              <g id="Grupo_96583" data-name="Grupo 96583" transform="translate(3.739 12.351)">
                <path id="Trazado_131049" data-name="Trazado 131049" d="M2048.879,2419.088c-1.956-5.1.8-13.846,2.538-17.829,5.033-11.562,14.2-12.416,21.639-13.109,7.242-.675,14.171-1.32,19.205,6.877,3.271,5.327,6.268,15.239,4.271,20.752-2.106,5.813-7.982,1.834-22.133,2.75C2058.543,2419.554,2051.316,2425.438,2048.879,2419.088Z" transform="translate(-2048.206 -2358.843)" fill="#ffd41c"/>
                <path id="Trazado_131050" data-name="Trazado 131050" d="M2305.982,2393.952c0,1.4-3.267,3.253-7.315,3.471-4.068.22-7.382-1.295-7.382-2.706s3.313-.951,7.382-1.161C2302.716,2393.347,2305.982,2392.553,2305.982,2393.952Z" transform="translate(-2274.295 -2363.827)" fill="url(#linear-gradient-13)"/>
                <path id="Trazado_131051" data-name="Trazado 131051" d="M2318.916,2270.967c-1.122.052,1.465,8.123-2.613,9.458a.479.479,0,0,0-.1.869,12.719,12.719,0,0,0,6.5,1.055,8.392,8.392,0,0,0,4.575-1.673.472.472,0,0,0-.048-.8c-1.245-.606-2.975-2.654-2.458-8.975Z" transform="translate(-2297.25 -2250.135)" fill="url(#linear-gradient-14)"/>
                <path id="Trazado_131052" data-name="Trazado 131052" d="M2309.344,2067.542c.017.1.357,7.585,2.005,11.252.472,1.051,2.811.811,4.322.611,1.309-.174,3.358.226,3.934-.742,2.312-3.887,1.92-13.228,1.92-13.228s-1.184-3.07-6.057-2.8A6.841,6.841,0,0,0,2309.344,2067.542Z" transform="translate(-2291.091 -2056.402)" fill="url(#linear-gradient-15)"/>
                <path id="Trazado_131053" data-name="Trazado 131053" d="M2285.431,2172.344a4.2,4.2,0,0,0-2-1.325c-.972-.126-1.606,2.516-.279,4.159a1.873,1.873,0,0,0,2.854.164Z" transform="translate(-2266.027 -2157.226)" fill="url(#linear-gradient-16)"/>
                <path id="Trazado_131054" data-name="Trazado 131054" d="M2460.818,2164.109a4.664,4.664,0,0,1,1.971-1.482c.955-.2,1.576,2.358.274,4.1a1.844,1.844,0,0,1-2.813.413Z" transform="translate(-2431.449 -2149.414)" fill="url(#linear-gradient-17)"/>
                <path id="Trazado_131055" data-name="Trazado 131055" d="M2285.064,1988.8c.13.241.278.465.379.434.416-.13-1.19-4.277.289-5.811.764-.792,1.623-.131,4.739-.4s3.924-1.08,4.866-.52c.857.51,1.623,2.03.989,6.649l.53-.151a5,5,0,0,1,.319-3.064,3.594,3.594,0,0,0,.578-1.835c-.019-.5-.178-.519-.2-.93-.077-1.206,1.24-1.582,1.3-2.777.049-.92-.708-1.1-.57-2.067.118-.821.708-.995.615-1.582-.1-.633-.893-1.079-1.449-1.226s-.773.045-1.106-.184c-.538-.37-.28-1.069-.669-1.312-.694-.433-2.075,1.437-2.969,1.013-.542-.257-.333-1.085-.813-1.268-.927-.354-2.569,2.414-3.231,2.076-.317-.162-.011-.833-.456-1.305a1.788,1.788,0,0,0-2.35.114c-.534.583-.081,1.242-.646,1.978-.508.661-1.1.417-1.67.953-.977.912-.636,2.883-.515,3.586.417,2.421,1.717,2.862,1.425,4.534a3.905,3.905,0,0,0-.124,1.6A3.152,3.152,0,0,0,2285.064,1988.8Z" transform="translate(-2266.465 -1973.743)" fill="url(#linear-gradient-18)"/>
                <g id="Grupo_96582" data-name="Grupo 96582" transform="translate(16.403 4.011)" opacity="0.3" style="mix-blend-mode: multiply;isolation: isolate">
                  <path id="Trazado_131056" data-name="Trazado 131056" d="M2296.963,2036.45c-.113-1.183.766-1.77.618-2.611a1.908,1.908,0,0,0-1.546-1.366c-1.478-.225-2.436,2.087-3.91,1.9-1.141-.148-1.015-1.591-2.3-2.122-2.049-.844-4.2,2.037-5.571,1.311-.412-.218-.829-.8-.858-2.432-.787.966-.478,2.759-.364,3.423.417,2.421,1.716,2.862,1.425,4.534a3.9,3.9,0,0,0-.125,1.6,3.154,3.154,0,0,0,.739,1.5c.13.241.278.465.379.434.416-.13-1.19-4.277.289-5.811.763-.792,1.623-.131,4.739-.4s3.924-1.08,4.866-.52c.857.51,1.623,2.03.988,6.649l.53-.151a5,5,0,0,1,.319-3.064c.089-.184.208-.39.315-.626a5.566,5.566,0,0,0-.221-1.277A4.776,4.776,0,0,1,2296.963,2036.45Z" transform="translate(-2282.872 -2031.125)" fill="url(#linear-gradient-19)"/>
                </g>
              </g>
            </g>
          </g>
          <g id="Grupo_96586" data-name="Grupo 96586" transform="translate(24.184 50.968)">
            <path id="Trazado_131058" data-name="Trazado 131058" d="M2226.386,2544.994a2.39,2.39,0,0,1-2.181,2.391,2.074,2.074,0,0,1-2.187-2.134,2.39,2.39,0,0,1,2.187-2.391A2.074,2.074,0,0,1,2226.386,2544.994Z" transform="translate(-2222.018 -2541.694)" fill="#fff"/>
            <path id="Trazado_131059" data-name="Trazado 131059" d="M2372.329,2536.614a2.368,2.368,0,0,1-2.154,2.375,2.054,2.054,0,0,1-2.16-2.121,2.367,2.367,0,0,1,2.16-2.376A2.055,2.055,0,0,1,2372.329,2536.614Z" transform="translate(-2357.81 -2533.911)" fill="#fff"/>
            <path id="Trazado_131060" data-name="Trazado 131060" d="M2516.459,2528.337a2.347,2.347,0,0,1-2.128,2.36,2.036,2.036,0,0,1-2.133-2.109,2.347,2.347,0,0,1,2.133-2.36A2.037,2.037,0,0,1,2516.459,2528.337Z" transform="translate(-2491.916 -2526.224)" fill="#fff"/>
          </g>
        </g>
        <path id="Trazado_131061" data-name="Trazado 131061" d="M1903.111,1878.323v22.9c0,3.253-2.338,6.007-5.229,6.156l-17.258.893-3.243.166-1.354.071v-25.2c0-.046,0-.09,0-.137s.007-.1.01-.159a4.934,4.934,0,0,1,.669-2.025c.01-.02.059-.037.068-.054a3.917,3.917,0,0,1,3.216-2.01l7.288-.2a.473.473,0,0,0,.022.051Z" transform="translate(-1789.651 -1784.094)" fill="#d8dee8" style="mix-blend-mode: multiply;isolation: isolate"/>
        <g id="Grupo_96596" data-name="Grupo 96596" transform="translate(0 37.521)">
          <path id="Trazado_131062" data-name="Trazado 131062" d="M755.662,1076.14a5.808,5.808,0,0,0-4.179-5.788c-.085-.02-.179-.038-.266-.053a4.735,4.735,0,0,0-.8-.072l-49.942-.292-49.278-.288c-.1,0-.207,0-.309.006a5.768,5.768,0,0,0-3.478,1.393l-.053.045q-.207.18-.4.379l-.009.009c-.075.079-.148.16-.219.243a6.478,6.478,0,0,0-1.542,4.229v4.547h0v71.362a6.55,6.55,0,0,0,.19,1.574,6.239,6.239,0,0,0,.283.868,5.7,5.7,0,0,0,4.311,3.516,5.639,5.639,0,0,0,1.222.069l75.411-3.905h0l23.822-1.233c2.884-.149,5.23-2.9,5.23-6.154v-66.236h0Z" transform="translate(-644.849 -1069.463)" fill="#d8dee8"/>
          <g id="Grupo_96590" data-name="Grupo 96590" transform="translate(0 0.058)">
            <path id="Trazado_131063" data-name="Trazado 131063" d="M751.294,1075.491v70.53c0,3.253-2.339,6.009-5.229,6.157l-24.169,1.25-75.26,3.9a5.923,5.923,0,0,1-6.149-5.3c-.027-.239-.213-76.728-.213-76.728a6.679,6.679,0,0,1,1.159-3.473c.018-.028.119-.054.137-.081a5.967,5.967,0,0,1,5.024-2.757l11.47.067,87.992.515C748.946,1069.587,751.294,1072.237,751.294,1075.491Z" transform="translate(-640.274 -1068.908)" fill="#fff"/>
            <path id="Trazado_131064" data-name="Trazado 131064" d="M676.849,1182.166a3.967,3.967,0,0,1-4.092-4.108v-75.9a4.191,4.191,0,0,1,4.092-4.3l99.425.45a3.831,3.831,0,0,1,3.56,4.03v70.61a4.051,4.051,0,0,1-3.56,4.193Z" transform="translate(-670.487 -1095.769)" fill="url(#linear-gradient-4)"/>
            <path id="Trazado_131065" data-name="Trazado 131065" d="M750.635,1069.571l-99.425-.581a6.149,6.149,0,0,0-6.018,6.311v4.552l110.667-.137v-4.225C755.858,1072.238,753.524,1069.587,750.635,1069.571Z" transform="translate(-644.847 -1068.91)" fill="#d8dee8"/>
            <path id="Trazado_131066" data-name="Trazado 131066" d="M746.287,1123.095a1.956,1.956,0,1,1-1.953-1.895A1.918,1.918,0,0,1,746.287,1123.095Z" transform="translate(-735.24 -1117.471)" fill="#fff"/>
            <path id="Trazado_131067" data-name="Trazado 131067" d="M844.3,1123.424a1.938,1.938,0,1,1-1.935-1.886A1.905,1.905,0,0,1,844.3,1123.424Z" transform="translate(-826.436 -1117.786)" fill="#fff"/>
            <path id="Trazado_131068" data-name="Trazado 131068" d="M941.442,1123.751a1.921,1.921,0,1,1-1.918-1.878A1.893,1.893,0,0,1,941.442,1123.751Z" transform="translate(-916.819 -1118.097)" fill="#fff"/>
            <path id="Trazado_131069" data-name="Trazado 131069" d="M843.116,1431.214l-97.555,4.65v-59.743l97.555-.847Z" transform="translate(-738.201 -1353.786)" fill="#d8dee8"/>
            <g id="Grupo_96588" data-name="Grupo 96588" transform="translate(7.359 15.695)" opacity="0.5">
              <path id="Trazado_131070" data-name="Trazado 131070" d="M797.967,1295.392l-52.406.243v3.227l52.406-.354Z" transform="translate(-745.561 -1295.183)" fill="#fff"/>
              <path id="Trazado_131071" data-name="Trazado 131071" d="M2061.409,1292.421v3.033l5.58-.038V1292.4Z" transform="translate(-1969.434 -1292.395)" fill="#fff"/>
            </g>
            <g id="Grupo_96589" data-name="Grupo 96589" opacity="0.5" style="mix-blend-mode: soft-light;isolation: isolate">
              <path id="Trazado_131072" data-name="Trazado 131072" d="M721.894,1152.375l-75.258,3.9a5.939,5.939,0,0,1-6.168-5.3c0-.07-.194-76.762-.194-76.762a6.769,6.769,0,0,1,1.14-3.439c.018-.028.128-.054.146-.081a5.969,5.969,0,0,1,5.065-2.836l11.409.067c.008.026.029.053.039.079.213.659.452,1.328.709,2.006a41.859,41.859,0,0,0,4.174,8.259c.11.17.224.336.339.5a34.933,34.933,0,0,0,4.23,5.141,33.19,33.19,0,0,0,3.656,3.16,37.352,37.352,0,0,0,4.513,2.876c11.057,6.031,23.445,6.572,31.645,18.935,7.017,10.579,1.992,16.347,8.776,32.612q1.105,2.651,2.367,5.062,1.07,2.062,2.236,3.96C721.1,1151.149,721.5,1151.769,721.894,1152.375Z" transform="translate(-640.274 -1067.855)" fill="#fff"/>
            </g>
          </g>
          <g id="Grupo_96591" data-name="Grupo 96591" transform="translate(37.82 66.421)">
            <path id="Trazado_131073" data-name="Trazado 131073" d="M1189.139,2037.865a4.17,4.17,0,0,1-3.887,4.193,3.78,3.78,0,0,1-3.908-3.878,4.167,4.167,0,0,1,3.908-4.194A3.782,3.782,0,0,1,1189.139,2037.865Z" transform="translate(-1181.344 -2032.816)" fill="#fff"/>
            <path id="Trazado_131074" data-name="Trazado 131074" d="M1414.834,2029.38a4.1,4.1,0,0,1-3.8,4.145,3.72,3.72,0,0,1-3.823-3.837,4.1,4.1,0,0,1,3.823-4.146A3.721,3.721,0,0,1,1414.834,2029.38Z" transform="translate(-1391.422 -2024.962)" fill="#fff"/>
            <path id="Trazado_131075" data-name="Trazado 131075" d="M1635.6,2021.08a4.038,4.038,0,0,1-3.72,4.1,3.661,3.661,0,0,1-3.74-3.8,4.036,4.036,0,0,1,3.74-4.1A3.663,3.663,0,0,1,1635.6,2021.08Z" transform="translate(-1596.91 -2017.28)" fill="#fff"/>
          </g>
          <g id="Grupo_96594" data-name="Grupo 96594" transform="translate(13.176)">
            <g id="Grupo_96593" data-name="Grupo 96593" clip-path="url(#clip-path-5)">
              <g id="Grupo_96592" data-name="Grupo 96592" transform="translate(3.371 0.326)">
                <path id="Trazado_131076" data-name="Trazado 131076" d="M918.967,1737.556c-26.407,1.383-35.861,5.314-40.179-.269-3.993-5.163-.684-24.419,4.061-29.912,7.447-8.622,19.268-9.285,35.179-10.059,14.693-.715,23.621-1.15,30.6,4.994,6.474,5.7,10.583,25.727,6.577,31.51C951.472,1739.211,943.431,1736.274,918.967,1737.556Z" transform="translate(-877.005 -1653.215)" fill="#26d19e"/>
                <path id="Trazado_131077" data-name="Trazado 131077" d="M1286.287,1685.392l-3.084.851a1.157,1.157,0,0,0-.681,1.736c2.1,3.215,7.648,11.245,11.1,12.1,3.556.884,10.159-9.576,12.345-13.235a1.111,1.111,0,0,0-.615-1.646l-2.211-.664a14.5,14.5,0,0,0-5.63-.532l-8.348.846A17.412,17.412,0,0,0,1286.287,1685.392Z" transform="translate(-1254.008 -1641.136)" fill="url(#linear-gradient-21)"/>
                <path id="Trazado_131078" data-name="Trazado 131078" d="M1362.873,1531.887s1.686,12.085-.646,13.292l6.622,7.058,6.656-8.668s-2.51-1.849-1.848-11.83Z" transform="translate(-1328.311 -1499.582)" fill="url(#linear-gradient-22)"/>
                <path id="Trazado_131079" data-name="Trazado 131079" d="M1307.216,1230.1c-.241.326-3.38,15.676,7.434,17.133,10.677,1.439,11.145-9.758,11.01-14.5s-5-6.466-7.8-6.8S1308.071,1228.948,1307.216,1230.1Z" transform="translate(-1276.582 -1215.134)" fill="url(#linear-gradient-23)"/>
                <path id="Trazado_131080" data-name="Trazado 131080" d="M1266.463,1394.582s-.543-2.5-2.4-.923,1.1,5.7,3.537,5.5Z" transform="translate(-1236.458 -1370.669)" fill="url(#linear-gradient-24)"/>
                <path id="Trazado_131081" data-name="Trazado 131081" d="M1558.745,1378.891c-.305.21-1.181,6.032-1.181,6.032s1.532.164,2.64-1.933S1561.841,1376.76,1558.745,1378.891Z" transform="translate(-1509.994 -1356.866)" fill="url(#linear-gradient-25)"/>
                <path id="Trazado_131082" data-name="Trazado 131082" d="M1227.7,1082.6c-1.113-1.862-3.931-.978-4.755-2.779-.693-1.514.935-2.934.062-4.243-.731-1.1-2.521-1.076-2.839-1.072-2.425.028-2.981,1.956-4.716,1.908-2.123-.059-2.206-2.967-5.022-4.206-2.741-1.206-6.764-.256-8.4,1.978-1.27,1.74-.189,3.024-1.856,5.262-1.148,1.542-2.164,1.611-2.735,3.122a5.833,5.833,0,0,0,.11,3.775c.681,2.4,1.948,3.459,3.859,6.005a40.913,40.913,0,0,1,3.232,5.044,56.928,56.928,0,0,1,1.895,6.021c.607,2.377.57,2.861,1.137,3.624,1.951,2.629,6.387,2.3,8.247,2.157,2.127-.159,4.768-.357,6.093-2.227.716-1.009.626-1.91.792-4.325a60.227,60.227,0,0,1,.918-7.076,21.673,21.673,0,0,1,.862-3c.768-2.068,1.564-2.4,2.429-4.536C1227.716,1086.326,1228.61,1084.119,1227.7,1082.6Zm-8.79,16.174c-1.313.37-2.2.06-3.984-.024-3.58-.168-4.715,1.524-6.413.8a4.356,4.356,0,0,1-2.7-2.8,13.283,13.283,0,0,1-.112-4.239c.282-2.077.608-4.472,2.274-5.536,2.412-1.541,5.482,1.083,7.681-.63a3.972,3.972,0,0,0,1.329-2.4,9.579,9.579,0,0,1,5.763,5.694,9.355,9.355,0,0,1-.052,6.052A6.984,6.984,0,0,1,1218.915,1098.778Z" transform="translate(-1174.794 -1071.685)" fill="#26264f"/>
                <path id="Trazado_131083" data-name="Trazado 131083" d="M1398.161,1493.1a8.8,8.8,0,0,0,5.78-.234c.241-.094.446.167.245.313a5.368,5.368,0,0,1-3.359,1.164,6.911,6.911,0,0,1-2.871-.906C1397.734,1493.318,1397.909,1493.03,1398.161,1493.1Z" transform="translate(-1361.448 -1463.412)" fill="url(#linear-gradient-26)"/>
              </g>
            </g>
          </g>
          <g id="Grupo_96595" data-name="Grupo 96595" transform="translate(38.31 67.148)">
            <path id="Trazado_131085" data-name="Trazado 131085" d="M1195.114,2046.278a3.519,3.519,0,0,1-3.371,3.476,3.221,3.221,0,0,1-3.384-3.229,3.518,3.518,0,0,1,3.384-3.477A3.221,3.221,0,0,1,1195.114,2046.278Z" transform="translate(-1188.359 -2041.971)" fill="#fff"/>
            <path id="Trazado_131086" data-name="Trazado 131086" d="M1420.379,2038.495a3.47,3.47,0,0,1-3.309,3.443,3.177,3.177,0,0,1-3.322-3.2,3.469,3.469,0,0,1,3.322-3.443A3.177,3.177,0,0,1,1420.379,2038.495Z" transform="translate(-1397.994 -2034.759)" fill="#fff"/>
            <path id="Trazado_131087" data-name="Trazado 131087" d="M1641.521,2030.854a3.423,3.423,0,0,1-3.249,3.41,3.133,3.133,0,0,1-3.261-3.173,3.422,3.422,0,0,1,3.261-3.411A3.134,3.134,0,0,1,1641.521,2030.854Z" transform="translate(-1603.79 -2027.679)" fill="#fff"/>
          </g>
        </g>
      </g>
    </g>
    <g id="Grupo_96605" data-name="Grupo 96605" transform="translate(232.331 376.991)">
      <path id="Trazado_130975" data-name="Trazado 130975" d="M295.757,91.354s-18.394,28.013-17.648,28.991,7.542,5.676,10.042,4.662S304.3,95.256,304.3,95.256Z" transform="translate(-228.696 -37.865)" fill="#26d19e"/>
      <g id="Grupo_96546" data-name="Grupo 96546">
        <path id="Trazado_130976" data-name="Trazado 130976" d="M333.836,86.024c-.34,6.826-4.612,24.4-10.756,24.23-5.524-.151-21.463-9.454-33.913-12.912-1.364-.381-2.7-.691-3.96-.912-11.749-2.035-33.543-5.072-46.414-.682a5.027,5.027,0,0,1-2.767.151,4.368,4.368,0,0,1-1.353-.482,4.923,4.923,0,0,1-2.155-2.285c-1.7-3.649-3.008-10.265-.381-21.613,3.389-14.626,6.777-24.951,12.722-30.295a4.9,4.9,0,0,1,5.624-.652,4.987,4.987,0,0,1,1.013.712,4.862,4.862,0,0,1,.932,1.123c2.637,4.37,7.348,11.007,13.493,14.776,8.02,4.922,20.661,10.2,33.553,14.566,2.757.932,5.523,1.824,8.26,2.666C323.25,79.2,334.177,79.2,333.836,86.024Z" transform="translate(-230.644 -39.974)" fill="#26d19e"/>
        <path id="Trazado_130977" data-name="Trazado 130977" d="M250.261,54.907c-.19,1.885-.4,3.77-.671,5.634a78.683,78.683,0,0,1-2.6,12.341c-.812,2.606-1.784,5.152-2.827,7.659-.31.761-.631,1.514-.962,2.265-1.444,3.328-3.839,9.964-7.178,13.092a4.368,4.368,0,0,1-1.353-.482,4.923,4.923,0,0,1-2.155-2.285c-1.7-3.649-3.008-10.265-.381-21.613,3.389-14.626,6.777-24.951,12.722-30.295a4.9,4.9,0,0,1,5.624-.652A66.583,66.583,0,0,1,250.261,54.907Z" transform="translate(-230.644 -39.974)" fill="#764cf0"/>
        <g id="Grupo_96544" data-name="Grupo 96544" transform="translate(58.523 31.775)">
          <g id="Grupo_96542" data-name="Grupo 96542" transform="translate(40.088 18.656)">
            <path id="Trazado_130978" data-name="Trazado 130978" d="M334.77,97.137a5.862,5.862,0,0,1-3.99,3.549,7.262,7.262,0,0,1-2.546.231,9.176,9.176,0,0,1-2.867-.732c.4-4.391,2.276-7.589,3.659-11.769l.531.18a9.072,9.072,0,0,1,4.231,3.027A6.074,6.074,0,0,1,334.77,97.137Z" transform="translate(-325.366 -88.416)" fill="#764cf0"/>
            <path id="Trazado_130979" data-name="Trazado 130979" d="M328.233,100.917a9.176,9.176,0,0,1-2.867-.732c.4-4.391,2.276-7.589,3.659-11.769l.531.18A39.257,39.257,0,0,1,328.233,100.917Z" transform="translate(-325.366 -88.416)" fill="#764cf0" opacity="0.46"/>
          </g>
          <path id="Trazado_130980" data-name="Trazado 130980" d="M331.528,84.771c-.34,6.826-4.612,24.4-10.756,24.23-1.715-.041-4.441-.972-7.75-2.336-.07-.03-.15-.059-.23-.1-.862-.351-1.765-.742-2.7-1.152-.07-.03-.15-.06-.23-.1-6.947-3.037-15.6-7.168-23.006-9.223A22.733,22.733,0,0,0,291.39,90.1,47.129,47.129,0,0,0,297.164,70.5c2.757.932,5.523,1.824,8.26,2.666,5.283,1.634,10.035,2.707,13.995,3.679l.24.06c1.313.331,2.536.641,3.649.972a2.094,2.094,0,0,1,.24.07C328.722,79.448,331.709,81.152,331.528,84.771Z" transform="translate(-286.859 -70.496)" fill="#764cf0"/>
          <g id="Grupo_96543" data-name="Grupo 96543" transform="translate(23.006 6.345)">
            <path id="Trazado_130981" data-name="Trazado 130981" d="M322.526,77.653a57.768,57.768,0,0,1-5.734,21.4A30.018,30.018,0,0,1,312,106.373c-.07-.03-.15-.059-.23-.1a30.309,30.309,0,0,0,4.8-7.328,57.56,57.56,0,0,0,5.714-21.362A2.088,2.088,0,0,1,322.526,77.653Z" transform="translate(-308.843 -76.55)" fill="#faf0e3"/>
            <path id="Trazado_130982" data-name="Trazado 130982" d="M318.752,76.651a68.038,68.038,0,0,1-9.564,28.51c-.07-.03-.15-.06-.23-.1a67.717,67.717,0,0,0,9.554-28.47Z" transform="translate(-308.958 -76.591)" fill="#faf0e3"/>
          </g>
        </g>
        <g id="Grupo_96545" data-name="Grupo 96545" transform="translate(7.782 20.567)">
          <path id="Trazado_130983" data-name="Trazado 130983" d="M249.282,59.73c-.15,1.133-.321,2.256-.522,3.378a71.291,71.291,0,0,1-2.075,8.962c-.812,2.606-1.784,5.152-2.827,7.659-.351-.291-.8-.682-1.3-1.143-2.015-1.865-4.732-4.862-4.411-7.2.511-3.669,2.3-9.643,4.09-10.576C243.388,60.2,246.916,59.89,249.282,59.73Z" transform="translate(-238.119 -59.73)" fill="#fff"/>
          <path id="Trazado_130984" data-name="Trazado 130984" d="M248.586,62.975a71.3,71.3,0,0,1-2.075,8.962c-.812,2.606-1.784,5.152-2.827,7.659-.351-.291-.8-.682-1.3-1.143A69.922,69.922,0,0,0,248.586,62.975Z" transform="translate(-237.944 -59.597)" fill="#b7b8fb" opacity="0.32"/>
        </g>
      </g>
    </g>
    <g id="Grupo_96606" data-name="Grupo 96606" transform="translate(250.176 449.98)">
      <g id="Grupo_96599" data-name="Grupo 96599" transform="translate(0 0)">
        <path id="Trazado_131088" data-name="Trazado 131088" d="M543.882,840.17a14.4,14.4,0,0,0,3.315-9.036c0-9.621-10.244-17.42-22.881-17.42s-22.88,7.8-22.88,17.42,10.244,17.42,22.88,17.42a28.057,28.057,0,0,0,12.786-2.972c2.413.412,6.158,1.1,8.135,1.471a.76.76,0,0,0,.85-1.015Z" transform="translate(-501.436 -813.713)" fill="url(#linear-gradient-27)"/>
        <g id="Grupo_96598" data-name="Grupo 96598" transform="translate(0 2.764)" opacity="0.3" style="mix-blend-mode: multiply;isolation: isolate">
          <path id="Trazado_131089" data-name="Trazado 131089" d="M536.837,871.6c-5.131-2.156-10.772,2.4-14.3-.78-3.556-3.2.286-9.53-3.12-14.04-1.624-2.15-4.352-3.168-7.472-3.523-6.322,3.1-10.509,8.506-10.509,14.656,0,9.621,10.244,17.42,22.88,17.42A28.057,28.057,0,0,0,537.1,882.36c1.9.325,4.637.824,6.676,1.2C542.275,875.76,539.507,872.72,536.837,871.6Z" transform="translate(-501.436 -853.255)" fill="url(#linear-gradient-28)"/>
        </g>
      </g>
      <g id="Grupo_96601" data-name="Grupo 96601" transform="translate(8.482 10.175)">
        <path id="Trazado_131090" data-name="Trazado 131090" d="M652.358,960.166a.878.878,0,0,1-.878.878H623.664a.878.878,0,0,1-.878-.878h0a.878.878,0,0,1,.878-.878H651.48a.878.878,0,0,1,.878.878Z" transform="translate(-622.786 -959.288)" fill="#fff"/>
        <g id="Grupo_96600" data-name="Grupo 96600" transform="translate(0 5.27)">
          <path id="Trazado_131091" data-name="Trazado 131091" d="M652.358,1035.567a.878.878,0,0,1-.878.878H623.664a.878.878,0,0,1-.878-.878h0a.878.878,0,0,1,.878-.878H651.48a.878.878,0,0,1,.878.878Z" transform="translate(-622.786 -1034.689)" fill="#fff"/>
          <path id="Trazado_131092" data-name="Trazado 131092" d="M639.182,1110.967a.878.878,0,0,1-.878.879h-14.64a.878.878,0,0,1-.878-.879h0a.878.878,0,0,1,.878-.878H638.3a.878.878,0,0,1,.878.878Z" transform="translate(-622.786 -1104.819)" fill="#fff"/>
        </g>
      </g>
    </g>
  </g>
</svg>
