<svg xmlns="http://www.w3.org/2000/svg" width="55.667" height="63.337" viewBox="0 0 55.667 63.337">
  <g id="informacion-personal" transform="translate(-31)">
    <g id="Grupo_95622" data-name="Grupo 95622" transform="translate(31.928 0.928)">
      <path id="Trazado_124954" data-name="Trazado 124954" d="M289.015,394.564h-4.9L278.5,383.28l18.556,3.862v3.711Z" transform="translate(-248.811 -336.794)" fill="#a2abb8"/>
      <path id="Trazado_124955" data-name="Trazado 124955" d="M363.5,448.211h6.185a1.861,1.861,0,0,0,1.856-1.856V444.5H363.5Z" transform="translate(-323.296 -390.441)" fill="#c8d2dc"/>
      <path id="Trazado_124956" data-name="Trazado 124956" d="M214.478,54.2H221.9a1.861,1.861,0,0,1,1.856,1.856v40.86a1.861,1.861,0,0,1-1.856,1.856H190.356a1.861,1.861,0,0,1-1.856-1.856V83.679Z" transform="translate(-169.944 -48.423)" fill="#e9edf1"/>
      <path id="Trazado_124957" data-name="Trazado 124957" d="M190.356,54.2h24.122V88.524a1.861,1.861,0,0,1-1.856,1.856h-4.948v8.391h-3.711L188.5,56.056a1.861,1.861,0,0,1,1.856-1.856Z" transform="translate(-169.944 -48.423)" fill="#c8d2dc"/>
      <path id="Trazado_124958" data-name="Trazado 124958" d="M40.356,99.2a1.861,1.861,0,0,0-1.856,1.856v47.31a.975.975,0,0,0,.972.972H72.784a.975.975,0,0,0,.972-.972v-1.5Z" transform="translate(-38.5 -87.856)" fill="#ffd064"/>
      <path id="Trazado_124959" data-name="Trazado 124959" d="M60.3,99.2H53.5v46.78a.886.886,0,0,0,.883.883H86.9V127.442Z" transform="translate(-51.644 -87.856)" fill="#fff0af"/>
      <path id="Trazado_124960" data-name="Trazado 124960" d="M133.241,99.2H108.5v26.386a1.861,1.861,0,0,0,1.856,1.856H135.1V101.056A1.861,1.861,0,0,0,133.241,99.2Z" transform="translate(-99.841 -87.856)" fill="#ffd064"/>
      <path id="Trazado_124961" data-name="Trazado 124961" d="M158.189,44.611H130.356a1.861,1.861,0,0,1-1.856-1.856V9.356A1.861,1.861,0,0,1,130.356,7.5h27.834a1.861,1.861,0,0,1,1.856,1.856v33.4A1.861,1.861,0,0,1,158.189,44.611Z" transform="translate(-117.367 -7.5)" fill="#dce7ef"/>
      <path id="Trazado_124962" data-name="Trazado 124962" d="M174.579,190.044c-1.128.821-6.906.821-8.034,0-1.968,2.651-8.044,1.208-8.044,7.6v3.223h24.122V197.64C182.623,191.252,176.547,192.7,174.579,190.044Z" transform="translate(-143.656 -167.462)" fill="#81a9c8"/>
      <path id="Trazado_124963" data-name="Trazado 124963" d="M231.562,175.313a3.359,3.359,0,0,1-.608-2.08h-6.818a3.359,3.359,0,0,1-.608,2.08,6.828,6.828,0,0,0,8.034,0Z" transform="translate(-200.639 -152.731)" fill="#4980ac"/>
      <path id="Trazado_124964" data-name="Trazado 124964" d="M214.426,46.034a6.834,6.834,0,1,0-13.667,0v3.826a6.834,6.834,0,1,0,13.667,0Z" transform="translate(-180.687 -35.279)" fill="#81a9c8"/>
    </g>
    <g id="Grupo_95623" data-name="Grupo 95623" transform="translate(31)">
      <path id="Trazado_124965" data-name="Trazado 124965" d="M65.328,63.337H33.783A2.787,2.787,0,0,1,31,60.554V14.127a2.787,2.787,0,0,1,2.783-2.783h5.333a.928.928,0,1,1,0,1.856H33.783a.929.929,0,0,0-.928.928V60.554a.929.929,0,0,0,.928.928H65.328a.929.929,0,0,0,.928-.928V38.967H44.917a2.787,2.787,0,0,1-2.783-2.783V2.783A2.787,2.787,0,0,1,44.917,0H72.75a2.787,2.787,0,0,1,2.783,2.783v9.278a.928.928,0,0,1-1.856,0V2.783a.929.929,0,0,0-.928-.928H44.917a.929.929,0,0,0-.928.928v33.4a.929.929,0,0,0,.928.928H72.75a.929.929,0,0,0,.928-.928V15.772a.928.928,0,0,1,.928-.928h5.567a.928.928,0,0,1,0,1.856H75.534v3.711h4.639a.928.928,0,0,1,0,1.856H75.534v3.711h4.639a.928.928,0,0,1,0,1.856H75.534v3.711h4.639a.928.928,0,0,1,0,1.856H75.534v2.783a2.772,2.772,0,0,1-.159.928h4.8a.928.928,0,0,1,0,1.856H68.111v3.711H80.173a.928.928,0,0,1,0,1.856H68.111v5.814H83.884a.929.929,0,0,0,.928-.928V8.56a.929.929,0,0,0-.928-.928H78.317a.928.928,0,1,1,0-1.856h5.567A2.787,2.787,0,0,1,86.667,8.56V49.42A2.787,2.787,0,0,1,83.884,52.2H68.111V57.77H78.317a.929.929,0,0,0,.928-.928V54.987a.928.928,0,1,1,1.856,0v1.856a2.787,2.787,0,0,1-2.783,2.783H68.111v.928A2.787,2.787,0,0,1,65.328,63.337Zm5.567-28.081H46.772a.928.928,0,0,1-.928-.928V31.105c0-4.767,3.152-5.858,5.454-6.655,1.9-.657,2.978-1.1,3.168-2.529a7.759,7.759,0,0,1-3.394-6.413V11.683a7.761,7.761,0,0,1,15.523,0v3.826A7.759,7.759,0,0,1,63.2,21.921c.19,1.429,1.269,1.872,3.168,2.529,2.3.8,5.454,1.887,5.454,6.655v3.223a.928.928,0,0,1-.928.928ZM47.7,33.4H69.967v-2.3c0-3.446-1.949-4.12-4.2-4.9-1.666-.577-3.675-1.272-4.272-3.4a7.769,7.769,0,0,1-5.313,0c-.6,2.13-2.606,2.826-4.272,3.4-2.256.781-4.2,1.455-4.2,4.9ZM58.834,5.777a5.912,5.912,0,0,0-5.906,5.906v3.826a5.906,5.906,0,0,0,11.812,0V11.683A5.912,5.912,0,0,0,58.834,5.777Z" transform="translate(-31)"/>
    </g>
  </g>
</svg>
