<svg xmlns="http://www.w3.org/2000/svg" width="133" height="133" viewBox="0 0 133 133">
  <g id="Grupo_96609" data-name="Grupo 96609" transform="translate(-383 -1349)">
    <g id="_240_F_327287600_TyhZPz7Qge3YOTv4dab7M9xRDBiZxF9G" data-name="240_F_327287600_TyhZPz7Qge3YOTv4dab7M9xRDBiZxF9G" transform="translate(383 1349)" fill="#fff" stroke="#21155c" stroke-width="3">
      <circle cx="66.5" cy="66.5" r="66.5" stroke="none"/>
      <circle cx="66.5" cy="66.5" r="65" fill="none"/>
    </g>
    <g id="alto-valor" transform="translate(413 1379)">
      <g id="Grupo_95619" data-name="Grupo 95619" transform="translate(2.161 2.161)">
        <g id="Grupo_95608" data-name="Grupo 95608" transform="translate(46.452 62.71)">
          <path id="Trazado_124902" data-name="Trazado 124902" d="M42,56H58.258v6.968H42Z" transform="translate(-42 -56)" fill="#5cd6b3"/>
        </g>
        <g id="Grupo_95609" data-name="Grupo 95609" transform="translate(6.968 62.71)">
          <path id="Trazado_124903" data-name="Trazado 124903" d="M8,56H24.258v6.968H8Z" transform="translate(-8 -56)" fill="#5cd6b3"/>
        </g>
        <g id="Grupo_95610" data-name="Grupo 95610" transform="translate(0 18.615)">
          <path id="Trazado_124904" data-name="Trazado 124904" d="M8.968,37.737V22.64a2.339,2.339,0,0,1,2.323-2.323,2.329,2.329,0,0,1,2.323,2.323V20.318a2.317,2.317,0,0,1,2.009-2.288,14.722,14.722,0,0,0,2.636,4.61v.012a14.172,14.172,0,0,0,2.23,2.183l2.474,1.951,2.845,2.253L27.548,30.4V47.643a21.918,21.918,0,0,1-2.323,9.836v4.645H8.968V57.479L5.751,53.612a11.616,11.616,0,0,1-2.683-6.968C2.79,40.234,2,33.092,2,33.092a1.165,1.165,0,0,1,1.161-1.161A5.809,5.809,0,0,1,8.968,37.737Z" transform="translate(-2 -18.03)" fill="#f0d0b4"/>
        </g>
        <g id="Grupo_95611" data-name="Grupo 95611" transform="translate(44.129 18.615)">
          <path id="Trazado_124905" data-name="Trazado 124905" d="M58.581,37.737a5.809,5.809,0,0,1,5.806-5.806,1.165,1.165,0,0,1,1.161,1.161s-.79,7.142-1.068,13.552A11.615,11.615,0,0,1,61.8,53.612l-3.217,3.867v4.645H42.323V57.479A21.918,21.918,0,0,1,40,47.643V30.4l1.742-1.359,2.845-2.253,2.474-1.951a14.172,14.172,0,0,0,2.23-2.183V22.64a14.722,14.722,0,0,0,2.636-4.61,2.317,2.317,0,0,1,2.009,2.288V22.64a2.329,2.329,0,0,1,2.323-2.323,2.34,2.34,0,0,1,2.323,2.323Z" transform="translate(-40 -18.03)" fill="#f0d0b4"/>
        </g>
        <g id="Grupo_95612" data-name="Grupo 95612" transform="translate(12.774)">
          <path id="Trazado_124906" data-name="Trazado 124906" d="M57.129,15.6v.023a15.085,15.085,0,0,1-.848,4.994,14.722,14.722,0,0,1-2.636,4.61v.012a14.172,14.172,0,0,1-2.23,2.183l-2.474,1.951L46.1,31.625c-.244-.244-.557-.546-.871-.871A6.932,6.932,0,0,0,40.3,28.71H38.548l-1.01-3.031a4.526,4.526,0,0,0,2.044-2.8l.081.023h1.359a2.076,2.076,0,0,0,1.533-.685,2.381,2.381,0,0,0,.639-1.637,2.346,2.346,0,0,0-.65-1.649l.65-2.381a3.745,3.745,0,0,0,.1-.883,3.623,3.623,0,0,0-2.392-3.414l-4.924-1.788a5.513,5.513,0,0,0-6.317,1.881l-.592.778a2.24,2.24,0,0,0-2.241,2.241,9.346,9.346,0,0,0,.383,2.346c.186.708.372,1.219.372,1.219a2.346,2.346,0,0,0-.65,1.649,2.381,2.381,0,0,0,.639,1.637,2.076,2.076,0,0,0,1.533.685h1.359l.081-.023a4.526,4.526,0,0,0,2.044,2.8l-1.01,3.031H29.827A6.932,6.932,0,0,0,24.9,30.754c-.314.325-.627.627-.871.871l-2.845-2.253-2.474-1.951a14.172,14.172,0,0,1-2.23-2.183v-.012a14.722,14.722,0,0,1-2.636-4.61A15.085,15.085,0,0,1,13,15.622V15.6a15.015,15.015,0,0,1,2.288-7.966,11.99,11.99,0,0,1,18.65-2.114l1.126,1.126,1.126-1.126a11.982,11.982,0,0,1,18.65,2.114A15.015,15.015,0,0,1,57.129,15.6Z" transform="translate(-13 -2)" fill="#ff826e"/>
        </g>
        <g id="Grupo_95613" data-name="Grupo 95613" transform="translate(23.806 26.71)">
          <path id="Trazado_124907" data-name="Trazado 124907" d="M30.048,25l3.484,3.867L37.016,25H38.77a6.932,6.932,0,0,1,4.924,2.044c.314.325.627.627.871.871l-1.742,1.359v.012l-9.29,7.328-9.29-7.328v-.012L22.5,27.915c.244-.244.557-.546.871-.871A6.932,6.932,0,0,1,28.295,25Z" transform="translate(-22.5 -25)" fill="#fcd770"/>
        </g>
        <g id="Grupo_95614" data-name="Grupo 95614" transform="translate(26.605 8.129)">
          <path id="Trazado_124908" data-name="Trazado 124908" d="M30.484,14.806A4.345,4.345,0,0,0,28.7,17.187l-.2-.058H27.186a2.083,2.083,0,0,0-1.521.674s-.186-.511-.372-1.219a9.346,9.346,0,0,1-.383-2.346A2.24,2.24,0,0,1,27.151,12l.592-.778a5.513,5.513,0,0,1,6.317-1.881l4.924,1.788a3.623,3.623,0,0,1,2.392,3.414,3.745,3.745,0,0,1-.1.883l-.65,2.381a2.083,2.083,0,0,0-1.521-.674H37.789a13.723,13.723,0,0,1-4.9-1.161,22.012,22.012,0,0,1-2.4-1.161Z" transform="translate(-24.91 -9)" fill="#656d78"/>
        </g>
        <g id="Grupo_95615" data-name="Grupo 95615" transform="translate(31.355 23.679)">
          <path id="Trazado_124909" data-name="Trazado 124909" d="M29,25.421l1.01-3.031a4.673,4.673,0,0,0,4.947,0l1.01,3.031-3.484,3.867Z" transform="translate(-29 -22.39)" fill="#f0d0b4"/>
        </g>
        <g id="Grupo_95616" data-name="Grupo 95616" transform="translate(39.356 16.258)">
          <path id="Trazado_124910" data-name="Trazado 124910" d="M38.851,16.674a2.346,2.346,0,0,1,.65,1.649,2.381,2.381,0,0,1-.639,1.637,2.076,2.076,0,0,1-1.533.685H35.971l-.081-.023a4.639,4.639,0,0,0,.128-1.068V16H37.33a2.083,2.083,0,0,1,1.521.674Z" transform="translate(-35.89 -16)" fill="#f0d0b4"/>
        </g>
        <g id="Grupo_95617" data-name="Grupo 95617" transform="translate(30.194 13.935)">
          <path id="Trazado_124911" data-name="Trazado 124911" d="M30.172,23.743a4.526,4.526,0,0,1-2.044-2.8A4.639,4.639,0,0,1,28,19.876V17.658a4.257,4.257,0,0,1,.2-1.277A4.345,4.345,0,0,1,29.986,14a22.012,22.012,0,0,0,2.4,1.161,13.723,13.723,0,0,0,4.9,1.161v3.554a4.639,4.639,0,0,1-.128,1.068,4.526,4.526,0,0,1-2.044,2.8,4.673,4.673,0,0,1-4.947,0Z" transform="translate(-28 -14)" fill="#f0d0b4"/>
        </g>
        <g id="Grupo_95618" data-name="Grupo 95618" transform="translate(26.71 16.258)">
          <path id="Trazado_124912" data-name="Trazado 124912" d="M28.484,19.554a4.639,4.639,0,0,0,.128,1.068l-.081.023H27.172a2.076,2.076,0,0,1-1.533-.685A2.381,2.381,0,0,1,25,18.323a2.346,2.346,0,0,1,.65-1.649A2.083,2.083,0,0,1,27.172,16h1.312l.2.058a4.257,4.257,0,0,0-.2,1.277Z" transform="translate(-25 -16)" fill="#f0d0b4"/>
        </g>
      </g>
      <path id="Trazado_124913" data-name="Trazado 124913" d="M70.677,33.516A6.932,6.932,0,0,0,66.032,35.3V25.387A3.488,3.488,0,0,0,62.548,21.9a3.449,3.449,0,0,0-1.3.257,3.49,3.49,0,0,0-1.62-2.1A16.078,16.078,0,0,0,57.764,7.182,13.073,13.073,0,0,0,46.612,1a13.248,13.248,0,0,0-9.3,3.854l-.31.31-.31-.31A13.246,13.246,0,0,0,27.388,1,13.077,13.077,0,0,0,16.235,7.182a16.088,16.088,0,0,0-1.869,12.876,3.489,3.489,0,0,0-1.618,2.1,3.474,3.474,0,0,0-4.781,3.228V35.3a6.932,6.932,0,0,0-4.645-1.788A2.325,2.325,0,0,0,1,35.839l.007.128c.007.072.792,7.178,1.063,13.476a12.9,12.9,0,0,0,2.95,7.667l2.949,3.537V73H26.548V60.5a23.28,23.28,0,0,0,2.323-10.109V35.546L37,41.963l8.129-6.417v14.84A23.28,23.28,0,0,0,47.452,60.5V73H66.032V60.646l2.95-3.54a12.905,12.905,0,0,0,2.949-7.666c.271-6.3,1.056-13.4,1.063-13.476L73,35.839a2.325,2.325,0,0,0-2.323-2.323ZM18.2,8.414a10.766,10.766,0,0,1,9.183-5.091A10.908,10.908,0,0,1,35.048,6.5L37,8.449,38.952,6.5a10.908,10.908,0,0,1,7.66-3.174A10.766,10.766,0,0,1,55.8,8.414,13.891,13.891,0,0,1,52.63,26.665l-4.512,3.562-.13-.131a8.191,8.191,0,0,0-5.754-2.385H41.32l-.487-1.461a5.738,5.738,0,0,0,1.5-2.023h.621a3.414,3.414,0,0,0,3.332-3.484,3.572,3.572,0,0,0-.539-1.888l.5-1.862a4.8,4.8,0,0,0-3.015-5.671l-4.922-1.79a6.7,6.7,0,0,0-7.645,2.276l-.28.372a3.412,3.412,0,0,0-2.782,3.349,12.555,12.555,0,0,0,.622,3.363,3.562,3.562,0,0,0-.52,1.85,3.414,3.414,0,0,0,3.331,3.484h.621a5.738,5.738,0,0,0,1.5,2.023l-.487,1.461h-.914A8.188,8.188,0,0,0,26.011,30.1l-.13.13-4.512-3.562A13.893,13.893,0,0,1,18.2,8.414ZM31.04,21.9a1.173,1.173,0,0,1,0-2.323h.165c0,.059-.012.118-.012.178V21.9Zm.761-4.645H31.04a3.172,3.172,0,0,0-.825.121,8.236,8.236,0,0,1-.286-1.851,1.084,1.084,0,0,1,1.083-1.083h.581l.934-1.245a4.46,4.46,0,0,1,4.992-1.485l4.923,1.79a2.483,2.483,0,0,1,1.628,2.326A2.441,2.441,0,0,1,44,16.41l-.257.956a3.2,3.2,0,0,0-.786-.108H41.645c-2.958,0-6.677-2.144-6.715-2.165l-.621-.361-.6.394A5.555,5.555,0,0,0,31.8,17.258Zm11.006,2.323h.153a1.173,1.173,0,0,1,0,2.323h-.153Zm-9.29.178a3.2,3.2,0,0,1,.953-2.275A19.5,19.5,0,0,0,40.484,19.5v2.471a3.485,3.485,0,0,1-6.968,0Zm1.712,7.649a5.351,5.351,0,0,0,3.544,0l.4,1.189L37,31.005,34.832,28.6ZM10.29,70.677V66.032H24.226v4.645ZM26.548,50.386a20.934,20.934,0,0,1-2.2,9.319l-.122.246V63.71H10.29v-3.9L6.8,55.621a10.568,10.568,0,0,1-2.413-6.279c-.254-5.909-.953-12.507-1.061-13.5a4.651,4.651,0,0,1,4.638,4.645v6.387L10.139,48.5a10.541,10.541,0,0,1,3.694,5.126l2.2-.735a12.861,12.861,0,0,0-4.5-6.249L10.29,45.71V25.387a1.161,1.161,0,1,1,2.323,0V41.645h2.323V23.065a1.134,1.134,0,0,1,.251-.7,15.967,15.967,0,0,0,2.072,3.447v15.83h2.323V28.179c.12.1.226.213.351.31L21.9,30.046v11.6h2.323V31.879l2.323,1.834Zm1.176-18.7a5.842,5.842,0,0,1,4.041-1.649H33l4,4.445,4-4.445h1.233a5.842,5.842,0,0,1,4.041,1.649L37,39Zm22.049,39V66.032H63.71v4.645ZM69.61,49.342A10.571,10.571,0,0,1,67.2,55.62L63.71,59.805v3.9H49.774V59.952l-.122-.245a20.939,20.939,0,0,1-2.2-9.321V33.712l2.323-1.834v9.766H52.1v-11.6l1.972-1.557c.123-.1.23-.21.351-.31V41.645h2.323V25.816a16.045,16.045,0,0,0,2.071-3.448,1.127,1.127,0,0,1,.252.7V41.645h2.323V25.387a1.161,1.161,0,1,1,2.323,0V45.71l-1.243.933a12.856,12.856,0,0,0-4.5,6.249l2.2.735A10.545,10.545,0,0,1,63.861,48.5l2.172-1.629V40.484a4.651,4.651,0,0,1,4.638-4.645c-.108,1-.807,7.595-1.06,13.5Z" transform="translate(0 0)"/>
    </g>
  </g>
</svg>
