<svg xmlns="http://www.w3.org/2000/svg" width="912.638" height="221.946" viewBox="0 0 912.638 221.946">
  <g id="Grupo_96616" data-name="Grupo 96616" transform="translate(-285 -682.804)">
    <rect id="Rect치ngulo_34100" data-name="Rect치ngulo 34100" width="45.647" height="45.647" rx="8" transform="matrix(0.966, -0.259, 0.259, 0.966, 1141.732, 694.619)" fill="#26d19e"/>
    <circle id="Elipse_5080" data-name="Elipse 5080" cx="20.512" cy="20.512" r="20.512" transform="translate(1063.975 863.725)" fill="#764cf0"/>
    <rect id="Rect치ngulo_34099" data-name="Rect치ngulo 34099" width="36.647" height="36.647" rx="8" transform="matrix(0.985, 0.174, -0.174, 0.985, 323.364, 806.548)" fill="#ffd41c"/>
    <circle id="Elipse_5081" data-name="Elipse 5081" cx="8.012" cy="8.012" r="8.012" transform="translate(458.975 879.833)" fill="#764cf0"/>
    <g id="identidad-de-la-marca" transform="translate(285 635.729)">
      <g id="Grupo_93844" data-name="Grupo 93844" transform="translate(1.246 48.32)">
        <path id="Trazado_120949" data-name="Trazado 120949" d="M60.058,287.877a2.189,2.189,0,0,0,2.189,2.189h4.291a2.189,2.189,0,0,0,2.189-2.189V275.155a2.223,2.223,0,0,1,.44-1.328l6.079-8.162,6.793-8.92H60.058Z" transform="translate(-51.334 -223.184)" fill="#b5adb6"/>
        <path id="Trazado_120950" data-name="Trazado 120950" d="M398.611,160.219h-9.663v23.143h9.663a9.527,9.527,0,0,0,9.527-9.527v-4.09A9.527,9.527,0,0,0,398.611,160.219Z" transform="translate(-325.629 -142.682)" fill="#d7d0d6"/>
        <g id="Grupo_93841" data-name="Grupo 93841" transform="translate(0 1.71)">
          <path id="Trazado_120951" data-name="Trazado 120951" d="M78.313,64.879v54.8H73.758L59.9,110.383a27.947,27.947,0,0,0-15.562-4.734h-26.4A10.435,10.435,0,0,1,7.5,95.212v-5.87A10.435,10.435,0,0,1,17.939,78.906h26.4A27.947,27.947,0,0,0,59.9,74.172l13.861-9.293Z" transform="translate(-7.504 -64.879)" fill="#efedef"/>
        </g>
        <path id="Trazado_120952" data-name="Trazado 120952" d="M246.2,307.969a1.065,1.065,0,0,1-1.367,1.022l-6.328-1.869a1.067,1.067,0,0,0-.6,0l-6.328,1.869a1.065,1.065,0,0,1-1.367-1.022V280.295H246.2v27.674Z" transform="translate(-193.242 -242.826)" fill="#fd8087"/>
        <g id="Grupo_93843" data-name="Grupo 93843" transform="translate(0 0)">
          <path id="Trazado_120953" data-name="Trazado 120953" d="M73.759,213.75l-3.317-2.224a2.937,2.937,0,0,1-1.216-3.129,17.2,17.2,0,0,0,.474-4.187,17.228,17.228,0,0,0-32.955-6.87,3.994,3.994,0,0,1-3.634,2.384H17.94A10.435,10.435,0,0,1,7.553,190.3c-.032.333-.048.669-.048,1.01v5.87a10.436,10.436,0,0,0,10.436,10.436H44.335A27.947,27.947,0,0,1,59.9,212.351l13.861,9.293h4.555V213.75Z" transform="translate(-7.505 -165.137)" fill="#e5e1e5"/>
          <path id="Trazado_120954" data-name="Trazado 120954" d="M411.647,112.792h-3.307a1.71,1.71,0,0,1-1.71-1.71v-54.8a1.71,1.71,0,0,1,1.71-1.71h3.307a1.71,1.71,0,0,1,1.71,1.71v54.8A1.71,1.71,0,0,1,411.647,112.792Z" transform="translate(-340.375 -54.575)" fill="#fd8087"/>
          <path id="Trazado_120955" data-name="Trazado 120955" d="M406.629,347.6v7.865a1.71,1.71,0,0,0,1.71,1.71h3.308a1.71,1.71,0,0,0,1.71-1.71V347.6Z" transform="translate(-340.375 -298.958)" fill="#fe646f"/>
          <g id="XMLID_480_" transform="translate(13.394 15.737)">
            <g id="Grupo_93842" data-name="Grupo 93842" transform="translate(0)">
              <path id="Trazado_120956" data-name="Trazado 120956" d="M88.194,149.379h5.667v26.742H88.194Z" transform="translate(-88.194 -149.379)" fill="#fd8087"/>
            </g>
          </g>
          <path id="Trazado_120957" data-name="Trazado 120957" d="M235.644,345.185v-.827h-5.432V361.4a1.065,1.065,0,0,0,1.367,1.022l4.065-1.2v-6.288a2.209,2.209,0,0,1,2.243-2.214l.322,0a17.121,17.121,0,0,0,8-1.972v-5.563H235.644Z" transform="translate(-193.243 -296.254)" fill="#fe646f"/>
          <circle id="Elipse_5542" data-name="Elipse 5542" cx="13.91" cy="13.91" r="13.91" transform="translate(31.056 25.326)" fill="#fef0ae"/>
          <path id="Trazado_120958" data-name="Trazado 120958" d="M200.087,221.052a13.918,13.918,0,0,1,11.164-13.639,13.91,13.91,0,1,0,0,27.278A13.919,13.919,0,0,1,200.087,221.052Z" transform="translate(-163.534 -181.816)" fill="#fee97d"/>
          <path id="Trazado_120959" data-name="Trazado 120959" d="M243.2,259.252l3.8,2.595a.807.807,0,0,0,1.221-.918l-1.3-3.945a.807.807,0,0,1,.144-.765l2.587-3.135a.807.807,0,0,0-.622-1.32h-3.647a.807.807,0,0,1-.737-.478l-1.165-2.608a.807.807,0,0,0-1.473,0l-1.165,2.608a.807.807,0,0,1-.737.478h-3.647a.807.807,0,0,0-.622,1.32l2.587,3.135a.807.807,0,0,1,.144.765l-1.3,3.945a.807.807,0,0,0,1.221.918l3.8-2.595a.807.807,0,0,1,.91,0Z" transform="translate(-197.78 -216.058)" fill="#f9f7f8"/>
        </g>
        <path id="Trazado_120960" data-name="Trazado 120960" d="M88.194,262.924h5.667v7.894H88.194Z" transform="translate(-74.8 -228.338)" fill="#fe646f"/>
      </g>
      <g id="Grupo_93845" data-name="Grupo 93845" transform="translate(0 47.075)">
        <path id="Trazado_120961" data-name="Trazado 120961" d="M75.473,64.686V50.03a2.959,2.959,0,0,0-2.955-2.955H69.21A2.958,2.958,0,0,0,66.349,49.3l-13.4,8.987a26.613,26.613,0,0,1-14.869,4.523h-26.4A11.694,11.694,0,0,0,0,74.493v5.871a11.7,11.7,0,0,0,8.725,11.3v2.588a1.245,1.245,0,1,0,2.49,0v-2.22c.155.006.31.012.466.012h11l-4.6,6.174a3.492,3.492,0,0,0-.687,2.072v12.722a.945.945,0,0,1-.944.944H12.158a.945.945,0,0,1-.944-.944V99.558a1.245,1.245,0,0,0-2.49,0v13.454a3.437,3.437,0,0,0,3.434,3.434h4.291a3.437,3.437,0,0,0,3.434-3.434V100.29a.986.986,0,0,1,.194-.585l5.706-7.661H27.6a1.245,1.245,0,1,0,0-2.49H21.553V65.3H38.076a29.1,29.1,0,0,0,16.256-4.945l11.924-7.994v50.13l-5.192-3.481a1.245,1.245,0,1,0-1.387,2.068l6.673,4.474a2.958,2.958,0,0,0,2.861,2.228h3.308a2.959,2.959,0,0,0,2.955-2.955V90.171A10.786,10.786,0,0,0,85,79.474v-4.09a10.786,10.786,0,0,0-9.527-10.7ZM2.49,80.364V74.493A9.2,9.2,0,0,1,11.681,65.3H13.4V89.555H11.681A9.2,9.2,0,0,1,2.49,80.364Zm16.573,9.191H15.886V65.3h3.178ZM82.51,79.474a8.294,8.294,0,0,1-7.037,8.188V76.191a1.245,1.245,0,0,0-2.49,0v28.636a.466.466,0,0,1-.465.465H69.21a.466.466,0,0,1-.465-.465h0v-54.8h0a.466.466,0,0,1,.465-.465h3.308a.466.466,0,0,1,.465.465V70.885a1.245,1.245,0,0,0,2.49,0V67.2a8.3,8.3,0,0,1,7.037,8.188Z" transform="translate(0 -47.075)"/>
        <path id="Trazado_120962" data-name="Trazado 120962" d="M217.4,214.8a15.155,15.155,0,1,0-24.4,12v13.9a2.31,2.31,0,0,0,2.965,2.216l6.277-1.854,6.277,1.854a2.328,2.328,0,0,0,.661.1,2.314,2.314,0,0,0,2.3-2.312v-4.273a1.245,1.245,0,0,0-2.49,0v4.033l-6.1-1.8a2.3,2.3,0,0,0-1.309,0l-6.1,1.8v-12.1a15.131,15.131,0,0,0,13.5,0v2.763a1.245,1.245,0,0,0,2.49,0V226.8A15.138,15.138,0,0,0,217.4,214.8Zm-27.82,0a12.665,12.665,0,1,1,12.665,12.665A12.679,12.679,0,0,1,189.58,214.8Z" transform="translate(-156.033 -174.317)"/>
        <path id="Trazado_120963" data-name="Trazado 120963" d="M242.769,244.264h-3.363l-1.049-2.348a2.052,2.052,0,0,0-3.746,0l-1.049,2.348H230.2a2.052,2.052,0,0,0-1.583,3.357l2.433,2.948-1.222,3.716a2.062,2.062,0,0,0,1.947,2.7,2.049,2.049,0,0,0,1.159-.364l3.551-2.426,3.551,2.426a2.052,2.052,0,0,0,3.106-2.335l-1.222-3.716,2.433-2.949a2.052,2.052,0,0,0-1.582-3.357Zm-2.925,4.908a2.041,2.041,0,0,0-.366,1.947l.894,2.717-2.73-1.865h0a2.039,2.039,0,0,0-2.314,0l-2.73,1.865.894-2.717a2.041,2.041,0,0,0-.366-1.947l-2-2.418h2.717a2.054,2.054,0,0,0,1.873-1.215l.765-1.712.765,1.712a2.054,2.054,0,0,0,1.873,1.215h2.717Z" transform="translate(-190.272 -208.559)"/>
      </g>
    </g>
  </g>
</svg>
