<svg xmlns="http://www.w3.org/2000/svg" width="85" height="85" viewBox="0 0 85 85">
  <g id="Grupo_96618" data-name="Grupo 96618" transform="translate(-285 -1626)">
    <rect id="Rectángulo_34163" data-name="Rectángulo 34163" width="85" height="85" transform="translate(285 1626)" fill="#26d19e"/>
    <g id="agente-de-servicio-al-cliente" transform="translate(296 1636)">
      <g id="Grupo_95837" data-name="Grupo 95837" transform="translate(0.967 0.967)">
        <g id="Grupo_95835" data-name="Grupo 95835">
          <path id="Trazado_128509" data-name="Trazado 128509" d="M10.316,7.5H32.811a2.816,2.816,0,0,1,2.816,2.816V28.9a2.816,2.816,0,0,1-2.816,2.816H27.293v4.169l-5.336-4.169H10.316A2.816,2.816,0,0,1,7.5,28.9V10.316A2.816,2.816,0,0,1,10.316,7.5Z" transform="translate(-7.5 -7.5)" fill="#f4fbff"/>
        </g>
        <g id="Grupo_95836" data-name="Grupo 95836" transform="translate(23.572 2.477)">
          <path id="Trazado_128510" data-name="Trazado 128510" d="M192.187,38.122a5.2,5.2,0,0,0-1.823,3.953v4.167a5.175,5.175,0,0,0,.494,2.212H192.1a2.816,2.816,0,0,0,2.816-2.816V27.052a2.836,2.836,0,0,0-.022-.34,12.956,12.956,0,0,0-2.709,7.941Z" transform="translate(-190.364 -26.712)" fill="#dfeaef"/>
        </g>
      </g>
      <g id="Grupo_95853" data-name="Grupo 95853" transform="translate(20.76 0.967)">
        <g id="Grupo_95838" data-name="Grupo 95838" transform="translate(7.689 24.481)">
          <path id="Trazado_128511" data-name="Trazado 128511" d="M220.695,197.411H249.59v17.97H220.695Z" transform="translate(-220.695 -197.411)" fill="#934d36"/>
        </g>
        <g id="Grupo_95839" data-name="Grupo 95839" transform="translate(0 37.763)">
          <path id="Trazado_128512" data-name="Trazado 128512" d="M187.739,300.447l10.813,2.883a9.115,9.115,0,0,1,6.767,8.807v14.613H161.045V312.138a9.115,9.115,0,0,1,6.767-8.807l10.813-2.883Z" transform="translate(-161.045 -300.447)" fill="#d3effb"/>
        </g>
        <g id="Grupo_95841" data-name="Grupo 95841" transform="translate(22.137 37.763)">
          <g id="Grupo_95840" data-name="Grupo 95840">
            <path id="Trazado_128513" data-name="Trazado 128513" d="M332.772,305.4l2.339,4.825a1.8,1.8,0,0,0,3.312-.148l3.21-8.477-4.3-1.148Z" transform="translate(-332.772 -300.448)" fill="#f4fbff"/>
          </g>
        </g>
        <g id="Grupo_95843" data-name="Grupo 95843" transform="translate(13.276 37.763)">
          <g id="Grupo_95842" data-name="Grupo 95842">
            <path id="Trazado_128514" data-name="Trazado 128514" d="M272.892,305.4l-2.339,4.825a1.8,1.8,0,0,1-3.312-.148l-3.21-8.477,4.3-1.148Z" transform="translate(-264.031 -300.448)" fill="#f4fbff"/>
          </g>
        </g>
        <g id="Grupo_95844" data-name="Grupo 95844" transform="translate(38.066 40.817)">
          <path id="Trazado_128515" data-name="Trazado 128515" d="M456.345,324.137a9.1,9.1,0,0,1,2.171,5.9v17.347h4.037V332.774A9.114,9.114,0,0,0,456.345,324.137Z" transform="translate(-456.345 -324.137)" fill="#b1e4f9"/>
        </g>
        <g id="Grupo_95845" data-name="Grupo 95845" transform="translate(17.579 32.163)">
          <path id="Trazado_128516" data-name="Trazado 128516" d="M297.417,263v-5.99h9.115V263a4.558,4.558,0,1,1-9.115,0Z" transform="translate(-297.417 -257.01)" fill="#fcd0a3"/>
        </g>
        <g id="Grupo_95846" data-name="Grupo 95846" transform="translate(17.579 32.163)">
          <path id="Trazado_128517" data-name="Trazado 128517" d="M297.417,259.974a13.02,13.02,0,0,0,9.115,0V257.01h-9.115v2.964Z" transform="translate(-297.417 -257.01)" fill="#ffb983"/>
        </g>
        <g id="Grupo_95847" data-name="Grupo 95847" transform="translate(11.719 12.11)">
          <path id="Trazado_128518" data-name="Trazado 128518" d="M251.959,101.445v10.82a10.417,10.417,0,1,0,20.835,0v-10.82Z" transform="translate(-251.959 -101.445)" fill="#fcd0a3"/>
        </g>
        <g id="Grupo_95848" data-name="Grupo 95848" transform="translate(28.489 12.11)">
          <path id="Trazado_128519" data-name="Trazado 128519" d="M386.112,112.265v-10.82h-2.474v13.543a10.365,10.365,0,0,1-1.591,5.531A10.4,10.4,0,0,0,386.112,112.265Z" transform="translate(-382.047 -101.445)" fill="#ffb983"/>
        </g>
        <g id="Grupo_95849" data-name="Grupo 95849" transform="translate(8.334)">
          <path id="Trazado_128520" data-name="Trazado 128520" d="M225.7,20.522A13.022,13.022,0,0,1,238.717,7.5h3.776a3.906,3.906,0,0,1,3.907,3.907h1.693a5.209,5.209,0,0,1,5.209,5.209V27.423h-3.386L246.4,20.652l-1.86,1.86a5.209,5.209,0,0,1-3.683,1.526h-3.949a10.417,10.417,0,0,0-6.694,2.436l-1.133.95H225.7v-6.9Z" transform="translate(-225.695 -7.5)" fill="#aa593d"/>
        </g>
        <g id="Grupo_95850" data-name="Grupo 95850" transform="translate(32.011 4.065)">
          <path id="Trazado_128521" data-name="Trazado 128521" d="M409.375,39.038a5.185,5.185,0,0,1,.543,2.315V54.765l-.066,0,.066.128,3.386-.13V44.088a5.211,5.211,0,0,0-3.928-5.05Z" transform="translate(-409.375 -39.038)" fill="#934d36"/>
        </g>
        <g id="Grupo_95851" data-name="Grupo 95851" transform="translate(32.554 15.235)">
          <path id="Trazado_128522" data-name="Trazado 128522" d="M416.19,135.065h-2.6v-9.376h2.6a2.6,2.6,0,0,1,2.6,2.6v4.167a2.6,2.6,0,0,1-2.6,2.6Z" transform="translate(-413.586 -125.689)" fill="#e28086"/>
        </g>
        <g id="Grupo_95852" data-name="Grupo 95852" transform="translate(6.511 15.235)">
          <path id="Trazado_128523" data-name="Trazado 128523" d="M214.157,135.065h2.6v-9.376h-2.6a2.6,2.6,0,0,0-2.6,2.6v4.167a2.6,2.6,0,0,0,2.6,2.6Z" transform="translate(-211.553 -125.689)" fill="#e28086"/>
        </g>
      </g>
      <g id="Grupo_95858" data-name="Grupo 95858" transform="translate(0.967 40.292)">
        <g id="Grupo_95854" data-name="Grupo 95854">
          <path id="Trazado_128524" data-name="Trazado 128524" d="M37.45,332.1H7.5V315.173a2.6,2.6,0,0,1,2.6-2.6H34.845a2.6,2.6,0,0,1,2.6,2.6Z" transform="translate(-7.5 -312.569)" fill="#a0aab7"/>
        </g>
        <g id="Grupo_95855" data-name="Grupo 95855" transform="translate(12.371 7.162)">
          <circle id="Elipse_5872" data-name="Elipse 5872" cx="2.604" cy="2.604" r="2.604" fill="#f4fbff"/>
        </g>
        <g id="Grupo_95856" data-name="Grupo 95856" transform="translate(0 19.533)">
          <path id="Trazado_128525" data-name="Trazado 128525" d="M7.5,464.094H40.054v2.6a2.6,2.6,0,0,1-2.6,2.6H10.1a2.6,2.6,0,0,1-2.6-2.6Z" transform="translate(-7.5 -464.094)" fill="#808b95"/>
        </g>
        <g id="Grupo_95857" data-name="Grupo 95857" transform="translate(27.345 19.533)">
          <path id="Trazado_128526" data-name="Trazado 128526" d="M222.238,464.094v2.6a2.6,2.6,0,0,1-2.6,2.6h2.6a2.6,2.6,0,0,0,2.6-2.6v-2.6Z" transform="translate(-219.634 -464.094)" fill="#5e6b75"/>
        </g>
      </g>
      <g id="Grupo_95860" data-name="Grupo 95860" transform="translate(7.281 5.263)">
        <g id="Grupo_95859" data-name="Grupo 95859">
          <circle id="Elipse_5873" data-name="Elipse 5873" cx="7.813" cy="7.813" r="7.813" fill="#f6e266"/>
        </g>
      </g>
      <g id="Grupo_95861" data-name="Grupo 95861" transform="translate(0 0)">
        <path id="Trazado_128527" data-name="Trazado 128527" d="M65.033,53.574A.967.967,0,0,0,66,52.607V50.42a10.094,10.094,0,0,0-7.484-9.741l-.205-.055v-15a3.563,3.563,0,0,0,1.179-2.649V18.806a3.573,3.573,0,0,0-1.823-3.112V10.082a6.182,6.182,0,0,0-6.175-6.175h-.822A4.882,4.882,0,0,0,45.891,0H42.115A14,14,0,0,0,30.06,6.9V3.783A3.788,3.788,0,0,0,26.277,0H9.829a.967.967,0,0,0,0,1.934H26.277a1.852,1.852,0,0,1,1.85,1.85V15.694A3.573,3.573,0,0,0,26.3,18.807v4.167a3.555,3.555,0,0,0,.217,1.227,1.892,1.892,0,0,1-.244.017H20.76a.967.967,0,0,0-.967.967v2.187l-3.774-2.949a.967.967,0,0,0-.6-.2H3.783a1.851,1.851,0,0,1-1.85-1.849V3.783a1.852,1.852,0,0,1,1.85-1.85H5.313A.967.967,0,1,0,5.313,0H3.783A3.788,3.788,0,0,0,0,3.783V22.369a3.787,3.787,0,0,0,3.783,3.782H15.091l5.074,3.965a.967.967,0,0,0,1.562-.762v-3.2h4.551a3.781,3.781,0,0,0,1.205-.2V39.325H3.571A3.575,3.575,0,0,0,0,42.9v7.02a.967.967,0,0,0,1.934,0V42.9a1.639,1.639,0,0,1,1.637-1.638H28.312A1.639,1.639,0,0,1,29.95,42.9V58.858H1.934V54.431a.967.967,0,0,0-1.934,0v8A3.575,3.575,0,0,0,3.571,66H65.033A.967.967,0,0,0,66,65.033V57.124a.967.967,0,0,0-1.934,0v6.943H57.406V59.825a.967.967,0,0,0-1.934,0v4.242H34.088a3.548,3.548,0,0,0,.4-1.637v-2.6a.967.967,0,0,0-.967-.967H31.883V42.9a3.55,3.55,0,0,0-.275-1.372l1.832-.488,2.9,7.661a2.734,2.734,0,0,0,2.468,1.787c.044,0,.088,0,.131,0a2.731,2.731,0,0,0,2.487-1.562l1.469-3.03,1.469,3.03a2.731,2.731,0,0,0,2.486,1.563l.131,0A2.734,2.734,0,0,0,49.451,48.7l2.9-7.66,5.665,1.511a8.159,8.159,0,0,1,6.049,7.873v2.187a.967.967,0,0,0,.967.967ZM32.554,62.429a1.639,1.639,0,0,1-1.638,1.637H3.571a1.639,1.639,0,0,1-1.637-1.637V60.791H32.554ZM56.377,40.108l-7.956-2.122V33.847a11.469,11.469,0,0,0,3.793-3.418,2.271,2.271,0,0,0,2.066-2.259V26.544h1.638a3.573,3.573,0,0,0,.459-.031ZM42.9,42.711a3.6,3.6,0,0,1-3.591-3.591V34.7a11.391,11.391,0,0,0,7.181,0v4.42A3.6,3.6,0,0,1,42.9,42.711Zm-5.524-4.724-7.138,1.9a3.559,3.559,0,0,0-.819-.389V26.514a3.6,3.6,0,0,0,.459.031h1.949a11.427,11.427,0,0,0,5.548,7.3Zm-9.135-19.18a1.639,1.639,0,0,1,1.637-1.637h1.637v7.442H29.875a1.639,1.639,0,0,1-1.637-1.637Zm21.311-3.071,2.8,5.39V23.9a9.391,9.391,0,0,1-1.2,4.61H44.569a1.934,1.934,0,1,0,0,1.934h5.137A9.444,9.444,0,0,1,33.446,23.9V21.341l.787-.66a9.466,9.466,0,0,1,6.073-2.21h3.949a6.136,6.136,0,0,0,4.367-1.809Zm6.37,1.433a1.639,1.639,0,0,1,1.637,1.637v4.167a1.639,1.639,0,0,1-1.637,1.637H54.28V17.169Zm-.185-7.087v5.154H53.314a.967.967,0,0,0-.967.967v.728l-1.582-3.047V5.84h.726a4.247,4.247,0,0,1,4.242,4.242ZM42.115,1.934h3.776a2.943,2.943,0,0,1,2.94,2.94v8.845l-1.577,1.577a4.215,4.215,0,0,1-3,1.243H40.306a11.4,11.4,0,0,0-6.86,2.3V16.2a.967.967,0,0,0-.967-.967H30.06V13.989A12.068,12.068,0,0,1,42.115,1.934ZM39.687,48.08a.838.838,0,0,1-1.537-.069l-2.832-7.476,2.119-.565a5.54,5.54,0,0,0,4.01,4.48Zm7.956-.069a.838.838,0,0,1-1.537.069l-1.76-3.63a5.54,5.54,0,0,0,4.01-4.48l2.119.565Z" transform="translate(0 0)"/>
        <path id="Trazado_128528" data-name="Trazado 128528" d="M103.108,364.2a3.571,3.571,0,1,0-3.571,3.571A3.575,3.575,0,0,0,103.108,364.2Zm-5.209,0a1.638,1.638,0,1,1,1.638,1.637A1.639,1.639,0,0,1,97.9,364.2Z" transform="translate(-83.595 -314.141)"/>
        <path id="Trazado_128529" data-name="Trazado 128529" d="M93.225,115.861a.967.967,0,0,0-1.368-1.366,3.453,3.453,0,0,1-4.89,0,.967.967,0,0,0-1.368,1.366,5.387,5.387,0,0,0,7.626,0Z" transform="translate(-74.319 -99.488)"/>
        <path id="Trazado_128530" data-name="Trazado 128530" d="M66.54,42.108a8.78,8.78,0,1,0-8.78,8.78A8.79,8.79,0,0,0,66.54,42.108Zm-15.626,0a6.846,6.846,0,1,1,6.846,6.846A6.854,6.854,0,0,1,50.914,42.108Z" transform="translate(-42.667 -29.032)"/>
        <circle id="Elipse_5874" data-name="Elipse 5874" cx="1.302" cy="1.302" r="1.302" transform="translate(10.795 9.82)"/>
        <circle id="Elipse_5875" data-name="Elipse 5875" cx="1.302" cy="1.302" r="1.302" transform="translate(16.788 9.82)"/>
      </g>
    </g>
  </g>
</svg>
