<svg xmlns="http://www.w3.org/2000/svg" width="85" height="85" viewBox="0 0 85 85">
  <g id="Grupo_96619" data-name="Grupo 96619" transform="translate(-285 -1725)">
    <rect id="Rectángulo_34163" data-name="Rectángulo 34163" width="85" height="85" transform="translate(285 1725)" fill="#26d19e"/>
    <g id="carrito-de-supermercado" transform="translate(291.028 1731.817)">
      <path id="Trazado_128480" data-name="Trazado 128480" d="M271.1,99.686h7.887v13.8H271.1Z" transform="translate(-237.755 -83.229)" fill="#d6bdef"/>
      <path id="Trazado_128481" data-name="Trazado 128481" d="M163.393,12.836a1.655,1.655,0,0,0-2.251-1.206,1.685,1.685,0,0,0-1.01,1.715l.286,3.614a3.91,3.91,0,0,1-.226,1.66c-.6,1.637-1.836,5.62-1.089,8.946l1.739,6.62,7.887,3.944Z" transform="translate(-139.331 -5.897)" fill="#ffe07d"/>
      <path id="Trazado_128482" data-name="Trazado 128482" d="M160.843,15.332c-.128.019.429-2.886.3-2.836a1.685,1.685,0,0,0-1.01,1.715l.286,3.614a3.911,3.911,0,0,1-.226,1.66c-.6,1.637-1.836,5.62-1.089,8.946l5.682,6.62Z" transform="translate(-139.332 -6.762)" fill="#ffd064"/>
      <path id="Trazado_128483" data-name="Trazado 128483" d="M172.351,12.836a1.655,1.655,0,0,0-2.25-1.206,1.685,1.685,0,0,0-1.01,1.715l.2,2.534,3.531-.714Z" transform="translate(-148.289 -5.897)" fill="#c38c66"/>
      <path id="Trazado_128484" data-name="Trazado 128484" d="M117.546,56.476a1.655,1.655,0,0,0-2.474-.629,1.685,1.685,0,0,0-.568,1.907l1.146,3.439a3.913,3.913,0,0,1,.18,1.666c-.189,1.733-.432,5.9,1.092,8.945h7.887Z" transform="translate(-100.339 -44.502)" fill="#ffe07d"/>
      <path id="Trazado_128485" data-name="Trazado 128485" d="M115.937,62.238c-.12.049-.75-4.207-.864-4.126a1.685,1.685,0,0,0-.568,1.907l1.146,3.439a3.911,3.911,0,0,1,.18,1.666c-.189,1.733-.432,5.9,1.092,8.945l3.944-.986Z" transform="translate(-100.34 -46.767)" fill="#ffd064"/>
      <path id="Trazado_128486" data-name="Trazado 128486" d="M117.546,56.476a1.655,1.655,0,0,0-2.474-.63,1.685,1.685,0,0,0-.568,1.907l.8,2.412,3.256-1.542Z" transform="translate(-100.339 -44.501)" fill="#c38c66"/>
      <path id="Trazado_128487" data-name="Trazado 128487" d="M206.969,81.424V68.607a.986.986,0,0,1,.986-.986h7.887a.986.986,0,0,1,.986.986V81.424" transform="translate(-181.514 -55.107)" fill="#b3e59f"/>
      <path id="Trazado_128488" data-name="Trazado 128488" d="M237.918,134.709h-4.93a1.972,1.972,0,0,1-1.972-1.972v-.986h6.9Z" transform="translate(-202.604 -111.35)" fill="#ccf49f"/>
      <path id="Trazado_128489" data-name="Trazado 128489" d="M206.969,67.621h9.859v7.887h-9.859Z" transform="translate(-181.514 -55.107)" fill="#dad8db"/>
      <path id="Trazado_128490" data-name="Trazado 128490" d="M206.969,67.621h2.958v7.887h-2.958Z" transform="translate(-181.514 -55.107)" fill="#c8c5c9"/>
      <path id="Trazado_128491" data-name="Trazado 128491" d="M399.636,107a3.944,3.944,0,0,0-5.043,2.381l-2.317,6.375h8.41l1.331-3.712A3.944,3.944,0,0,0,399.636,107Z" transform="translate(-344.028 -89.439)" fill="#ffa95f"/>
      <path id="Trazado_128492" data-name="Trazado 128492" d="M343.472,49.9l-.817-.817a1.972,1.972,0,0,1-.578-1.394V44.559a.986.986,0,0,0-.986-.986H339.12a.986.986,0,0,0-.986.986v3.127a1.971,1.971,0,0,1-.578,1.394l-.817.817a1.972,1.972,0,0,0-.578,1.394v9.042h7.887V51.291A1.972,1.972,0,0,0,343.472,49.9Z" transform="translate(-294.817 -34.017)" fill="#dbeaff"/>
      <path id="Trazado_128493" data-name="Trazado 128493" d="M340.106,75.637h-1.972v.169a1.972,1.972,0,0,1-.578,1.394l-.817.817a1.972,1.972,0,0,0-.578,1.394v9.042h3.944V75.637Z" transform="translate(-294.817 -62.138)" fill="#c3ddff"/>
      <path id="Trazado_128494" data-name="Trazado 128494" d="M356.137,47.517h-3.944V44.559a.986.986,0,0,1,.986-.986h1.972a.986.986,0,0,1,.986.986v2.958Z" transform="translate(-308.876 -34.017)" fill="#b6b1b7"/>
      <path id="Trazado_128495" data-name="Trazado 128495" d="M336.16,131.75h1.972a1.972,1.972,0,0,1,1.972,1.972v3.944H336.16V131.75Z" transform="translate(-294.815 -111.349)" fill="#b6b1b7"/>
      <circle id="Elipse_5870" data-name="Elipse 5870" cx="3.944" cy="3.944" r="3.944" transform="translate(11.767 57.866)" fill="#5d5360"/>
      <path id="Trazado_128496" data-name="Trazado 128496" d="M132.312,179.871h-52.2l7.84,20.5a6.9,6.9,0,0,0,7.4,4.37l33.557-4.682a3.944,3.944,0,0,0,3.4-3.906V179.871Z" transform="translate(-70.263 -153.552)" fill="#ff8086"/>
      <circle id="Elipse_5871" data-name="Elipse 5871" cx="3.944" cy="3.944" r="3.944" transform="translate(54.162 57.866)" fill="#5d5360"/>
      <path id="Trazado_128497" data-name="Trazado 128497" d="M131.547,196.71l-35.822,5a4.925,4.925,0,0,1-5.286-3.122l-7.156-18.715H80.117l7.84,20.5a6.9,6.9,0,0,0,7.4,4.37l33.557-4.682a3.933,3.933,0,0,0,3.357-3.455Z" transform="translate(-70.263 -153.552)" fill="#e5646e"/>
      <path id="Trazado_128498" data-name="Trazado 128498" d="M233.39,93.2h1.972a.922.922,0,0,0,0-1.845H233.39a.922.922,0,0,0,0,1.845Z" transform="translate(-203.876 -75.924)"/>
      <path id="Trazado_128499" data-name="Trazado 128499" d="M62.049,25.3H57.964l.892-2.488a4.873,4.873,0,0,0-1.083-5.028l2.973-3.357a.922.922,0,1,0-1.381-1.223l-2.1,2.376,2.211-6.164A.922.922,0,0,0,57.734,8.8l-2.211,6.164-.115-3.172a.922.922,0,0,0-1.844.067l.162,4.484a4.883,4.883,0,0,0-3.573,2.247V17.172a2.875,2.875,0,0,0-.848-2.047l-.817-.817a1.043,1.043,0,0,1-.307-.742V10.44a1.911,1.911,0,0,0-1.908-1.908H44.3a1.91,1.91,0,0,0-1.908,1.908v3.127a1.042,1.042,0,0,1-.307.742l-.817.817a2.954,2.954,0,0,0-.267.307H36.352V12.412a.922.922,0,0,0-.922-.922h-9.3l-.866-4.628,0-.014a2.574,2.574,0,0,0-5.087.721l.357,4.348a24.709,24.709,0,0,0-.891,2.72L18.156,11.48a2.573,2.573,0,0,0-4.77,1.91l1.38,4.139a22.667,22.667,0,0,0,.248,7.773H10.489l-1.82-4.759a4.894,4.894,0,0,0-4.545-3.128H.922a.922.922,0,0,0,0,1.845h3.2A3.038,3.038,0,0,1,6.946,21.2l2.805,7.337a.922.922,0,0,0,1.723-.659l-.28-.733H61.127V41.653a4.024,4.024,0,0,1-3.453,3.969l-31.93,4.455a6.933,6.933,0,0,1-7.468-4.411l-5.3-13.857a.922.922,0,0,0-1.723.659l5.3,13.857a8.808,8.808,0,0,0,2.942,3.913l-2.8,6.71a4.866,4.866,0,1,0,3.791,5.688h29.73a.922.922,0,0,0,0-1.845H20.488A4.877,4.877,0,0,0,18.4,57.66l2.7-6.469a8.771,8.771,0,0,0,3.662.8A8.993,8.993,0,0,0,26,51.9l31.93-4.455a5.877,5.877,0,0,0,5.043-5.8V26.224a.922.922,0,0,0-.922-.922ZM55.3,18.327a3.024,3.024,0,0,1,2,2.947l-.853-.306a.922.922,0,0,0-.623,1.737l.988.354L56,25.3H50.155V23.712l.633-1.765.988.354a.922.922,0,0,0,.623-1.737l-.988-.354.021-.06A3.025,3.025,0,0,1,55.3,18.327ZM44.3,10.376h1.972a.064.064,0,0,1,.064.063v2.035h-2.1V10.44A.064.064,0,0,1,44.3,10.376ZM42.575,16.43l.817-.817a2.877,2.877,0,0,0,.748-1.293h2.3a2.877,2.877,0,0,0,.748,1.293L48,16.43a1.043,1.043,0,0,1,.307.742V25.3h-2.1V22.271a2.9,2.9,0,0,0-2.894-2.894H42.267v-2.2a1.043,1.043,0,0,1,.307-.742Zm-.307,4.791h1.049a1.051,1.051,0,0,1,1.049,1.049V25.3h-2.1Zm-1.845-3.944V25.3H36.352V17.278Zm-13.93,3.944h8.014V25.3H26.493Zm8.014-7.887v6.042H26.493V13.334Zm-11.825-6.7a.728.728,0,0,1,.773.576l.274,1.463-1.587.277-.126-1.53a.729.729,0,0,1,.666-.786ZM15.6,11.884a.729.729,0,0,1,.89.381l.631,1.342-1.5.655-.485-1.456a.73.73,0,0,1,.461-.922ZM16.621,17.6a.922.922,0,0,0-.035-.443l-.378-1.135,1.7-.743,3.481,7.4a.922.922,0,1,0,1.669-.785l-2.109-4.483a23.011,23.011,0,0,1,1.374-4.979.922.922,0,0,0,.072-.439l-.1-1.193,1.775-.31.581,3.1V25.3H16.92A20.827,20.827,0,0,1,16.621,17.6Zm-.91,47.136a3.021,3.021,0,1,1,3.021-3.021,3.025,3.025,0,0,1-3.021,3.021Z" transform="translate(0 0)"/>
      <path id="Trazado_128500" data-name="Trazado 128500" d="M121.209,460.15h-.01a.927.927,0,1,0,.01,0Z" transform="translate(-105.488 -399.359)"/>
      <path id="Trazado_128501" data-name="Trazado 128501" d="M437.738,428.086a4.866,4.866,0,1,0,4.866,4.866A4.872,4.872,0,0,0,437.738,428.086Zm0,7.887a3.021,3.021,0,1,1,3.021-3.021A3.025,3.025,0,0,1,437.738,435.973Z" transform="translate(-379.632 -371.238)"/>
      <path id="Trazado_128502" data-name="Trazado 128502" d="M465.9,460.15h-.01a.927.927,0,1,0,.01,0Z" transform="translate(-407.788 -399.359)"/>
      <path id="Trazado_128503" data-name="Trazado 128503" d="M158.656,222.426a.923.923,0,0,0,.89-1.167L154.9,204.334a.922.922,0,1,0-1.779.488l4.645,16.926A.923.923,0,0,0,158.656,222.426Z" transform="translate(-134.26 -174.41)"/>
      <path id="Trazado_128504" data-name="Trazado 128504" d="M401.649,218.024V204.58a.922.922,0,1,0-1.845,0v13.444a.922.922,0,0,0,1.845,0Z" transform="translate(-350.632 -174.413)"/>
      <path id="Trazado_128505" data-name="Trazado 128505" d="M225.364,221.643a.923.923,0,0,0,.911-1.074l-2.681-16.142a.922.922,0,0,0-1.82.3l2.681,16.142A.922.922,0,0,0,225.364,221.643Z" transform="translate(-194.487 -174.411)"/>
      <path id="Trazado_128506" data-name="Trazado 128506" d="M350.547,218.85V204.58a.922.922,0,1,0-1.845,0V218.85a.922.922,0,1,0,1.845,0Z" transform="translate(-305.815 -174.413)"/>
      <path id="Trazado_128507" data-name="Trazado 128507" d="M292.234,220.717l.054,0a.922.922,0,0,0,.868-.974l-.879-15.215a.922.922,0,1,0-1.842.106l.879,15.215a.922.922,0,0,0,.92.869Z" transform="translate(-254.712 -174.412)"/>
      <path id="Trazado_128508" data-name="Trazado 128508" d="M450.748,216.915V204.556a.922.922,0,0,0-1.845,0v12.359a.922.922,0,0,0,1.845,0Z" transform="translate(-393.692 -174.392)"/>
    </g>
  </g>
</svg>
