<svg xmlns="http://www.w3.org/2000/svg" width="133" height="133" viewBox="0 0 133 133">
  <g id="Grupo_96608" data-name="Grupo 96608" transform="translate(-734 -1349)">
    <g id="_240_F_45534235_0gBPChSdgLWL7NQO2mupYcpNQvC23RWu" data-name="240_F_45534235_0gBPChSdgLWL7NQO2mupYcpNQvC23RWu" transform="translate(734 1349)" fill="#fff" stroke="#21155c" stroke-width="3">
      <circle cx="66.5" cy="66.5" r="66.5" stroke="none"/>
      <circle cx="66.5" cy="66.5" r="65" fill="none"/>
    </g>
    <g id="revisar" transform="translate(759.001 1373.995)">
      <path id="Trazado_124914" data-name="Trazado 124914" d="M75.551,403.93l-3.6-.523L63.127,407.6l4.179,10.108,3.219,1.692a2.415,2.415,0,0,0,3.5-2.546l-.884-5.153,3.744-3.649A2.415,2.415,0,0,0,75.551,403.93Z" transform="translate(-52.966 -338.464)" fill="#ffcf57"/>
      <path id="Trazado_124915" data-name="Trazado 124915" d="M25.28,370.76l-1.575-.229-2.314-4.688a2.415,2.415,0,0,0-4.332,0l-2.314,4.689-5.174.752a2.415,2.415,0,0,0-1.339,4.12l3.744,3.65-.884,5.153a2.415,2.415,0,0,0,3.5,2.546l4.628-2.433,1.409.741a1.207,1.207,0,0,0,1.752-1.273l-1.1-6.42,4.665-4.547a1.208,1.208,0,0,0-.669-2.06Z" transform="translate(-6.294 -305.818)" fill="#ffe46b"/>
      <path id="Trazado_124916" data-name="Trazado 124916" d="M251.217,403.93l-3.6-.523-8.825,4.191,4.179,10.108,3.219,1.692a2.415,2.415,0,0,0,3.5-2.546l-.884-5.153,3.744-3.649A2.415,2.415,0,0,0,251.217,403.93Z" transform="translate(-200.354 -338.464)" fill="#ffcf57"/>
      <path id="Trazado_124917" data-name="Trazado 124917" d="M200.946,370.759l-1.575-.229-2.314-4.689a2.415,2.415,0,0,0-4.331,0l-2.314,4.689-5.174.752A2.415,2.415,0,0,0,183.9,375.4l3.744,3.65-.884,5.153a2.415,2.415,0,0,0,3.5,2.546l4.628-2.433,1.409.741a1.207,1.207,0,0,0,1.752-1.273l-1.1-6.42,4.665-4.547a1.207,1.207,0,0,0-.669-2.059Z" transform="translate(-153.682 -305.817)" fill="#ffe46b"/>
      <path id="Trazado_124918" data-name="Trazado 124918" d="M426.884,403.93l-3.6-.523L414.46,407.6l4.179,10.108,3.219,1.692a2.415,2.415,0,0,0,3.5-2.546l-.884-5.153,3.744-3.649A2.415,2.415,0,0,0,426.884,403.93Z" transform="translate(-347.743 -338.464)" fill="#ffcf57"/>
      <path id="Trazado_124919" data-name="Trazado 124919" d="M376.613,370.759l-1.575-.229-2.314-4.689a2.415,2.415,0,0,0-4.332,0l-2.314,4.689-5.174.752a2.415,2.415,0,0,0-1.339,4.119l3.744,3.65-.884,5.153a2.415,2.415,0,0,0,3.5,2.546l4.628-2.433,1.409.741a1.207,1.207,0,0,0,1.752-1.273l-1.1-6.42,4.665-4.547A1.208,1.208,0,0,0,376.613,370.759Z" transform="translate(-301.071 -305.817)" fill="#ffe46b"/>
      <circle id="Elipse_5853" data-name="Elipse 5853" cx="26.319" cy="26.319" r="26.319" transform="translate(14.889 1.212)" fill="#fffbe5"/>
      <path id="Trazado_124920" data-name="Trazado 124920" d="M149.461,214.505a4.833,4.833,0,0,0-4.833,4.833,21.676,21.676,0,0,0,4.829,5.189l4.833-10.021Z" transform="translate(-121.347 -179.971)" fill="#25a5fa"/>
      <path id="Trazado_124921" data-name="Trazado 124921" d="M312.179,214.505H307.35l4.833,10.021a21.673,21.673,0,0,0,4.829-5.189A4.833,4.833,0,0,0,312.179,214.505Z" transform="translate(-257.875 -179.971)" fill="#4578de"/>
      <path id="Trazado_124922" data-name="Trazado 124922" d="M195.993,214.505H179.461a4.833,4.833,0,0,0-4.833,4.833v5.189a21.441,21.441,0,0,0,26.2,0v-5.189A4.833,4.833,0,0,0,195.993,214.505Z" transform="translate(-146.518 -179.971)" fill="#3b88f5"/>
      <path id="Trazado_124923" data-name="Trazado 124923" d="M256,52.505V73.754a10.624,10.624,0,0,0,0-21.249Z" transform="translate(-214.791 -44.049)" fill="#4578de"/>
      <path id="Trazado_124924" data-name="Trazado 124924" d="M206.419,63.129c0-5.868-2.595-10.624-5.8-10.624a10.624,10.624,0,0,0,0,21.249C203.825,73.754,206.419,69,206.419,63.129Z" transform="translate(-159.416 -44.049)" fill="#3b88f5"/>
      <path id="Trazado_124925" data-name="Trazado 124925" d="M22.758,363.8l-4.546-.661-2.033-4.119a3.622,3.622,0,0,0-6.5,0l-2.033,4.119L3.1,363.8A3.622,3.622,0,0,0,1.1,369.974l3.29,3.206-.777,4.528a3.618,3.618,0,0,0,5.256,3.819l4.066-2.138L17,381.527a3.623,3.623,0,0,0,5.256-3.819l-.777-4.528,3.29-3.206a3.622,3.622,0,0,0-2.008-6.179Zm.322,4.45-3.744,3.65a1.207,1.207,0,0,0-.347,1.069l.884,5.153a1.208,1.208,0,0,1-1.753,1.273l-4.628-2.433a1.208,1.208,0,0,0-1.124,0L7.741,379.39a1.208,1.208,0,0,1-1.752-1.273l.884-5.153a1.208,1.208,0,0,0-.347-1.069l-3.744-3.649a1.208,1.208,0,0,1,.669-2.06l5.174-.752a1.207,1.207,0,0,0,.909-.66l2.314-4.689a1.208,1.208,0,0,1,2.166,0l2.314,4.689a1.207,1.207,0,0,0,.909.66l5.174.752a1.208,1.208,0,0,1,.669,2.06Z" transform="translate(0 -299.524)"/>
      <path id="Trazado_124926" data-name="Trazado 124926" d="M198.425,363.8l-4.546-.661-2.033-4.119a3.622,3.622,0,0,0-6.5,0l-2.033,4.119-4.546.661a3.623,3.623,0,0,0-2.008,6.179l3.29,3.206-.777,4.528a3.618,3.618,0,0,0,5.256,3.819l4.066-2.138,4.066,2.138a3.623,3.623,0,0,0,5.256-3.819l-.777-4.528,3.29-3.206a3.622,3.622,0,0,0-2.008-6.179Zm.322,4.45L195,371.895a1.207,1.207,0,0,0-.347,1.069l.884,5.153a1.208,1.208,0,0,1-1.753,1.273l-4.628-2.433a1.208,1.208,0,0,0-1.124,0l-4.628,2.433a1.208,1.208,0,0,1-1.752-1.273l.884-5.153a1.208,1.208,0,0,0-.347-1.069l-3.744-3.649a1.208,1.208,0,0,1,.669-2.06l5.174-.752a1.207,1.207,0,0,0,.909-.66l2.314-4.689a1.208,1.208,0,0,1,2.166,0L192,364.773a1.207,1.207,0,0,0,.909.66l5.174.752a1.207,1.207,0,0,1,.669,2.06Z" transform="translate(-147.389 -299.524)"/>
      <path id="Trazado_124927" data-name="Trazado 124927" d="M377.016,366.262a3.6,3.6,0,0,0-2.924-2.465l-4.546-.661-2.033-4.119a3.622,3.622,0,0,0-6.5,0l-2.033,4.119-4.546.661a3.622,3.622,0,0,0-2.008,6.179l3.29,3.206-.777,4.528a3.618,3.618,0,0,0,5.256,3.819l4.066-2.138,4.066,2.138a3.623,3.623,0,0,0,5.256-3.819l-.777-4.528,3.29-3.206A3.6,3.6,0,0,0,377.016,366.262Zm-2.6,1.984-3.744,3.65a1.207,1.207,0,0,0-.347,1.069l.884,5.153a1.208,1.208,0,0,1-1.753,1.273l-4.628-2.433a1.208,1.208,0,0,0-1.124,0l-4.628,2.433a1.208,1.208,0,0,1-1.752-1.273l.884-5.153a1.208,1.208,0,0,0-.347-1.069l-3.744-3.649a1.208,1.208,0,0,1,.669-2.06l5.174-.752a1.207,1.207,0,0,0,.909-.66l2.314-4.689a1.208,1.208,0,0,1,2.166,0l2.314,4.689a1.207,1.207,0,0,0,.909.66l5.174.752a1.208,1.208,0,0,1,.669,2.06Z" transform="translate(-294.777 -299.525)"/>
      <path id="Trazado_124928" data-name="Trazado 124928" d="M206.163,56.837a11.832,11.832,0,1,0-11.832,11.832A11.845,11.845,0,0,0,206.163,56.837Zm-21.249,0a9.417,9.417,0,1,1,9.417,9.417A9.428,9.428,0,0,1,184.915,56.837Z" transform="translate(-153.123 -37.756)"/>
      <path id="Trazado_124929" data-name="Trazado 124929" d="M137.128,213.045a1.208,1.208,0,0,0,.2.667,22.68,22.68,0,0,0,37.869,0,1.208,1.208,0,0,0,.2-.667,6.047,6.047,0,0,0-6.04-6.04H143.168A6.047,6.047,0,0,0,137.128,213.045Zm35.84-.345a20.264,20.264,0,0,1-33.409,0,3.631,3.631,0,0,1,3.609-3.28h26.191A3.631,3.631,0,0,1,172.968,212.7Z" transform="translate(-115.055 -173.678)"/>
      <path id="Trazado_124930" data-name="Trazado 124930" d="M112.527,55.058A27.527,27.527,0,1,0,95.239,6.112,1.207,1.207,0,0,0,96.757,7.99,25.113,25.113,0,1,1,93.45,11.2a1.207,1.207,0,0,0-1.834-1.571,27.526,27.526,0,0,0,20.91,45.428Z" transform="translate(-71.318)"/>
    </g>
  </g>
</svg>
