<svg xmlns="http://www.w3.org/2000/svg" width="85" height="85" viewBox="0 0 85 85">
  <g id="Grupo_96621" data-name="Grupo 96621" transform="translate(-285 -1923)">
    <rect id="Rectángulo_34163" data-name="Rectángulo 34163" width="85" height="85" transform="translate(285 1923)" fill="#26d19e"/>
    <g id="_x31_0_x2C__Advertising_x2C__Digital_x2C__Marketing_x2C__Promotion" transform="translate(273.919 1903.894)">
      <g id="Grupo_95834" data-name="Grupo 95834" transform="translate(23.92 30)">
        <path id="Trazado_128418" data-name="Trazado 128418" d="M101.415,125H53.49a4.574,4.574,0,0,0-4.574,4.575c0,33.9,0,31.669.006,31.851a4.574,4.574,0,0,0,4.568,4.34h47.925a4.574,4.574,0,0,0,4.568-4.34c.009-.182.006,2.065.006-31.851A4.574,4.574,0,0,0,101.415,125Z" transform="translate(-45.519 -112.091)" fill="#555a66"/>
        <path id="Trazado_128419" data-name="Trazado 128419" d="M83.92,165v29.9h47.561V165Z" transform="translate(-75.767 -146.655)" fill="#f2f2f2"/>
        <path id="Trazado_128420" data-name="Trazado 128420" d="M87.352,425a4.077,4.077,0,0,1,0,8.153H33A4.077,4.077,0,1,1,33,425Z" transform="translate(-28.241 -371.324)" fill="#404651"/>
        <path id="Trazado_128421" data-name="Trazado 128421" d="M350.956,79.626l-3.119-2.619L347.129,73h-4.071l-3.12-2.617L336.818,73h-4.071l-.708,4.01-.946.795h0l-2.172,1.824,2.036,3.526-.015.086-.692,3.924,3.827,1.393,2.036,3.526,3.827-1.393,3.25,1.184.576.209,2.036-3.526,2.144-.78,1.682-.613-.707-4.01Z" transform="translate(-287.474 -64.893)" fill="#f0582f"/>
        <path id="Trazado_128422" data-name="Trazado 128422" d="M301.978,35a3.057,3.057,0,1,1-3.057,3.057A3.058,3.058,0,0,1,301.978,35Z" transform="translate(-261.551 -34.321)" fill="#87c7ff"/>
        <path id="Trazado_128423" data-name="Trazado 128423" d="M80.958,75a2.038,2.038,0,1,1-2.038,2.038A2.039,2.039,0,0,1,80.958,75Z" transform="translate(-71.446 -68.885)" fill="#87c7ff"/>
        <path id="Trazado_128424" data-name="Trazado 128424" d="M184.587,307.13l.841,1.867-1.245.561-2.491,1.121h0l-.761.342-.841-1.868Z" transform="translate(-158.868 -269.471)" fill="#333940"/>
        <path id="Trazado_128425" data-name="Trazado 128425" d="M197.176,331.226a1.366,1.366,0,1,1-2.491,1.121l-.64-1.42-2.165-4.8h0L194.371,325l1.06,2.352,1.4,3.109Z" transform="translate(-169.056 -284.913)" fill="#22282d"/>
        <path id="Trazado_128426" data-name="Trazado 128426" d="M213.231,320.562a1.288,1.288,0,0,1-.647,1.705l-1.314.592-1.06-2.352,1.245-.561.069-.031A1.292,1.292,0,0,1,213.231,320.562Z" transform="translate(-184.895 -280.421)" fill="#f0582f"/>
        <path id="Trazado_128427" data-name="Trazado 128427" d="M258.823,183.224a1.366,1.366,0,1,1-2.491,1.121l-.094-.208-7.2-15.98a1.366,1.366,0,1,1,2.491-1.121Z" transform="translate(-218.346 -147.718)" fill="#efc203"/>
        <path id="Trazado_128428" data-name="Trazado 128428" d="M149.952,238.85l3.926,8.717-1.246.561-4.5,2.025-1.1.5-.81-1.8-2.4-5.327-.716-1.591Z" transform="translate(-126.914 -210.47)" fill="#efc203"/>
        <path id="Trazado_128429" data-name="Trazado 128429" d="M201.117,180.41l7.2,15.98-1.271.079-9.658.6-3.926-8.717,6.468-6.707Z" transform="translate(-170.422 -159.971)" fill="#f5ea0a"/>
        <path id="Trazado_128430" data-name="Trazado 128430" d="M134.528,273.24l2.4,5.327-.007,0-.45.2a2.921,2.921,0,1,1-2.4-5.327l.45-.2Z" transform="translate(-117.616 -240.187)" fill="#f5ea0a"/>
        <path id="Trazado_128431" data-name="Trazado 128431" d="M214.426,299.189l9.658-.6a12.827,12.827,0,0,1-8.848,9.05l-1.4-3.109,1.314-.592a1.29,1.29,0,1,0-1.06-2.352l-.069.031-.841-1.867Z" transform="translate(-187.462 -262.092)" fill="#87c7ff"/>
        <path id="Trazado_128432" data-name="Trazado 128432" d="M126.876,182.362l-6.468,6.707-6.842,3.082.716,1.591-.007,0-.45.2a2.921,2.921,0,0,0,2.4,5.327l.45-.2.007,0,.81,1.8,1.1-.5.841,1.868.761-.343,2.165,4.8c-.227.012-.454.019-.684.019a12.741,12.741,0,1,1,0-25.482A12.582,12.582,0,0,1,126.876,182.362Z" transform="translate(-97.37 -160.689)" fill="#87c7ff"/>
        <g id="Grupo_95833" data-name="Grupo 95833" transform="translate(48.24 11.652)">
          <path id="Trazado_128433" data-name="Trazado 128433" d="M433.367,166.585a1.171,1.171,0,1,1-1.572.522A1.172,1.172,0,0,1,433.367,166.585Z" transform="translate(-424.502 -159.568)" fill="#f2f2f2"/>
          <path id="Trazado_128434" data-name="Trazado 128434" d="M397.934,116.92a1.164,1.164,0,0,1-.124.523l-3.776,7.534a1.171,1.171,0,0,1-2.094-1.05l3.775-7.532a1.171,1.171,0,0,1,2.219.526Z" transform="translate(-390.063 -115.746)" fill="#f2f2f2"/>
          <path id="Trazado_128435" data-name="Trazado 128435" d="M380.613,120.595a1.171,1.171,0,1,1-1.572.522A1.172,1.172,0,0,1,380.613,120.595Z" transform="translate(-378.917 -119.828)" fill="#f2f2f2"/>
        </g>
        <path id="Trazado_128436" data-name="Trazado 128436" d="M373.92,425h7.474v2.718H373.92Z" transform="translate(-326.359 -371.324)" fill="#22282d"/>
        <path id="Trazado_128437" data-name="Trazado 128437" d="M208.92,425h13.589v2.718H208.92Z" transform="translate(-183.781 -371.324)" fill="#22282d"/>
        <path id="Trazado_128438" data-name="Trazado 128438" d="M88.92,425h7.474v2.718H88.92Z" transform="translate(-80.087 -371.324)" fill="#22282d"/>
        <path id="Trazado_128439" data-name="Trazado 128439" d="M459.939,35a1.019,1.019,0,1,1-1.019,1.019A1.02,1.02,0,0,1,459.939,35Z" transform="translate(-399.809 -34.321)"/>
        <path id="Trazado_128440" data-name="Trazado 128440" d="M344.6,275a.679.679,0,1,1-.679.679A.68.68,0,0,1,344.6,275Z" transform="translate(-300.436 -241.707)"/>
        <path id="Trazado_128441" data-name="Trazado 128441" d="M344.6,295a.679.679,0,1,1-.679.679A.68.68,0,0,1,344.6,295Z" transform="translate(-300.436 -258.99)"/>
        <path id="Trazado_128442" data-name="Trazado 128442" d="M344.6,315a.679.679,0,1,1-.679.679A.68.68,0,0,1,344.6,315Z" transform="translate(-300.436 -276.272)"/>
        <path id="Trazado_128443" data-name="Trazado 128443" d="M344.6,335a.679.679,0,1,1-.679.679A.68.68,0,0,1,344.6,335Z" transform="translate(-300.436 -293.554)"/>
        <path id="Trazado_128444" data-name="Trazado 128444" d="M344.6,355a.679.679,0,1,1-.679.679A.68.68,0,0,1,344.6,355Z" transform="translate(-300.436 -310.836)"/>
        <path id="Trazado_128445" data-name="Trazado 128445" d="M269.939,85a1.019,1.019,0,1,1-1.019,1.019A1.019,1.019,0,0,1,269.939,85Z" transform="translate(-235.628 -77.526)"/>
        <path id="Trazado_128446" data-name="Trazado 128446" d="M174.939,55a1.019,1.019,0,1,1-1.019,1.019A1.02,1.02,0,0,1,174.939,55Z" transform="translate(-153.537 -51.603)"/>
        <path id="Trazado_128447" data-name="Trazado 128447" d="M34.939,90a1.019,1.019,0,1,1-1.019,1.019A1.02,1.02,0,0,1,34.939,90Z" transform="translate(-32.561 -81.847)"/>
        <path id="Trazado_128448" data-name="Trazado 128448" d="M218.188,424.077H204.6a.679.679,0,0,1-.679-.679v-2.718a.679.679,0,1,1,1.359,0v2.038h12.23v-2.038a.679.679,0,0,1,1.359,0V423.4A.679.679,0,0,1,218.188,424.077Z" transform="translate(-179.46 -367.004)"/>
        <path id="Trazado_128449" data-name="Trazado 128449" d="M83.031,429.512H28.676a4.756,4.756,0,0,1,0-9.512h3.215a.679.679,0,0,1,0,1.359H28.676a3.4,3.4,0,0,0,0,6.794H83.031a3.4,3.4,0,0,0,0-6.794H79.815a.679.679,0,0,1,0-1.359h3.216a4.756,4.756,0,0,1,0,9.512Z" transform="translate(-23.92 -367.004)"/>
        <path id="Trazado_128450" data-name="Trazado 128450" d="M92.073,424.077H84.6a.679.679,0,0,1-.679-.679v-2.718a.679.679,0,1,1,1.359,0v2.038h6.115v-2.038a.679.679,0,1,1,1.359,0V423.4A.679.679,0,0,1,92.073,424.077Z" transform="translate(-75.767 -367.004)"/>
        <path id="Trazado_128451" data-name="Trazado 128451" d="M377.073,424.077H369.6a.679.679,0,0,1-.679-.679v-2.718a.679.679,0,0,1,1.359,0v2.038h6.115v-2.038a.679.679,0,0,1,1.359,0V423.4A.679.679,0,0,1,377.073,424.077Z" transform="translate(-322.039 -367.004)"/>
        <path id="Trazado_128452" data-name="Trazado 128452" d="M223.988,304a.68.68,0,0,1-.186-1.333,12.138,12.138,0,0,0,8.377-8.569.679.679,0,0,1,1.315.343,13.5,13.5,0,0,1-9.318,9.532A.682.682,0,0,1,223.988,304Z" transform="translate(-196.215 -257.77)"/>
        <path id="Trazado_128453" data-name="Trazado 128453" d="M117.354,203.081a13.42,13.42,0,1,1,0-26.84,13.205,13.205,0,0,1,5.482,1.182.679.679,0,1,1-.56,1.238,11.856,11.856,0,0,0-4.922-1.061,12.061,12.061,0,1,0,0,24.123c.21,0,.422-.006.647-.018a.68.68,0,0,1,.073,1.357C117.824,203.075,117.589,203.081,117.354,203.081Z" transform="translate(-93.049 -156.369)"/>
        <path id="Trazado_128454" data-name="Trazado 128454" d="M130.952,275.408a3.6,3.6,0,0,1-1.481-6.885l.45-.2a.679.679,0,0,1,.558,1.239l-.45.2a2.242,2.242,0,1,0,1.842,4.088l.45-.2a.679.679,0,0,1,.558,1.239l-.45.2A3.591,3.591,0,0,1,130.952,275.408Z" transform="translate(-113.295 -235.883)"/>
        <path id="Trazado_128455" data-name="Trazado 128455" d="M176.61,320.257a.679.679,0,0,1-.62-.4l-.841-1.868a.679.679,0,1,1,1.239-.558l.562,1.249.141-.064a.679.679,0,0,1,.558,1.239l-.761.343A.676.676,0,0,1,176.61,320.257Z" transform="translate(-154.547 -278.026)"/>
        <path id="Trazado_128456" data-name="Trazado 128456" d="M187.558,307.036a.68.68,0,0,1-.279-1.3l3.116-1.4-.562-1.248a.679.679,0,0,1,1.239-.558l.841,1.867a.679.679,0,0,1-.34.9l-3.736,1.682A.677.677,0,0,1,187.558,307.036Z" transform="translate(-164.734 -265.149)"/>
        <path id="Trazado_128457" data-name="Trazado 128457" d="M213.689,319.225a.68.68,0,0,1-.28-1.3l1.314-.592a.611.611,0,0,0,.361-.557.6.6,0,0,0-.054-.248.613.613,0,0,0-.809-.308l-.068.031a.679.679,0,1,1-.559-1.238l.069-.031a1.974,1.974,0,0,1,2.606.986,1.949,1.949,0,0,1,.174.808,1.972,1.972,0,0,1-1.162,1.8l-1.313.592A.68.68,0,0,1,213.689,319.225Z" transform="translate(-187.314 -276.107)"/>
        <path id="Trazado_128458" data-name="Trazado 128458" d="M164.879,262.493a.679.679,0,0,1-.28-1.3l1.988-.9a.679.679,0,1,1,.558,1.239l-1.988.9A.677.677,0,0,1,164.879,262.493Z" transform="translate(-145.137 -228.952)"/>
        <path id="Trazado_128459" data-name="Trazado 128459" d="M171.069,276.233a.679.679,0,0,1-.28-1.3l1.988-.9a.679.679,0,1,1,.558,1.239l-1.988.9A.676.676,0,0,1,171.069,276.233Z" transform="translate(-150.485 -240.825)"/>
        <path id="Trazado_128460" data-name="Trazado 128460" d="M177.259,289.983a.679.679,0,0,1-.28-1.3l1.988-.9a.679.679,0,1,1,.558,1.239l-1.988.9A.675.675,0,0,1,177.259,289.983Z" transform="translate(-155.834 -252.706)"/>
        <path id="Trazado_128461" data-name="Trazado 128461" d="M191.61,329.508a2.05,2.05,0,0,1-1.866-1.206l-2.8-6.225a.68.68,0,1,1,1.251-.531l2.792,6.2a.686.686,0,1,0,1.252-.564l-2.8-6.225a.679.679,0,1,1,1.239-.558l2.8,6.226a2.047,2.047,0,0,1-1.864,2.886Z" transform="translate(-164.736 -280.589)"/>
        <path id="Trazado_128462" data-name="Trazado 128462" d="M244.066,221.159a.68.68,0,0,1-.621-.4l-3.886-8.7a.679.679,0,1,1,1.241-.554l3.886,8.7a.68.68,0,0,1-.62.957Z" transform="translate(-210.205 -186.49)"/>
        <path id="Trazado_128463" data-name="Trazado 128463" d="M231.2,238.231a.68.68,0,0,1-.625-.412l-1.83-4.272a.679.679,0,1,1,1.249-.535l1.83,4.272a.68.68,0,0,1-.624.947Z" transform="translate(-200.864 -205.069)"/>
        <path id="Trazado_128464" data-name="Trazado 128464" d="M142.715,247.008a.679.679,0,0,1-.62-.4l-3.926-8.717a.679.679,0,0,1,.341-.9l6.842-3.082a.679.679,0,1,1,.558,1.239l-6.223,2.8,3.368,7.478,6.223-2.8a.679.679,0,1,1,.558,1.239l-6.842,3.082A.682.682,0,0,1,142.715,247.008Z" transform="translate(-122.592 -206.149)"/>
        <path id="Trazado_128465" data-name="Trazado 128465" d="M193.065,193.428a.68.68,0,0,1-.619-.4l-3.926-8.717a.68.68,0,0,1,.13-.751l7.657-7.941a.679.679,0,1,1,.979.943l-7.338,7.61,3.544,7.87,10.459-.649a.679.679,0,0,1,.084,1.356l-10.928.678Z" transform="translate(-166.101 -155.651)"/>
        <path id="Trazado_128466" data-name="Trazado 128466" d="M253.253,181.51a2.05,2.05,0,0,1-1.866-1.206l-7.29-16.188a2.045,2.045,0,1,1,3.73-1.679l7.29,16.188a2.049,2.049,0,0,1-1.025,2.7A2.028,2.028,0,0,1,253.253,181.51Zm-7.292-18.921a.689.689,0,0,0-.283.062.686.686,0,0,0-.342.907l7.29,16.188a.689.689,0,0,0,.627.405.678.678,0,0,0,.28-.061.688.688,0,0,0,.344-.908l-7.29-16.187A.689.689,0,0,0,245.961,162.589Z" transform="translate(-214.021 -143.397)"/>
        <path id="Trazado_128467" data-name="Trazado 128467" d="M127.16,191.254H79.6a.679.679,0,0,1-.679-.679v-29.9A.68.68,0,0,1,79.6,160h35.313a.679.679,0,1,1,0,1.359H80.279V189.9h46.2V169.314a.679.679,0,1,1,1.359,0v21.261A.679.679,0,0,1,127.16,191.254Z" transform="translate(-71.446 -142.335)"/>
        <path id="Trazado_128468" data-name="Trazado 128468" d="M97.1,162.125H49.173a5.26,5.26,0,0,1-5.253-5.255V125.255A5.26,5.26,0,0,1,49.173,120H84.819a.679.679,0,1,1,0,1.359H49.173a3.9,3.9,0,0,0-3.895,3.9V156.87a3.9,3.9,0,0,0,3.895,3.9H97.1a3.9,3.9,0,0,0,3.9-3.9V130.652a.679.679,0,1,1,1.359,0V156.87A5.261,5.261,0,0,1,97.1,162.125Z" transform="translate(-41.202 -107.77)"/>
        <path id="Trazado_128469" data-name="Trazado 128469" d="M331.791,88.439a.679.679,0,0,1-.589-.34l-1.912-3.312L325.7,83.479a.68.68,0,0,1-.437-.756l.664-3.766-1.912-3.312a.679.679,0,0,1,.151-.86l2.171-1.824.026-.021.731-.615.665-3.767a.679.679,0,0,1,.669-.561h3.824l2.93-2.458a.679.679,0,0,1,.873,0L338.984,68h3.824a.68.68,0,0,1,.669.561l.665,3.767,2.929,2.46a.68.68,0,0,1,.152.86l-1.912,3.312.664,3.767a.679.679,0,0,1-.437.756l-3.595,1.308L340.032,88.1a.679.679,0,0,1-.82.3l-3.595-1.308L332.023,88.4A.679.679,0,0,1,331.791,88.439Zm3.826-2.752a.681.681,0,0,1,.233.041l3.29,1.2,1.751-3.033a.679.679,0,0,1,.356-.3l3.291-1.2-.608-3.449a.679.679,0,0,1,.081-.458l1.751-3.033-2.682-2.252a.68.68,0,0,1-.232-.4l-.609-3.449h-3.5a.68.68,0,0,1-.437-.159l-2.683-2.251L332.934,69.2a.679.679,0,0,1-.437.159H329l-.609,3.449a.679.679,0,0,1-.232.4l-.946.795-.027.021-1.71,1.436,1.751,3.033a.68.68,0,0,1,.081.457L326.7,82.4l3.291,1.2a.679.679,0,0,1,.356.3l1.751,3.032,3.291-1.2A.681.681,0,0,1,335.617,85.688Z" transform="translate(-283.153 -60.571)"/>
        <path id="Trazado_128470" data-name="Trazado 128470" d="M375.762,119.173a1.858,1.858,0,0,1-.828-.2,1.851,1.851,0,1,1,.828.2Zm0-2.343a.492.492,0,0,0-.221.932.485.485,0,0,0,.219.052.491.491,0,0,0,.222-.931.483.483,0,0,0-.221-.053Z" transform="translate(-326.352 -103.857)"/>
        <path id="Trazado_128471" data-name="Trazado 128471" d="M428.516,165.161a1.855,1.855,0,0,1-.829-.2,1.851,1.851,0,0,1,.83-3.506,1.851,1.851,0,0,1,0,3.7Zm0-2.344a.493.493,0,1,0,.221.053A.488.488,0,0,0,428.517,162.817Z" transform="translate(-371.937 -143.594)"/>
        <path id="Trazado_128472" data-name="Trazado 128472" d="M388.671,121.982a1.852,1.852,0,0,1-1.655-2.681l3.775-7.533a1.851,1.851,0,0,1,3.31,1.657l-3.777,7.534a1.84,1.84,0,0,1-1.654,1.022Zm3.777-9.877a.49.49,0,0,0-.441.272l-3.775,7.533a.493.493,0,0,0,.219.66.49.49,0,0,0,.66-.218l3.777-7.534a.484.484,0,0,0,.052-.219.493.493,0,0,0-.273-.442A.481.481,0,0,0,392.447,112.1Z" transform="translate(-337.507 -99.774)"/>
        <path id="Trazado_128473" data-name="Trazado 128473" d="M366.394,356.359H359.6a.679.679,0,0,1,0-1.359h6.794a.679.679,0,0,1,0,1.359Z" transform="translate(-313.398 -310.836)"/>
        <path id="Trazado_128474" data-name="Trazado 128474" d="M366.394,336.359H359.6a.679.679,0,1,1,0-1.359h6.794a.679.679,0,1,1,0,1.359Z" transform="translate(-313.398 -293.554)"/>
        <path id="Trazado_128475" data-name="Trazado 128475" d="M366.394,316.359H359.6a.679.679,0,0,1,0-1.359h6.794a.679.679,0,0,1,0,1.359Z" transform="translate(-313.398 -276.272)"/>
        <path id="Trazado_128476" data-name="Trazado 128476" d="M366.394,296.359H359.6a.679.679,0,0,1,0-1.359h6.794a.679.679,0,0,1,0,1.359Z" transform="translate(-313.398 -258.99)"/>
        <path id="Trazado_128477" data-name="Trazado 128477" d="M366.394,276.359H359.6a.679.679,0,0,1,0-1.359h6.794a.679.679,0,0,1,0,1.359Z" transform="translate(-313.398 -241.707)"/>
        <path id="Trazado_128478" data-name="Trazado 128478" d="M297.657,37.474a3.737,3.737,0,1,1,3.737-3.737A3.741,3.741,0,0,1,297.657,37.474Zm0-6.115a2.378,2.378,0,1,0,2.378,2.378A2.381,2.381,0,0,0,297.657,31.359Z" transform="translate(-257.23 -30)"/>
        <path id="Trazado_128479" data-name="Trazado 128479" d="M76.638,75.436a2.718,2.718,0,1,1,2.718-2.718A2.721,2.721,0,0,1,76.638,75.436Zm0-4.077A1.359,1.359,0,1,0,78,72.718,1.36,1.36,0,0,0,76.638,71.359Z" transform="translate(-67.126 -64.564)"/>
      </g>
    </g>
  </g>
</svg>
