<svg xmlns="http://www.w3.org/2000/svg" width="101.001" height="101" viewBox="0 0 101.001 101">
  <g id="palabras-clave" transform="translate(0 -0.001)">
    <path id="Trazado_128741" data-name="Trazado 128741" d="M54.318,30.978A23.587,23.587,0,0,0,30.834,7.5,23.228,23.228,0,0,0,7.5,30.829,23.6,23.6,0,0,0,24.367,53.338V96.914l6.826,8.627,6.586-8.585-.122-8.875-1.072-.8-2.632-1.959,2.619-1.943,1.067-.791-.007-2.308-1.072-.8-2.632-1.959,2.619-1.943,1.067-.791L37.593,53.38a23.228,23.228,0,0,0,16.725-22.4ZM30.9,26.6a5.421,5.421,0,0,1-5.4-5.4,5.338,5.338,0,0,1,5.363-5.362,5.421,5.421,0,0,1,5.4,5.4A5.338,5.338,0,0,1,30.9,26.6Z" transform="translate(-6.02 -6.019)" fill="#e3d3c6"/>
    <path id="Trazado_128742" data-name="Trazado 128742" d="M132.183,30.978A23.562,23.562,0,0,0,104.5,7.863,23.6,23.6,0,0,1,123.93,30.978a23.221,23.221,0,0,1-12.651,20.783,7.492,7.492,0,0,0-4.052,6.71V96.956l-2.3,3.215,4.134,5.37,6.586-8.585-.122-8.875-1.072-.8-2.632-1.959,2.619-1.943,1.067-.791-.007-2.308-1.072-.8-2.632-1.959,2.619-1.943,1.067-.791-.021-21.411a23.228,23.228,0,0,0,16.725-22.4Z" transform="translate(-83.885 -6.019)" fill="#d4c6bb"/>
    <path id="Trazado_128743" data-name="Trazado 128743" d="M330.708,86.213V63.6a6.336,6.336,0,0,0-6.342-6.329H302.294a6.336,6.336,0,0,0-6.342,6.329v4.02H288l7.952,9.637v8.959a6.336,6.336,0,0,0,6.342,6.329h22.072A6.336,6.336,0,0,0,330.708,86.213Z" transform="translate(-231.187 -45.97)" fill="#72e4a0"/>
    <path id="Trazado_128744" data-name="Trazado 128744" d="M438.633,57.267h-8.285A6.336,6.336,0,0,1,436.69,63.6V86.213a6.336,6.336,0,0,1-6.342,6.329h8.285a6.336,6.336,0,0,0,6.342-6.329V63.6A6.336,6.336,0,0,0,438.633,57.267Z" transform="translate(-345.454 -45.969)" fill="#24d3b5"/>
    <path id="Trazado_128745" data-name="Trazado 128745" d="M250.976,282.482h-40.74a7.366,7.366,0,0,1-7.358-7.373V248.761a7.366,7.366,0,0,1,7.358-7.373h4.674V228.135l11.2,13.253h24.863a7.366,7.366,0,0,1,7.358,7.373v26.348A7.366,7.366,0,0,1,250.976,282.482Z" transform="translate(-162.857 -183.131)" fill="#fa9084"/>
    <path id="Trazado_128746" data-name="Trazado 128746" d="M412.985,295.316H404.7a7.366,7.366,0,0,1,7.358,7.373v26.348a7.366,7.366,0,0,1-7.358,7.373h8.285a7.366,7.366,0,0,0,7.358-7.373V302.689A7.366,7.366,0,0,0,412.985,295.316Z" transform="translate(-324.866 -237.059)" fill="#ff6cb5"/>
    <path id="Trazado_128747" data-name="Trazado 128747" d="M98.112,56.012h.022a6.818,6.818,0,0,0,6.825-6.846A6.91,6.91,0,0,0,98.087,42.3a6.818,6.818,0,0,0-6.847,6.846A6.91,6.91,0,0,0,98.112,56.012Zm-2.783-9.627a3.841,3.841,0,0,1,2.736-1.13h.013A3.944,3.944,0,0,1,102,49.175a3.859,3.859,0,0,1-3.866,3.877h-.013A3.944,3.944,0,0,1,94.2,49.132a3.841,3.841,0,0,1,1.13-2.747Z" transform="translate(-73.241 -33.951)"/>
    <path id="Trazado_128748" data-name="Trazado 128748" d="M32.521,80.876l-2.107-1.568L32.5,77.759a1.48,1.48,0,0,0,.6-1.193l-.007-2.308a1.48,1.48,0,0,0-.6-1.182L30.39,71.508l2.087-1.548a1.48,1.48,0,0,0,.6-1.19l-.021-20.327a24.9,24.9,0,0,0,11.71-8.462,24.528,24.528,0,0,0,5.013-15.027A25.1,25.1,0,0,0,24.819,0h-.081A24.707,24.707,0,0,0,0,24.815,25.02,25.02,0,0,0,3.017,36.636a1.48,1.48,0,0,0,2.6-1.412A22.052,22.052,0,0,1,2.959,24.805,21.748,21.748,0,0,1,24.81,2.96a22.131,22.131,0,0,1,22.009,22,21.593,21.593,0,0,1-4.412,13.23A21.9,21.9,0,0,1,31.16,45.94a1.48,1.48,0,0,0-1.066,1.422l.021,20.665-3.087,2.29a1.479,1.479,0,0,0,0,2.375l3.11,2.316,0,.82-3.086,2.288a1.479,1.479,0,0,0,0,2.375l3.118,2.321.1,7.631-5.117,6.671L19.827,90.38V47.319A1.48,1.48,0,0,0,18.768,45.9a22.229,22.229,0,0,1-8.32-4.616A1.48,1.48,0,0,0,8.49,43.5,25.255,25.255,0,0,0,16.868,48.4V90.9a1.48,1.48,0,0,0,.319.918l6.826,8.627a1.48,1.48,0,0,0,1.16.561h.011a1.48,1.48,0,0,0,1.163-.579l6.586-8.585a1.481,1.481,0,0,0,.305-.921l-.122-8.875a1.48,1.48,0,0,0-.6-1.166Z" transform="translate(0 0)"/>
    <path id="Trazado_128749" data-name="Trazado 128749" d="M318.4,49.767h-.66a1.481,1.481,0,0,0,0,2.959h.661a4.862,4.862,0,0,1,4.863,4.85V80.192a4.862,4.862,0,0,1-4.863,4.85H296.325a4.862,4.862,0,0,1-4.863-4.85V71.233a1.479,1.479,0,0,0-.338-.942l-5.954-7.216h4.813a1.479,1.479,0,0,0,1.479-1.48v-4.02a4.862,4.862,0,0,1,4.863-4.85h13.718a1.481,1.481,0,0,0,0-2.959H296.325a7.824,7.824,0,0,0-7.822,7.809v2.541h-6.473a1.5,1.5,0,0,0-1.141,2.421l7.614,9.227v8.427A7.824,7.824,0,0,0,296.325,88H318.4a7.824,7.824,0,0,0,7.822-7.809V57.576A7.824,7.824,0,0,0,318.4,49.767Z" transform="translate(-225.218 -39.949)"/>
    <path id="Trazado_128750" data-name="Trazado 128750" d="M370.175,107.135h4.143a1.48,1.48,0,0,0,0-2.959h-4.143A1.48,1.48,0,0,0,370.175,107.135Z" transform="translate(-296.003 -83.625)"/>
    <path id="Trazado_128751" data-name="Trazado 128751" d="M387.239,140.656a1.479,1.479,0,0,0-1.479-1.48H370.175a1.48,1.48,0,0,0,0,2.959h15.584A1.48,1.48,0,0,0,387.239,140.656Z" transform="translate(-296.003 -111.72)"/>
    <path id="Trazado_128752" data-name="Trazado 128752" d="M370.175,174.176a1.48,1.48,0,0,0,0,2.959h4.143a1.48,1.48,0,0,0,0-2.959Z" transform="translate(-296.003 -139.816)"/>
    <path id="Trazado_128753" data-name="Trazado 128753" d="M419.5,105.655a1.479,1.479,0,0,0,1.479,1.48H426.5a1.48,1.48,0,0,0,0-2.959h-5.523A1.479,1.479,0,0,0,419.5,105.655Z" transform="translate(-336.746 -83.625)"/>
    <path id="Trazado_128754" data-name="Trazado 128754" d="M244.955,233.975H220.778l-10.76-12.728a1.5,1.5,0,0,0-2.609.955v11.773h-3.194a8.855,8.855,0,0,0-8.838,8.853v26.348a8.855,8.855,0,0,0,8.838,8.853h16.733a1.48,1.48,0,1,0,0-2.959H204.215a5.893,5.893,0,0,1-5.879-5.894V242.828a5.893,5.893,0,0,1,5.879-5.894h4.674a1.479,1.479,0,0,0,1.479-1.479v-9.211l8.594,10.166a1.48,1.48,0,0,0,1.13.524h24.863a5.893,5.893,0,0,1,5.879,5.894v26.348a5.893,5.893,0,0,1-5.879,5.894H228.443a1.48,1.48,0,0,0,0,2.959h16.511a8.855,8.855,0,0,0,8.838-8.853V242.828A8.855,8.855,0,0,0,244.955,233.975Z" transform="translate(-156.835 -177.198)"/>
    <path id="Trazado_128755" data-name="Trazado 128755" d="M333.3,350.234H311.169a1.48,1.48,0,0,0,0,2.959H333.3A1.48,1.48,0,0,0,333.3,350.234Z" transform="translate(-248.636 -281.144)"/>
    <path id="Trazado_128756" data-name="Trazado 128756" d="M251.879,393.882H262.47a1.48,1.48,0,0,0,0-2.959H251.879A1.48,1.48,0,0,0,251.879,393.882Z" transform="translate(-201.042 -313.806)"/>
    <path id="Trazado_128757" data-name="Trazado 128757" d="M359.6,390.923H343.932a1.48,1.48,0,0,0,0,2.959H359.6A1.48,1.48,0,0,0,359.6,390.923Z" transform="translate(-274.936 -313.806)"/>
    <path id="Trazado_128758" data-name="Trazado 128758" d="M251.879,434.572H285.7a1.48,1.48,0,0,0,0-2.959H251.879A1.48,1.48,0,0,0,251.879,434.572Z" transform="translate(-201.042 -346.469)"/>
    <path id="Trazado_128759" data-name="Trazado 128759" d="M251.879,353.193H256.7a1.48,1.48,0,0,0,0-2.959h-4.816A1.48,1.48,0,0,0,251.879,353.193Z" transform="translate(-201.042 -281.144)"/>
  </g>
</svg>
