<svg xmlns="http://www.w3.org/2000/svg" width="143" height="143" viewBox="0 0 143 143">
  <g id="Grupo_96610" data-name="Grupo 96610" transform="translate(-376 -3353)">
    <circle id="Elipse_6665" data-name="Elipse 6665" cx="71.5" cy="71.5" r="71.5" transform="translate(376 3353)" fill="#baa6f7"/>
    <g id="edificios-gubernamentales" transform="translate(372.954 3382)">
      <rect id="Rectángulo_35545" data-name="Rectángulo 35545" width="50.61" height="32.399" transform="translate(48.789 48.295)" fill="#f7cf9c"/>
      <rect id="Rectángulo_35546" data-name="Rectángulo 35546" width="4.695" height="32.399" transform="translate(48.789 48.295)" fill="#eab883"/>
      <path id="Trazado_129299" data-name="Trazado 129299" d="M205.364,403.64h-.537v13.941h16.016V403.64Z" transform="translate(-139.199 -336.886)" fill="#9e7430"/>
      <path id="Trazado_129300" data-name="Trazado 129300" d="M212.833,403.641h-8.008v13.941h8.008Z" transform="translate(-139.198 -336.887)" fill="#8e6325"/>
      <path id="Trazado_129301" data-name="Trazado 129301" d="M209.2,403.641h-4.376v13.941H209.2Z" transform="translate(-139.198 -336.887)" fill="#7f551d"/>
      <rect id="Rectángulo_35547" data-name="Rectángulo 35547" width="50.61" height="6.699" transform="translate(48.789 46.062)" fill="#eab883"/>
      <rect id="Rectángulo_35548" data-name="Rectángulo 35548" width="4.695" height="6.699" transform="translate(48.789 46.062)" fill="#dda878"/>
      <path id="Trazado_129302" data-name="Trazado 129302" d="M183.514,278.526V309.2h4.517V278.526Z" transform="translate(-121.411 -232.463)" fill="#e6e6e6"/>
      <path id="Trazado_129303" data-name="Trazado 129303" d="M183.514,278.526V309.2h2.258V278.526Z" transform="translate(-121.411 -232.463)" fill="#ccc"/>
      <path id="Trazado_129304" data-name="Trazado 129304" d="M295.674,278.526V309.2h4.517V278.526Z" transform="translate(-215.022 -232.463)" fill="#e6e6e6"/>
      <g id="Grupo_96125" data-name="Grupo 96125" transform="translate(59.399 46.063)">
        <path id="Trazado_129305" data-name="Trazado 129305" d="M295.674,278.526V309.2h2.258V278.526Z" transform="translate(-274.421 -278.526)" fill="#ccc"/>
        <path id="Trazado_129306" data-name="Trazado 129306" d="M287.017,454.957h-5.458a2.24,2.24,0,0,1-2.233-2.233h0a2.239,2.239,0,0,1,2.233-2.233h5.458a2.24,2.24,0,0,1,2.233,2.233h0A2.239,2.239,0,0,1,287.017,454.957Z" transform="translate(-260.777 -422.051)" fill="#ccc"/>
        <path id="Trazado_129307" data-name="Trazado 129307" d="M174.857,454.957H169.4a2.239,2.239,0,0,1-2.233-2.233h0a2.239,2.239,0,0,1,2.233-2.233h5.458a2.239,2.239,0,0,1,2.233,2.233h0A2.239,2.239,0,0,1,174.857,454.957Z" transform="translate(-167.166 -422.051)" fill="#ccc"/>
      </g>
      <g id="Grupo_96126" data-name="Grupo 96126" transform="translate(59.399 74.502)">
        <path id="Trazado_129308" data-name="Trazado 129308" d="M171,452.725a2.239,2.239,0,0,1,2.233-2.233H169.4a2.233,2.233,0,0,0,0,4.466h3.833A2.24,2.24,0,0,1,171,452.725Z" transform="translate(-167.166 -450.492)" fill="#b7b7b7"/>
        <path id="Trazado_129309" data-name="Trazado 129309" d="M283.159,452.725a2.239,2.239,0,0,1,2.233-2.233h-3.833a2.233,2.233,0,1,0,0,4.466h3.833A2.24,2.24,0,0,1,283.159,452.725Z" transform="translate(-260.777 -450.492)" fill="#b7b7b7"/>
      </g>
      <path id="Trazado_129310" data-name="Trazado 129310" d="M274.126,28.76H259.59V38.85h14.4a.616.616,0,0,0,.616-.616v-9A.478.478,0,0,0,274.126,28.76Z" transform="translate(-184.906 -24.004)" fill="#ed5a5a"/>
      <path id="Trazado_129311" data-name="Trazado 129311" d="M259.59,28.76V38.85H265.7V28.76Z" transform="translate(-184.906 -24.004)" fill="#e04b4b"/>
      <path id="Trazado_129312" data-name="Trazado 129312" d="M244.37,7.529a2.232,2.232,0,0,0-1.852,2.2V33h4.466V9.727A2.23,2.23,0,0,0,244.37,7.529Z" transform="translate(-170.657 -6.255)" fill="#e6e6e6"/>
      <path id="Trazado_129313" data-name="Trazado 129313" d="M244.751,9.718a2.227,2.227,0,0,1,1.118-1.931,2.235,2.235,0,0,0-3.351,1.931V32.995h2.233C244.751,30.371,244.751,12.658,244.751,9.718Z" transform="translate(-170.657 -6.247)" fill="#ccc"/>
      <path id="SVGCleanerId_0" d="M140.334,167.277l-20.91-15.092a4.039,4.039,0,0,0-2.363-.764H106.821a3.6,3.6,0,0,0-2.108.681l-20.5,14.8c-.8.577-.5,1.479-.562,2.022v1.856h0l-.01,2.229a1.746,1.746,0,0,0,1.745,1.67h53.523a1.749,1.749,0,0,0,1.67-1.228,5.123,5.123,0,0,0,.079-1.426v-3.213C140.595,168.128,140.8,167.613,140.334,167.277Z" transform="translate(-38.055 -126.38)" fill="#9e7430"/>
      <g id="Grupo_96127" data-name="Grupo 96127" transform="translate(45.586 25.042)">
        <path id="SVGCleanerId_0_1_" d="M140.334,167.277l-20.91-15.092a4.039,4.039,0,0,0-2.363-.764H106.821a3.6,3.6,0,0,0-2.108.681l-20.5,14.8c-.8.577-.5,1.479-.562,2.022v1.856h0l-.01,2.229a1.746,1.746,0,0,0,1.745,1.67h53.523a1.749,1.749,0,0,0,1.67-1.228,5.123,5.123,0,0,0,.079-1.426v-3.213C140.595,168.128,140.8,167.613,140.334,167.277Z" transform="translate(-83.641 -151.422)" fill="#9e7430"/>
      </g>
      <path id="Trazado_129314" data-name="Trazado 129314" d="M88.14,172.423h0c0-1.132,0-2.143,0-3.275a1.6,1.6,0,0,1,.662-1.295l22.854-16.5c-4.153.156-5.428-.413-6.944.681l-20.5,14.8c-.8.577-.5,1.479-.562,2.022v1.856h0l-.01,2.229a1.746,1.746,0,0,0,1.745,1.67h2.744Z" transform="translate(-38.055 -126.316)" fill="#8e6325"/>
      <path id="Trazado_129315" data-name="Trazado 129315" d="M140.577,268.261c.137-.44.055-.628.079-3.238H83.649v.568h0l-.01,2.228a1.746,1.746,0,0,0,1.745,1.67h53.523A1.749,1.749,0,0,0,140.577,268.261Z" transform="translate(-38.054 -221.193)" fill="#7f551d"/>
      <path id="Trazado_129316" data-name="Trazado 129316" d="M88.106,267.821l.01-2.228h0v-.568H83.65v.568h0l-.01,2.228a1.746,1.746,0,0,0,1.745,1.67h4.466A1.746,1.746,0,0,1,88.106,267.821Z" transform="translate(-38.054 -221.195)" fill="#724817"/>
      <path id="Trazado_129317" data-name="Trazado 129317" d="M115.144,479.347a2.233,2.233,0,0,0-2.2-1.852H47.8a2.233,2.233,0,1,0,0,4.466h65.143A2.23,2.23,0,0,0,115.144,479.347Z" transform="translate(-6.28 -398.527)" fill="#8e6325"/>
      <path id="Trazado_129318" data-name="Trazado 129318" d="M57.219,479.157a2.232,2.232,0,0,1,2.156-1.661H47.8a2.233,2.233,0,0,0,0,4.466H59.375A2.231,2.231,0,0,1,57.219,479.157Z" transform="translate(-6.28 -398.528)" fill="#7f551d"/>
      <path id="Trazado_129319" data-name="Trazado 129319" d="M346.882,348.96a1.241,1.241,0,0,0-2.481,0v2.921a1.241,1.241,0,0,0,2.481,0Z" transform="translate(-255.691 -290.213)"/>
      <path id="Trazado_129320" data-name="Trazado 129320" d="M375.605,348.96a1.241,1.241,0,0,0-2.481,0v2.921a1.241,1.241,0,1,0,2.481,0Z" transform="translate(-279.663 -290.213)"/>
      <path id="Trazado_129321" data-name="Trazado 129321" d="M345.642,397.141a1.24,1.24,0,0,0-1.241,1.241V401.3a1.241,1.241,0,1,0,2.481,0v-2.921A1.24,1.24,0,0,0,345.642,397.141Z" transform="translate(-255.691 -331.462)"/>
      <path id="Trazado_129322" data-name="Trazado 129322" d="M374.365,397.141a1.24,1.24,0,0,0-1.241,1.241V401.3a1.241,1.241,0,1,0,2.481,0v-2.921A1.24,1.24,0,0,0,374.365,397.141Z" transform="translate(-279.663 -331.462)"/>
      <path id="Trazado_129323" data-name="Trazado 129323" d="M125.124,347.719a1.24,1.24,0,0,0-1.241,1.24v2.921a1.241,1.241,0,0,0,2.481,0V348.96A1.24,1.24,0,0,0,125.124,347.719Z" transform="translate(-71.642 -290.213)"/>
      <path id="Trazado_129324" data-name="Trazado 129324" d="M153.848,353.121a1.24,1.24,0,0,0,1.241-1.241V348.96a1.241,1.241,0,0,0-2.481,0v2.921A1.241,1.241,0,0,0,153.848,353.121Z" transform="translate(-95.616 -290.213)"/>
      <path id="Trazado_129325" data-name="Trazado 129325" d="M125.124,397.141a1.24,1.24,0,0,0-1.241,1.241V401.3a1.241,1.241,0,1,0,2.481,0v-2.921A1.24,1.24,0,0,0,125.124,397.141Z" transform="translate(-71.642 -331.462)"/>
      <path id="Trazado_129326" data-name="Trazado 129326" d="M155.087,398.382a1.241,1.241,0,1,0-2.481,0V401.3a1.241,1.241,0,1,0,2.481,0Z" transform="translate(-95.615 -331.462)"/>
      <path id="Trazado_129327" data-name="Trazado 129327" d="M232.091,347.719a1.24,1.24,0,0,0-1.241,1.24v2.921a1.241,1.241,0,0,0,2.481,0V348.96A1.24,1.24,0,0,0,232.091,347.719Z" transform="translate(-160.919 -290.213)"/>
      <path id="Trazado_129328" data-name="Trazado 129328" d="M260.814,353.121a1.24,1.24,0,0,0,1.241-1.241V348.96a1.241,1.241,0,0,0-2.481,0v2.921A1.241,1.241,0,0,0,260.814,353.121Z" transform="translate(-184.892 -290.213)"/>
      <path id="Trazado_129329" data-name="Trazado 129329" d="M106.663,77.728h-6.026V71.275a1.241,1.241,0,1,0-2.481,0v6.453H88.963a3.465,3.465,0,0,0-2.557-4.377V54h11.75V65.486a1.241,1.241,0,1,0,2.481,0V49.536h.214a2.984,2.984,0,0,0,2.989-2.988c0-3.833,0-4.441-.013-5.055a2,2,0,0,0-.825-1.6L82.093,24.8c-1.87-1.35-3.616-.912-4.528-1V16.087H89.08a1.859,1.859,0,0,0,1.857-1.857v-9a1.72,1.72,0,0,0-1.718-1.718H77.565V3.472a3.473,3.473,0,0,0-6.947,0V6.907a1.241,1.241,0,0,0,2.481,0V3.472a.993.993,0,0,1,1.985,0V23.8H73.1V12.7a1.241,1.241,0,1,0-2.481,0V23.8c-1.256.1-2.908-.37-4.689.916l-20.5,14.8a2.6,2.6,0,0,0-1.077,2.1c-.005,5.2-.068,5.209.122,5.817a3.02,3.02,0,0,0,3.071,2.1V77.728H41.52a3.473,3.473,0,0,0,0,6.947h65.142a3.473,3.473,0,1,0,0-6.947ZM77.565,6H88.456v7.609H77.565V6Zm9.064,70.738a.994.994,0,0,1-.992.992H80.179a.992.992,0,1,1,0-1.985h5.458A.994.994,0,0,1,86.629,76.735Zm-9.779.993H74.873V67.995h4.535v5.353A3.482,3.482,0,0,0,76.85,77.728Zm-8.993-4.38V67.995h4.535v9.733H70.416A3.485,3.485,0,0,0,67.857,73.348ZM58.3,77.728H50.027V54H60.86V73.351A3.472,3.472,0,0,0,58.3,77.728ZM50.027,51.521V49.536H60.86v1.985Zm11.6,24.222c.017,0,5.473,0,5.559.005a.992.992,0,0,1-.1,1.98H61.63a.992.992,0,0,1,0-1.985Zm1.711-2.481V49.536h2.036V73.262H63.341Zm4.516-7.748V54H79.409V65.514Zm0-13.993V49.536H79.409v1.985ZM81.89,73.262V49.536h2.036V73.262ZM98.156,51.521H86.406V49.536h11.75ZM47.329,47.055a.506.506,0,0,1-.486-.358,11.569,11.569,0,0,1-.012-1.628H59.206a1.241,1.241,0,0,0,0-2.481H46.833c.015-.9-.041-1,.048-1.064C68.38,26.2,67.34,26.282,68.763,26.282H79c1.653,0,.595,0,22.346,15.476,0,.017.01.886.01.83H64.995a1.241,1.241,0,1,0,0,2.481h36.365a9.975,9.975,0,0,1-.023,1.629.506.506,0,0,1-.485.356H47.329Zm59.334,35.139H41.52a.991.991,0,0,1-.965-1.214,1,1,0,0,1,.965-.771h65.142a.993.993,0,1,1,0,1.985Z" transform="translate(0 0)"/>
    </g>
  </g>
</svg>
