<svg xmlns="http://www.w3.org/2000/svg" width="143" height="143" viewBox="0 0 143 143">
  <g id="Grupo_96619" data-name="Grupo 96619" transform="translate(6265 8353)">
    <circle id="Elipse_6669" data-name="Elipse 6669" cx="71.5" cy="71.5" r="71.5" transform="translate(-6265 -8353)" fill="#baa6f7"/>
    <g id="posicion" transform="translate(-6228.937 -8316.997)">
      <circle id="Elipse_6686" data-name="Elipse 6686" cx="31.129" cy="31.129" r="31.129" transform="translate(2.119 6.559)" fill="#6bc13b"/>
      <path id="Trazado_129219" data-name="Trazado 129219" d="M54.736,55.927A31.139,31.139,0,0,0,37.887,6.906h0L30,14.793v8.894l6.67,8.894,8.894,3.335v5.559l-4.447,7.782,6.67,6.67Z" transform="translate(3.247 0.66)" fill="#3b5892"/>
      <circle id="Elipse_6687" data-name="Elipse 6687" cx="13.341" cy="13.341" r="13.341" transform="translate(42.141 6.559)" fill="#f0ae42"/>
      <path id="Trazado_129220" data-name="Trazado 129220" d="M33.883,63.88q-.556.02-1.112.02A31.129,31.129,0,0,1,5.2,47.223h8.672L20.542,45l6.67,2.223v6.67l6.67,2.223Z" transform="translate(0.476 4.917)" fill="#3b5892"/>
      <path id="Trazado_129221" data-name="Trazado 129221" d="M2.265,32.269A31.121,31.121,0,0,1,15.325,11.01h0l9.992,8.883V29.9l4.447,6.67v5.559H14.2l-3.335-7.782H6.417Z" transform="translate(0.148 1.119)" fill="#3b5892"/>
      <path id="Trazado_129222" data-name="Trazado 129222" d="M33.112,34h4.447v6.67L32,42.894V38.447Z" transform="translate(3.471 3.688)" fill="#3b5892"/>
      <path id="Trazado_129223" data-name="Trazado 129223" d="M51.006,29.011A10.006,10.006,0,1,1,61.011,19.006,10.006,10.006,0,0,1,51.006,29.011Zm0-17.788a7.782,7.782,0,1,0,7.782,7.782,7.782,7.782,0,0,0-7.782-7.782Z" transform="translate(4.477 0.894)" fill="#fce797"/>
      <path id="Trazado_129224" data-name="Trazado 129224" d="M50.559,24.117a5.559,5.559,0,1,1,5.559-5.559,5.559,5.559,0,0,1-5.559,5.559Zm0-8.894a3.335,3.335,0,1,0,3.335,3.335,3.335,3.335,0,0,0-3.335-3.335Z" transform="translate(4.923 1.341)" fill="#fce797"/>
      <path id="Trazado_129225" data-name="Trazado 129225" d="M57.341,8.67h0A6.67,6.67,0,0,0,50.67,2h0A6.67,6.67,0,0,0,44,8.67h0a9.021,9.021,0,0,0,2.169,5.867l4.5,5.251,4.5-5.25a9.022,9.022,0,0,0,2.17-5.868Z" transform="translate(4.812 0.112)" fill="#b52f28"/>
      <path id="Trazado_129226" data-name="Trazado 129226" d="M50.223,9.447a2.223,2.223,0,1,1,2.223-2.223A2.223,2.223,0,0,1,50.223,9.447Zm0-2.223Z" transform="translate(5.259 0.447)" fill="#fff"/>
      <path id="Trazado_129227" data-name="Trazado 129227" d="M37.67,33H33.223a1.112,1.112,0,0,0-1.078.843L31.033,38.29a1.094,1.094,0,0,0-.033.269v4.447a1.113,1.113,0,0,0,1.524,1.033l5.559-2.223a1.112,1.112,0,0,0,.7-1.033v-6.67A1.112,1.112,0,0,0,37.67,33Zm-1.112,7.03-3.335,1.334V38.7l.868-3.472h2.467Z" transform="translate(3.359 3.576)"/>
      <path id="Trazado_129228" data-name="Trazado 129228" d="M69.935,19.9A14.5,14.5,0,0,0,63.175,7.671a7.771,7.771,0,0,0-15.386,0c-.366.23-.724.471-1.064.732A31.928,31.928,0,0,0,33.247,5.447,32.275,32.275,0,1,0,64.771,30.956,14.424,14.424,0,0,0,69.935,19.9Zm-2.223,0a12.229,12.229,0,1,1-19.878-9.522,10.125,10.125,0,0,0,.68,2.356,10.006,10.006,0,1,0,13.937,0,10.125,10.125,0,0,0,.68-2.356,12.264,12.264,0,0,1,4.58,9.522Zm-9.352-1.65a3.335,3.335,0,1,1-5.754,0l2.033,2.372a1.112,1.112,0,0,0,1.688,0Zm-2.877,7.208a5.559,5.559,0,0,0,4.386-8.968l.958-1.112c.17-.2.328-.406.481-.616a7.782,7.782,0,1,1-11.651,0c.153.21.311.417.481.616L51.1,16.49a5.559,5.559,0,0,0,4.386,8.968Zm0-22.235a5.565,5.565,0,0,1,5.559,5.559,7.907,7.907,0,0,1-1.9,5.144l-3.657,4.265-3.657-4.265a7.908,7.908,0,0,1-1.9-5.144,5.565,5.565,0,0,1,5.559-5.559Zm-39.735,10.1,8.606,8.167v9.528a1.118,1.118,0,0,0,.187.617l4.26,6.387v4.113H15.081l-3.046-7.108a1.112,1.112,0,0,0-1.022-.674H6.828L3.642,32.759A30.051,30.051,0,0,1,15.748,13.323ZM7.59,53.252h6.758a1.112,1.112,0,0,0,.351-.058l6.319-2.106,5.559,1.853v5.869a1.112,1.112,0,0,0,.76,1.054l5.91,1.971V67.7A30.028,30.028,0,0,1,7.59,53.252ZM35.471,67.613V61.034a1.112,1.112,0,0,0-.76-1.054L28.8,58.009V52.14a1.112,1.112,0,0,0-.76-1.054l-6.67-2.223a1.1,1.1,0,0,0-.7,0l-6.5,2.166h-7.8A29.826,29.826,0,0,1,3.231,37.688c0-.873.046-1.734.119-2.588l2.719,1.365a1.112,1.112,0,0,0,.5.111H10.28l3.046,7.108a1.112,1.112,0,0,0,1.022.674H29.912a1.112,1.112,0,0,0,1.112-1.112V37.688a1.118,1.118,0,0,0-.187-.617l-4.26-6.387V21.012a1.112,1.112,0,0,0-.347-.807l-8.587-8.149a29.835,29.835,0,0,1,15.6-4.385,30.166,30.166,0,0,1,5.67.541l-6.455,6.455a1.112,1.112,0,0,0-.327.786v8.894a1.112,1.112,0,0,0,.222.667l6.67,8.894a1.123,1.123,0,0,0,.5.375L47.7,37.346v4.493l-4.3,7.522a1.112,1.112,0,0,0,.179,1.334l6.67,6.67a1.112,1.112,0,0,0,.786.334h4.558a29.959,29.959,0,0,1-20.122,9.914ZM63.264,37.688a29.853,29.853,0,0,1-5.857,17.788H51.5l-5.744-5.744,4.026-7.041a1.112,1.112,0,0,0,.147-.556V36.576a1.112,1.112,0,0,0-.72-1.042l-8.59-3.224-6.254-8.334V15.913l7.1-7.1a29.974,29.974,0,0,1,3.474,1.223,14.433,14.433,0,0,0,17.85,22.319,30.283,30.283,0,0,1,.477,5.336Z"/>
      <circle id="Elipse_6688" data-name="Elipse 6688" cx="2.223" cy="2.223" r="2.223" transform="translate(53.259 5.447)"/>
    </g>
  </g>
</svg>
