<svg xmlns="http://www.w3.org/2000/svg" width="87" height="87" viewBox="0 0 87 87">
  <g id="Grupo_96128" data-name="Grupo 96128" transform="translate(-303 -4980)">
    <circle id="Elipse_5731" data-name="Elipse 5731" cx="43.5" cy="43.5" r="43.5" transform="translate(303 4980)" fill="#764cf0"/>
    <g id="discurso" transform="translate(294.694 4996)">
      <g id="Grupo_95254" data-name="Grupo 95254" transform="translate(28.126 0.82)">
        <g id="Grupo_95252" data-name="Grupo 95252">
          <path id="Trazado_123099" data-name="Trazado 123099" d="M78.192,327.95v8.959l-25.094,0a2.6,2.6,0,0,1-2.6-2.6v-6.36a11.607,11.607,0,0,1,11.607-11.606h4.478A11.606,11.606,0,0,1,78.192,327.95Z" transform="translate(-48.785 -282.577)" fill="#665e66"/>
          <path id="Trazado_123100" data-name="Trazado 123100" d="M181.921,335.148a3.345,3.345,0,1,1,3.624,3.333l.285.658a4.877,4.877,0,0,1-1.249,5.6l-6.736,5.939S181.921,335.872,181.921,335.148Z" transform="translate(-162.207 -296.345)" fill="#756e78"/>
          <path id="Trazado_123101" data-name="Trazado 123101" d="M54.167,327.947v6.359a2.6,2.6,0,0,0,2.6,2.6H53.1a2.6,2.6,0,0,1-2.6-2.6v-6.359a11.606,11.606,0,0,1,11.606-11.606h3.667A11.607,11.607,0,0,0,54.167,327.947Z" transform="translate(-48.785 -282.574)" fill="#544f57"/>
          <path id="Trazado_123102" data-name="Trazado 123102" d="M86.071,335.148a3.345,3.345,0,1,0-3.624,3.333l-.285.658a4.877,4.877,0,0,0,1.249,5.6l6.736,5.939S86.071,335.872,86.071,335.148Z" transform="translate(-74.507 -296.345)" fill="#756e78"/>
          <path id="Trazado_123103" data-name="Trazado 123103" d="M133.8,328.546l4.816,13.933,4.816-13.933-2.891-5.947h-5.124Z" transform="translate(-122.975 -288.148)" fill="#dddaec"/>
          <path id="Trazado_123104" data-name="Trazado 123104" d="M157.38,400.858v.488l-2.864,8.284-2.864-8.284v-.488a2.864,2.864,0,1,1,5.728,0Z" transform="translate(-138.877 -355.299)" fill="#c14098"/>
          <path id="Trazado_123105" data-name="Trazado 123105" d="M86.3,451.455h9.928l1.714-3.252-1.714-3.252H86.3" transform="translate(-80.67 -397.123)" fill="#665e66"/>
          <path id="Trazado_123106" data-name="Trazado 123106" d="M162.164,350.689a1.925,1.925,0,0,1-1.925-1.925v-1.957a1.925,1.925,0,0,1,3.85,0v1.957A1.925,1.925,0,0,1,162.164,350.689Z" transform="translate(-146.525 -307.994)" fill="#c14098"/>
          <path id="Trazado_123107" data-name="Trazado 123107" d="M125.483,272.051l-.887-.887-5.21-5.21-5.21,5.21-.887.887a3.684,3.684,0,1,0,5.21,5.21l.887-.887.887.887a3.684,3.684,0,1,0,5.21-5.21Z" transform="translate(-103.747 -237.696)" fill="#f9f6f9"/>
          <path id="Trazado_123108" data-name="Trazado 123108" d="M58.246,7.5H53.431A12.476,12.476,0,0,0,40.955,19.976V30.792H70.722V19.976A12.476,12.476,0,0,0,58.246,7.5Z" transform="translate(-40.283 -7.5)" fill="#c6865c"/>
          <path id="Trazado_123109" data-name="Trazado 123109" d="M61.082,7.823a12.484,12.484,0,0,0-9.64,12.153V31.365H40.955V19.976A12.476,12.476,0,0,1,53.431,7.5h4.815A12.532,12.532,0,0,1,61.082,7.823Z" transform="translate(-40.283 -7.5)" fill="#be694f"/>
          <path id="Trazado_123110" data-name="Trazado 123110" d="M62.414,195.489h-24.1a3.5,3.5,0,1,1,0-7.009h24.1a3.5,3.5,0,1,1,0,7.009Z" transform="translate(-34.807 -168.693)" fill="#eaac9d"/>
          <path id="Trazado_123111" data-name="Trazado 123111" d="M99.142,102.142v10.935a10.907,10.907,0,1,1-21.814.137V102.142c0-.03,0-5.483,0-5.513A20.978,20.978,0,0,0,99.142,102.142Z" transform="translate(-72.679 -86.884)" fill="#ffddce"/>
          <path id="Trazado_123112" data-name="Trazado 123112" d="M91.485,123.632a10.783,10.783,0,0,1-3.167.5,10.907,10.907,0,0,1-10.989-10.908V96.639a20.973,20.973,0,0,0,6.52,4.673v11.911A10.911,10.911,0,0,0,91.485,123.632Z" transform="translate(-72.679 -86.893)" fill="#ffcbbe"/>
          <path id="Trazado_123113" data-name="Trazado 123113" d="M180.361,448.205a3.25,3.25,0,0,1-3.251,3.251v-6.5A3.251,3.251,0,0,1,180.361,448.205Z" transform="translate(-161.551 -397.125)" fill="#ffddce"/>
          <path id="Trazado_123114" data-name="Trazado 123114" d="M162.066,244.783a1.844,1.844,0,0,1-1.844-1.844v-1.615a1.844,1.844,0,1,1,3.687,0v1.615A1.844,1.844,0,0,1,162.066,244.783Z" transform="translate(-146.51 -214.117)" fill="#544f57"/>
        </g>
        <g id="Grupo_95253" data-name="Grupo 95253" transform="translate(26.457 36.003)">
          <path id="Trazado_123115" data-name="Trazado 123115" d="M312.352,354.7a1.64,1.64,0,0,1-1.64-1.64V343.8l-2.325-4.627a1.64,1.64,0,0,1,2.93-1.473l2.5,4.974a1.64,1.64,0,0,1,.174.736v9.654A1.64,1.64,0,0,1,312.352,354.7Z" transform="translate(-304.776 -336.795)" fill="#756e78"/>
          <path id="Trazado_123116" data-name="Trazado 123116" d="M313.216,354.454a1.64,1.64,0,0,1-2.5-1.394V343.8l-2.325-4.626a1.64,1.64,0,0,1,2.33-2.13,1.638,1.638,0,0,0-.6,2.13l2.325,4.626v9.264A1.64,1.64,0,0,0,313.216,354.454Z" transform="translate(-304.777 -336.793)" fill="#665e66"/>
          <path id="Trazado_123117" data-name="Trazado 123117" d="M278.849,466.744H289.88a2.06,2.06,0,0,1,0,4.12H278.849a2.06,2.06,0,1,1,0-4.12Z" transform="translate(-276.789 -452.536)" fill="#c6865c"/>
          <path id="Trazado_123118" data-name="Trazado 123118" d="M285.175,470.867H278.85a2.06,2.06,0,0,1,0-4.12h6.325a2.06,2.06,0,0,0,0,4.12Z" transform="translate(-276.79 -452.539)" fill="#be694f"/>
        </g>
        <path id="Trazado_123119" data-name="Trazado 123119" d="M273.537,17.5H260.8a5.773,5.773,0,0,0-5.773,5.773v8.1a5.774,5.774,0,0,0,4.694,5.671v2.237a1.374,1.374,0,0,0,2.193,1.1l4.364-3.238h7.258a5.773,5.773,0,0,0,5.773-5.773v-8.1A5.773,5.773,0,0,0,273.537,17.5Z" transform="translate(-230.95 -16.404)" fill="#b3e59f"/>
        <path id="Trazado_123120" data-name="Trazado 123120" d="M262.037,39.272a1.354,1.354,0,0,0,.266.817l-.388.288a1.374,1.374,0,0,1-2.193-1.1V37.035a5.773,5.773,0,0,1-4.694-5.671v-8.1a5.773,5.773,0,0,1,5.773-5.773h2.315a5.773,5.773,0,0,0-5.773,5.773v8.1a5.773,5.773,0,0,0,4.694,5.671v2.237Z" transform="translate(-230.949 -16.401)" fill="#95d6a4"/>
      </g>
      <g id="Grupo_95255" data-name="Grupo 95255" transform="translate(27.306)">
        <path id="Trazado_123121" data-name="Trazado 123121" d="M142.057,180.334v-2.469a.82.82,0,1,0-1.64,0v2.469a.82.82,0,1,0,1.64,0Z" transform="translate(-128.05 -157.688)"/>
        <path id="Trazado_123122" data-name="Trazado 123122" d="M199.573,177.045a.82.82,0,0,0-.82.82v2.469a.82.82,0,0,0,1.64,0v-2.469A.82.82,0,0,0,199.573,177.045Z" transform="translate(-180.008 -157.688)"/>
        <path id="Trazado_123123" data-name="Trazado 123123" d="M155.387,231.981a2.667,2.667,0,0,0-2.664,2.664v1.615a2.664,2.664,0,1,0,5.327,0v-1.615A2.667,2.667,0,0,0,155.387,231.981Zm1.024,4.279a1.024,1.024,0,1,1-2.047,0v-1.615a1.024,1.024,0,1,1,2.047,0Z" transform="translate(-139.011 -206.617)"/>
        <path id="Trazado_123124" data-name="Trazado 123124" d="M70.713,1.093H57.977a6.56,6.56,0,0,0-4.1,1.432A13.331,13.331,0,0,0,46.09,0H41.274A13.282,13.282,0,0,0,34.6,1.794a.82.82,0,1,0,.825,1.418A11.638,11.638,0,0,1,41.274,1.64H46.09a11.686,11.686,0,0,1,6.63,2.072,6.559,6.559,0,0,0-1.336,3.974v8.1c0,.083,0,.166.005.249A19.306,19.306,0,0,1,38.466,13.9,19.889,19.889,0,0,1,33.4,10.03a.82.82,0,0,0-1.442.535v9.223H31.63a4.305,4.305,0,0,0-2.011.494V13.3A11.576,11.576,0,0,1,33,5.084a.82.82,0,1,0-1.163-1.156A13.206,13.206,0,0,0,27.98,13.3v8.5a4.326,4.326,0,0,0,3.651,6.644h.4a11.634,11.634,0,0,0,3.4,7.037l.074.072a4.168,4.168,0,0,0-2.319,1.379,12.428,12.428,0,0,0-4.154,9.27v6.358a3.421,3.421,0,0,0,3.416,3.417l35.235,0a2.88,2.88,0,0,0,0-5.76H64.618V43.438a2.474,2.474,0,0,0-.261-1.105l-.6-1.2a.82.82,0,1,0-1.465.737l.6,1.2a.824.824,0,0,1,.087.369v6.773h-1.64V43.826a.82.82,0,0,0-.087-.368l-2.324-4.627a.819.819,0,0,1,1.464-.736l.429.853a.82.82,0,1,0,1.465-.736l-.429-.853a2.46,2.46,0,1,0-4.4,2.209L59.7,44.02v6.191H58.353V46.193A12.337,12.337,0,0,0,54.7,37.4a4.173,4.173,0,0,0-2.857-1.889,11.908,11.908,0,0,0,3.476-7.075h.41A4.324,4.324,0,0,0,59.921,25.2l3.8-2.823h6.987a6.6,6.6,0,0,0,6.593-6.593v-8.1a6.6,6.6,0,0,0-6.593-6.593ZM28.946,24.113a2.683,2.683,0,0,1,2.684-2.686h.325V26.8H31.63A2.687,2.687,0,0,1,28.946,24.113ZM50.009,36.992a2.884,2.884,0,0,1,.111.789,2.863,2.863,0,0,1-4.889,2.026l-.887-.888a.817.817,0,0,0-.064-.058A11.538,11.538,0,0,0,50.009,36.992Zm-6.244,3.667.307.307a4.5,4.5,0,0,0,.8.633,1.106,1.106,0,0,1-1.092,1.1h-.025A1.106,1.106,0,0,1,42.661,41.6a4.53,4.53,0,0,0,.8-.636Zm-2.674,1.55a2.74,2.74,0,0,0,.573,1.145,3.714,3.714,0,0,0-.833.8l-.647-1.872.088,0A4.564,4.564,0,0,0,41.092,42.209Zm1.01,5.619-.381-1.1v-.348a2.046,2.046,0,0,1,2.031-2.044h.026a2.042,2.042,0,0,1,2.031,2.044v.349l-.5,1.44a4.047,4.047,0,0,0-1.626-.34H42.1Zm2.4,1.783a2.431,2.431,0,0,1,0,4.578Zm2.2-5.46a3.654,3.654,0,0,0-.832-.8,2.739,2.739,0,0,0,.572-1.145,4.538,4.538,0,0,0,.907.073Zm-3.516-5.233-.885.887a2.868,2.868,0,0,1-4.051,0,2.886,2.886,0,0,1-.758-2.693,11.627,11.627,0,0,0,5.75,1.755c-.019.016-.038.033-.056.051Zm-7.369-1.765a4.506,4.506,0,0,0,2.477,4.674l2.075,6H36.9a4.034,4.034,0,0,1-.366-3.888l.286-.658a.82.82,0,0,0-.684-1.145,2.525,2.525,0,0,1-.319-4.985Zm-5.153,15.4V46.194a10.787,10.787,0,0,1,1.616-5.677,4.21,4.21,0,0,0,2.648,3.02,5.665,5.665,0,0,0,.1,4.292H33.756a.82.82,0,0,0,0,1.64h9.109v4.862H32.439a1.779,1.779,0,0,1-1.776-1.778Zm38.251.539a1.241,1.241,0,0,1-1.24,1.24H56.643a1.24,1.24,0,1,1,0-2.48H67.674A1.241,1.241,0,0,1,68.914,53.091Zm-12.2-2.88h-.07a2.879,2.879,0,0,0-2.6,4.12h-7.1a4.056,4.056,0,0,0,.7-1.511l3.393-2.992A5.681,5.681,0,0,0,52.6,43.537a4.212,4.212,0,0,0,2.6-2.845,10.714,10.714,0,0,1,1.5,5.5v4.018Zm-3-10.587A2.537,2.537,0,0,1,51.4,42.138a.82.82,0,0,0-.684,1.144L51,43.94a4.046,4.046,0,0,1-1.04,4.658l-2.383,2.1a4.072,4.072,0,0,0-.874-1.531l2.539-7.345a4.486,4.486,0,0,0,2.475-4.67,2.531,2.531,0,0,1,2,2.471ZM43.76,37.237A10.088,10.088,0,0,1,33.6,27.15V12.5a23.108,23.108,0,0,0,4.026,2.8A21.243,21.243,0,0,0,51.653,17.65a6.613,6.613,0,0,0,2.115,3.209v6.155A10.183,10.183,0,0,1,43.76,37.237ZM55.733,26.8h-.325v-4.94a6.53,6.53,0,0,0,.669.242v1.594a2.182,2.182,0,0,0,1.208,1.96,2.213,2.213,0,0,0,.508.182c-.051.061-.1.121-.161.177A2.668,2.668,0,0,1,55.733,26.8ZM75.666,15.783a4.959,4.959,0,0,1-4.953,4.953H63.454a.82.82,0,0,0-.489.161L58.6,24.136a.554.554,0,0,1-.884-.445V21.455a.82.82,0,0,0-.667-.806,4.953,4.953,0,0,1-4.027-4.865v-8.1a4.959,4.959,0,0,1,4.953-4.953H70.713a4.959,4.959,0,0,1,4.953,4.953Z" transform="translate(-27.306)"/>
        <path id="Trazado_123125" data-name="Trazado 123125" d="M307.783,70.253H293.339a.82.82,0,0,0,0,1.64h14.444a.82.82,0,1,0,0-1.64Z" transform="translate(-263.522 -62.572)"/>
        <path id="Trazado_123126" data-name="Trazado 123126" d="M307.783,101.517H293.339a.82.82,0,0,0,0,1.64h14.444a.82.82,0,1,0,0-1.64Z" transform="translate(-263.522 -90.418)"/>
        <path id="Trazado_123127" data-name="Trazado 123127" d="M307.783,132.782H293.339a.82.82,0,0,0,0,1.64h14.444a.82.82,0,1,0,0-1.64Z" transform="translate(-263.522 -118.264)"/>
      </g>
    </g>
  </g>
</svg>
