<svg xmlns="http://www.w3.org/2000/svg" width="87" height="87" viewBox="0 0 87 87">
  <g id="Grupo_96131" data-name="Grupo 96131" transform="translate(-303 -5381)">
    <circle id="Elipse_5734" data-name="Elipse 5734" cx="43.5" cy="43.5" r="43.5" transform="translate(303 5381)" fill="#764cf0"/>
    <g id="practica" transform="translate(316 5394)">
      <g id="Grupo_95250" data-name="Grupo 95250" transform="translate(1.952 1.952)">
        <g id="Grupo_95233" data-name="Grupo 95233" transform="translate(39.968 33.44)">
          <path id="Trazado_123052" data-name="Trazado 123052" d="M50.385,49.378l.238-1.656a2.927,2.927,0,0,0,.038-.5,3.541,3.541,0,0,0-3.55-3.55H44l1.627-6.519v-.01A12.34,12.34,0,0,1,56.371,49.378a5.714,5.714,0,0,1-5.71,5.71H49.576Z" transform="translate(-44 -37.14)" fill="#5cd6b3"/>
        </g>
        <g id="Grupo_95234" data-name="Grupo 95234" transform="translate(32.355 36.161)">
          <path id="Trazado_123053" data-name="Trazado 123053" d="M43.613,43.806H36L39.806,40Z" transform="translate(-36 -40)" fill="#5cd6b3"/>
        </g>
        <g id="Grupo_95235" data-name="Grupo 95235" transform="translate(19.984 33.44)">
          <path id="Trazado_123054" data-name="Trazado 123054" d="M28.986,49.378l.809,5.71H28.71A5.718,5.718,0,0,1,23,49.378a12.322,12.322,0,0,1,2.5-7.451l.029-.029a11.431,11.431,0,0,1,1.523-1.656v-.01a12.327,12.327,0,0,1,6.69-3.093v.01l1.627,6.519H32.259a3.55,3.55,0,0,0-3.55,3.55,2.927,2.927,0,0,0,.038.5Z" transform="translate(-23 -37.14)" fill="#5cd6b3"/>
        </g>
        <g id="Grupo_95236" data-name="Grupo 95236" transform="translate(36.161 33.306)">
          <path id="Trazado_123055" data-name="Trazado 123055" d="M45.434,37.143l-1.627,6.519L40,39.855,43.806,37l.952.067c.228.019.457.038.676.067Z" transform="translate(-40 -37)" fill="#48cfad"/>
        </g>
        <g id="Grupo_95237" data-name="Grupo 95237" transform="translate(30.728 33.306)">
          <path id="Trazado_123056" data-name="Trazado 123056" d="M34.966,37.067,35.917,37l3.806,2.855-3.806,3.806L34.29,37.143v-.01c.219-.029.447-.048.676-.067Z" transform="translate(-34.29 -37)" fill="#48cfad"/>
        </g>
        <g id="Grupo_95238" data-name="Grupo 95238" transform="translate(26.645 6.661)">
          <path id="Trazado_123057" data-name="Trazado 123057" d="M50.926,20.419c.01.114.01.228.01.343a11.788,11.788,0,0,1-6.5,10.525l-1.113.552V28.032l.961-.324a2.763,2.763,0,0,0-.875-5.386h-.086v-1.9a3.805,3.805,0,0,0-3.806-3.806H31.9a1.917,1.917,0,0,1-1.9-1.9A5.714,5.714,0,0,1,35.71,9h3.806Z" transform="translate(-30 -9)" fill="#b27946"/>
        </g>
        <g id="Grupo_95239" data-name="Grupo 95239" transform="translate(26.645 14.274)">
          <path id="Trazado_123058" data-name="Trazado 123058" d="M43.323,32.226v3.806l-3.806,2.855L35.71,36.032V32.226A3.805,3.805,0,0,1,31.9,28.419v-.952l-.761-.381A2.06,2.06,0,0,1,30,25.241a2.146,2.146,0,0,1,.343-1.151l.923-1.37a3.8,3.8,0,0,0,.638-2.113V17h7.613a3.805,3.805,0,0,1,3.806,3.806v1.9h.086a2.763,2.763,0,0,1,.875,5.386l-.961.324Z" transform="translate(-30 -17)" fill="#f0d0b4"/>
        </g>
        <g id="Grupo_95240" data-name="Grupo 95240" transform="translate(6.661 44.726)">
          <path id="Trazado_123059" data-name="Trazado 123059" d="M22.323,53.758,17.184,60.61a1.9,1.9,0,0,1-3.045,0L9,53.758h3.806V49h5.71v4.758Z" transform="translate(-9 -49)" fill="#ff826e"/>
        </g>
        <g id="Grupo_95241" data-name="Grupo 95241" transform="translate(6.661 0)">
          <path id="Trazado_123060" data-name="Trazado 123060" d="M17.184,2.761l5.139,6.852H18.516v4.758h-5.71V9.613H9l5.139-6.852a1.9,1.9,0,0,1,3.045,0Z" transform="translate(-9 -2)" fill="#ff826e"/>
        </g>
        <g id="Grupo_95242" data-name="Grupo 95242" transform="translate(0 15.226)">
          <path id="Trazado_123061" data-name="Trazado 123061" d="M26,37.441a1.914,1.914,0,0,1,.038,1.865v.01a11.431,11.431,0,0,0-1.523,1.656L24.487,41l-.7.7a1.929,1.929,0,0,1-2.341.3l-.019-.01a1.92,1.92,0,0,0-1.732-.124c0,.01-.01.01-.019.01a1.958,1.958,0,0,0-1.123,1.294V43.2a1.934,1.934,0,0,1-1.865,1.446H13.962A1.934,1.934,0,0,1,12.1,43.2V43.17a1.958,1.958,0,0,0-1.123-1.294c-.01,0-.019,0-.019-.01a1.92,1.92,0,0,0-1.732.124L9.2,42a1.929,1.929,0,0,1-2.341-.3L4.94,39.782a1.929,1.929,0,0,1-.3-2.341l.01-.019a1.92,1.92,0,0,0,.124-1.732c-.01,0-.01-.01-.01-.019a1.958,1.958,0,0,0-1.294-1.123H3.446A1.934,1.934,0,0,1,2,32.683V29.962A1.934,1.934,0,0,1,3.446,28.1h.029a1.958,1.958,0,0,0,1.294-1.123c0-.01,0-.019.01-.019a1.92,1.92,0,0,0-.124-1.732l-.01-.019a1.929,1.929,0,0,1,.3-2.341L6.863,20.94A1.929,1.929,0,0,1,9.2,20.645l.019.01a1.92,1.92,0,0,0,1.732.124c0-.01.01-.01.019-.01A1.958,1.958,0,0,0,12.1,19.475v-.029A1.934,1.934,0,0,1,13.962,18h2.722a1.934,1.934,0,0,1,1.865,1.446v.029a1.958,1.958,0,0,0,1.123,1.294c.01,0,.019,0,.019.01a1.92,1.92,0,0,0,1.732-.124l.019-.01a1.929,1.929,0,0,1,2.341.295L25.7,22.863A1.929,1.929,0,0,1,26,25.2l-.01.019a1.92,1.92,0,0,0-.124,1.732c.01,0,.01.01.01.019A1.958,1.958,0,0,0,27.17,28.1H27.2a1.934,1.934,0,0,1,1.446,1.865v2.722A1.934,1.934,0,0,1,27.2,34.549H27.17a1.958,1.958,0,0,0-1.294,1.123c0,.01,0,.019-.01.019a1.92,1.92,0,0,0,.124,1.732Zm-3.064-6.119a7.613,7.613,0,1,0-7.613,7.613A7.611,7.611,0,0,0,22.935,31.323Z" transform="translate(-2 -18)" fill="#ffc729"/>
        </g>
        <g id="Grupo_95243" data-name="Grupo 95243" transform="translate(5.71 20.935)">
          <path id="Trazado_123062" data-name="Trazado 123062" d="M15.613,24A7.613,7.613,0,1,1,8,31.613,7.611,7.611,0,0,1,15.613,24Zm3.806,7.613a3.806,3.806,0,1,0-3.806,3.806A3.805,3.805,0,0,0,19.419,31.613Z" transform="translate(-8 -24)" fill="#fcd770"/>
        </g>
        <g id="Grupo_95244" data-name="Grupo 95244" transform="translate(53.29 22.839)">
          <path id="Trazado_123063" data-name="Trazado 123063" d="M59.9,26c1.047,0,1.9,2.76,1.9,3.806a1.9,1.9,0,0,1-3.806,0C58,28.76,58.856,26,59.9,26Z" transform="translate(-58 -26)" fill="#fcd770"/>
        </g>
        <g id="Grupo_95245" data-name="Grupo 95245" transform="translate(40.919)">
          <path id="Trazado_123064" data-name="Trazado 123064" d="M58.6,11.792a2.3,2.3,0,0,1,0,3.255l-1.228,1.228-1.9-1.9L46.9,5.806,45,3.9l1.228-1.228a2.3,2.3,0,0,1,3.255,0l4.082,4.082Z" transform="translate(-45 -2)" fill="#aab2bd"/>
        </g>
        <g id="Grupo_95246" data-name="Grupo 95246" transform="translate(36.161 3.806)">
          <path id="Trazado_123065" data-name="Trazado 123065" d="M55.226,14.565l-2.855,6.661-.961-.952L40,8.855,46.661,6Z" transform="translate(-40 -6)" fill="#ccd1d9"/>
        </g>
        <g id="Grupo_95247" data-name="Grupo 95247" transform="translate(27.054 53.29)">
          <path id="Trazado_123066" data-name="Trazado 123066" d="M30.43,58H48.644l-.1.752a3.556,3.556,0,0,1-3.521,3.055H34.056a3.556,3.556,0,0,1-3.521-3.055Z" transform="translate(-30.43 -58)" fill="#aab2bd"/>
        </g>
        <g id="Grupo_95248" data-name="Grupo 95248" transform="translate(25.694 39.968)">
          <path id="Trazado_123067" data-name="Trazado 123067" d="M49.935,47.55a2.927,2.927,0,0,1-.038.5L49.66,49.71l-.809,5.71-.276,1.9H30.361l-.276-1.9-.809-5.71-.238-1.656a2.927,2.927,0,0,1-.038-.5A3.55,3.55,0,0,1,32.55,44H46.386a3.541,3.541,0,0,1,3.55,3.55Z" transform="translate(-29 -44)" fill="#ccd1d9"/>
        </g>
        <g id="Grupo_95249" data-name="Grupo 95249" transform="translate(34.258 43.774)">
          <circle id="Elipse_5735" data-name="Elipse 5735" cx="2" cy="2" r="2" transform="translate(-0.209 0.274)" fill="#69d6f4"/>
        </g>
      </g>
      <g id="Grupo_95251" data-name="Grupo 95251" transform="translate(1 1)">
        <path id="Trazado_123068" data-name="Trazado 123068" d="M39.855,47a2.855,2.855,0,0,0,0,5.71v-1.9a.952.952,0,1,1,.952-.952h1.9A2.858,2.858,0,0,0,39.855,47Z" transform="translate(-2.742 -3.226)"/>
        <path id="Trazado_123069" data-name="Trazado 123069" d="M58.1,24.159V5.875a2.97,2.97,0,0,0-5.07-2.1L51.435,5.366,48.023,1.953a3.328,3.328,0,0,0-4.594,0l-1.9,1.9,1.583,1.583-5.19,2.224H34.306a6.67,6.67,0,0,0-6.661,6.661,2.851,2.851,0,0,0,1.9,2.68v2.829a2.84,2.84,0,0,1-.48,1.583l-.915,1.374a3.018,3.018,0,0,0,1.161,4.376l.234.117v.364a4.767,4.767,0,0,0,3.806,4.662v2.067l-.068.006a13.151,13.151,0,0,0-6.331,2.191,2.945,2.945,0,0,0-.2-.462.984.984,0,0,1-.049-.892l.006-.015a.977.977,0,0,1,.669-.558,2.872,2.872,0,0,0,2.167-2.786V29.144a2.88,2.88,0,0,0-2.19-2.794.979.979,0,0,1-.639-.534l-.022-.054a.984.984,0,0,1,.068-.891,2.875,2.875,0,0,0-.439-3.5l-1.92-1.92a2.88,2.88,0,0,0-3.523-.427.992.992,0,0,1-.893.049l-.015-.006a.989.989,0,0,1-.558-.669,2.873,2.873,0,0,0-2.786-2.165H13.916a2.883,2.883,0,0,0-2.794,2.19.979.979,0,0,1-.534.639l-.053.022a.991.991,0,0,1-.892-.068,2.876,2.876,0,0,0-3.5.439l-1.92,1.92a2.881,2.881,0,0,0-.427,3.524.984.984,0,0,1,.049.892l0,.014a.986.986,0,0,1-.668.557A2.873,2.873,0,0,0,1,29.144V31.86a2.883,2.883,0,0,0,2.19,2.794.964.964,0,0,1,.639.533l.022.055a.984.984,0,0,1-.068.891,2.875,2.875,0,0,0,.439,3.5l1.92,1.92a2.882,2.882,0,0,0,3.524.427.978.978,0,0,1,.892-.049l.015.006a.977.977,0,0,1,.558.669,2.873,2.873,0,0,0,2.786,2.165h2.716a2.883,2.883,0,0,0,2.794-2.19.964.964,0,0,1,.533-.639l.055-.022a.984.984,0,0,1,.891.068,2.847,2.847,0,0,0,1.188.382,13.115,13.115,0,0,0-1.109,5.257,6.6,6.6,0,0,0,.652,2.854H19.081V46.679h-1.9v5.71h2.855l-4,5.33a.99.99,0,0,1-1.523,0l-4-5.33h2.855v-5.71h-1.9v3.806H6.71l6.282,8.374a2.853,2.853,0,0,0,4.566,0l5.112-6.815a6.641,6.641,0,0,0,4.975,2.247h.263l.264,1.842A4.527,4.527,0,0,0,32.631,60H43.594a4.529,4.529,0,0,0,4.461-3.867l.264-1.842h.263a6.668,6.668,0,0,0,6.66-6.66,13.339,13.339,0,0,0-12.3-13.25l-.068-.006V32.042l.584-.292a12.635,12.635,0,0,0,6.9-9.548l.451.451,2.855-6.662,1.583,1.582.952-.952v7.538c-1.3.91-1.9,3.53-1.9,4.439a2.855,2.855,0,1,0,5.71,0c0-.91-.6-3.529-1.9-4.439ZM54.372,5.12a1.067,1.067,0,0,1,1.821.755v4.249L52.781,6.711ZM31.452,27.647v-1.54l-1.288-.643a1.115,1.115,0,0,1-.428-1.616l.916-1.375a4.739,4.739,0,0,0,.8-2.64V17.179h6.661a2.858,2.858,0,0,1,2.855,2.855v1.9l.09.952h.952a1.814,1.814,0,0,1,.572,3.534l-1.614.538v7.823l-2.855,2.141-2.855-2.141V32.4h3.806V30.5H34.306A2.858,2.858,0,0,1,31.452,27.647ZM47.6,45.843,46.4,54.292H29.83l-1.208-8.447a2.838,2.838,0,0,1-.026-.371,2.605,2.605,0,0,1,2.6-2.6H45.026a2.606,2.606,0,0,1,2.6,2.6A2.761,2.761,0,0,1,47.6,45.843Zm-9.49-6.382,1.509,1.509H36.6ZM42.2,36.235l.153.011L41.4,40.061l-1.842-1.842ZM34.821,40.06l-.954-3.814.153-.011,2.643,1.982Zm-11.029-.58-.731.731a.979.979,0,0,1-1.2.138,2.882,2.882,0,0,0-2.537-.194l-.061.024a2.9,2.9,0,0,0-1.683,1.962.972.972,0,0,1-.943.733H13.916a.981.981,0,0,1-.95-.755,2.887,2.887,0,0,0-1.678-1.941l-.061-.024a2.89,2.89,0,0,0-2.555.206.973.973,0,0,1-1.187-.148l-1.92-1.92a.98.98,0,0,1-.138-1.2,2.881,2.881,0,0,0,.194-2.537L5.6,34.487A2.9,2.9,0,0,0,3.636,32.8.974.974,0,0,1,2.9,31.86V29.144a.979.979,0,0,1,.755-.95A2.884,2.884,0,0,0,5.6,26.517l.025-.062A2.892,2.892,0,0,0,5.417,23.9a.974.974,0,0,1,.148-1.187l1.92-1.92a.981.981,0,0,1,1.206-.138,2.824,2.824,0,0,0,2.491.207l.107-.038a2.9,2.9,0,0,0,1.682-1.961.974.974,0,0,1,.944-.733h2.716a.981.981,0,0,1,.95.755,2.9,2.9,0,0,0,4.293,1.76.976.976,0,0,1,1.187.148l1.92,1.92a.98.98,0,0,1,.138,1.2,2.881,2.881,0,0,0-.194,2.537l.025.062A2.9,2.9,0,0,0,26.912,28.2a.968.968,0,0,1,.733.942V31.86a.981.981,0,0,1-.755.95,2.887,2.887,0,0,0-1.941,1.678l-.024.061a2.892,2.892,0,0,0,.206,2.555.957.957,0,0,1,.035.894,13.6,13.6,0,0,0-1.367,1.49Zm-.9,8.152A11.431,11.431,0,0,1,31.97,36.5l1.118,4.474H31.2a4.511,4.511,0,0,0-4.506,4.5,4.643,4.643,0,0,0,.045.638l.081.567H24.79v1.9h2.3l.543,3.806a4.761,4.761,0,0,1-4.748-4.756ZM43.6,58.1H32.631a2.61,2.61,0,0,1-2.5-1.9H46.092A2.61,2.61,0,0,1,43.6,58.1Zm9.744-10.467a4.761,4.761,0,0,1-4.748,4.756l.543-3.806h2.3v-1.9H49.407l.082-.57a4.71,4.71,0,0,0,.044-.635,4.51,4.51,0,0,0-4.5-4.5h-1.89L44.256,36.5A11.431,11.431,0,0,1,53.339,47.632ZM42.871,29.89V28.333l.313-.1a3.708,3.708,0,0,0-.313-7.129V20.034a4.763,4.763,0,0,0-4.758-4.758H30.5a.952.952,0,0,1-.952-.952,4.763,4.763,0,0,1,4.758-4.758h3.412l10.86,10.86a10.734,10.734,0,0,1-5.707,9.464Zm7.292-10.571L39.78,8.935l4.777-2.047,7.654,7.654ZM55.8,14.324l-.558.558-.775-.775L44.992,4.632l-.776-.776.558-.558a1.38,1.38,0,0,1,1.9,0L55.8,12.421a1.346,1.346,0,0,1,0,1.9ZM57.145,29.55a.952.952,0,0,1-.952-.952,5.892,5.892,0,0,1,.952-2.774A5.892,5.892,0,0,1,58.1,28.6.952.952,0,0,1,57.145,29.55Z" transform="translate(-1 -1.002)"/>
        <path id="Trazado_123070" data-name="Trazado 123070" d="M15.758,27a4.758,4.758,0,1,0,4.758,4.758A4.763,4.763,0,0,0,15.758,27Zm0,7.613a2.855,2.855,0,1,1,2.855-2.855A2.858,2.858,0,0,1,15.758,34.613Z" transform="translate(-1.484 -2.258)"/>
        <path id="Trazado_123071" data-name="Trazado 123071" d="M15.565,23a8.565,8.565,0,1,0,8.565,8.565A8.574,8.574,0,0,0,15.565,23Zm0,15.226a6.661,6.661,0,1,1,6.661-6.661A6.67,6.67,0,0,1,15.565,38.226Z" transform="translate(-1.29 -2.065)"/>
        <path id="Trazado_123072" data-name="Trazado 123072" d="M11.758,14.323h1.9V8.613H10.806l4-5.33a.99.99,0,0,1,1.523,0l4,5.33H17.468v5.71h1.9V10.516h4.758L17.847,2.142a2.853,2.853,0,0,0-4.566,0L7,10.516h4.758Z" transform="translate(-1.29 -1)"/>
      </g>
    </g>
  </g>
</svg>
