<svg xmlns="http://www.w3.org/2000/svg" xmlns:xlink="http://www.w3.org/1999/xlink" width="330.952" height="279.08" viewBox="0 0 330.952 279.08">
  <defs>
    <clipPath id="clip-path">
      <path id="Trazado_125181" data-name="Trazado 125181" d="M701.231,1480.037l5.085,1.955s7.837,2.762,9.094,13.826l5.5,25.162-4.064.892L705.067,1492.6l-21.1-5.607S699.417,1480.611,701.231,1480.037Z" transform="translate(-683.964 -1480.037)" fill="none"/>
    </clipPath>
  </defs>
  <g id="Grupo_96133" data-name="Grupo 96133" transform="translate(-950 -4548.46)">
    <g id="Grupo_95744" data-name="Grupo 95744" transform="translate(816.073 4322.382)">
      <path id="Trazado_125091" data-name="Trazado 125091" d="M189.883,491.2c-4.078-10.755-6.956-22.457-4.625-33.721,5.123-24.753,33.968-42.271,31.561-67.433-.839-8.773-5.539-16.629-9.946-24.261-7.795-13.5-15.131-27.65-17.585-43.045s.671-32.409,11.523-43.6c5.595-5.771,12.857-9.662,20.324-12.636,6.809-2.712,13.973-4.751,21.3-5.011,33.935-1.2,59.809,31.4,94.731,20.047,10.216-3.321,19.76-8.518,30.049-11.6a77.611,77.611,0,0,1,32.6-2.562c7.487,1.014,15.485,3.6,19.535,9.981,4.4,6.922,2.763,15.847,2.495,24.043a66.57,66.57,0,0,0,18.706,48.116c13.049,13.342,32.281,21.89,38.975,39.31s-1.6,36.306-10.241,51.408c-3.417,5.973-7.033,12.144-7.615,19-1.42,16.733,15.386,30.937,14.038,47.677-1.062,13.185-13.556,23.042-26.467,25.916s-26.321.464-39.454-1.122c-26.184-3.163-52.641-3-79.015-2.837-23.231,0-46.466.291-69.7.437q-17.76.111-35.521.222c-8.257.062-13.534.9-18.825-6.09C199.509,513.9,194.1,502.319,189.883,491.2Z" transform="translate(-22.497 -29.002)" fill="#f9f6ff" opacity="0.53"/>
      <g id="Grupo_95743" data-name="Grupo 95743" transform="translate(156.98 226.078)">
        <g id="Grupo_95688" data-name="Grupo 95688" transform="translate(168.745 0.877)">
          <g id="Grupo_95687" data-name="Grupo 95687">
            <path id="Trazado_125092" data-name="Trazado 125092" d="M1114.488,321.677l-13.268,13.051,22.6,23.418,13.326-13.109a50.909,50.909,0,0,0,7.442,3.162v18.793h32.379V348.2a51.2,51.2,0,0,0,6.828-2.847l13.152,13.288,22.9-23.11L1206.75,322.3a52.242,52.242,0,0,0,2.677-6.345l18.5.242.421-32.69-18.381-.241a51.854,51.854,0,0,0-2.792-7.122l13.152-12.935-22.6-23.418-13.094,12.88a51.023,51.023,0,0,0-7.673-3.285V230.946h-32.379v18.442a50.992,50.992,0,0,0-7.061,2.965L1124.6,239.3l-22.9,23.11,12.978,13.113a52.031,52.031,0,0,0-2.683,6.459l-18.376-.241-.421,32.69,18.494.242A51.784,51.784,0,0,0,1114.488,321.677Zm5.9-22.708a40.712,40.712,0,0,1,11.829-28.835,40.113,40.113,0,0,1,57.116,0,41.06,41.06,0,0,1,0,57.67,40.114,40.114,0,0,1-57.116,0A40.712,40.712,0,0,1,1120.386,298.969Z" transform="translate(-1093.198 -230.946)" fill="#cee1f2"/>
            <path id="Trazado_125093" data-name="Trazado 125093" d="M1267.219,442.066a36.21,36.21,0,1,0,36.209-36.56A36.427,36.427,0,0,0,1267.219,442.066Zm11.141,0a25.069,25.069,0,1,1,25.067,25.311A25.19,25.19,0,0,1,1278.36,442.066Z" transform="translate(-1235.853 -374.043)" fill="#cee1f2"/>
          </g>
        </g>
        <g id="Grupo_95705" data-name="Grupo 95705" transform="translate(3.472)">
          <g id="Grupo_95694" data-name="Grupo 95694" transform="translate(21.804 24.065)">
            <path id="Trazado_125094" data-name="Trazado 125094" d="M297.216,389.428A29.59,29.59,0,1,1,344.229,413.1a16.846,16.846,0,0,0-6.985,13.729h0L316.989,427h0a16.672,16.672,0,0,0-7.106-13.537A29.553,29.553,0,0,1,297.216,389.428Z" transform="translate(-297.215 -359.594)" fill="#fec31d"/>
            <g id="Grupo_95691" data-name="Grupo 95691" transform="translate(18.89 29.134)">
              <g id="Grupo_95689" data-name="Grupo 95689">
                <path id="Trazado_125095" data-name="Trazado 125095" d="M413.84,561.357l11.167-39.8-1.147-.322L413.8,557.072,403.16,521.4l-1.142.341Z" transform="translate(-402.018 -521.232)" fill="#fff"/>
              </g>
              <g id="Grupo_95690" data-name="Grupo 95690" transform="translate(10.898 0.246)">
                <rect id="Rectángulo_35449" data-name="Rectángulo 35449" width="1.192" height="37.732" transform="translate(0 0.01) rotate(-0.472)" fill="#fff"/>
              </g>
            </g>
            <g id="Grupo_95692" data-name="Grupo 95692" transform="translate(17.078 26.911)">
              <path id="Trazado_125096" data-name="Trazado 125096" d="M513.163,511.4a2.482,2.482,0,1,0,2.462-2.5A2.482,2.482,0,0,0,513.163,511.4Z" transform="translate(-491.318 -508.898)" fill="#fff"/>
              <path id="Trazado_125097" data-name="Trazado 125097" d="M452.566,511.9a2.482,2.482,0,1,0,2.462-2.5A2.482,2.482,0,0,0,452.566,511.9Z" transform="translate(-441.643 -509.308)" fill="#fff"/>
              <path id="Trazado_125098" data-name="Trazado 125098" d="M391.968,512.4a2.482,2.482,0,1,0,2.462-2.5A2.483,2.483,0,0,0,391.968,512.4Z" transform="translate(-391.968 -509.718)" fill="#fff"/>
            </g>
            <g id="Grupo_95693" data-name="Grupo 95693" transform="translate(17.997 67.234)">
              <path id="Trazado_125099" data-name="Trazado 125099" d="M426.612,814.151c-1.016,3.982-5.282,6.994-10.419,7.037s-9.452-2.9-10.533-6.864Z" transform="translate(-404.111 -799.455)" fill="#2b74c1"/>
              <path id="Trazado_125100" data-name="Trazado 125100" d="M399.011,801.339l21.05-.174a1.39,1.39,0,0,0,1.379-1.4h0a1.39,1.39,0,0,0-1.4-1.378l-21.05.174a1.39,1.39,0,0,0-1.379,1.4h0A1.39,1.39,0,0,0,399.011,801.339Z" transform="translate(-397.512 -786.531)" fill="#cee1f2"/>
              <path id="Trazado_125101" data-name="Trazado 125101" d="M399.837,767.852l21.05-.174a1.39,1.39,0,0,0,1.379-1.4h0a1.39,1.39,0,0,0-1.4-1.379l-21.05.174a1.39,1.39,0,0,0-1.379,1.4h0A1.39,1.39,0,0,0,399.837,767.852Z" transform="translate(-398.189 -759.079)" fill="#cee1f2"/>
              <path id="Trazado_125102" data-name="Trazado 125102" d="M398.469,735.571l21.05-.174A1.39,1.39,0,0,0,420.9,734h0a1.39,1.39,0,0,0-1.4-1.379l-21.05.174a1.39,1.39,0,0,0-1.379,1.4h0A1.39,1.39,0,0,0,398.469,735.571Z" transform="translate(-397.068 -732.617)" fill="#cee1f2"/>
              <rect id="Rectángulo_35450" data-name="Rectángulo 35450" width="21.051" height="2.979" transform="translate(22.525 11.717) rotate(179.528)" fill="#77acdc"/>
              <rect id="Rectángulo_35451" data-name="Rectángulo 35451" width="21.051" height="2.979" transform="translate(22.476 5.759) rotate(179.528)" fill="#77acdc"/>
            </g>
          </g>
          <g id="Grupo_95704" data-name="Grupo 95704">
            <g id="Grupo_95695" data-name="Grupo 95695" transform="translate(88.084 55.848)">
              <rect id="Rectángulo_35452" data-name="Rectángulo 35452" width="2.305" height="17.28" transform="translate(0 2.303) rotate(-88.149)" fill="#fec31d"/>
            </g>
            <g id="Grupo_95696" data-name="Grupo 95696" transform="translate(86.047 34.146)">
              <rect id="Rectángulo_35453" data-name="Rectángulo 35453" width="17.28" height="2.305" transform="translate(0 6.65) rotate(-22.635)" fill="#fec31d"/>
            </g>
            <g id="Grupo_95697" data-name="Grupo 95697" transform="translate(77.887 15.311)">
              <rect id="Rectángulo_35454" data-name="Rectángulo 35454" width="17.28" height="2.305" transform="matrix(0.68, -0.733, 0.733, 0.68, 0, 12.663)" fill="#fec31d"/>
            </g>
            <g id="Grupo_95698" data-name="Grupo 95698" transform="translate(65.145 3.29)">
              <rect id="Rectángulo_35455" data-name="Rectángulo 35455" width="17.28" height="2.305" transform="matrix(0.316, -0.949, 0.949, 0.316, 0, 16.397)" fill="#fec31d"/>
            </g>
            <g id="Grupo_95699" data-name="Grupo 95699" transform="translate(48.28)">
              <rect id="Rectángulo_35456" data-name="Rectángulo 35456" width="2.305" height="17.28" transform="translate(0 0.245) rotate(-6.098)" fill="#fec31d"/>
            </g>
            <g id="Grupo_95700" data-name="Grupo 95700" transform="translate(26.709 5.551)">
              <rect id="Rectángulo_35457" data-name="Rectángulo 35457" width="2.305" height="17.28" transform="translate(0 1.173) rotate(-30.583)" fill="#fec31d"/>
            </g>
            <g id="Grupo_95701" data-name="Grupo 95701" transform="translate(9.762 19.671)">
              <rect id="Rectángulo_35458" data-name="Rectángulo 35458" width="2.305" height="17.28" transform="matrix(0.573, -0.82, 0.82, 0.573, 0, 1.889)" fill="#fec31d"/>
            </g>
            <g id="Grupo_95702" data-name="Grupo 95702" transform="translate(0.49 39.82)">
              <rect id="Rectángulo_35459" data-name="Rectángulo 35459" width="2.305" height="17.28" transform="matrix(0.181, -0.983, 0.983, 0.181, 0, 2.266)" fill="#fec31d"/>
            </g>
            <g id="Grupo_95703" data-name="Grupo 95703" transform="translate(0 58.181)">
              <rect id="Rectángulo_35460" data-name="Rectángulo 35460" width="17.28" height="2.305" transform="translate(0 4.193) rotate(-14.042)" fill="#fec31d"/>
            </g>
          </g>
        </g>
        <g id="Grupo_95708" data-name="Grupo 95708" transform="translate(233.042 83.503)">
          <g id="Grupo_95707" data-name="Grupo 95707" transform="translate(0 18.777)">
            <g id="Grupo_95706" data-name="Grupo 95706">
              <path id="Trazado_125103" data-name="Trazado 125103" d="M1450.1,855.5a.446.446,0,0,1-.074-.2c-.833-6.351,3.523-13.851,8.036-17.156a58.026,58.026,0,0,1,9.137-5.136c2.064-1,4.2-2.036,6.2-3.22,12.237-7.228,20.749-21.292,21.685-35.829a.444.444,0,0,1,.452-.424.426.426,0,0,1,.4.464c-.955,14.834-9.64,29.184-22.126,36.56-2.036,1.2-4.186,2.245-6.266,3.253a57.381,57.381,0,0,0-9,5.056c-4.3,3.152-8.461,10.278-7.672,16.293a.453.453,0,0,1-.364.509A.41.41,0,0,1,1450.1,855.5Z" transform="translate(-1449.924 -793.539)" fill="#77acdc"/>
            </g>
          </g>
          <path id="Trazado_125104" data-name="Trazado 125104" d="M1690.853,700.6c-.088-3.036,1.04-7.488,3.209-9.564a5.659,5.659,0,0,1,3.328-1.66,3.465,3.465,0,0,1,3.226,1.49,5.492,5.492,0,0,1,.285,4.151,16.854,16.854,0,0,1-4.624,8.148c-1.272,1.23-2.776,2.414-3.191,4.261C1691.851,705.089,1690.931,703.294,1690.853,700.6Z" transform="translate(-1647.424 -689.361)" fill="#77acdc"/>
          <path id="Trazado_125105" data-name="Trazado 125105" d="M1703.606,811.333c2.767-.879,5.849-1.14,8.4.177a6.755,6.755,0,0,1,3.574,7.36c-.732,2.8-3.534,4.622-6.287,4.984s-5.488-.432-8.133-1.224c-2.114-.633-7.653-1.9-7.653-1.9S1699.339,812.688,1703.606,811.333Z" transform="translate(-1649.607 -788.746)" fill="#77acdc"/>
          <path id="Trazado_125106" data-name="Trazado 125106" d="M1664.456,909.887a8.433,8.433,0,0,1,5.149,3.06,6.483,6.483,0,0,1,1.12,5.949c-.966,2.793-4.1,4.331-6.907,4.065s-4.258-1.531-7.317-3.971c-1.077-.859-5.549-3.877-5.549-3.877S1659.033,908.925,1664.456,909.887Z" transform="translate(-1614.719 -870.056)" fill="#77acdc"/>
          <path id="Trazado_125107" data-name="Trazado 125107" d="M1562.212,871.777a7.3,7.3,0,0,0-4.972-1.593,5.424,5.424,0,0,0-4.41,2.777,6.092,6.092,0,0,0,1.522,6.967c1.827,1.7,3.482,1.908,6.827,2.487,1.178.2,5.723,1.375,5.723,1.375S1566.024,874.792,1562.212,871.777Z" transform="translate(-1533.838 -837.579)" fill="#77acdc"/>
          <path id="Trazado_125108" data-name="Trazado 125108" d="M1592.748,994.946s10.349-2.912,14.9,4.167c2.33,3.363,1.587,7.764-.958,9.687a5.056,5.056,0,0,1-.976.577,4.923,4.923,0,0,1-6.592-3.193C1597.74,1002.029,1594.96,994.639,1592.748,994.946Z" transform="translate(-1567.005 -939.381)" fill="#77acdc"/>
          <path id="Trazado_125109" data-name="Trazado 125109" d="M1526.085,1025.808s8.045-2.264,11.583,3.239c1.811,2.614,1.234,6.036-.745,7.531a3.936,3.936,0,0,1-.759.449,3.828,3.828,0,0,1-5.125-2.482C1529.966,1031.314,1527.8,1025.569,1526.085,1025.808Z" transform="translate(-1512.358 -964.789)" fill="#77acdc"/>
          <path id="Trazado_125110" data-name="Trazado 125110" d="M1604.884,809.884s-.182-7.2-2.605-12.419a8.1,8.1,0,0,0-8.137-4.934,4.267,4.267,0,0,0-4.03,4.189,7.524,7.524,0,0,0,4.144,6.168A31.553,31.553,0,0,1,1604.884,809.884Z" transform="translate(-1564.844 -773.894)" fill="#77acdc"/>
          <path id="Trazado_125111" data-name="Trazado 125111" d="M1502.488,935.829s-2.07-13.6-10.079-13.391a4.123,4.123,0,0,0-3.959,3.884,3.687,3.687,0,0,0,2.334,3.7,5.917,5.917,0,0,0,2.863.507C1495.853,930.407,1501.157,930.673,1502.488,935.829Z" transform="translate(-1481.503 -880.426)" fill="#77acdc"/>
        </g>
        <g id="Grupo_95710" data-name="Grupo 95710" transform="translate(137.277 15.893)">
          <path id="Trazado_125112" data-name="Trazado 125112" d="M930.874,369.844a13.2,13.2,0,0,0-5.919-1.86,6.55,6.55,0,0,0-5.495,2.457,4.412,4.412,0,0,0,.406,5.7,6.248,6.248,0,0,0,4.671,1.084,100.057,100.057,0,0,0,11.354-1.7c2.253-.453.843-1.429-.391-2.483A27.457,27.457,0,0,0,930.874,369.844Z" transform="translate(-918.612 -358.297)" fill="#5590cd"/>
          <path id="Trazado_125113" data-name="Trazado 125113" d="M1004.647,428.559c-1.839,1.1-3.675,2.742-3.766,4.885a5.185,5.185,0,0,0,2.367,4.221,7.74,7.74,0,0,0,11.762-3.6c.649-1.746,2.651-6.042,2.867-7.867C1017.877,426.2,1007.363,426.93,1004.647,428.559Z" transform="translate(-986.051 -406.024)" fill="#5590cd"/>
          <path id="Trazado_125114" data-name="Trazado 125114" d="M1029.466,323.262c-1.339-1.751-2.552-3.78-4.635-4.5s-4.8.1-5.559,2.169a4.451,4.451,0,0,0,.383,3.544,10.967,10.967,0,0,0,2.334,2.811,42.973,42.973,0,0,0,4.68,3.8c1.056.741,5.273,3.11,5.273,3.11C1031.8,329.569,1030.393,324.475,1029.466,323.262Z" transform="translate(-1000.952 -317.738)" fill="#5590cd"/>
          <path id="Trazado_125115" data-name="Trazado 125115" d="M1120.007,334.138s10.227-13.743,1.381-19.748c0,0-10.572-2.119-6.642,10.255C1114.746,324.645,1117.805,331.792,1120.007,334.138Z" transform="translate(-1078.677 -314.252)" fill="#5590cd"/>
          <path id="Trazado_125116" data-name="Trazado 125116" d="M1097.759,458.771s-14.943-1.132-15.07,8.587c0,0,.455,4.494,5.8,3.781a7.016,7.016,0,0,0,4.792-3.022A37.21,37.21,0,0,0,1097.759,458.771Z" transform="translate(-1053.115 -432.69)" fill="#5590cd"/>
          <path id="Trazado_125117" data-name="Trazado 125117" d="M1194.273,372.811a34.915,34.915,0,0,0,2.9-5.192,6.456,6.456,0,0,0-.253-5.734,5.154,5.154,0,0,0-5.433-2,6.626,6.626,0,0,0-4.407,3.987,10.348,10.348,0,0,0,.665,8.268c.567,1.168,3.834,5.448,3.834,5.448C1191.533,378.159,1193.626,373.911,1194.273,372.811Z" transform="translate(-1138.212 -351.542)" fill="#5590cd"/>
          <path id="Trazado_125118" data-name="Trazado 125118" d="M1180.958,496.579a23.481,23.481,0,0,1-2.55,3.115,4.31,4.31,0,0,1-3.669,1.238,3.536,3.536,0,0,1-2.6-2.969,4.508,4.508,0,0,1,1.422-3.778,6.908,6.908,0,0,1,5.364-1.595c.875.076,4.372,1.111,4.372,1.111C1183.646,493.529,1181.491,495.9,1180.958,496.579Z" transform="translate(-1126.417 -460.418)" fill="#5590cd"/>
          <path id="Trazado_125119" data-name="Trazado 125119" d="M1242.813,434.859a23.518,23.518,0,0,0,3.374-2.2,4.31,4.31,0,0,0,1.628-3.513,3.536,3.536,0,0,0-2.67-2.9,4.508,4.508,0,0,0-3.91,1,6.909,6.909,0,0,0-2.167,5.16c-.019.878.63,4.466.63,4.466C1239.49,437.2,1242.078,435.315,1242.813,434.859Z" transform="translate(-1181.307 -405.966)" fill="#5590cd"/>
          <g id="Grupo_95709" data-name="Grupo 95709" transform="translate(19.5 16.171)">
            <path id="Trazado_125120" data-name="Trazado 125120" d="M1081.054,446.452a.372.372,0,0,0,.075-.009.432.432,0,0,0,.336-.51c-.076-.365-8.1-36.556-54.184-41.958a.432.432,0,1,0-.1.858c45.475,5.331,53.364,40.917,53.438,41.275A.433.433,0,0,0,1081.054,446.452Z" transform="translate(-1026.798 -403.971)" fill="#5590cd"/>
          </g>
        </g>
        <g id="Grupo_95714" data-name="Grupo 95714" transform="translate(0 102.51)">
          <g id="Grupo_95713" data-name="Grupo 95713">
            <g id="Grupo_95712" data-name="Grupo 95712" transform="translate(17.936 16.152)">
              <g id="Grupo_95711" data-name="Grupo 95711">
                <path id="Trazado_125121" data-name="Trazado 125121" d="M302.064,935.3a.387.387,0,0,0,.057-.178c.4-5.652-4.026-11.9-8.355-14.448a52.681,52.681,0,0,0-8.675-3.787c-1.951-.716-3.969-1.455-5.875-2.336a39.237,39.237,0,0,1-21.946-29.78.391.391,0,1,0-.776.1,40.036,40.036,0,0,0,22.393,30.388c1.936.895,3.968,1.64,5.934,2.361a52.091,52.091,0,0,1,8.547,3.728c4.128,2.429,8.35,8.364,7.972,13.717a.391.391,0,0,0,.723.233Z" transform="translate(-256.49 -884.431)" fill="#77acdc"/>
              </g>
            </g>
            <path id="Trazado_125122" data-name="Trazado 125122" d="M222.066,804.165c-.093-2.677-1.384-6.5-3.492-8.155a5.172,5.172,0,0,0-3.148-1.194,3.318,3.318,0,0,0-2.873,1.568,4.673,4.673,0,0,0-.023,3.673,14.307,14.307,0,0,0,4.708,6.8c1.238.98,2.685,1.9,3.171,3.493C221.409,808.195,222.149,806.543,222.066,804.165Z" transform="translate(-202.216 -794.816)" fill="#77acdc"/>
            <path id="Trazado_125123" data-name="Trazado 125123" d="M167.786,905.2a10.674,10.674,0,0,0-7.7.827c-2.268,1.362-3.719,4.257-2.855,6.758.832,2.408,3.506,3.783,6.052,3.881a19.068,19.068,0,0,0,7.389-1.726c1.9-.726,6.911-2.28,6.911-2.28S171.778,906.056,167.786,905.2Z" transform="translate(-156.98 -885.029)" fill="#77acdc"/>
            <path id="Trazado_125124" data-name="Trazado 125124" d="M218.508,988.023a8.048,8.048,0,0,0-4.547,3.1,5.586,5.586,0,0,0-.685,5.322c1.046,2.38,4.01,3.481,6.569,3.023s3.818-1.687,6.483-4.076c.938-.841,4.867-3.853,4.867-3.853S223.427,986.744,218.508,988.023Z" transform="translate(-202.804 -953.021)" fill="#77acdc"/>
            <path id="Trazado_125125" data-name="Trazado 125125" d="M334.6,943.873a7.042,7.042,0,0,1,4.469-1.8,4.889,4.889,0,0,1,4.2,2.091c1.222,1.919.581,4.61-1,6.249s-3.084,1.956-6.119,2.732c-1.068.273-5.17,1.666-5.17,1.666S331.281,946.828,334.6,943.873Z" transform="translate(-299.628 -915.531)" fill="#77acdc"/>
            <path id="Trazado_125126" data-name="Trazado 125126" d="M305.4,1054.216s-9.659-1.735-13.427,4.854c-1.944,3.144-1.01,6.955,1.435,8.443a4.579,4.579,0,0,0,.929.43,4.674,4.674,0,0,0,5.863-3.335C301.23,1060.844,303.356,1054.123,305.4,1054.216Z" transform="translate(-266.787 -1007.292)" fill="#77acdc"/>
            <path id="Trazado_125127" data-name="Trazado 125127" d="M382.936,1075.716s-7.509-1.349-10.438,3.774c-1.511,2.444-.786,5.407,1.115,6.564a3.561,3.561,0,0,0,.722.334,3.633,3.633,0,0,0,4.558-2.592C379.692,1080.869,381.345,1075.644,382.936,1075.716Z" transform="translate(-332.986 -1024.955)" fill="#77acdc"/>
            <path id="Trazado_125128" data-name="Trazado 125128" d="M292.191,892.642s-.247-6.345,1.677-11.13a7.688,7.688,0,0,1,7.18-4.989,3.745,3.745,0,0,1,3.936,3.363,6.821,6.821,0,0,1-3.447,5.756A30.017,30.017,0,0,0,292.191,892.642Z" transform="translate(-267.812 -861.793)" fill="#77acdc"/>
            <path id="Trazado_125129" data-name="Trazado 125129" d="M395.386,995s1.119-12.122,8.476-12.582a3.624,3.624,0,0,1,3.854,3.1,3.32,3.32,0,0,1-1.929,3.441,5.723,5.723,0,0,1-2.6.674C401.16,989.7,396.311,990.356,395.386,995Z" transform="translate(-352.415 -948.595)" fill="#77acdc"/>
          </g>
        </g>
        <g id="Grupo_95742" data-name="Grupo 95742" transform="translate(54.898 59.813)">
          <rect id="Rectángulo_35461" data-name="Rectángulo 35461" width="133.195" height="187.134" rx="34" transform="translate(187.134) rotate(90)" fill="#445da5"/>
          <rect id="Rectángulo_35462" data-name="Rectángulo 35462" width="175.63" height="121.579" rx="36" transform="translate(5.752 5.808)" fill="#c2e1f2"/>
          <rect id="Rectángulo_35463" data-name="Rectángulo 35463" width="151.088" height="5.421" rx="2.71" transform="translate(19.217 109.125)" fill="#fff"/>
          <rect id="Rectángulo_35464" data-name="Rectángulo 35464" width="151.088" height="5.421" rx="2.71" transform="translate(17.256 15.875)" fill="#fff"/>
          <g id="Grupo_95723" data-name="Grupo 95723" transform="translate(21.858 36.009)">
            <rect id="Rectángulo_35465" data-name="Rectángulo 35465" width="40.342" height="57.305" rx="14.893" fill="#445da5"/>
            <g id="Grupo_95717" data-name="Grupo 95717" transform="translate(3.884 4.453)">
              <g id="Grupo_95716" data-name="Grupo 95716">
                <g id="Grupo_95715" data-name="Grupo 95715" transform="translate(2.213)">
                  <ellipse id="Elipse_5867" data-name="Elipse 5867" cx="3.895" cy="4.037" rx="3.895" ry="4.037" fill="#cee1f2"/>
                </g>
                <path id="Trazado_125130" data-name="Trazado 125130" d="M612.552,831.023a3.776,3.776,0,0,1-4.029-.05c-2.408,1.242-4.142,4.7-4.142,8.774,0,.031,0,.061,0,.092H616.6c0-.031,0-.061,0-.092C616.6,835.728,614.91,832.307,612.552,831.023Z" transform="translate(-604.381 -822.221)" fill="#cee1f2"/>
              </g>
            </g>
            <g id="Grupo_95719" data-name="Grupo 95719" transform="translate(19.237 4.453)">
              <g id="Grupo_95718" data-name="Grupo 95718">
                <path id="Trazado_125131" data-name="Trazado 125131" d="M707.492,782.418h-17.37a.548.548,0,0,0-.56.535v2.139a.548.548,0,0,0,.56.535h17.37a.548.548,0,0,0,.56-.535v-2.139A.548.548,0,0,0,707.492,782.418Z" transform="translate(-689.562 -782.418)" fill="#cee1f2"/>
                <path id="Trazado_125132" data-name="Trazado 125132" d="M707.492,809.125h-17.37a.548.548,0,0,0-.56.535V811.8a.548.548,0,0,0,.56.535h17.37a.548.548,0,0,0,.56-.535V809.66A.548.548,0,0,0,707.492,809.125Z" transform="translate(-689.562 -804.311)" fill="#cee1f2"/>
                <path id="Trazado_125133" data-name="Trazado 125133" d="M707.492,835.832h-17.37a.548.548,0,0,0-.56.535v2.139a.548.548,0,0,0,.56.535h17.37a.548.548,0,0,0,.56-.535v-2.139A.548.548,0,0,0,707.492,835.832Z" transform="translate(-689.562 -826.205)" fill="#cee1f2"/>
                <path id="Trazado_125134" data-name="Trazado 125134" d="M707.492,862.539h-17.37a.548.548,0,0,0-.56.535v2.14a.548.548,0,0,0,.56.535h17.37a.548.548,0,0,0,.56-.535v-2.14A.548.548,0,0,0,707.492,862.539Z" transform="translate(-689.562 -848.098)" fill="#cee1f2"/>
              </g>
            </g>
            <g id="Grupo_95722" data-name="Grupo 95722" transform="translate(3.175 25.555)">
              <g id="Grupo_95721" data-name="Grupo 95721">
                <g id="Grupo_95720" data-name="Grupo 95720">
                  <rect id="Rectángulo_35466" data-name="Rectángulo 35466" width="34.552" height="2.956" rx="1.478" fill="#cee1f2"/>
                  <rect id="Rectángulo_35467" data-name="Rectángulo 35467" width="34.552" height="2.956" rx="1.478" transform="translate(0 4.73)" fill="#cee1f2"/>
                  <rect id="Rectángulo_35468" data-name="Rectángulo 35468" width="34.552" height="2.956" rx="1.478" transform="translate(0 9.46)" fill="#cee1f2"/>
                  <rect id="Rectángulo_35469" data-name="Rectángulo 35469" width="34.552" height="2.956" rx="1.478" transform="translate(0 14.19)" fill="#cee1f2"/>
                </g>
                <rect id="Rectángulo_35470" data-name="Rectángulo 35470" width="34.552" height="2.956" rx="1.478" transform="translate(0 18.92)" fill="#cee1f2"/>
              </g>
            </g>
          </g>
          <g id="Grupo_95732" data-name="Grupo 95732" transform="translate(73.78 36.009)">
            <rect id="Rectángulo_35471" data-name="Rectángulo 35471" width="40.342" height="57.305" rx="14.893" fill="#445da5"/>
            <g id="Grupo_95726" data-name="Grupo 95726" transform="translate(3.884 4.453)">
              <g id="Grupo_95725" data-name="Grupo 95725">
                <g id="Grupo_95724" data-name="Grupo 95724" transform="translate(2.213)">
                  <ellipse id="Elipse_5868" data-name="Elipse 5868" cx="3.895" cy="4.037" rx="3.895" ry="4.037" fill="#cee1f2"/>
                </g>
                <path id="Trazado_125135" data-name="Trazado 125135" d="M900.621,831.023a3.776,3.776,0,0,1-4.029-.05c-2.408,1.242-4.142,4.7-4.142,8.774,0,.031,0,.061,0,.092h12.213c0-.031,0-.061,0-.092C904.666,835.728,902.979,832.307,900.621,831.023Z" transform="translate(-892.45 -822.221)" fill="#cee1f2"/>
              </g>
            </g>
            <g id="Grupo_95728" data-name="Grupo 95728" transform="translate(19.237 4.453)">
              <g id="Grupo_95727" data-name="Grupo 95727">
                <path id="Trazado_125136" data-name="Trazado 125136" d="M995.56,782.418H978.19a.548.548,0,0,0-.56.535v2.139a.548.548,0,0,0,.56.535H995.56a.548.548,0,0,0,.56-.535v-2.139A.548.548,0,0,0,995.56,782.418Z" transform="translate(-977.63 -782.418)" fill="#cee1f2"/>
                <path id="Trazado_125137" data-name="Trazado 125137" d="M995.56,809.125H978.19a.548.548,0,0,0-.56.535V811.8a.548.548,0,0,0,.56.535H995.56a.548.548,0,0,0,.56-.535V809.66A.548.548,0,0,0,995.56,809.125Z" transform="translate(-977.63 -804.311)" fill="#cee1f2"/>
                <path id="Trazado_125138" data-name="Trazado 125138" d="M995.56,835.832H978.19a.548.548,0,0,0-.56.535v2.139a.548.548,0,0,0,.56.535H995.56a.548.548,0,0,0,.56-.535v-2.139A.548.548,0,0,0,995.56,835.832Z" transform="translate(-977.63 -826.205)" fill="#cee1f2"/>
                <path id="Trazado_125139" data-name="Trazado 125139" d="M995.56,862.539H978.19a.548.548,0,0,0-.56.535v2.14a.548.548,0,0,0,.56.535H995.56a.548.548,0,0,0,.56-.535v-2.14A.548.548,0,0,0,995.56,862.539Z" transform="translate(-977.63 -848.098)" fill="#cee1f2"/>
              </g>
            </g>
            <g id="Grupo_95731" data-name="Grupo 95731" transform="translate(3.175 25.555)">
              <g id="Grupo_95730" data-name="Grupo 95730">
                <g id="Grupo_95729" data-name="Grupo 95729">
                  <rect id="Rectángulo_35472" data-name="Rectángulo 35472" width="34.552" height="2.956" rx="1.478" fill="#cee1f2"/>
                  <rect id="Rectángulo_35473" data-name="Rectángulo 35473" width="34.552" height="2.956" rx="1.478" transform="translate(0 4.73)" fill="#cee1f2"/>
                  <rect id="Rectángulo_35474" data-name="Rectángulo 35474" width="34.552" height="2.956" rx="1.478" transform="translate(0 9.46)" fill="#cee1f2"/>
                  <rect id="Rectángulo_35475" data-name="Rectángulo 35475" width="34.552" height="2.956" rx="1.478" transform="translate(0 14.19)" fill="#cee1f2"/>
                </g>
                <rect id="Rectángulo_35476" data-name="Rectángulo 35476" width="34.552" height="2.956" rx="1.478" transform="translate(0 18.92)" fill="#cee1f2"/>
              </g>
            </g>
          </g>
          <g id="Grupo_95741" data-name="Grupo 95741" transform="translate(125.701 36.009)">
            <rect id="Rectángulo_35477" data-name="Rectángulo 35477" width="40.342" height="57.305" rx="14.893" fill="#445da5"/>
            <g id="Grupo_95735" data-name="Grupo 95735" transform="translate(3.884 4.453)">
              <g id="Grupo_95734" data-name="Grupo 95734">
                <g id="Grupo_95733" data-name="Grupo 95733" transform="translate(2.213)">
                  <ellipse id="Elipse_5869" data-name="Elipse 5869" cx="3.895" cy="4.037" rx="3.895" ry="4.037" fill="#cee1f2"/>
                </g>
                <path id="Trazado_125140" data-name="Trazado 125140" d="M1188.689,831.023a3.776,3.776,0,0,1-4.029-.05c-2.408,1.242-4.142,4.7-4.142,8.774,0,.031,0,.061,0,.092h12.213c0-.031,0-.061,0-.092C1192.734,835.728,1191.047,832.307,1188.689,831.023Z" transform="translate(-1180.518 -822.221)" fill="#cee1f2"/>
              </g>
            </g>
            <g id="Grupo_95737" data-name="Grupo 95737" transform="translate(19.237 4.453)">
              <g id="Grupo_95736" data-name="Grupo 95736">
                <path id="Trazado_125141" data-name="Trazado 125141" d="M1283.628,782.418h-17.37a.548.548,0,0,0-.56.535v2.139a.548.548,0,0,0,.56.535h17.37a.548.548,0,0,0,.56-.535v-2.139A.548.548,0,0,0,1283.628,782.418Z" transform="translate(-1265.698 -782.418)" fill="#cee1f2"/>
                <path id="Trazado_125142" data-name="Trazado 125142" d="M1283.628,809.125h-17.37a.548.548,0,0,0-.56.535V811.8a.548.548,0,0,0,.56.535h17.37a.548.548,0,0,0,.56-.535V809.66A.548.548,0,0,0,1283.628,809.125Z" transform="translate(-1265.698 -804.311)" fill="#cee1f2"/>
                <path id="Trazado_125143" data-name="Trazado 125143" d="M1283.628,835.832h-17.37a.548.548,0,0,0-.56.535v2.139a.548.548,0,0,0,.56.535h17.37a.548.548,0,0,0,.56-.535v-2.139A.548.548,0,0,0,1283.628,835.832Z" transform="translate(-1265.698 -826.205)" fill="#cee1f2"/>
                <path id="Trazado_125144" data-name="Trazado 125144" d="M1283.628,862.539h-17.37a.548.548,0,0,0-.56.535v2.14a.548.548,0,0,0,.56.535h17.37a.548.548,0,0,0,.56-.535v-2.14A.548.548,0,0,0,1283.628,862.539Z" transform="translate(-1265.698 -848.098)" fill="#cee1f2"/>
              </g>
            </g>
            <g id="Grupo_95740" data-name="Grupo 95740" transform="translate(3.175 25.555)">
              <g id="Grupo_95739" data-name="Grupo 95739">
                <g id="Grupo_95738" data-name="Grupo 95738">
                  <rect id="Rectángulo_35478" data-name="Rectángulo 35478" width="34.552" height="3.035" rx="1.517" fill="#cee1f2"/>
                  <rect id="Rectángulo_35479" data-name="Rectángulo 35479" width="34.552" height="3.035" rx="1.517" transform="translate(0 4.856)" fill="#cee1f2"/>
                  <rect id="Rectángulo_35480" data-name="Rectángulo 35480" width="34.552" height="3.035" rx="1.517" transform="translate(0 9.711)" fill="#cee1f2"/>
                  <rect id="Rectángulo_35481" data-name="Rectángulo 35481" width="34.552" height="3.035" rx="1.517" transform="translate(0 14.567)" fill="#cee1f2"/>
                </g>
                <rect id="Rectángulo_35482" data-name="Rectángulo 35482" width="34.552" height="3.035" rx="1.517" transform="translate(0 19.423)" fill="#cee1f2"/>
              </g>
            </g>
          </g>
          <path id="Trazado_125145" data-name="Trazado 125145" d="M917.571,1324.193H861.393l-16.873-29.427H900.7Z" transform="translate(-775.495 -1161.958)" fill="#445da5"/>
          <path id="Trazado_125146" data-name="Trazado 125146" d="M889.145,1324.193H833.158l-16.064-29.04,55.178-.387Z" transform="translate(-753.013 -1161.958)" fill="#77acdc"/>
          <path id="Trazado_125147" data-name="Trazado 125147" d="M787.565,1455.881H655.651a11.208,11.208,0,0,0-11.121,11.229H798.686A11.208,11.208,0,0,0,787.565,1455.881Z" transform="translate(-611.552 -1294.033)" fill="#92bde3"/>
          <path id="Trazado_125148" data-name="Trazado 125148" d="M1128.316,1467.11h-81.679c0-6.176,2.652-11.229,5.892-11.229H1117.2A11.208,11.208,0,0,1,1128.316,1467.11Z" transform="translate(-941.182 -1294.033)" fill="#445da5"/>
          <path id="Trazado_125149" data-name="Trazado 125149" d="M886.048,1294.765" transform="translate(-809.538 -1161.957)" fill="#445da5"/>
          <path id="Trazado_125150" data-name="Trazado 125150" d="M949.131,1324.192l-16.873-29.427-41.989.295c22.525,1.857,39.872,9,33.664,29.132Z" transform="translate(-812.998 -1161.957)" fill="#445da5"/>
        </g>
      </g>
    </g>
    <g id="Grupo_95771" data-name="Grupo 95771" transform="translate(791.524 3577.521)">
      <path id="Trazado_125244" data-name="Trazado 125244" d="M165.476,0c91.39,0,165.476,6.561,165.476,14.654S256.866,29.308,165.476,29.308,0,22.747,0,14.654,74.086,0,165.476,0Z" transform="translate(158.476 1218.17)" fill="#e8e1fc"/>
      <g id="Grupo_95770" data-name="Grupo 95770" transform="translate(165.217 1106.085)">
        <g id="Grupo_95769" data-name="Grupo 95769" transform="translate(0 0)">
          <g id="Grupo_95745" data-name="Grupo 95745" transform="translate(165.382 35.074)">
            <path id="Trazado_125151" data-name="Trazado 125151" d="M1044.071,1519.517l-10.266,40.712h2.139l10.479-40.892Z" transform="translate(-1033.805 -1473.149)" fill="#77acdc"/>
            <path id="Trazado_125152" data-name="Trazado 125152" d="M1224.324,1519.375l-8.008,41.073,2.136-.084,8.211-41.262Z" transform="translate(-1180.428 -1472.961)" fill="#77acdc"/>
            <path id="Trazado_125153" data-name="Trazado 125153" d="M1105.3,1518.107l-7.6,41.274,2.134-.139,7.8-41.469Z" transform="translate(-1085.141 -1471.894)" fill="#66a0bf"/>
            <path id="Trazado_125154" data-name="Trazado 125154" d="M1288.482,1514.4l5.455,41.527-2.124-.25-5.646-41.732Z" transform="translate(-1236.543 -1468.816)" fill="#66a0bf"/>
            <path id="Trazado_125155" data-name="Trazado 125155" d="M1093.96,1512.6h-49.4a.965.965,0,0,1-.962-.962h0a.965.965,0,0,1,.962-.962h49.4a.965.965,0,0,1,.962.962h0A.965.965,0,0,1,1093.96,1512.6Z" transform="translate(-1041.669 -1466.193)" fill="#66a0bf"/>
            <path id="Trazado_125156" data-name="Trazado 125156" d="M1140.392,1328.937l15.974-42.058a3.763,3.763,0,0,1,3.518-2.427h26.261a1.354,1.354,0,0,1,1.27,1.821l-15.691,42.663Z" transform="translate(-1119.433 -1284.453)" fill="#77acdc"/>
          </g>
          <g id="Grupo_95746" data-name="Grupo 95746" transform="translate(71.615 35.074)">
            <path id="Trazado_125157" data-name="Trazado 125157" d="M841.286,1519.517l10.266,40.712h-2.139l-10.479-40.892Z" transform="translate(-783.486 -1473.149)" fill="#77acdc"/>
            <path id="Trazado_125158" data-name="Trazado 125158" d="M670.309,1519.375l8.008,41.073-2.136-.084-8.211-41.262Z" transform="translate(-646.139 -1472.961)" fill="#77acdc"/>
            <path id="Trazado_125159" data-name="Trazado 125159" d="M791.019,1518.107l7.6,41.274-2.134-.139-7.8-41.469Z" transform="translate(-743.116 -1471.894)" fill="#66a0bf"/>
            <path id="Trazado_125160" data-name="Trazado 125160" d="M616.683,1514.4l-5.455,41.527,2.124-.25L619,1513.942Z" transform="translate(-600.556 -1468.816)" fill="#66a0bf"/>
            <path id="Trazado_125161" data-name="Trazado 125161" d="M633.249,1512.6h49.4a.965.965,0,0,0,.962-.962h0a.965.965,0,0,0-.962-.962h-49.4a.965.965,0,0,0-.963.962h0A.965.965,0,0,0,633.249,1512.6Z" transform="translate(-617.473 -1466.193)" fill="#66a0bf"/>
            <path id="Trazado_125162" data-name="Trazado 125162" d="M604.062,1328.937l-15.974-42.058a3.763,3.763,0,0,0-3.518-2.427H558.31a1.354,1.354,0,0,0-1.27,1.821l15.691,42.663Z" transform="translate(-556.955 -1284.453)" fill="#77acdc"/>
          </g>
          <g id="Grupo_95747" data-name="Grupo 95747" transform="translate(156.342 11.829)">
            <path id="Trazado_125163" data-name="Trazado 125163" d="M1199.292,1166.642s-5.833-1.4-7.55,5.573a33.36,33.36,0,0,0,0,8.167,4.489,4.489,0,0,1-3.03,4.1s5.554,6.15,9.9,2.144c0,0-7.052-8.957-2.668-14.863C1195.941,1171.759,1193.612,1169.047,1199.292,1166.642Z" transform="translate(-1149.211 -1166.471)" fill="#014c8f"/>
            <path id="Trazado_125164" data-name="Trazado 125164" d="M1207.345,1268.717l6.137,3.367s.1,29.783,1.717,33.823c0,0-9.9,4.343-18.481,0,0,0,1.616-14.231-1.313-20.492,0,0-2.877-4.165.089-13.992a2.157,2.157,0,0,1,1.749-1.5l5.223-.783Z" transform="translate(-1153.581 -1248.566)" fill="#2b74c1"/>
            <path id="Trazado_125165" data-name="Trazado 125165" d="M1214.448,1198.444a6.092,6.092,0,0,0,1.377,4.783c.728.726,1.8,1.072,2.411,1.9.578.79-.3,2.462.161,3.326a2.089,2.089,0,0,0,2.158,1.187c1.01-.034,2.888-1.1,3.074-2.089s-.358-1.967-.342-2.969c.022-1.32.98-2.408,1.562-3.594a6.826,6.826,0,0,0-1.287-7.652,7.059,7.059,0,0,0-6.969-1.58C1214.267,1192.546,1214.611,1196.431,1214.448,1198.444Z" transform="translate(-1169.863 -1186.471)" fill="#fab08b"/>
            <path id="Trazado_125166" data-name="Trazado 125166" d="M1222.095,1169.863s.1,3.838,6.261,4.241c0,0,2.727,3.232,2.02,4.443,0,0-2.787,6.092-.581,7.843,0,0,2.6,2.761,6.641.539,0,0-2.02-3.535-1.01-5.756,0,0,4.746-13.229-6.16-14.845C1229.265,1166.328,1223.306,1165.355,1222.095,1169.863Z" transform="translate(-1176.03 -1166.24)" fill="#014c8f"/>
            <path id="Trazado_125167" data-name="Trazado 125167" d="M1246.068,1306.441l-.808-13.331s-1.212-5.353,2.222-7.271c0,0,3.737,0,4.646,8.079l.4,13.23s1.212,7.17-3.333,7.675l-12.725-7.776,1.2-4.242Z" transform="translate(-1187.581 -1262.321)" fill="#5590cd"/>
            <path id="Trazado_125168" data-name="Trazado 125168" d="M1138.638,1292.434l12.721-14.1s-2.842,8.9-1.267,13.1l-7.667,6.815Z" transform="translate(-1108.983 -1256.292)" fill="#2b74c1"/>
            <path id="Trazado_125169" data-name="Trazado 125169" d="M1136.327,1315.37l4.242,24.389h14.694l-3.755-23.631Z" transform="translate(-1107.127 -1286.045)" fill="#fff"/>
            <path id="Trazado_125170" data-name="Trazado 125170" d="M1192.35,1348.4l-5.22-1.648a3.52,3.52,0,0,0-.739-.16c-2.081-.19-2.257,1.658-1.526,2.677a5.228,5.228,0,0,0,2.016,1.457c2.484,1.246,5.271,2.492,7.756,3.738.55-1.738,1.264-4.168,1.264-4.168a15.858,15.858,0,0,0-2.61-3.4c-.231-.229-1.66-2.2-2.083-1.912C1190.722,1345.309,1191.612,1347.032,1192.35,1348.4Z" transform="translate(-1145.806 -1309.811)" fill="#fab08b"/>
            <path id="Trazado_125171" data-name="Trazado 125171" d="M1131.2,1338.515l2.51-.248a1.417,1.417,0,0,0,1.277-1.41v-2.388a1.835,1.835,0,0,0-.845-1.545l-2.942-1.883v-3.883a.767.767,0,0,0-.5-.737c-.536-.177-1.293.351-1.166,4.924C1129.534,1331.344,1128.631,1338.769,1131.2,1338.515Z" transform="translate(-1101.546 -1294.9)" fill="#fab08b"/>
            <path id="Trazado_125172" data-name="Trazado 125172" d="M1189.292,1666.851l1.439,3.036,3.633-1.545-.61-3.171S1192.738,1666.851,1189.292,1666.851Z" transform="translate(-1149.677 -1567.062)" fill="#fab08b"/>
            <path id="Trazado_125173" data-name="Trazado 125173" d="M1165.523,1682.84l-2.386,5.726-4.62,4.241s-1.508,1.74.246,1.972a2.588,2.588,0,0,0,1.52-.29l11.564-5.986-2.691-7.209Z" transform="translate(-1124.469 -1580.015)" fill="#326091"/>
            <path id="Trazado_125174" data-name="Trazado 125174" d="M1087.963,1454.293l-15.851,4.545a11.472,11.472,0,0,0-9.093,8.281l-4.242,30.321s2.828,1.438,4.848,0l9.036-28.5,33.784-14.643S1099.375,1458.838,1087.963,1454.293Z" transform="translate(-1044.826 -1397.651)" fill="#014c8f"/>
            <path id="Trazado_125175" data-name="Trazado 125175" d="M1147.439,1455.923l-14.694,4.53s-8.337,2.121-5.608,8.483l11.389,28.479s3.676.4,5.158-2.07l-6.671-23.834,18.605-5.756s7.726-2.626,5.3-11.462C1160.921,1454.293,1153.5,1457.6,1147.439,1455.923Z" transform="translate(-1099.304 -1397.651)" fill="#3b5cc4"/>
            <path id="Trazado_125176" data-name="Trazado 125176" d="M1059.15,1673.879l-.373,3.524a3.405,3.405,0,0,0,3.358.606l1.49-4.293S1062.149,1675.354,1059.15,1673.879Z" transform="translate(-1044.826 -1573.927)" fill="#fab08b"/>
            <path id="Trazado_125177" data-name="Trazado 125177" d="M1001.781,1692.465l-3.307,3.333-9.013.909s-2.954.53-.909,2.045l15.653,1.439.934-7.12a3.566,3.566,0,0,1-1.987.083A3.524,3.524,0,0,1,1001.781,1692.465Z" transform="translate(-987.83 -1588.989)" fill="#326091"/>
          </g>
          <g id="Grupo_95751" data-name="Grupo 95751" transform="translate(82.467 7.855)">
            <path id="Trazado_125178" data-name="Trazado 125178" d="M661.026,1412.7l14.4-2.783s7.554-1,8.536,5.5a4.824,4.824,0,0,1-.536,2.939l-14.084,26.973s-3.672-.444-3.672-1.9l4.208-20.946-20.843,7.413s-7.644-4.2-5.491-11.875C643.548,1418.028,657.614,1420.937,661.026,1412.7Z" transform="translate(-637.065 -1357.984)" fill="#014c8f"/>
            <path id="Trazado_125179" data-name="Trazado 125179" d="M654.7,1452.75,673.743,1461s7.837,2,9.094,12.806l5.5,24.578-4.064.872-11.778-28.592-23.252-6.176s-7.466-2.709-5.491-11.6C643.751,1452.886,652.891,1453.31,654.7,1452.75Z" transform="translate(-637.269 -1392.438)" fill="#3b5cc4"/>
            <g id="Grupo_95749" data-name="Grupo 95749" transform="translate(14.123 65.678)">
              <g id="Grupo_95748" data-name="Grupo 95748" clip-path="url(#clip-path)">
                <path id="Trazado_125180" data-name="Trazado 125180" d="M661.026,1412.819l14.4-2.783s8.816-1.169,8.638,7.218l-14.722,28.2s-1.9.669-3.672-1.9l4.208-20.946-20.843,7.413s-7.644-4.2-5.491-11.875C643.548,1418.146,657.614,1421.054,661.026,1412.819Z" transform="translate(-651.188 -1423.756)" fill="#014c8f"/>
              </g>
            </g>
            <path id="Trazado_125182" data-name="Trazado 125182" d="M739.489,1582.494v6.246l2.766,5.175s3.658,4.461-1.383,1.963l-10.4-10.529,5.34-4.751S735.817,1581.937,739.489,1582.494Z" transform="translate(-707.208 -1495.146)" fill="#014c8f"/>
            <path id="Trazado_125183" data-name="Trazado 125183" d="M855.241,1684.7l4.68,4.64h9.636s3.034.536,1.338,2.142l-19.184,2.855-.535-8.744Z" transform="translate(-804.174 -1578.779)" fill="#014c8f"/>
            <g id="Grupo_95750" data-name="Grupo 95750">
              <path id="Trazado_125184" data-name="Trazado 125184" d="M656.99,1179.05s5.306,11.07,3.385,13.814a5.5,5.5,0,0,1-4.026,0l2.836,4.218s-.221,4.748-.614,4.748-8.169-4.025-8.169-4.025l-1.555-8.783S645.1,1171.09,656.99,1179.05Z" transform="translate(-641.179 -1170.921)" fill="#fab08b"/>
              <path id="Trazado_125185" data-name="Trazado 125185" d="M645.158,1167.78s-3.294,3.867-7.136,4.05l1.921,6.038,4.849,2.321,1.824-2.319,2.75,5.3s-4.117,2.562-10.155-.595c0,0-.091-5.556-2.47-6.6,0,0-2.47-.127-.732,2.892l-1.2.457s-8.221-10.824,1.293-13.555C636.1,1165.777,641.316,1164.462,645.158,1167.78Z" transform="translate(-627.701 -1161.688)" fill="#2b74c1"/>
              <path id="Trazado_125186" data-name="Trazado 125186" d="M633.589,1220.5a65.425,65.425,0,0,0-5.714,5.714l2.951,31.366s15.622,2.505,18.032-7.258a136.68,136.68,0,0,0,1.875-20.269l9.465.8s5.536,1.964,7.589-3.125l4.286-19.994s-2.322-2.836-6.7-1.2L661.18,1223s-13.572-3.643-19.018-3.205l-.6,4.634Z" transform="translate(-624.782 -1194.231)" fill="#2b74c1"/>
              <path id="Trazado_125187" data-name="Trazado 125187" d="M831.627,1158.894l2.507-9.721s1.243-3.393-1.254-3.125c0,0-1.961-.178-2.854,2.589l-.8,2.768a14.106,14.106,0,0,0-1.09-2.6c-.151-.226-.753-.61-.752.708l.949,8.322S830.906,1158.251,831.627,1158.894Z" transform="translate(-785.057 -1146.032)" fill="#fab08b"/>
              <path id="Trazado_125188" data-name="Trazado 125188" d="M622.112,1319.472s.893-10.536-6.875-10.8c0,0-4.286,1.518-2.768,11.608l1.518,11.965s.062,5.8,8.156,5.983l22.559,1.339.536-4.107s-17.5-5.268-23.126-4.286Z" transform="translate(-612.144 -1276.688)" fill="#5590cd"/>
              <path id="Trazado_125189" data-name="Trazado 125189" d="M778.256,1444.2s7.59-1.25,11.34,3.036c0,0,1.607,2.432-2.589,1.841,0,0-8.036-1.216-9.286-.77Z" transform="translate(-745.161 -1385.431)" fill="#fab08b"/>
            </g>
          </g>
          <g id="Grupo_95752" data-name="Grupo 95752" transform="translate(217.876 35.321)">
            <path id="Trazado_125190" data-name="Trazado 125190" d="M1311.03,1520.775l-10.266,40.93h2.139l10.479-41.112Z" transform="translate(-1300.764 -1474.406)" fill="#77acdc"/>
            <path id="Trazado_125191" data-name="Trazado 125191" d="M1491.283,1520.633l-8.008,41.293,2.136-.085,8.212-41.484Z" transform="translate(-1447.386 -1474.217)" fill="#77acdc"/>
            <path id="Trazado_125192" data-name="Trazado 125192" d="M1372.264,1519.363l-7.6,41.274,2.134-.139,7.8-41.469Z" transform="translate(-1352.1 -1473.15)" fill="#66a0bf"/>
            <path id="Trazado_125193" data-name="Trazado 125193" d="M1555.441,1515.652l5.455,41.527-2.124-.25-5.646-41.732Z" transform="translate(-1503.501 -1470.072)" fill="#66a0bf"/>
            <path id="Trazado_125194" data-name="Trazado 125194" d="M1360.919,1513.859h-49.4a.965.965,0,0,1-.962-.963h0a.965.965,0,0,1,.962-.962h49.4a.965.965,0,0,1,.962.962h0A.965.965,0,0,1,1360.919,1513.859Z" transform="translate(-1308.628 -1467.449)" fill="#66a0bf"/>
            <path id="Trazado_125195" data-name="Trazado 125195" d="M1407.351,1330.193l15.974-42.058a3.763,3.763,0,0,1,3.518-2.427H1453.1a1.354,1.354,0,0,1,1.271,1.821l-15.691,42.664Z" transform="translate(-1386.392 -1285.709)" fill="#77acdc"/>
          </g>
          <g id="Grupo_95756" data-name="Grupo 95756" transform="translate(20.123 9.123)">
            <g id="Grupo_95753" data-name="Grupo 95753" transform="translate(0 26.198)">
              <path id="Trazado_125196" data-name="Trazado 125196" d="M579.427,1520.775l10.266,40.93h-2.139l-10.479-41.112Z" transform="translate(-521.626 -1474.406)" fill="#77acdc"/>
              <path id="Trazado_125197" data-name="Trazado 125197" d="M408.449,1520.633l8.008,41.293-2.136-.085-8.211-41.484Z" transform="translate(-384.28 -1474.217)" fill="#77acdc"/>
              <path id="Trazado_125198" data-name="Trazado 125198" d="M529.16,1519.363l7.6,41.274-2.134-.139-7.8-41.469Z" transform="translate(-481.257 -1473.15)" fill="#66a0bf"/>
              <path id="Trazado_125199" data-name="Trazado 125199" d="M354.823,1515.652l-5.455,41.527,2.124-.25,5.646-41.732Z" transform="translate(-338.697 -1470.072)" fill="#66a0bf"/>
              <path id="Trazado_125200" data-name="Trazado 125200" d="M371.389,1513.859h49.4a.965.965,0,0,0,.962-.963h0a.965.965,0,0,0-.962-.962h-49.4a.965.965,0,0,0-.962.962h0A.965.965,0,0,0,371.389,1513.859Z" transform="translate(-355.614 -1467.449)" fill="#66a0bf"/>
              <path id="Trazado_125201" data-name="Trazado 125201" d="M342.2,1330.193l-15.974-42.058a3.763,3.763,0,0,0-3.518-2.427H296.45a1.354,1.354,0,0,0-1.271,1.821l15.691,42.664Z" transform="translate(-295.095 -1285.709)" fill="#77acdc"/>
            </g>
            <g id="Grupo_95754" data-name="Grupo 95754" transform="translate(16.143)">
              <path id="Trazado_125202" data-name="Trazado 125202" d="M389.963,1275.887s-3.077.3-6.937,5.8c0,0-5.438,14.5-4.093,29.59,0,0,13.274,3.684,17.309-1.7,0,0,2.047-14.152,3.158-16.2,0,0,3.158-7.544,1.7-13.684,0,0-.748-2.316-4.789-3.234Z" transform="translate(-378.419 -1251.62)" fill="#fe9309"/>
              <path id="Trazado_125203" data-name="Trazado 125203" d="M444.183,1191.874a8.535,8.535,0,0,1-1.706,3.8,4.247,4.247,0,0,1-3.719,1.556c-1.208,1.17.156,4.289-.078,4.568-1.071,1.281-3.37.547-4.422.05-.633-.3-1.288-.84-1.235-1.538a2.746,2.746,0,0,1,.7-1.282,5.652,5.652,0,0,0,.723-4.288,29.01,29.01,0,0,0-1.361-4.25,9.123,9.123,0,0,1-.621-4.378,5.578,5.578,0,0,1,3.18-4.134,6.759,6.759,0,0,1,3.616-.448c1.664.218,3.829.986,4.84,2.432.762,1.091.524,2.577.5,3.826A20.723,20.723,0,0,1,444.183,1191.874Z" transform="translate(-421.54 -1175.761)" fill="#fab08b"/>
              <path id="Trazado_125204" data-name="Trazado 125204" d="M427.947,1165.914a4.017,4.017,0,0,0,.331,1.8,1.475,1.475,0,0,1-.389,1.672,1.134,1.134,0,0,1-1.156-.072,2.849,2.849,0,0,1-.82-.889,9.669,9.669,0,0,1-1.736-5.939,6.528,6.528,0,0,1,3.087-5.2c.877-.5,1.874-.746,2.775-1.2a3.254,3.254,0,0,0,1.912-2.2,2.025,2.025,0,0,1,.646,1.993,2.17,2.17,0,0,0,1.512-3.4c1.664.315,4.235,1.338,5.154,2.761s1.591,3.95.476,5.225a2.894,2.894,0,0,1-1.539,1.025,2.691,2.691,0,0,1-1.461-.429,4.368,4.368,0,0,0-4.655.339,4.2,4.2,0,0,0-1.158,1.385c-.276.525-.227,1.44-.522,1.87s-.785.1-1.242.162A1.408,1.408,0,0,0,427.947,1165.914Z" transform="translate(-414.922 -1152.48)" fill="#5590cd"/>
              <path id="Trazado_125205" data-name="Trazado 125205" d="M399.087,1312.391a4.954,4.954,0,0,0-3.275-5.789s-3.581-1.478-5.363,5.484c-.054.21-.1.423-.133.636-.343,2.031-2.073,12.8-.645,15.341a2.454,2.454,0,0,0,.11.289,9.3,9.3,0,0,0,7.69,5.241l11.5,1.254s1.813-2.865.994-4.854l-11.5-3.373a1.953,1.953,0,0,1-1.377-2.193Z" transform="translate(-386.771 -1276.19)" fill="#ffc90f"/>
              <path id="Trazado_125206" data-name="Trazado 125206" d="M482.636,1295.261s5.779,13.922,7.715,20.591a4.169,4.169,0,0,0,3.337,2.954l13.1,2.127s.877,3.333-1.287,4.971c0,0-10.261.175-17.3-1.676a6.018,6.018,0,0,1-4.027-3.495l-3.954-9.454Z" transform="translate(-459.959 -1267.185)" fill="#fe9309"/>
              <path id="Trazado_125207" data-name="Trazado 125207" d="M491.922,1430.257s7.273.994,9.378,4.035c0,0,2.164,3.216-2.573,1.521,0,0-7.331-2.009-7.857-1.785C490.87,1434.028,492.134,1431.076,491.922,1430.257Z" transform="translate(-468.516 -1375.635)" fill="#fab08b"/>
              <path id="Trazado_125208" data-name="Trazado 125208" d="M614.211,1425.46s5.438-2.69,10.292.936c0,0,1.813,2.339-1.287,1.93,0,0-4.386-1.085-6.023-.367,0,0,2.865.718,2.865,1.3,0,0,.234,1.237-1.93.472l-4.412-1.159A11.443,11.443,0,0,0,614.211,1425.46Z" transform="translate(-567.206 -1371.01)" fill="#fab08b"/>
              <path id="Trazado_125209" data-name="Trazado 125209" d="M405.864,1447.226l21.611,6.363s5.964,1.938,6.475,7.957l3.1,27.1s-1.472,2.591-4.533.448l-7.214-23.465a5.582,5.582,0,0,0-3.3-3.674L390.7,1449.407S400.835,1452.374,405.864,1447.226Z" transform="translate(-388.04 -1389.268)" fill="#014c8f"/>
              <path id="Trazado_125210" data-name="Trazado 125210" d="M392.28,1456.168l16.453,5.165s9.879,2.245,7.533,9.9l-6.733,25.707s-2.958.408-3.877-.51l1.327-23.418a2.382,2.382,0,0,0-1.612-2.389c-3.315-1.129-17.512-3.349-18.391-3.49-3.333-.534-11.974-2.8-9.275-11.28C377.705,1455.85,386.159,1458.384,392.28,1456.168Z" transform="translate(-377.191 -1396.196)" fill="#3b5cc4"/>
              <path id="Trazado_125211" data-name="Trazado 125211" d="M525.409,1663.688l-.768,4.729-2.893-.5.043-4.548A36.22,36.22,0,0,1,525.409,1663.688Z" transform="translate(-493.323 -1562.906)" fill="#fab08b"/>
              <path id="Trazado_125212" data-name="Trazado 125212" d="M514.058,1687l1.227,4.615,7.651,4.387s2.448,1.734,0,2.04l-9.385-2.856-4.977-1.428,2.591-7.26Z" transform="translate(-482.739 -1581.489)" fill="#326091"/>
              <path id="Trazado_125213" data-name="Trazado 125213" d="M607.581,1660.13l.352,4.689-3,.493-1.53-5.186S605.743,1661.969,607.581,1660.13Z" transform="translate(-558.919 -1560.303)" fill="#fab08b"/>
              <path id="Trazado_125214" data-name="Trazado 125214" d="M614.185,1683.991l2.71,4.693,8.059,2.04s3.366,1.632,0,2.551l-13.772-.51v-8.28Z" transform="translate(-565.17 -1579.476)" fill="#326091"/>
            </g>
            <g id="Grupo_95755" data-name="Grupo 95755" transform="translate(40.477 47.847)">
              <path id="Trazado_125215" data-name="Trazado 125215" d="M500.94,1410.453v-1.3a.576.576,0,0,1,.576-.576H512.3s2.515.085,3.341-3.146l2.526-6.547a5.476,5.476,0,0,1,5.7-3.061l12.5-.024s2.721-.062,1.956,2.32l-3.826,12.33Z" transform="translate(-500.94 -1395.803)" fill="#014c8f"/>
              <path id="Trazado_125216" data-name="Trazado 125216" d="M632.274,1418.1a1.613,1.613,0,1,1-1.613-1.613A1.613,1.613,0,0,1,632.274,1418.1Z" transform="translate(-603.856 -1412.42)" fill="#b0bfde"/>
            </g>
          </g>
          <g id="Grupo_95759" data-name="Grupo 95759">
            <path id="Trazado_125217" data-name="Trazado 125217" d="M1506.09,1250.145l-.847,6.237s2.852,2.927,6.949,0l-1.022-7.037A25.6,25.6,0,0,1,1506.09,1250.145Z" transform="translate(-1247.158 -1221.175)" fill="#fab08b"/>
            <g id="Grupo_95758" data-name="Grupo 95758">
              <path id="Trazado_125218" data-name="Trazado 125218" d="M1501.467,1184.627s-6.5-6.534-11.23-.624v9.489s.369,6.058,6.28,4.285C1496.517,1197.778,1504.831,1195.49,1501.467,1184.627Z" transform="translate(-1235.103 -1166.694)" fill="#fab08b"/>
              <path id="Trazado_125219" data-name="Trazado 125219" d="M1494.833,1152.333s-4.412,2.062-6.834.77a.9.9,0,0,1-.439-.953c.186-1.066,1.071-3.244,5.1-4.545,0,0,1.451-4.433-2.58-4.137a4.4,4.4,0,0,1,6.289,1.33,18.544,18.544,0,0,1,4.814-2.136s1.707-.111,1.229,1.217a2.2,2.2,0,0,1-1.037,1.153l-1.457.8a4.8,4.8,0,0,1,4.031.591s1.935,2.66-2.766.786c0,0-3.061-1.853-4.545.955,0,0,7.705.521,7.311,8.16,0,0,.659,4.66-4.508,7.132,0,0-2.608,1.142-.673-2.256,0,0,3.135-5.383-1.007-3.609A4.824,4.824,0,0,0,1494.833,1152.333Z" transform="translate(-1232.941 -1135.467)" fill="#89aae0"/>
              <path id="Trazado_125220" data-name="Trazado 125220" d="M1353.009,1142.272l-5.559-.979-6.1-16.44-1.187-9.661s-.339-8.3-1.186-8.813c0,0-1.525-1.695-1.356,3.051l-.013,3.729-2.286,1.658a1.319,1.319,0,0,0-.492,1.436l2.791,9.568,4,18.485a4.522,4.522,0,0,0,3.08,3.361l7.321,2.269A11.158,11.158,0,0,1,1353.009,1142.272Z" transform="translate(-1110.211 -1106.085)" fill="#fab08b"/>
              <path id="Trazado_125221" data-name="Trazado 125221" d="M1327.911,1439.388l20.1-.131,15.31,10.384-37.271,2.983s-5.561-5.578-1.974-10.514C1324.965,1440.883,1326.4,1439.458,1327.911,1439.388Z" transform="translate(-1100.645 -1373.743)" fill="#014c8f"/>
              <g id="Grupo_95757" data-name="Grupo 95757" transform="translate(215.701 65.744)">
                <path id="Trazado_125222" data-name="Trazado 125222" d="M1421.238,1610.519s4.27,9.076-2.922,15.982a1.782,1.782,0,0,1-2.9-.77c-.655-2-.723-5.985,2.2-13.847C1417.619,1611.884,1420.454,1611.349,1421.238,1610.519Z" transform="translate(-1390.4 -1577.071)" fill="#326091"/>
                <path id="Trazado_125223" data-name="Trazado 125223" d="M1307.8,1703.14v5.993h-18.1s-.421-2.079,14.311-5.993Z" transform="translate(-1289.7 -1651.48)" fill="#326091"/>
                <path id="Trazado_125224" data-name="Trazado 125224" d="M1390.361,1474.926s-1.14,6.4-30.636,3.987l-4.7,34.9s-.29,2.2-4.876,0l-1.432-33.98s-1.308-12.128,10.457-12.108l11.323.78S1380.087,1474.425,1390.361,1474.926Z" transform="translate(-1337.078 -1462.354)" fill="#3b5cc4"/>
                <path id="Trazado_125225" data-name="Trazado 125225" d="M1332.955,1444.688l12.833,29.049s-1.32,2.935-5.172,2.018l-18.149-25.076a7.781,7.781,0,0,1-1.131-6.662c.686-2.279,2.457-4.349,6.825-3.328A7,7,0,0,1,1332.955,1444.688Z" transform="translate(-1314.865 -1440.422)" fill="#014c8f"/>
              </g>
              <path id="Trazado_125226" data-name="Trazado 125226" d="M1437.543,1285.134H1422.8a11.791,11.791,0,0,0-1.525,8.644l9.66,1.864c.048,3.58-.963,8.062-2.224,13.05-.587,2.321-2.691,8.605-3.43,10.461.77.951,3.891,2.953,5.407,4.147a48.293,48.293,0,0,0,7.366,4.686,18.657,18.657,0,0,0,9.926,2.034c0-8.7,2.192-17.372,0-28.243l.582,5.22a14.617,14.617,0,0,0,4.237.508,11.055,11.055,0,0,0,4.237-1.017c-.507-4.424,1.077-15-4.589-17.568l-7.952-3.787a6.856,6.856,0,0,1-6.949,0Z" transform="translate(-1179.459 -1249.926)" fill="#2b74c1"/>
              <path id="Trazado_125227" data-name="Trazado 125227" d="M303.651,1472.209l-11.7,50.226c-.062.264-.4.183-.361-.087l7.648-50.431Z" transform="translate(-272.154 -1399.981)" fill="#326091"/>
              <path id="Trazado_125228" data-name="Trazado 125228" d="M217.51,1473.7l-23.724,54.411a.537.537,0,1,1-.987-.421c8.411-24.462,19.669-54.182,19.669-54.182Z" transform="translate(-192.758 -1401.26)" fill="#89aae0"/>
              <path id="Trazado_125229" data-name="Trazado 125229" d="M1603.187,1476.272l11.7,50.226c.062.264.4.183.361-.087l-7.648-50.431Z" transform="translate(-1325.843 -1403.245)" fill="#326091"/>
              <path id="Trazado_125230" data-name="Trazado 125230" d="M1637.491,1477.676l23.334,50.682a.533.533,0,0,0,.989-.4c-8.237-22.8-19.283-50.5-19.283-50.5Z" transform="translate(-1353.401 -1404.435)" fill="#89aae0"/>
              <path id="Trazado_125231" data-name="Trazado 125231" d="M527.169,1472.279H235.927a1.06,1.06,0,0,1-1.057-1.057h0a1.06,1.06,0,0,1,1.057-1.057H527.169a1.06,1.06,0,0,1,1.057,1.057h0A1.06,1.06,0,0,1,527.169,1472.279Z" transform="translate(-226.589 -1398.573)" fill="#89aae0"/>
              <path id="Trazado_125232" data-name="Trazado 125232" d="M1297.148,1460.267h-25.119a1.215,1.215,0,0,1-1.211-1.212h0a1.215,1.215,0,0,1,1.211-1.211h25.119a1.215,1.215,0,0,1,1.212,1.211h0A1.215,1.215,0,0,1,1297.148,1460.267Z" transform="translate(-1058.83 -1388.675)" fill="#014c8f"/>
              <path id="Trazado_125233" data-name="Trazado 125233" d="M1420.75,1394.543l-1.665,6.4s-2.2,5.969-21.355,4.614l-5.423.224-6.571,3.166s-2.75.678-3.428-3.22l-4.881.593s-2.773-.186.22-1.441l8.089-1.525,7.927-1.356s16.44-2.712,18.643-2.2l.573-4.837A15.942,15.942,0,0,0,1420.75,1394.543Z" transform="translate(-1143.535 -1337.821)" fill="#fab08b"/>
            </g>
          </g>
          <g id="Grupo_95768" data-name="Grupo 95768" transform="translate(138.292 63.468)">
            <g id="Grupo_95767" data-name="Grupo 95767">
              <g id="Grupo_95761" data-name="Grupo 95761" transform="translate(2.273 4.622)">
                <path id="Trazado_125234" data-name="Trazado 125234" d="M927.583,1452.454l-18.483-.1a1.737,1.737,0,0,0-1.5,1.848h0a1.738,1.738,0,0,0,1.5,1.848h18.483Z" transform="translate(-907.601 -1452.354)" fill="#1647ee"/>
                <path id="Trazado_125235" data-name="Trazado 125235" d="M1014.777,1454.386v3H995.894a1.748,1.748,0,0,1-1-1.2,1.7,1.7,0,0,1,1-1.8Z" transform="translate(-977.711 -1453.986)" fill="#c4e3f8"/>
                <g id="Grupo_95760" data-name="Grupo 95760" transform="translate(16.885 0.1)">
                  <path id="Trazado_125236" data-name="Trazado 125236" d="M994.966,1456.459h19.482a.3.3,0,0,0,0-.6H994.966a.9.9,0,0,1-.9-.9v-.6a.9.9,0,0,1,.9-.9h19.482a.3.3,0,0,0,0-.6H994.966a1.5,1.5,0,0,0-1.5,1.5v.6A1.5,1.5,0,0,0,994.966,1456.459Z" transform="translate(-993.467 -1452.862)" fill="#004d91"/>
                </g>
              </g>
              <g id="Grupo_95766" data-name="Grupo 95766">
                <path id="Trazado_125237" data-name="Trazado 125237" d="M987.286,1433.565l12.5.023a2.428,2.428,0,0,0,2.188-2.447v.157a2.211,2.211,0,0,0-2.212-2.211l-12.636-.236Z" transform="translate(-969.217 -1428.851)" fill="#3983ff"/>
                <path id="Trazado_125238" data-name="Trazado 125238" d="M900.875,1430.05l.071,4.242h17.047a2.3,2.3,0,0,0,0-4.242Z" transform="translate(-899.924 -1429.814)" fill="#c4e3f8"/>
                <g id="Grupo_95762" data-name="Grupo 95762">
                  <path id="Trazado_125239" data-name="Trazado 125239" d="M896.276,1433.565h17.839c.906,0,1.644-1.057,1.644-2.357s-.737-2.357-1.644-2.357H896.276a.236.236,0,1,0,0,.471h17.839c.636,0,1.173.863,1.173,1.885s-.537,1.885-1.173,1.885H896.276a.236.236,0,1,0,0,.471Z" transform="translate(-896.04 -1428.851)" fill="#318cff"/>
                </g>
                <g id="Grupo_95763" data-name="Grupo 95763" transform="translate(0.951 2.278)">
                  <path id="Trazado_125240" data-name="Trazado 125240" d="M900.953,1440.594H917.6a.079.079,0,1,0,0-.157H900.953a.079.079,0,0,0,0,.157Z" transform="translate(-900.875 -1440.437)" fill="#3983e2"/>
                </g>
                <g id="Grupo_95764" data-name="Grupo 95764" transform="translate(0.951 2.75)">
                  <path id="Trazado_125241" data-name="Trazado 125241" d="M900.953,1443.07h0l10.17-.078a.079.079,0,0,0,0-.157h0l-10.17.078a.079.079,0,0,0,0,.157Z" transform="translate(-900.875 -1442.834)" fill="#3983e2"/>
                </g>
                <g id="Grupo_95765" data-name="Grupo 95765" transform="translate(0.951 0.864)">
                  <path id="Trazado_125242" data-name="Trazado 125242" d="M900.953,1433.4h12.954a.079.079,0,1,0,0-.157H900.953a.079.079,0,0,0,0,.157Z" transform="translate(-900.875 -1433.246)" fill="#3983e2"/>
                </g>
                <path id="Trazado_125243" data-name="Trazado 125243" d="M912.945,1433.64s-.943-.236-.55,6.049l-1.807-1.1-1.571,1.1v-4.376a1.628,1.628,0,0,1,.864-1.673Z" transform="translate(-906.461 -1432.698)" fill="#febf3e"/>
              </g>
            </g>
          </g>
        </g>
      </g>
    </g>
  </g>
</svg>
