<svg xmlns="http://www.w3.org/2000/svg" width="85" height="85" viewBox="0 0 85 85">
  <g id="Grupo_96617" data-name="Grupo 96617" transform="translate(-285 -1527)">
    <rect id="Rectángulo_34163" data-name="Rectángulo 34163" width="85" height="85" transform="translate(285 1527)" fill="#26d19e"/>
    <g id="layer2" transform="translate(295.471 1538.735)">
      <path id="path6751" d="M59.216,5.821A3.18,3.18,0,0,1,62.4,9.008V44.062a3.18,3.18,0,0,1-3.187,3.187H4.51A3.758,3.758,0,0,1,.818,43.8C.815,29.923.794,19.63.794,5.821" transform="translate(0.799 15.954)" fill="#e4eff8"/>
      <path id="path6753" d="M62.219,43.963a3.18,3.18,0,0,1-3.187,3.187H4.326a3.883,3.883,0,0,1-3.471-2.4,3.538,3.538,0,0,0,1.346.278H56.908a3.18,3.18,0,0,0,3.187-3.187V6.769a3.16,3.16,0,0,0-.147-.915,3.17,3.17,0,0,1,2.272,3.04Z" transform="translate(0.983 16.053)" fill="#c4dcf0"/>
      <path id="path6755" d="M.794,8.218a4.249,4.249,0,0,1,8.5,0V42.21A3.18,3.18,0,0,1,6.105,45.4H4.512A3.71,3.71,0,0,0,.794,49.115Z" transform="translate(0.798 10.37)" fill="#549ad4"/>
      <path id="path6757" d="M9.292,41.931a3.18,3.18,0,0,1-3.187,3.187H4.512A3.71,3.71,0,0,0,.794,48.836V43.361a3.7,3.7,0,0,1,1.593-.367H3.981a3.18,3.18,0,0,0,3.187-3.187v-34a4.238,4.238,0,0,0-.38-1.745,4.234,4.234,0,0,1,2.5,3.869Z" transform="translate(0.798 10.649)" fill="#3588cb"/>
      <path id="path6759" d="M14.039,12.708a2.125,2.125,0,1,1-2.125-2.125A2.125,2.125,0,0,1,14.039,12.708Z" transform="translate(27.919 30.312)" fill="#ff5151"/>
      <path id="path6761" d="M29.463,13.541A12.747,12.747,0,1,1,16.716.794,12.747,12.747,0,0,1,29.463,13.541Z" transform="translate(10.37 0.798)" fill="#ffca28"/>
      <path id="path6763" d="M14.636.794A12.747,12.747,0,0,0,4.659,5.63a12.735,12.735,0,0,1,17.83,17.946A12.743,12.743,0,0,0,14.636.794Z" transform="translate(12.45 0.798)" fill="#ecb200"/>
      <path id="path6765" d="M10.864,10.591A2.125,2.125,0,1,1,8.739,8.467,2.125,2.125,0,0,1,10.864,10.591Z" transform="translate(18.347 23.93)" fill="#ff5151"/>
      <path id="path6767" d="M13.762,7.408h4.249a1.06,1.06,0,0,1,1.062,1.062v3.187a1.06,1.06,0,0,1-1.062,1.062H13.762A1.06,1.06,0,0,1,12.7,11.657V8.471A1.06,1.06,0,0,1,13.762,7.408Z" transform="translate(36.693 20.74)" fill="#549ad4"/>
      <path id="path6769" d="M13.762,7.408A1.06,1.06,0,0,0,12.7,8.471v3.187a1.06,1.06,0,0,0,1.062,1.062h4.249a1.06,1.06,0,0,0,1.062-1.062V10.6H15.887a1.06,1.06,0,0,1-1.062-1.062V7.408Z" transform="translate(36.693 20.74)" fill="#3588cb"/>
      <path id="path6771" d="M13.494,2.618,24.116,7.929,13.494,12.178" transform="translate(39.086 6.297)" fill="#ff5151"/>
      <g id="Grupo_95862" data-name="Grupo 95862" transform="translate(24.961 8.915)">
        <path id="path6773" d="M13.494,2.618v9.56l2.125-.851V3.68Z" transform="translate(14.125 -2.618)" fill="#ff2929"/>
        <path id="path6775" d="M11.225,10.614A2.12,2.12,0,1,0,14,13.021a2.111,2.111,0,0,1-2.772-2.407Z" transform="translate(2.958 21.49)" fill="#ff2929"/>
        <path id="path6777" d="M8.05,8.5A2.12,2.12,0,1,0,10.822,10.9,2.111,2.111,0,0,1,8.05,8.5Z" transform="translate(-6.615 15.109)" fill="#ff2929"/>
      </g>
      <path id="path6779" d="M13.276,14.339a13.706,13.706,0,0,0,1.562,6.376H11.156V18.59a5.313,5.313,0,0,0-10.627,0V59.482a4.772,4.772,0,0,0,4.784,4.782h54.7a4.247,4.247,0,0,0,4.249-4.249V24.963a4.239,4.239,0,0,0-4.249-4.249H53.64V19.193L63.6,15.21a1.062,1.062,0,0,0,.079-1.929L53.64,8.258V7.963a1.062,1.062,0,1,0-2.124,0V20.714H39.326a13.806,13.806,0,1,0-26.05-6.376ZM52.565.529A1.062,1.062,0,0,0,51.516,1.6V2.67a1.063,1.063,0,0,0,2.124,0V1.6A1.062,1.062,0,0,0,52.565.529ZM27.09,2.656A11.683,11.683,0,1,1,15.4,14.339,11.686,11.686,0,0,1,27.09,2.656Zm19.737,2.17.751.753a1.064,1.064,0,0,0,1.506-1.5l-.753-.753a1.012,1.012,0,0,0-.742-.31A1.061,1.061,0,0,0,46.827,4.826Zm10.013-1.5-.753.753a1.064,1.064,0,0,0,1.506,1.5l.753-.753a1.064,1.064,0,0,0-.788-1.813,1.02,1.02,0,0,0-.718.309ZM26.021,6.9v7.434a1.063,1.063,0,0,0,.315.753l3.183,3.183a1.062,1.062,0,0,0,1.506-1.5L28.148,13.9V6.9a1.063,1.063,0,0,0-2.126,0ZM53.64,10.637l6.971,3.481L53.64,16.907ZM5.839,15.4A3.189,3.189,0,0,1,9.03,18.59V52.582a2.126,2.126,0,0,1-2.125,2.125H5.314a4.774,4.774,0,0,0-2.658.795V18.59A3.182,3.182,0,0,1,5.839,15.4Zm5.318,7.442H16.2a13.813,13.813,0,0,0,21.77,0H51.516V27.09H50.458a2.119,2.119,0,0,0-2.127,2.125V32.4a1.065,1.065,0,1,0,0,2.127H50.4L42,40.688a3.18,3.18,0,0,0-4.291-.048l-7.521-5.425a3.116,3.116,0,0,0,.081-.691,3.188,3.188,0,1,0-6.376,0,3.089,3.089,0,0,0,.114.788l-10.324,7.93a1.062,1.062,0,1,0,1.3,1.678l10.2-7.838a3.2,3.2,0,0,0,3.871-.058l7.625,5.5a3.48,3.48,0,0,0-.036.5,3.188,3.188,0,0,0,6.376,0,2.981,2.981,0,0,0-.032-.425l10.994-8.075h2.844a1.063,1.063,0,0,0,0-2.127V29.214a2.127,2.127,0,0,0-2.125-2.125H53.641V22.839h6.376a2.112,2.112,0,0,1,2.125,2.125V60.016a2.118,2.118,0,0,1-2.125,2.125H5.314a2.655,2.655,0,1,1,0-5.309H6.905a4.25,4.25,0,0,0,4.251-4.249Zm26.55,6.367a1.068,1.068,0,0,0-.753,1.82l.844.84-.844.844a1.062,1.062,0,0,0,1.506,1.5l.84-.84.844.84a1.059,1.059,0,1,0,1.5-1.5l-.84-.844.84-.84a1.062,1.062,0,0,0-.759-1.82,1.073,1.073,0,0,0-.739.313l-.844.844-.84-.844a1.036,1.036,0,0,0-.753-.313Zm12.751.008h4.249V32.4H50.458ZM27.09,33.455a1.067,1.067,0,0,1,1.058,1.068,1.055,1.055,0,0,1-1.058,1.058,1.063,1.063,0,1,1,0-2.127Zm26.559,6.376a1.061,1.061,0,0,0-.761,1.811l.844.844-.844.842a1.065,1.065,0,1,0,1.506,1.506l.84-.844.844.844a1.062,1.062,0,0,0,1.5-1.506l-.834-.842.842-.844a1.062,1.062,0,0,0-.784-1.811,1.034,1.034,0,0,0-.722.313l-.844.842-.84-.842A1.017,1.017,0,0,0,53.649,39.831ZM39.831,41.955a1.063,1.063,0,1,1-1.058,1.068A1.066,1.066,0,0,1,39.831,41.955ZM19.64,46.2a1.062,1.062,0,0,0-.581.181L15.876,48.5a1.064,1.064,0,1,0,1.176,1.774l2.6-1.734,2.6,1.734a1.062,1.062,0,0,0,1.174,0l2.6-1.734,2.6,1.734a1.062,1.062,0,0,0,1.183,0l2.6-1.734,2.6,1.734A1.064,1.064,0,1,0,36.169,48.5l-3.183-2.125a1.062,1.062,0,0,0-1.176,0l-2.6,1.732-2.6-1.732a1.062,1.062,0,0,0-1.176,0l-2.6,1.732-2.6-1.732a1.062,1.062,0,0,0-.6-.181Zm26.567,4.257a1.062,1.062,0,1,0,0,2.125h1.062a1.062,1.062,0,1,0,0-2.125Zm5.311,0a1.062,1.062,0,1,0,0,2.125H52.58a1.062,1.062,0,1,0,0-2.125Zm5.311,0a1.062,1.062,0,1,0,0,2.125h1.062a1.062,1.062,0,1,0,0-2.125ZM19.64,51.516a1.062,1.062,0,0,0-.581.181l-3.183,2.116a1.063,1.063,0,1,0,1.176,1.772l2.6-1.732,2.6,1.732a1.062,1.062,0,0,0,1.174,0l2.6-1.732,2.6,1.732a1.062,1.062,0,0,0,1.183,0l2.6-1.732,2.6,1.732a1.064,1.064,0,1,0,1.176-1.772L32.986,51.7a1.062,1.062,0,0,0-1.176,0l-2.6,1.724-2.6-1.724a1.062,1.062,0,0,0-1.176,0l-2.6,1.724-2.6-1.724a1.062,1.062,0,0,0-.6-.181Z" transform="translate(0)"/>
    </g>
  </g>
</svg>
