<svg xmlns="http://www.w3.org/2000/svg" width="85" height="85" viewBox="0 0 85 85">
  <g id="Grupo_96620" data-name="Grupo 96620" transform="translate(-285 -1824)">
    <rect id="Rectángulo_34163" data-name="Rectángulo 34163" width="85" height="85" transform="translate(285 1824)" fill="#26d19e"/>
    <g id="marketing-de-medios-sociales" transform="translate(-153 1387)">
      <g id="Icon">
        <g id="Grupo_95863" data-name="Grupo 95863" transform="translate(100 396)">
          <path id="Trazado_128531" data-name="Trazado 128531" d="M380,84a2,2,0,0,0-4,0v24a2,2,0,0,0,4,0Z" fill="#ff3d65" fill-rule="evenodd"/>
        </g>
        <g id="Grupo_95864" data-name="Grupo 95864" transform="translate(100 396)">
          <path id="Trazado_128532" data-name="Trazado 128532" d="M376,85l-7.483,4.365A19.34,19.34,0,0,1,358.77,92H356a4,4,0,0,0-4,4v0a4,4,0,0,0,4,4h2.77a19.34,19.34,0,0,1,9.747,2.635L376,107Z" fill="#feb62c" fill-rule="evenodd"/>
        </g>
        <g id="Grupo_95865" data-name="Grupo 95865" transform="translate(104 400)">
          <path id="Trazado_128533" data-name="Trazado 128533" d="M380,91.236a2,2,0,0,0-1.106-1.789L376,88v8l2.894-1.447A2,2,0,0,0,380,92.764Z" fill="#feb62c" fill-rule="evenodd"/>
        </g>
        <g id="Grupo_95866" data-name="Grupo 95866" transform="translate(104 406)">
          <path id="Trazado_128534" data-name="Trazado 128534" d="M352,90v8a2,2,0,0,0,2,2h.306a2,2,0,0,0,1.973-1.671l1.352-8.116A19.355,19.355,0,0,0,354.77,90Z" fill="#748fad" fill-rule="evenodd"/>
        </g>
        <g id="Grupo_95867" data-name="Grupo 95867" transform="translate(104 406)">
          <path id="Trazado_128535" data-name="Trazado 128535" d="M356,81.961q-.613.039-1.23.039H352a4,4,0,0,0-4,4v0a4,4,0,0,0,4,4h2.77q.617,0,1.23.039Z" fill="#ff3d65" fill-rule="evenodd"/>
        </g>
        <g id="Grupo_95868" data-name="Grupo 95868" transform="translate(0 390)">
          <path id="Trazado_128536" data-name="Trazado 128536" d="M454,84h20a2,2,0,0,0,2-2V70a2,2,0,0,0-2-2H454a2,2,0,0,0-2,2V82a2,2,0,0,0,2,2Z" fill="#ff3d65" fill-rule="evenodd"/>
        </g>
        <g id="Grupo_95869" data-name="Grupo 95869" transform="translate(1 390)">
          <path id="Trazado_128537" data-name="Trazado 128537" d="M466.927,76.537a.6.6,0,0,0,0-1.074l-6.059-3.029a.6.6,0,0,0-.868.537v6.058a.6.6,0,0,0,.868.537Z" fill="#f8f4f0" fill-rule="evenodd"/>
        </g>
        <g id="Grupo_95870" data-name="Grupo 95870" transform="translate(160 358)">
          <path id="Trazado_128538" data-name="Trazado 128538" d="M324,116v2.551a.6.6,0,0,0,1.024.425L328,116h18a2,2,0,0,0,2-2V98a2,2,0,0,0-2-2H322a2,2,0,0,0-2,2v16a2,2,0,0,0,2,2Z" fill="#4b67ca" fill-rule="evenodd"/>
        </g>
        <path id="Trazado_128539" data-name="Trazado 128539" d="M496.946,461h-3.892l.895-2.684a1,1,0,0,0-1.9-.632L490.946,461H489a1,1,0,0,0,0,2h1.279l-.666,2H488a1,1,0,0,0,0,2h.946l-.895,2.684a1,1,0,1,0,1.9.632L491.054,467h3.892l-.895,2.684a1,1,0,0,0,1.9.632L497.054,467H499a1,1,0,1,0,0-2h-1.279l.666-2H500a1,1,0,1,0,0-2h-.946l.895-2.684a1,1,0,0,0-1.9-.632Zm-.667,2h-3.892l-.666,2h3.892Z" fill="#f8f4f0" fill-rule="evenodd"/>
        <g id="Grupo_95871" data-name="Grupo 95871" transform="translate(0 -6)">
          <circle id="Elipse_5876" data-name="Elipse 5876" cx="10" cy="10" r="10" transform="translate(488 488)" fill="#c8dff6"/>
        </g>
        <g id="Grupo_95872" data-name="Grupo 95872" transform="translate(0 -1)">
          <circle id="Elipse_5877" data-name="Elipse 5877" cx="3" cy="3" r="3" transform="translate(495 487)" fill="#61de9c"/>
        </g>
        <g id="Grupo_95873" data-name="Grupo 95873" transform="translate(0 2)">
          <path id="Trazado_128540" data-name="Trazado 128540" d="M494,499.167V498a4,4,0,0,1,8,0v1.167a10.02,10.02,0,0,1-8,0Z" fill="#61de9c" fill-rule="evenodd"/>
        </g>
        <g id="Grupo_95874" data-name="Grupo 95874" transform="translate(0 390)">
          <path id="Trazado_128541" data-name="Trazado 128541" d="M454,85h20a3,3,0,0,0,3-3V70a3,3,0,0,0-3-3H454a3,3,0,0,0-3,3V82a3,3,0,0,0,3,3Zm20-2H454a1,1,0,0,1-1-1V70a1,1,0,0,1,1-1h20a1,1,0,0,1,1,1V82a1,1,0,0,1-1,1Z" fill-rule="evenodd"/>
        </g>
        <g id="Grupo_95875" data-name="Grupo 95875" transform="translate(160 358)">
          <path id="Trazado_128542" data-name="Trazado 128542" d="M323,117v1.551a1.6,1.6,0,0,0,2.731,1.132L328.414,117H346a3,3,0,0,0,3-3V98a3,3,0,0,0-3-3H322a3,3,0,0,0-3,3v16a3,3,0,0,0,3,3Zm2,.586V116a1,1,0,0,0-1-1h-2a1,1,0,0,1-1-1V98a1,1,0,0,1,1-1h24a1,1,0,0,1,1,1v16a1,1,0,0,1-1,1H328a1,1,0,0,0-.707.293Z" fill-rule="evenodd"/>
        </g>
        <g id="Grupo_95876" data-name="Grupo 95876" transform="translate(0 -1)">
          <path id="Trazado_128543" data-name="Trazado 128543" d="M498,486a4,4,0,1,0,4,4A4,4,0,0,0,498,486Zm0,2a2,2,0,1,1-2,2A2,2,0,0,1,498,488Z" fill-rule="evenodd"/>
        </g>
        <path id="Trazado_128544" data-name="Trazado 128544" d="M498,481a11,11,0,1,0,11,11A11.005,11.005,0,0,0,498,481Zm3,19.487V500a3,3,0,0,0-6,0v.487a9.028,9.028,0,0,0,6,0Zm1.975-.988a9,9,0,1,0-9.95,0,5,5,0,0,1,9.95,0Z" fill-rule="evenodd"/>
        <path id="Trazado_128545" data-name="Trazado 128545" d="M455,496.9V504a3,3,0,0,0,3,3h.306a3,3,0,0,0,2.959-2.507l1.187-7.12a18.332,18.332,0,0,1,5.561,2.126L475,503.574V504a3,3,0,0,0,6,0v-7.382l2.342-1.171A3,3,0,0,0,485,492.764v-1.528a3,3,0,0,0-1.658-2.683L481,487.382V480a3,3,0,0,0-6,0v.426l-6.987,4.075a18.338,18.338,0,0,1-9.243,2.5H456a5,5,0,0,0-5,5v0a5,5,0,0,0,4,4.9Zm2,.1v7a1,1,0,0,0,1,1h.306a1,1,0,0,0,.986-.836l1.181-7.085c-.564-.052-1.133-.079-1.7-.079Zm20-7v14a1,1,0,0,0,2,0V480a1,1,0,0,0-2,0v6a1,1,0,0,1-2,0v-3.259l-5.979,3.488A20.352,20.352,0,0,1,461,488.877v6.246a20.351,20.351,0,0,1,8.021,2.648L475,501.259V490a1,1,0,0,1,2,0Zm-18-1h-3a3,3,0,0,0-3,3v0a3,3,0,0,0,3,3h3Zm22,.619,1.447.724a1,1,0,0,1,.553.894v1.528a1,1,0,0,1-.553.894l-1.447.724Z" fill-rule="evenodd"/>
      </g>
    </g>
  </g>
</svg>
