<svg xmlns="http://www.w3.org/2000/svg" width="421" height="174" viewBox="0 0 421 174">
  <g id="Grupo_96616" data-name="Grupo 96616" transform="translate(-285 -2813)">
    <path id="Trazado_125089" data-name="Trazado 125089" d="M0,0,421,1,400,174H0Z" transform="translate(285 2813)" fill="#ccfff0"/>
    <g id="objetivo_4_" data-name="objetivo (4)" transform="translate(323 2830.679)">
      <g id="Grupo_94033" data-name="Grupo 94033" transform="translate(7.242 3.081)">
        <g id="Grupo_94006" data-name="Grupo 94006" transform="translate(72.344 33.228)">
          <path id="Trazado_121189" data-name="Trazado 121189" d="M82.942,29V47.161H51.732A26.942,26.942,0,0,0,38.77,24.087l.021-.021a8.311,8.311,0,0,1,5.056-3.225l7.511-1.519a6.166,6.166,0,0,0,2.455-1.352v.062a6.242,6.242,0,0,0,12.484,0V17.97a6.166,6.166,0,0,0,2.455,1.352l7.511,1.519A8.328,8.328,0,0,1,82.942,29Z" transform="translate(-38.77 -17.97)" fill="#fcd770"/>
        </g>
        <g id="Grupo_94007" data-name="Grupo 94007" transform="translate(0 103.97)">
          <path id="Trazado_121190" data-name="Trazado 121190" d="M49.774,63v9.841H4V63a8.328,8.328,0,0,1,6.679-8.156l7.511-1.519a6.166,6.166,0,0,0,2.455-1.352v.062a6.242,6.242,0,0,0,12.484,0V51.97a6.166,6.166,0,0,0,2.455,1.352L43.1,54.841A8.328,8.328,0,0,1,49.774,63Z" transform="translate(-4 -51.97)" fill="#4fc1e9"/>
        </g>
        <g id="Grupo_94008" data-name="Grupo 94008" transform="translate(70.742 103.97)">
          <path id="Trazado_121191" data-name="Trazado 121191" d="M44.117,54.987a5.58,5.58,0,0,1,.562-.146l7.511-1.519a6.166,6.166,0,0,0,2.455-1.352v.062a6.242,6.242,0,0,0,12.484,0V51.97a6.166,6.166,0,0,0,2.455,1.352L77.1,54.841a5.58,5.58,0,0,1,.562.146A8.291,8.291,0,0,1,83.774,63v9.841H38V63A8.291,8.291,0,0,1,44.117,54.987Z" transform="translate(-38 -51.97)" fill="#ff826e"/>
        </g>
        <g id="Grupo_94009" data-name="Grupo 94009" transform="translate(72.823 70.742)">
          <path id="Trazado_121192" data-name="Trazado 121192" d="M55.479,66a6.241,6.241,0,0,1-4.369,4.577L43.6,72.1a5.58,5.58,0,0,0-.562.146,3.848,3.848,0,0,0,.125-.874C43.161,67.21,39,67.21,39,63.048s4.161-4.161,4.161-8.323V52.645a16.689,16.689,0,0,1,1.6-7.137,26.918,26.918,0,0,0,3.287-4.661l.021-.021a17.1,17.1,0,0,1,5.264-3.537A16.683,16.683,0,0,1,76.452,52.645v2.081c0,4.161,4.161,4.161,4.161,8.323s-4.161,4.161-4.161,8.323a3.848,3.848,0,0,0,.125.874,5.58,5.58,0,0,0-.562-.146L68.5,70.58A6.241,6.241,0,0,1,64.134,66v-.021a8.285,8.285,0,0,0,3.995-7.095V52.645H64.467a19.711,19.711,0,0,1-8.822-2.081,4.174,4.174,0,0,0-4.161,4.161v4.161a8.375,8.375,0,0,0,2.434,5.888,8.7,8.7,0,0,0,1.56,1.207Z" transform="translate(-39 -36)" fill="#b27946"/>
        </g>
        <g id="Grupo_94010" data-name="Grupo 94010" transform="translate(0 33.228)">
          <path id="Trazado_121193" data-name="Trazado 121193" d="M48.151,24.066l.021.021A26.942,26.942,0,0,0,35.21,47.161H4V29a8.328,8.328,0,0,1,6.679-8.156l1.644-.333,5.867-1.186a6.166,6.166,0,0,0,2.455-1.352v.062a6.242,6.242,0,0,0,12.484,0V17.97a6.166,6.166,0,0,0,2.455,1.352l5.867,1.186,1.644.333a8.311,8.311,0,0,1,5.056,3.225Z" transform="translate(-4 -17.97)" fill="#5cd6b3"/>
        </g>
        <g id="Grupo_94011" data-name="Grupo 94011" transform="translate(27.215 20.806)">
          <path id="Trazado_121194" data-name="Trazado 121194" d="M27.317,12V26.96l-5.867-1.186A6.241,6.241,0,0,1,17.08,21.2v-.021A8.221,8.221,0,0,0,20.8,16.161h2.351A4.174,4.174,0,0,0,27.317,12Z" transform="translate(-17.08 -12)" fill="#fcd770"/>
        </g>
        <g id="Grupo_94012" data-name="Grupo 94012" transform="translate(8.323)">
          <path id="Trazado_121195" data-name="Trazado 121195" d="M12.161,18.645A4.174,4.174,0,0,0,8,22.806V16.565a14.565,14.565,0,0,1,29.129,0v6.242a4.192,4.192,0,0,0-4.161-4.161H27.225A19.711,19.711,0,0,1,18.4,16.565a4.153,4.153,0,0,0-3.6,2.081Z" transform="translate(-8 -2)" fill="#fcd770"/>
        </g>
        <g id="Grupo_94013" data-name="Grupo 94013" transform="translate(8.323 20.806)">
          <path id="Trazado_121196" data-name="Trazado 121196" d="M16.676,19.969a8.7,8.7,0,0,0,1.56,1.207V21.2a6.241,6.241,0,0,1-4.369,4.577L8,26.96V12a4.192,4.192,0,0,0,4.161,4.161h2.351a8.486,8.486,0,0,0,2.164,3.808Z" transform="translate(-8 -12)" fill="#fcd770"/>
        </g>
        <g id="Grupo_94014" data-name="Grupo 94014" transform="translate(76.984 0)">
          <path id="Trazado_121197" data-name="Trazado 121197" d="M74.29,12.2a7.158,7.158,0,0,1-.062.957,7.333,7.333,0,0,1-2.518,4.515l-1.665,1.5a4.023,4.023,0,0,0-2-.52H62.306a19.711,19.711,0,0,1-8.822-2.081,4.153,4.153,0,0,0-3.6,2.081H47.242a4.023,4.023,0,0,0-2,.52l-1.665-1.5a7.333,7.333,0,0,1-2.518-4.515A7.158,7.158,0,0,1,41,12.2,7.913,7.913,0,0,1,44.163,5.87l3.225-2.414A7.153,7.153,0,0,1,51.736,2h.832a7.251,7.251,0,0,1,5.077,2.081A7.251,7.251,0,0,1,62.722,2h.832A7.153,7.153,0,0,1,67.9,3.456L71.128,5.87A7.913,7.913,0,0,1,74.29,12.2Z" transform="translate(-41 -2)" fill="#656d78"/>
        </g>
        <g id="Grupo_94015" data-name="Grupo 94015" transform="translate(6.242 70.742)">
          <path id="Trazado_121198" data-name="Trazado 121198" d="M40.228,47.173A7.681,7.681,0,0,1,39,50.523l-2.955,2.642a4.023,4.023,0,0,0-2-.52H28.306a19.711,19.711,0,0,1-8.822-2.081,4.153,4.153,0,0,0-3.6,2.081H13.242a4.023,4.023,0,0,0-2,.52L8.29,50.523A7.934,7.934,0,0,1,7,46.2,10.212,10.212,0,0,1,17.2,36H30.1a9.974,9.974,0,0,1,3.371.583,27.021,27.021,0,0,0,6.783,10.57Z" transform="translate(-7 -36)" fill="#b27946"/>
        </g>
        <g id="Grupo_94016" data-name="Grupo 94016" transform="translate(31.21 35.371)">
          <path id="Trazado_121199" data-name="Trazado 121199" d="M73.1,46.048A27.012,27.012,0,0,1,69.685,59.2l-.021.021A27.006,27.006,0,1,1,73.1,46.048Z" transform="translate(-19 -19)" fill="#ccd1d9"/>
        </g>
        <g id="Grupo_94017" data-name="Grupo 94017" transform="translate(43.694 47.855)">
          <path id="Trazado_121200" data-name="Trazado 121200" d="M39.565,25A14.565,14.565,0,1,1,25,39.565,14.554,14.554,0,0,1,39.565,25Z" transform="translate(-25 -25)" fill="#e6e9ed"/>
        </g>
        <g id="Grupo_94018" data-name="Grupo 94018" transform="translate(52.016 56.177)">
          <circle id="Elipse_5578" data-name="Elipse 5578" cx="6.5" cy="6.5" r="6.5" transform="translate(-0.258 -0.258)" fill="#ff826e"/>
        </g>
        <g id="Grupo_94019" data-name="Grupo 94019" transform="translate(87.387 100.724)">
          <path id="Trazado_121201" data-name="Trazado 121201" d="M56.57,50.431a6.12,6.12,0,0,0,1.914,3.225v.062a6.242,6.242,0,0,1-12.484,0v-.062a6.12,6.12,0,0,0,1.914-3.225V50.41a8.242,8.242,0,0,0,8.655,0Z" transform="translate(-46 -50.41)" fill="#f0d0b4"/>
        </g>
        <g id="Grupo_94020" data-name="Grupo 94020" transform="translate(85.306 85.306)">
          <path id="Trazado_121202" data-name="Trazado 121202" d="M61.645,45.081v6.242a8.285,8.285,0,0,1-3.995,7.095,8.242,8.242,0,0,1-8.655,0,8.7,8.7,0,0,1-1.56-1.207A8.375,8.375,0,0,1,45,51.323V47.161A4.174,4.174,0,0,1,49.161,43a19.711,19.711,0,0,0,8.822,2.081Z" transform="translate(-45 -43)" fill="#f0d0b4"/>
        </g>
        <g id="Grupo_94021" data-name="Grupo 94021" transform="translate(30.939 87.387)">
          <path id="Trazado_121203" data-name="Trazado 121203" d="M25.382,48.161a4.174,4.174,0,0,1-4.161,4.161H18.87a7.609,7.609,0,0,0,.27-2.081V44h2.081a4.023,4.023,0,0,1,2,.52,3.472,3.472,0,0,1,.936.707A4.068,4.068,0,0,1,25.382,48.161Z" transform="translate(-18.87 -44)" fill="#f0d0b4"/>
        </g>
        <g id="Grupo_94022" data-name="Grupo 94022" transform="translate(16.645 100.724)">
          <path id="Trazado_121204" data-name="Trazado 121204" d="M22.57,50.431a6.12,6.12,0,0,0,1.914,3.225v.062a6.242,6.242,0,1,1-12.484,0v-.062a6.12,6.12,0,0,0,1.914-3.225V50.41a8.242,8.242,0,0,0,8.655,0Z" transform="translate(-12 -50.41)" fill="#f0d0b4"/>
        </g>
        <g id="Grupo_94023" data-name="Grupo 94023" transform="translate(14.565 85.306)">
          <path id="Trazado_121205" data-name="Trazado 121205" d="M11.27,53.4A7.609,7.609,0,0,1,11,51.323V47.161A4.171,4.171,0,0,1,15.161,43a19.711,19.711,0,0,0,8.822,2.081h3.662v6.242a7.609,7.609,0,0,1-.27,2.081,8.221,8.221,0,0,1-3.724,5.014,8.242,8.242,0,0,1-8.655,0,8.7,8.7,0,0,1-1.56-1.207A8.486,8.486,0,0,1,11.27,53.4Z" transform="translate(-11 -43)" fill="#f0d0b4"/>
        </g>
        <g id="Grupo_94024" data-name="Grupo 94024" transform="translate(8.323 87.387)">
          <path id="Trazado_121206" data-name="Trazado 121206" d="M14.242,50.242a7.609,7.609,0,0,0,.27,2.081H12.161A4.192,4.192,0,0,1,8,48.161a4.16,4.16,0,0,1,2.164-3.641,4.023,4.023,0,0,1,2-.52H14.8a4.15,4.15,0,0,0-.562,2.081Z" transform="translate(-8 -44)" fill="#f0d0b4"/>
        </g>
        <g id="Grupo_94025" data-name="Grupo 94025" transform="translate(101.681 16.645)">
          <path id="Trazado_121207" data-name="Trazado 121207" d="M59.382,14.161a4.174,4.174,0,0,1-4.161,4.161H52.87a7.609,7.609,0,0,0,.27-2.081V10h2.081a4.023,4.023,0,0,1,2,.52,3.472,3.472,0,0,1,.936.707A4.068,4.068,0,0,1,59.382,14.161Z" transform="translate(-52.87 -10)" fill="#f0d0b4"/>
        </g>
        <g id="Grupo_94026" data-name="Grupo 94026" transform="translate(87.387 29.982)">
          <path id="Trazado_121208" data-name="Trazado 121208" d="M56.57,16.431a6.12,6.12,0,0,0,1.914,3.225v.062a6.242,6.242,0,0,1-12.484,0v-.062a6.12,6.12,0,0,0,1.914-3.225V16.41a8.242,8.242,0,0,0,8.655,0Z" transform="translate(-46 -16.41)" fill="#f0d0b4"/>
        </g>
        <g id="Grupo_94027" data-name="Grupo 94027" transform="translate(85.306 14.565)">
          <path id="Trazado_121209" data-name="Trazado 121209" d="M45.562,11.081A4.153,4.153,0,0,1,49.161,9a19.711,19.711,0,0,0,8.822,2.081h3.662v6.242a7.609,7.609,0,0,1-.27,2.081,8.221,8.221,0,0,1-3.724,5.014,8.242,8.242,0,0,1-8.655,0,8.7,8.7,0,0,1-1.56-1.207A8.486,8.486,0,0,1,45.27,19.4,7.609,7.609,0,0,1,45,17.323V13.161a4.15,4.15,0,0,1,.562-2.081Z" transform="translate(-45 -9)" fill="#f0d0b4"/>
        </g>
        <g id="Grupo_94028" data-name="Grupo 94028" transform="translate(79.065 16.645)">
          <path id="Trazado_121210" data-name="Trazado 121210" d="M48.242,16.242a7.609,7.609,0,0,0,.27,2.081H46.161A4.192,4.192,0,0,1,42,14.161a4.16,4.16,0,0,1,2.164-3.641,4.023,4.023,0,0,1,2-.52H48.8a4.15,4.15,0,0,0-.562,2.081Z" transform="translate(-42 -10)" fill="#f0d0b4"/>
        </g>
        <g id="Grupo_94029" data-name="Grupo 94029" transform="translate(30.939 16.645)">
          <path id="Trazado_121211" data-name="Trazado 121211" d="M24.155,11.228a4.068,4.068,0,0,1,1.228,2.934,4.174,4.174,0,0,1-4.161,4.161H18.87a7.609,7.609,0,0,0,.27-2.081V10h2.081A4.068,4.068,0,0,1,24.155,11.228Z" transform="translate(-18.87 -10)" fill="#f0d0b4"/>
        </g>
        <g id="Grupo_94030" data-name="Grupo 94030" transform="translate(16.645 29.982)">
          <path id="Trazado_121212" data-name="Trazado 121212" d="M22.57,16.431a6.12,6.12,0,0,0,1.914,3.225v.062a6.242,6.242,0,1,1-12.484,0v-.062a6.12,6.12,0,0,0,1.914-3.225V16.41a8.242,8.242,0,0,0,8.655,0Z" transform="translate(-12 -16.41)" fill="#f0d0b4"/>
        </g>
        <g id="Grupo_94031" data-name="Grupo 94031" transform="translate(14.565 14.565)">
          <path id="Trazado_121213" data-name="Trazado 121213" d="M11.27,19.4A7.609,7.609,0,0,1,11,17.323V13.161A4.171,4.171,0,0,1,15.161,9a19.711,19.711,0,0,0,8.822,2.081h3.662v6.242a7.609,7.609,0,0,1-.27,2.081,8.221,8.221,0,0,1-3.724,5.014,8.242,8.242,0,0,1-8.655,0,8.7,8.7,0,0,1-1.56-1.207A8.486,8.486,0,0,1,11.27,19.4Z" transform="translate(-11 -9)" fill="#f0d0b4"/>
        </g>
        <g id="Grupo_94032" data-name="Grupo 94032" transform="translate(8.323 16.645)">
          <path id="Trazado_121214" data-name="Trazado 121214" d="M14.242,16.242a7.609,7.609,0,0,0,.27,2.081H12.161A4.192,4.192,0,0,1,8,14.161,4.174,4.174,0,0,1,12.161,10H14.8a4.15,4.15,0,0,0-.562,2.081Z" transform="translate(-8 -10)" fill="#f0d0b4"/>
        </g>
      </g>
      <path id="Trazado_121215" data-name="Trazado 121215" d="M130,67.581V63.419h-4.161V47.342a10.435,10.435,0,0,0-8.343-10.2l-7.365-1.481a4.141,4.141,0,0,1-2.434-1.908,10.42,10.42,0,0,0,2.7-3.627h.882a6.223,6.223,0,0,0,5.075-9.852,9.448,9.448,0,0,0,3.177-5.8,10.26,10.26,0,0,0,.071-1.188,10.048,10.048,0,0,0-4-8l-3.217-2.414A9.394,9.394,0,0,0,106.776,1h-.82a9.263,9.263,0,0,0-5.085,1.5A9.263,9.263,0,0,0,95.786,1h-.82a9.406,9.406,0,0,0-5.6,1.866L86.148,5.28a10.052,10.052,0,0,0-4,8.006,9.818,9.818,0,0,0,.073,1.188,9.428,9.428,0,0,0,3.177,5.8,6.181,6.181,0,0,0-1.169,3.61,6.25,6.25,0,0,0,6.242,6.242h.882a10.415,10.415,0,0,0,2.7,3.629,3.988,3.988,0,0,1-2.278,1.866l-7.526,1.519a10.366,10.366,0,0,0-5.087,2.645,28.882,28.882,0,0,0-11.579-3.312V1H63.417V36.477a28.882,28.882,0,0,0-11.579,3.312,10.377,10.377,0,0,0-5.066-2.638V17.645a16.644,16.644,0,1,0-33.288,0V37.151A10.433,10.433,0,0,0,5.161,47.342V63.419H1v4.161H36.477a29.08,29.08,0,0,0,.6,4.2c-.169-.006-.333-.042-.5-.042H23.689A12.3,12.3,0,0,0,11.4,84.026a9.887,9.887,0,0,0,1.642,5.468l1.627,1.5a6.22,6.22,0,0,0,5.054,9.877h.882a10.414,10.414,0,0,0,2.7,3.629,4,4,0,0,1-2.276,1.866L13.5,107.885a10.438,10.438,0,0,0-8.343,10.2V130H55.1V118.082a10.436,10.436,0,0,0-8.343-10.2l-7.363-1.477a4.163,4.163,0,0,1-2.436-1.91,10.42,10.42,0,0,0,2.7-3.627h.882a6.222,6.222,0,0,0,5.075-9.85L46.864,89.9l.347-.4a10.1,10.1,0,0,0,.547-.943,28.938,28.938,0,0,0,15.659,5.971V130h4.161V94.523a28.921,28.921,0,0,0,14.627-5.2c-.021.381-.06.759-.06,1.144v2.081c0,1.167-.451,1.667-1.471,2.686a7.241,7.241,0,0,0,0,11.263,3.962,3.962,0,0,1,1.407,2.114,10.423,10.423,0,0,0-6.175,9.471V130h49.935V118.082a10.417,10.417,0,0,0-6.177-9.471,3.987,3.987,0,0,1,1.407-2.114,7.239,7.239,0,0,0,0-11.263c-1.02-1.02-1.471-1.519-1.471-2.686V90.468a18.731,18.731,0,0,0-26.041-17.24,28.892,28.892,0,0,0,.967-5.647ZM94.629,25.968V21.806a2.085,2.085,0,0,1,1.683-2.043,21.914,21.914,0,0,0,9.211,2.043h1.59v4.161a6.242,6.242,0,0,1-12.484,0Zm16.645,0V21.806a2.081,2.081,0,0,1,0,4.161ZM88.387,23.887a2.084,2.084,0,0,1,2.081-2.081v4.161A2.084,2.084,0,0,1,88.387,23.887Zm3.7-6.242H90.468a6.166,6.166,0,0,0-1.54.214l-.737-.66a5.308,5.308,0,0,1-1.843-3.225,5.833,5.833,0,0,1,2.3-5.366L91.862,6.2a5.215,5.215,0,0,1,3.1-1.034h.82a5.143,5.143,0,0,1,3.627,1.484l1.459,1.436,1.459-1.436a5.14,5.14,0,0,1,3.627-1.484h.82a5.215,5.215,0,0,1,3.1,1.034L113.1,8.611a5.836,5.836,0,0,1,2.295,5.366A5.313,5.313,0,0,1,113.55,17.2l-.737.657a6.166,6.166,0,0,0-1.54-.214h-5.751a17.7,17.7,0,0,1-7.884-1.862l-.439-.218H96.71A6.21,6.21,0,0,0,92.091,17.645Zm8.78,18.726a10.252,10.252,0,0,0,3.206-.558,8.208,8.208,0,0,0,.888,1.234,4.147,4.147,0,0,1-8.185.015,8.11,8.11,0,0,0,.888-1.246,10.285,10.285,0,0,0,3.2.556Zm-15.8,4.852,7.682-1.558c.146-.042.279-.1.42-.152a8.3,8.3,0,0,0,15.393-.015c.193.069.381.15.583.206l7.526,1.519a6.263,6.263,0,0,1,5,6.119V63.419H94.523A29.071,29.071,0,0,0,82.848,42.157,6.22,6.22,0,0,1,85.071,41.223Zm5.291,22.2H82A16.66,16.66,0,0,0,67.579,49V40.636A24.984,24.984,0,0,1,90.362,63.419ZM65.5,69.661A4.161,4.161,0,1,1,69.661,65.5,4.165,4.165,0,0,1,65.5,69.661ZM63.419,57.473a8.312,8.312,0,0,0-5.946,5.946H53.2A12.5,12.5,0,0,1,63.419,53.2ZM57.473,67.581a8.312,8.312,0,0,0,5.946,5.946V77.8A12.5,12.5,0,0,1,53.2,67.581Zm10.108,5.946a8.312,8.312,0,0,0,5.946-5.946H77.8A12.5,12.5,0,0,1,67.581,77.8Zm5.946-10.108a8.312,8.312,0,0,0-5.946-5.946V53.2A12.5,12.5,0,0,1,77.8,63.419ZM63.419,49A16.66,16.66,0,0,0,49,63.419H40.636A24.98,24.98,0,0,1,63.417,40.638V49ZM19.726,25.968a2.081,2.081,0,1,1,0-4.161Zm0,4.161h.882a10.414,10.414,0,0,0,2.7,3.629,3.994,3.994,0,0,1-2.278,1.866l-3.383.685V29.746a6.172,6.172,0,0,0,2.081.383Zm16.645-4.161a6.242,6.242,0,1,1-12.484,0V21.806a2.085,2.085,0,0,1,1.683-2.043,21.914,21.914,0,0,0,9.211,2.043h1.59Zm-9.444,9.846a9.479,9.479,0,0,0,6.406,0,8.207,8.207,0,0,0,.888,1.234,4.146,4.146,0,0,1-8.183.012,8.4,8.4,0,0,0,.888-1.246Zm10.027-2.058a10.42,10.42,0,0,0,2.7-3.627h.882a6.172,6.172,0,0,0,2.081-.383v6.567l-3.225-.649A4.141,4.141,0,0,1,36.954,33.756Zm3.579-11.949a2.081,2.081,0,1,1,0,4.161ZM30.129,5.161A12.5,12.5,0,0,1,42.613,17.645v.383a6.172,6.172,0,0,0-2.081-.383H34.781A17.7,17.7,0,0,1,26.9,15.783l-.439-.218h-.491a6.21,6.21,0,0,0-4.619,2.081H19.726a6.172,6.172,0,0,0-2.081.383v-.383A12.5,12.5,0,0,1,30.129,5.161ZM9.323,47.342a6.263,6.263,0,0,1,5.006-6.119l7.682-1.558c.146-.042.279-.1.42-.152A8.3,8.3,0,0,0,37.823,39.5c.194.069.381.15.583.206l7.524,1.519a6.22,6.22,0,0,1,2.222.934A29.078,29.078,0,0,0,36.477,63.419H9.323Zm8.323,47.287a2.083,2.083,0,0,1,2.081-2.081V96.71A2.083,2.083,0,0,1,17.645,94.629ZM36.371,96.71a6.242,6.242,0,1,1-12.484,0V92.548a2.081,2.081,0,0,1,1.685-2.041,21.935,21.935,0,0,0,9.209,2.041h1.59Zm9.558,15.255a6.261,6.261,0,0,1,5.006,6.117v7.757H9.323v-7.757a6.259,6.259,0,0,1,5.006-6.117l7.686-1.558c.144-.042.279-.1.418-.152a8.3,8.3,0,0,0,15.391-.015c.194.071.381.15.583.208Zm-11.708-4.176a4.146,4.146,0,0,1-8.183.012,8.254,8.254,0,0,0,.888-1.246,9.485,9.485,0,0,0,6.408,0,8.343,8.343,0,0,0,.886,1.234Zm.56-19.4A17.731,17.731,0,0,1,26.9,86.525l-.439-.218h-.491a6.21,6.21,0,0,0-4.619,2.081H19.726a6.165,6.165,0,0,0-1.54.214l-1.8-1.613a5.753,5.753,0,0,1-.818-2.963A8.132,8.132,0,0,1,23.689,75.9H36.569a8.066,8.066,0,0,1,1.843.237,29.182,29.182,0,0,0,6.042,9.444,5.774,5.774,0,0,1-.578,1.407l-1.8,1.613a6.072,6.072,0,0,0-1.54-.216H34.781Zm5.751,8.323V92.548a2.081,2.081,0,1,1,0,4.161Zm.106-29.129H49A16.66,16.66,0,0,0,63.421,82v8.362A24.984,24.984,0,0,1,40.638,67.581Zm81.039,58.258H80.065v-7.757a6.259,6.259,0,0,1,5.006-6.117l7.686-1.558c.144-.042.279-.1.418-.152a8.3,8.3,0,0,0,15.391-.015c.193.071.381.15.583.208l7.524,1.517a6.261,6.261,0,0,1,5.006,6.117ZM107.113,96.71a6.242,6.242,0,1,1-12.484,0V92.548a2.081,2.081,0,0,1,1.685-2.041,21.935,21.935,0,0,0,9.209,2.041h1.59Zm-6.242,10.4a10.252,10.252,0,0,0,3.206-.558,8.343,8.343,0,0,0,.886,1.234,4.146,4.146,0,0,1-8.183.012,8.254,8.254,0,0,0,.888-1.246A10.2,10.2,0,0,0,100.871,107.113Zm0-31.21a14.582,14.582,0,0,1,14.565,14.565v2.081a7.413,7.413,0,0,0,2.69,5.628c1.02,1.02,1.471,1.519,1.471,2.686s-.451,1.673-1.473,2.692a8.125,8.125,0,0,0-2.488,3.957l-5.505-1.1a4.163,4.163,0,0,1-2.436-1.91,10.329,10.329,0,0,0,3.581-7.788V88.387h-5.751a17.731,17.731,0,0,1-7.884-1.862l-.439-.218H96.71a6.25,6.25,0,0,0-6.242,6.242V96.71a10.337,10.337,0,0,0,3.581,7.79,4,4,0,0,1-2.276,1.866l-5.666,1.142a8.117,8.117,0,0,0-2.488-3.955c-1.022-1.017-1.473-1.519-1.473-2.69s.451-1.667,1.471-2.686a7.413,7.413,0,0,0,2.69-5.628V90.468a14.424,14.424,0,0,1,1.34-6.094A29.3,29.3,0,0,0,90.69,80.06,14.469,14.469,0,0,1,100.871,75.9ZM67.581,90.362V82A16.66,16.66,0,0,0,82,67.579h8.362A24.984,24.984,0,0,1,67.581,90.362Z" transform="translate(0 0)"/>
    </g>
  </g>
</svg>
