<svg xmlns="http://www.w3.org/2000/svg" width="133" height="133" viewBox="0 0 133 133">
  <g id="Grupo_96607" data-name="Grupo 96607" transform="translate(-1085 -1349)">
    <g id="_240_F_517612944_l74ePXoDwwkjqreI81fnXg55EVVMX5lO" data-name="240_F_517612944_l74ePXoDwwkjqreI81fnXg55EVVMX5lO" transform="translate(1085 1349)" fill="#fff" stroke="#21155c" stroke-width="3">
      <circle cx="66.5" cy="66.5" r="66.5" stroke="none"/>
      <circle cx="66.5" cy="66.5" r="65" fill="none"/>
    </g>
    <g id="mujer-de-negocios_1_" data-name="mujer-de-negocios (1)" transform="translate(1110 1374.03)">
      <path id="Trazado_124931" data-name="Trazado 124931" d="M50.526,3C39.743,3,31,9.411,31,17.319c0,5.1,3.645,9.56,9.112,12.1v7.428l7.22-5.415a26.475,26.475,0,0,0,3.195.208c10.784,0,19.526-6.411,19.526-14.319S61.31,3,50.526,3Z" transform="translate(8.449 0.311)" fill="#f8d251"/>
      <path id="Trazado_124932" data-name="Trazado 124932" d="M37.242,48.562H6V18.621a15.621,15.621,0,0,1,31.242,0Z" transform="translate(0.905 0.311)" fill="#3e3d42"/>
      <path id="Trazado_124933" data-name="Trazado 124933" d="M40.449,55.242V45.449a7.826,7.826,0,0,0-5.571-7.494l-2.812-.846a6.518,6.518,0,0,1-4.634-6.235V24H17.018v6.873a6.518,6.518,0,0,1-4.634,6.235l-2.812.846A7.826,7.826,0,0,0,4,45.449V64.355a2.6,2.6,0,0,0,2.6,2.6h3.905l-1.3,5.207H36.544l-1.3-3.905,5.207-3.905Z" transform="translate(0.302 6.648)" fill="#e9e9ea"/>
      <path id="Trazado_124934" data-name="Trazado 124934" d="M24.414,67.639H14L17.905,39h2.6Z" transform="translate(3.319 11.174)" fill="#5bcbfa"/>
      <path id="Trazado_124935" data-name="Trazado 124935" d="M27,40H45.225V63.432H27Z" transform="translate(7.242 11.476)" fill="#4dd4f7"/>
      <path id="Trazado_124936" data-name="Trazado 124936" d="M10.905,44v7.811H27.828v9.112H7Z" transform="translate(1.207 12.683)" fill="#e9e9ea"/>
      <g id="Grupo_95620" data-name="Grupo 95620" transform="translate(13.453 30.648)">
        <path id="Trazado_124937" data-name="Trazado 124937" d="M23,51h5.207v6.509H23Z" transform="translate(-7.418 -15.852)" fill="#ffcbbe"/>
        <path id="Trazado_124938" data-name="Trazado 124938" d="M41.6,49h3.905v6.509H41.6a2.6,2.6,0,0,1-2.6-2.6V51.6A2.6,2.6,0,0,1,41.6,49Z" transform="translate(-2.59 -16.456)" fill="#ffcbbe"/>
        <path id="Trazado_124939" data-name="Trazado 124939" d="M29.177,36.822c-.351,3.033-9.073,5.4-9.073,5.4s-8.722-2.369-9.073-5.4A6.509,6.509,0,0,0,14.9,30.873V24H25.31v6.873a6.509,6.509,0,0,0,3.867,5.949Z" transform="translate(-11.03 -24)" fill="#ffcbbe"/>
      </g>
      <path id="Trazado_124940" data-name="Trazado 124940" d="M14,35H24.414l-3.905,5.207h-2.6Z" transform="translate(3.319 9.967)" fill="#fff"/>
      <path id="Trazado_124941" data-name="Trazado 124941" d="M10.74,34.277l2.942,7.863,6.509-6.509L12.94,32.91l-.013.013A6.193,6.193,0,0,1,10.74,34.277Z" transform="translate(2.336 9.337)" fill="#91d1f5"/>
      <path id="Trazado_124942" data-name="Trazado 124942" d="M25.251,32.91,18,35.631l6.509,6.509,2.942-7.863a6.193,6.193,0,0,1-2.187-1.354Z" transform="translate(4.526 9.337)" fill="#91d1f5"/>
      <path id="Trazado_124943" data-name="Trazado 124943" d="M30.828,13.929a2.6,2.6,0,0,0-2.6-2.6H26.546A6.15,6.15,0,0,1,22.64,9.92a6.137,6.137,0,0,1-5.754,4.009H12.6a2.6,2.6,0,0,0-2.6,2.6v7.457a10.648,10.648,0,0,0,9.725,10.746,10.414,10.414,0,0,0,11.1-10.392Z" transform="translate(2.112 2.399)" fill="#ffddce"/>
      <path id="Trazado_124944" data-name="Trazado 124944" d="M58.976,2.009c-9.828,0-18.069,5.142-20.242,12.015A16.923,16.923,0,0,0,5.6,18.932V45.709A9.1,9.1,0,0,0,3,52.1V71a3.917,3.917,0,0,0,3.905,3.905H9.144l-.9,3.593a1.33,1.33,0,0,0,.234,1.12,1.3,1.3,0,0,0,1.028.495H36.846a1.28,1.28,0,0,0,1.054-.547,1.3,1.3,0,0,0,.182-1.172l-.729-2.187H52.467a1.3,1.3,0,0,0,1.3-1.3V71h2.6a1.3,1.3,0,0,0,1.3-1.3V63.192a1.3,1.3,0,0,0-1.3-1.3h-2.6V51.476a1.3,1.3,0,0,0-1.3-1.3H41.832a9.162,9.162,0,0,0-2.382-4.413V23.085a17.142,17.142,0,0,0,7.811,7.459v6.613a1.272,1.272,0,0,0,.716,1.159,1.182,1.182,0,0,0,.586.143,1.339,1.339,0,0,0,.781-.26l6.808-5.1a27.35,27.35,0,0,0,2.825.156c11.482,0,20.828-7,20.828-15.621S70.458,2.009,58.976,2.009ZM39.15,50.174H34.242a1.3,1.3,0,0,0-1.3,1.3V64.494h-2.6a1.3,1.3,0,0,0-1.3-1.3H26.913L25.2,50.526l.456-.6,2.46,2.473a1.311,1.311,0,0,0,.924.378,1.942,1.942,0,0,0,.273-.026,1.316,1.316,0,0,0,.95-.82l2.5-6.691,2.044.612a6.54,6.54,0,0,1,4.348,4.322ZM32.941,67.1V71h-2.6V67.1ZM22.357,51.476H22.7l1.588,11.716H20.769Zm-1.093-3.411L22.526,46.8l1.263,1.263-.612.807h-1.3Zm1.263-4.491-5.116-1.914A7.723,7.723,0,0,0,18.6,37.769a11.134,11.134,0,0,0,3.163.664c.26.013.521.026.781.026a11.7,11.7,0,0,0,3.918-.677,7.68,7.68,0,0,0,1.185,3.879Zm-2.343,1.9L16.525,49.12l-1.809-4.856c.273-.169.56-.338.82-.534ZM13.414,26.391V18.932a1.3,1.3,0,0,1,1.3-1.3H19a7.486,7.486,0,0,0,6.261-3.424,7.434,7.434,0,0,0,3.4.82h1.679a1.3,1.3,0,0,1,1.3,1.3V26.743a9.092,9.092,0,0,1-9.711,9.086,9.306,9.306,0,0,1-8.514-9.438ZM29.491,43.744l-.013-.052a7.581,7.581,0,0,0,.859.573L28.528,49.12,24.87,45.475ZM8.207,18.932a14.319,14.319,0,0,1,28.639,0V43.861a9.135,9.135,0,0,0-1.289-.508l-2.812-.846a5.178,5.178,0,0,1-3.71-4.986V36.48a12.834,12.834,0,0,0,1.51-1.185,11.811,11.811,0,0,0,3.7-8.553V16.328a3.917,3.917,0,0,0-3.905-3.905H28.658a4.923,4.923,0,0,1-3.085-1.107,1.291,1.291,0,0,0-1.159-.26,1.367,1.367,0,0,0-.885.807A4.869,4.869,0,0,1,19,15.027H14.716a3.917,3.917,0,0,0-3.905,3.905v7.459a12.2,12.2,0,0,0,5.207,10.024v1.107a5.178,5.178,0,0,1-3.71,4.986L9.5,43.353a11.039,11.039,0,0,0-1.289.508Zm7.98,58.579H11.175l.651-2.6h4.712Zm2.63,0,.351-2.6h6.717l.351,2.6ZM27.734,72.3H6.905A1.3,1.3,0,0,1,5.6,71V52.1a6.475,6.475,0,0,1,4.647-6.248l2.044-.612,2.5,6.691a1.316,1.316,0,0,0,.95.82,1.943,1.943,0,0,0,.273.026,1.311,1.311,0,0,0,.924-.378l2.46-2.473.456.6L18.14,63.192H13.414V56.683h-2.6v7.811a1.3,1.3,0,0,0,1.3,1.3H27.734Zm1.133,5.207-.351-2.6h.521a1.3,1.3,0,0,0,1.3-1.3h2.6v1.3a1.3,1.3,0,0,0,1.3,1.3h.364l.43,1.3Zm23.6-13.018h2.6V68.4h-2.6a1.3,1.3,0,0,1-1.3-1.3V65.8A1.3,1.3,0,0,1,52.467,64.494Zm-1.3-11.716v9.347a3.918,3.918,0,0,0-2.6,3.671v1.3a3.918,3.918,0,0,0,2.6,3.671v2.838H35.544V52.778Zm7.811-22.13a25.841,25.841,0,0,1-3.033-.2,1.317,1.317,0,0,0-.937.247l-5.142,3.853v-4.83a1.29,1.29,0,0,0-.755-1.172c-5.233-2.434-8.357-6.509-8.357-10.922,0-7.173,8.175-13.018,18.225-13.018S77.2,10.457,77.2,17.63,69.026,30.648,58.976,30.648Z" transform="translate(0 0)"/>
      <path id="Trazado_124945" data-name="Trazado 124945" d="M15.3,19.905a1.3,1.3,0,0,0,1.3-1.3V17.3a1.3,1.3,0,1,0-2.6,0v1.3A1.3,1.3,0,0,0,15.3,19.905Z" transform="translate(3.319 4.234)"/>
      <path id="Trazado_124946" data-name="Trazado 124946" d="M21.3,16A1.3,1.3,0,0,0,20,17.3v1.3a1.3,1.3,0,1,0,2.6,0V17.3A1.3,1.3,0,0,0,21.3,16Z" transform="translate(5.13 4.234)"/>
      <path id="Trazado_124947" data-name="Trazado 124947" d="M19.207,24.3c-1.589,0-2.6-.771-2.6-1.3H14c0,2.19,2.287,3.905,5.207,3.905S24.414,25.19,24.414,23h-2.6C21.811,23.531,20.8,24.3,19.207,24.3Z" transform="translate(3.319 6.346)"/>
      <path id="Trazado_124948" data-name="Trazado 124948" d="M38,9h5.207v2.6H38Z" transform="translate(10.562 2.121)"/>
      <path id="Trazado_124949" data-name="Trazado 124949" d="M44,9H58.319v2.6H44Z" transform="translate(12.372 2.121)"/>
      <path id="Trazado_124950" data-name="Trazado 124950" d="M38,13h7.811v2.6H38Z" transform="translate(10.562 3.328)"/>
      <path id="Trazado_124951" data-name="Trazado 124951" d="M46,13H57.716v2.6H46Z" transform="translate(12.976 3.328)"/>
      <path id="Trazado_124952" data-name="Trazado 124952" d="M38,17H60.13v2.6H38Z" transform="translate(10.562 4.536)"/>
    </g>
  </g>
</svg>
