<svg xmlns="http://www.w3.org/2000/svg" width="134" height="134" viewBox="0 0 134 134">
  <g id="Grupo_96164" data-name="Grupo 96164" transform="translate(-313 -900)">
    <path id="Trazado_129381" data-name="Trazado 129381" d="M67,0A67,67,0,1,1,0,67,67,67,0,0,1,67,0Z" transform="translate(313 900)" fill="#764cf0"/>
    <g id="Fill_out_line" data-name="Fill out line" transform="translate(327 910)">
      <path id="Trazado_128707" data-name="Trazado 128707" d="M244.6,38.866,229.731,24H200V87.179h44.6Z" transform="translate(-155.508 -6.761)" fill="#f0de9c"/>
      <path id="Trazado_128708" data-name="Trazado 128708" d="M392,24V38.866h14.866Z" transform="translate(-317.776 -6.761)" fill="#f0c033"/>
      <path id="Trazado_128709" data-name="Trazado 128709" d="M152,384h7.433v7.433H152Z" transform="translate(-114.941 -311.015)" fill="#c6d6e2"/>
      <circle id="Elipse_6640" data-name="Elipse 6640" cx="23.5" cy="23.5" r="23.5" transform="translate(17 28)" fill="#37a0c5"/>
      <path id="Trazado_128710" data-name="Trazado 128710" d="M136,432h12.388v18.582H136Z" transform="translate(-101.418 -351.582)" fill="#37a0c5"/>
      <ellipse id="Elipse_6641" data-name="Elipse 6641" cx="18.5" cy="19" rx="18.5" ry="19" transform="translate(22 33)" fill="#8ccee9"/>
      <path id="Trazado_128711" data-name="Trazado 128711" d="M238.712,31.228,223.846,16.363A1.239,1.239,0,0,0,222.97,16H193.239A1.239,1.239,0,0,0,192,17.239v7.433h2.478V18.477h27.254V32.1a1.239,1.239,0,0,0,1.239,1.239H236.6V79.179H199.433v2.478h38.4a1.239,1.239,0,0,0,1.239-1.239V32.1a1.239,1.239,0,0,0-.363-.876Zm-14.5-11,10.636,10.636H224.209Z" transform="translate(-148.746)"/>
      <path id="Trazado_128712" data-name="Trazado 128712" d="M288,104h2.478v2.478H288Z" transform="translate(-229.881 -74.373)"/>
      <path id="Trazado_128713" data-name="Trazado 128713" d="M336,168h2.478v2.478H336Z" transform="translate(-270.448 -128.463)"/>
      <path id="Trazado_128714" data-name="Trazado 128714" d="M368,168h7.433v2.478H368Z" transform="translate(-297.493 -128.463)"/>
      <path id="Trazado_128715" data-name="Trazado 128715" d="M432,168h4.955v2.478H432Z" transform="translate(-351.582 -128.463)"/>
      <path id="Trazado_128716" data-name="Trazado 128716" d="M336,200h7.433v2.478H336Z" transform="translate(-270.448 -155.508)"/>
      <path id="Trazado_128717" data-name="Trazado 128717" d="M400,200h9.91v2.478H400Z" transform="translate(-324.538 -155.508)"/>
      <path id="Trazado_128718" data-name="Trazado 128718" d="M352,232h7.433v2.478H352Z" transform="translate(-283.97 -182.552)"/>
      <path id="Trazado_128719" data-name="Trazado 128719" d="M416,232h7.433v2.478H416Z" transform="translate(-338.06 -182.552)"/>
      <path id="Trazado_128720" data-name="Trazado 128720" d="M384,264h12.388v2.478H384Z" transform="translate(-311.015 -209.597)"/>
      <path id="Trazado_128721" data-name="Trazado 128721" d="M368,320h7.433v2.478H368Z" transform="translate(-297.493 -256.926)"/>
      <path id="Trazado_128722" data-name="Trazado 128722" d="M368,352h7.433v2.478H368Z" transform="translate(-297.493 -283.97)"/>
      <path id="Trazado_128723" data-name="Trazado 128723" d="M46.97,140.03H45.731v-2.976a24.851,24.851,0,0,0,19.323-19.323h5.453v-2.478H65.428q.122-1.223.124-2.478a24.776,24.776,0,1,0-29.731,24.278v2.976H34.582a1.239,1.239,0,0,0-1.239,1.239v9.91h2.478v-8.672h9.91v8.672h2.478v-9.91a1.239,1.239,0,0,0-1.239-1.239ZM18.477,112.776a22.3,22.3,0,1,1,22.3,22.3A22.324,22.324,0,0,1,18.477,112.776ZM38.3,137.429q1.223.122,2.478.124a24.649,24.649,0,0,0,2.478-.124v2.6H38.3Z" transform="translate(0 -60.851)"/>
      <path id="Trazado_128724" data-name="Trazado 128724" d="M87.642,139.821a19.821,19.821,0,1,0-19.821,19.821,19.821,19.821,0,0,0,19.821-19.821Zm-37.164,0a17.343,17.343,0,1,1,17.343,17.343A17.343,17.343,0,0,1,50.478,139.821Z" transform="translate(-27.045 -87.896)"/>
      <path id="Trazado_128725" data-name="Trazado 128725" d="M112,176h4.955v2.478H112Z" transform="translate(-81.135 -135.224)"/>
      <path id="Trazado_128726" data-name="Trazado 128726" d="M160,176h7.433v2.478H160Z" transform="translate(-121.702 -135.224)"/>
      <path id="Trazado_128727" data-name="Trazado 128727" d="M224,176h4.955v2.478H224Z" transform="translate(-175.791 -135.224)"/>
      <path id="Trazado_128728" data-name="Trazado 128728" d="M80,208h7.433v2.478H80Z" transform="translate(-54.09 -162.269)"/>
      <path id="Trazado_128729" data-name="Trazado 128729" d="M144,208h9.91v2.478H144Z" transform="translate(-108.179 -162.269)"/>
      <path id="Trazado_128730" data-name="Trazado 128730" d="M224,208h7.433v2.478H224Z" transform="translate(-175.791 -162.269)"/>
      <path id="Trazado_128731" data-name="Trazado 128731" d="M80,240H92.388v2.478H80Z" transform="translate(-54.09 -189.314)"/>
      <path id="Trazado_128732" data-name="Trazado 128732" d="M176,240h7.433v2.478H176Z" transform="translate(-135.224 -189.314)"/>
      <path id="Trazado_128733" data-name="Trazado 128733" d="M240,240h4.955v2.478H240Z" transform="translate(-189.314 -189.314)"/>
      <path id="Trazado_128734" data-name="Trazado 128734" d="M80,272h7.433v2.478H80Z" transform="translate(-54.09 -216.358)"/>
      <path id="Trazado_128735" data-name="Trazado 128735" d="M144,272h9.91v2.478H144Z" transform="translate(-108.179 -216.358)"/>
      <path id="Trazado_128736" data-name="Trazado 128736" d="M224,272h7.433v2.478H224Z" transform="translate(-175.791 -216.358)"/>
      <path id="Trazado_128737" data-name="Trazado 128737" d="M112,304h7.433v2.478H112Z" transform="translate(-81.135 -243.403)"/>
      <path id="Trazado_128738" data-name="Trazado 128738" d="M176,304h9.91v2.478H176Z" transform="translate(-135.224 -243.403)"/>
    </g>
  </g>
</svg>
