<svg xmlns="http://www.w3.org/2000/svg" width="134" height="134" viewBox="0 0 134 134">
  <g id="Grupo_96616" data-name="Grupo 96616" transform="translate(-733 -900)">
    <circle id="Elipse_5865" data-name="Elipse 5865" cx="67" cy="67" r="67" transform="translate(733 900)" fill="#764cf0"/>
    <g id="palabra-clave" transform="translate(748.73 930)">
      <g id="Grupo_96169" data-name="Grupo 96169" transform="translate(17.358 1.088)">
        <path id="Trazado_129366" data-name="Trazado 129366" d="M79.043,20.224V77.867a1.716,1.716,0,0,1-1.716,1.716H29.176l-1.269-.366A1.716,1.716,0,0,1,26.191,77.5L26.65,9.816A1.716,1.716,0,0,1,28.366,8.1l.81-.6H66.319a1.72,1.72,0,0,1,.711.154l11.86,11.86a1.725,1.725,0,0,1,.154.711Z" transform="translate(-25.84 -7.5)" fill="#f2fbff"/>
        <path id="Trazado_129367" data-name="Trazado 129367" d="M27.106,7.5V79.583h-1.62a1.716,1.716,0,0,1-1.716-1.716V9.216A1.716,1.716,0,0,1,25.486,7.5Z" transform="translate(-23.77 -7.5)" fill="#dfeef4"/>
        <path id="Trazado_129368" data-name="Trazado 129368" d="M319.63,20.42H309.486A1.715,1.715,0,0,1,307.77,18.7V8.56a1.715,1.715,0,0,1,.5.35l11.008,11.008a1.722,1.722,0,0,1,.348.5Z" transform="translate(-266.58 -8.406)" fill="#dfeef4"/>
        <path id="Trazado_129369" data-name="Trazado 129369" d="M126.116,103a14.448,14.448,0,0,0-9.683,4.01,7.27,7.27,0,0,1-.516.685c-2.32,2.515-3.11,5.759-3.189,9.41a14.169,14.169,0,0,0,2.891,8.531.578.578,0,0,1,.107.334l-.33,8.1a.58.58,0,0,0,.877.5l6.164-3.46a.581.581,0,0,1,.437-.063,13.612,13.612,0,0,0,3.388.333,14.145,14.145,0,0,0,10.091-3.814c.7-.689,2.09-1.977,2.09-1.977A14.481,14.481,0,0,0,126.116,103Z" transform="translate(-99.824 -89.149)" fill="#c8effe"/>
        <path id="Trazado_129370" data-name="Trazado 129370" d="M133.708,149.251a14.487,14.487,0,0,1-15.5,5.994.583.583,0,0,0-.437.064l-6.949,4.132a.581.581,0,0,1-.877-.5v-9.079a.579.579,0,0,0-.107-.335,14.472,14.472,0,0,1,1.855-18.856,14.59,14.59,0,0,0,22.01,18.579Z" transform="translate(-95.088 -112.808)" fill="#99e6fc"/>
        <g id="Grupo_96168" data-name="Grupo 96168" transform="translate(29.422 26.59)">
          <path id="Trazado_129371" data-name="Trazado 129371" d="M238.548,387.339l-1.074,4.574a2.913,2.913,0,0,1-.334.207l-4.076,2.158-2.812,1.218c-.379.2-.478-.2-.278-.574L233.5,388.2c.073-.135-.045-.395-.045-.395l4.51-1.056A.58.58,0,0,1,238.548,387.339Z" transform="translate(-229.404 -358.337)" fill="#87807f"/>
          <path id="Trazado_129372" data-name="Trazado 129372" d="M285.027,216.287l-26.066,26.065a2.8,2.8,0,0,1-.361.306l.045-3.519a.58.58,0,0,0-.58-.587h-3.481l14.532-12.318,11.8-14.057,3.118,1.341Z" transform="translate(-250.53 -209.082)" fill="#ffe177"/>
          <path id="Trazado_129373" data-name="Trazado 129373" d="M440.718,197.127l1.151.143,1.061,1.061a1.453,1.453,0,0,1,0,2.055l-2.67,2.67-4.109-4.109,2.513-1.82A1.452,1.452,0,0,1,440.718,197.127Z" transform="translate(-405.763 -195.85)" fill="#fe99a0"/>
          <path id="Trazado_129374" data-name="Trazado 129374" d="M234.544,387.947l-1.6,1.6a2.9,2.9,0,0,0-.513.695l-2.135,4.033-3.02,1.6a.436.436,0,0,1-.589-.589l3.756-7.1a3.039,3.039,0,0,1,.245-.386l3.563-1.056C234.392,386.751,234.544,387.947,234.544,387.947Z" transform="translate(-226.632 -358.336)" fill="#766e6e"/>
          <path id="Trazado_129375" data-name="Trazado 129375" d="M282.937,214.2l-24.5,24.5a.571.571,0,0,0-.377-.141h-3.481a3.012,3.012,0,0,1,.268-.309l26.065-26.066,2.02.206V214.2Z" transform="translate(-250.53 -209.082)" fill="#ffd15b"/>
          <path id="Trazado_129376" data-name="Trazado 129376" d="M441.865,192.253l-3.7,3.7-2.02-2.02,2.672-2.67a1.452,1.452,0,0,1,2.054,0Z" transform="translate(-405.759 -190.835)" fill="#fd8087"/>
        </g>
      </g>
      <g id="Grupo_96170" data-name="Grupo 96170" transform="translate(16.27 0)">
        <path id="Trazado_129377" data-name="Trazado 129377" d="M32.185,167.233H19.074a.629.629,0,0,1-.629-.628V112.379a1.088,1.088,0,0,0-2.176,0V166.6a2.807,2.807,0,0,0,2.8,2.8H32.185a1.088,1.088,0,1,0,0-2.176Z" transform="translate(-16.27 -95.15)"/>
        <path id="Trazado_129378" data-name="Trazado 129378" d="M168.851,54.242a1.088,1.088,0,0,0,0-2.176H155.808a1.088,1.088,0,0,0,0,2.176Z" transform="translate(-134.64 -44.515)"/>
        <path id="Trazado_129379" data-name="Trazado 129379" d="M85.066,29.041l-2.054-2.055a2.544,2.544,0,0,0-3.593,0l-7.768,7.768V13.812a2.787,2.787,0,0,0-.821-1.983L59.821.821A2.786,2.786,0,0,0,57.838,0H19.075a2.807,2.807,0,0,0-2.8,2.8v9.349a1.088,1.088,0,0,0,2.176,0V2.8a.629.629,0,0,1,.629-.628H57.461v9.21a2.807,2.807,0,0,0,2.8,2.8h9.21v22.74L59.25,47.154H36.178l4.246-2.524a15.683,15.683,0,0,0,7.939-.227,1.088,1.088,0,1,0-.613-2.087,13.506,13.506,0,0,1-7.221.1,1.088,1.088,0,0,0-.833.117l-6.388,3.8V37.958a1.087,1.087,0,0,0-.208-.639,13.416,13.416,0,1,1,18.85,2.9,1.088,1.088,0,1,0,1.3,1.747,15.582,15.582,0,0,0,3.9-4.222H63.7a1.088,1.088,0,0,0,0-2.176h-5.41a15.644,15.644,0,0,0,1.057-3.617H63.7a1.088,1.088,0,0,0,0-2.176H59.547c0-.112.005-.223.005-.335A15.592,15.592,0,0,0,59.2,26.16H63.7a1.088,1.088,0,0,0,0-2.176H58.565a15.568,15.568,0,0,0-1.934-3.617H63.7a1.088,1.088,0,0,0,0-2.176H54.744a15.563,15.563,0,0,0-21.567,0H24.224a1.088,1.088,0,0,0,0,2.176H31.29a15.566,15.566,0,0,0-1.934,3.617H24.224a1.088,1.088,0,1,0,0,2.176h4.494a16.27,16.27,0,0,0-.342,3.617H24.224a1.088,1.088,0,0,0,0,2.176h4.348a15.408,15.408,0,0,0,1.049,3.617h-5.4a1.088,1.088,0,1,0,0,2.176h6.54c.119.189.241.376.369.56v3.057H24.224a1.088,1.088,0,1,0,0,2.176h6.909v3.617H24.224a1.088,1.088,0,0,0,0,2.176h32.85l-3.617,3.617H24.224a1.088,1.088,0,1,0,0,2.176H51.282l-.687.687a4,4,0,0,0-.705.955l-1.045,1.974H24.224a1.088,1.088,0,1,0,0,2.176H47.692l-1.915,3.617H24.224a1.088,1.088,0,1,0,0,2.176H63.7a1.088,1.088,0,1,0,0-2.176H50.812l4.475-2.369a3.983,3.983,0,0,0,.956-.705l.542-.542H63.7a1.088,1.088,0,0,0,0-2.176H58.96L69.475,48.224v23.23a.629.629,0,0,1-.629.628H37.262a1.088,1.088,0,0,0,0,2.176H68.847a2.807,2.807,0,0,0,2.8-2.8V46.048l3.985-3.985A1.088,1.088,0,0,0,74.1,40.526L56.233,58.389l.019-1.488a1.087,1.087,0,0,0-.319-.783,1.065,1.065,0,0,0-.783-.318l-1.488.019L77.517,31.964l2.571,2.571-2.4,2.4a1.088,1.088,0,1,0,1.538,1.538l5.839-5.839a2.54,2.54,0,0,0,0-3.593ZM59.637,11.385V3.714l8.3,8.3H60.265A.629.629,0,0,1,59.637,11.385Zm-5.6,48.98L49.048,63l2.639-4.984,2.376-.03ZM83.527,31.1l-1.9,1.9-2.571-2.571,1.9-1.9a.365.365,0,0,1,.516,0l2.055,2.055a.365.365,0,0,1,0,.516Z" transform="translate(-16.271 0)"/>
        <path id="Trazado_129380" data-name="Trazado 129380" d="M148.971,182.461a1.088,1.088,0,0,0,1.088-1.088v-.943h1.45v2.393a1.088,1.088,0,1,0,2.176,0v-3.481a1.088,1.088,0,0,0-1.088-1.088H140.924a4.013,4.013,0,1,0,0,2.176h3.333v2.393a1.088,1.088,0,0,0,2.176,0v-2.393h1.45v.943A1.088,1.088,0,0,0,148.971,182.461Zm-11.908-1.281a1.838,1.838,0,1,1,1.838-1.838A1.84,1.84,0,0,1,137.062,181.181Z" transform="translate(-116.112 -149.901)"/>
      </g>
    </g>
  </g>
</svg>
