<svg xmlns="http://www.w3.org/2000/svg" width="134" height="134" viewBox="0 0 134 134">
  <g id="Grupo_96617" data-name="Grupo 96617" transform="translate(-1153 -900)">
    <circle id="Elipse_5866" data-name="Elipse 5866" cx="67" cy="67" r="67" transform="translate(1153 900)" fill="#764cf0"/>
    <g id="palabras-clave_1_" data-name="palabras-clave (1)" transform="translate(1171 918)">
      <g id="Grupo_96167" data-name="Grupo 96167" transform="translate(16 16)">
        <g id="Grupo_96165" data-name="Grupo 96165" transform="translate(0.742 15.202)">
          <path id="Trazado_129349" data-name="Trazado 129349" d="M186.4,419H160v-1.318a2.75,2.75,0,0,1,1.88-2.609l.959-.32a5.5,5.5,0,0,0,3.761-5.218V408h13.2v1.536a5.5,5.5,0,0,0,3.761,5.218l.959.32a2.75,2.75,0,0,1,1.88,2.609Z" transform="translate(-140.942 -369.302)" fill="#24afd6"/>
          <rect id="Rect치ngulo_35556" data-name="Rect치ngulo 35556" width="64.516" height="38.932" rx="10" transform="translate(0 0)" fill="#ecfbf9"/>
          <path id="Trazado_129350" data-name="Trazado 129350" d="M24,336H87.8v8.525a1.375,1.375,0,0,1-1.375,1.375H25.375A1.375,1.375,0,0,1,24,344.525Z" transform="translate(-23.642 -307.202)" fill="#57cee6"/>
        </g>
        <g id="Grupo_96166" data-name="Grupo 96166" transform="translate(0 0)">
          <path id="Trazado_129351" data-name="Trazado 129351" d="M56,24h55V70.2H56Z" transform="translate(-50.5 -22.9)" fill="#fffdfa"/>
          <path id="Trazado_129352" data-name="Trazado 129352" d="M56,24h55v6.6H56Z" transform="translate(-50.5 -22.9)" fill="#fac850"/>
          <path id="Trazado_129353" data-name="Trazado 129353" d="M416,40h2.2v2.2H416Z" transform="translate(-361 -36.7)"/>
          <path id="Trazado_129354" data-name="Trazado 129354" d="M144,40h2.2v2.2H144Z" transform="translate(-126.4 -36.7)"/>
          <path id="Trazado_129355" data-name="Trazado 129355" d="M80,40h2.2v2.2H80Z" transform="translate(-71.2 -36.7)"/>
          <path id="Trazado_129356" data-name="Trazado 129356" d="M112,40h2.2v2.2H112Z" transform="translate(-98.8 -36.7)"/>
          <rect id="Rect치ngulo_35557" data-name="Rect치ngulo 35557" width="31.146" height="8.899" rx="4.449" transform="translate(17.427 11.865)" fill="#c85aed"/>
          <path id="Trazado_129357" data-name="Trazado 129357" d="M144,200h30.8v17.6H144Z" transform="translate(-126.4 -174.7)" fill="#c85aed"/>
          <path id="Trazado_129358" data-name="Trazado 129358" d="M168,224h5.5v2.2H168Z" transform="translate(-147.1 -195.4)"/>
          <path id="Trazado_129359" data-name="Trazado 129359" d="M224,224h7.7v2.2H224Z" transform="translate(-195.4 -195.4)"/>
          <path id="Trazado_129360" data-name="Trazado 129360" d="M168,256h3.3v2.2H168Z" transform="translate(-147.1 -223)"/>
          <path id="Trazado_129361" data-name="Trazado 129361" d="M208,256h9.9v2.2H208Z" transform="translate(-181.6 -223)"/>
          <path id="Trazado_129362" data-name="Trazado 129362" d="M168,288h13.2v2.2H168Z" transform="translate(-147.1 -250.6)"/>
          <path id="Trazado_129363" data-name="Trazado 129363" d="M168,120h2.2v4.4H168Z" transform="translate(-147.1 -105.7)"/>
          <path id="Trazado_129364" data-name="Trazado 129364" d="M79.525,30.3H77.6V17.1A1.1,1.1,0,0,0,76.5,16H33.6v2.2H75.4v4.4H22.6V18.2h8.8V16H21.5a1.1,1.1,0,0,0-1.1,1.1V30.3H18.475A2.478,2.478,0,0,0,16,32.775v35.75A2.478,2.478,0,0,0,18.475,71H41.3v.436a4.394,4.394,0,0,1-3.008,4.174l-.959.32A3.845,3.845,0,0,0,34.7,79.582V80.9A1.1,1.1,0,0,0,35.8,82H62.2a1.1,1.1,0,0,0,1.1-1.1V79.582a3.845,3.845,0,0,0-2.633-3.652l-.959-.32A4.394,4.394,0,0,1,56.7,71.436V71h8.8V68.8H18.475a.275.275,0,0,1-.275-.275V61.1h2.2v2.2a1.1,1.1,0,0,0,1.1,1.1h55a1.1,1.1,0,0,0,1.1-1.1V61.1h2.2v7.425a.275.275,0,0,1-.275.275H67.7V71H79.525A2.478,2.478,0,0,0,82,68.525V32.775A2.478,2.478,0,0,0,79.525,30.3ZM54.5,71v.436A6.591,6.591,0,0,0,59.013,77.7l.959.32A1.648,1.648,0,0,1,61.1,79.582V79.8H36.9v-.218a1.648,1.648,0,0,1,1.128-1.565l.959-.32A6.592,6.592,0,0,0,43.5,71.436V71ZM20.4,58.9H18.2V32.775a.275.275,0,0,1,.275-.275H20.4Zm55,3.3H22.6V24.8H75.4Zm4.4-3.3H77.6V32.5h1.925a.275.275,0,0,1,.275.275Z" transform="translate(-16 -16)"/>
        </g>
      </g>
      <circle id="Elipse_6702" data-name="Elipse 6702" cx="4.449" cy="4.449" r="4.449" transform="translate(57.899 33.427)" fill="#fac850"/>
      <path id="Trazado_129365" data-name="Trazado 129365" d="M175.066,111.557l-4.246-2.548A5.5,5.5,0,0,0,169,102.6V99.85A3.854,3.854,0,0,0,165.15,96h-25.3A3.854,3.854,0,0,0,136,99.85v3.3a3.854,3.854,0,0,0,3.85,3.85H160.2a5.468,5.468,0,0,0,.459,2.2H137.1a1.1,1.1,0,0,0-1.1,1.1v17.6a1.1,1.1,0,0,0,1.1,1.1h30.8a1.1,1.1,0,0,0,1.1-1.1V111.4a5.523,5.523,0,0,0,.619-.543l4.315,2.589ZM169,107a3.3,3.3,0,1,1-3.3-3.3A3.3,3.3,0,0,1,169,107Zm-29.15-2.2a1.652,1.652,0,0,1-1.65-1.65v-3.3a1.652,1.652,0,0,1,1.65-1.65h25.3a1.652,1.652,0,0,1,1.65,1.65v1.76a5.5,5.5,0,0,0-6.141,3.19Zm26.95,22H138.2V111.4h24.2v0a5.5,5.5,0,0,0,4.4.992Z" transform="translate(-103.5 -69)"/>
    </g>
  </g>
</svg>
