<svg xmlns="http://www.w3.org/2000/svg" xmlns:xlink="http://www.w3.org/1999/xlink" width="205.779" height="147.241" viewBox="0 0 205.779 147.241">
  <defs>
    <clipPath id="clip-path">
      <path id="Trazado_123237" data-name="Trazado 123237" d="M314.532,24.779H167.783l-.746,123.259h146.75Z" transform="translate(-167.037 -24.779)" fill="none"/>
    </clipPath>
    <clipPath id="clip-path-2">
      <path id="Trazado_123221" data-name="Trazado 123221" d="M331.567,114.764c-2.8,7-8.619,28.057-10.27,28.332-6.147.826-21.727,7.628-24.3,6.527l.79,4.638a54.613,54.613,0,0,0-10.718-6.657l-11.742-.517c-5.483,1.944-13.841,6.442-17.053,10.8h0c-3.729,3.012-18.751,28.495-16.745,36.949,1.713,7.218,20.524,22.51,23.367,23.245,3.249.839,10.163-4.632,12.655-9.477,10.424.5,21.244-.329,21.355-2.846.142-3.221.293-6.65.555-12.572.116-2.666,1.357-8.339,2.538-14.225,2.193-7.494,27.666-17.832,30.052-21.074s14.776-33.705,15.62-37.6S334.241,108.077,331.567,114.764Z" transform="translate(-241.349 -112.246)" fill="none"/>
    </clipPath>
  </defs>
  <g id="Grupo_95684" data-name="Grupo 95684" transform="translate(-70.688 -24.779)">
    <g id="Grupo_95265" data-name="Grupo 95265" transform="translate(70.688 43.861)">
      <path id="Trazado_123128" data-name="Trazado 123128" d="M439.055,165.692a48.621,48.621,0,1,0,48.621,48.62A48.621,48.621,0,0,0,439.055,165.692Z" transform="translate(-281.897 -136.941)" fill="#69cdff" opacity="0.5"/>
      <path id="Trazado_123129" data-name="Trazado 123129" d="M604.488,114.957a6.582,6.582,0,1,1-6.582-6.582A6.582,6.582,0,0,1,604.488,114.957Z" transform="translate(-414.597 -99.08)" fill="#69cdff" opacity="0.5"/>
      <path id="Trazado_123130" data-name="Trazado 123130" d="M88.958,391.129a5.873,5.873,0,1,1-5.873-5.873A5.873,5.873,0,0,1,88.958,391.129Z" transform="translate(-74.997 -281.975)" fill="#69cdff"/>
      <path id="Trazado_123131" data-name="Trazado 123131" d="M642.676,91.076a5.1,5.1,0,1,1-5.1-5.1A5.1,5.1,0,0,1,642.676,91.076Z" transform="translate(-441.776 -84.282)" fill="#69cdff"/>
      <path id="Trazado_123132" data-name="Trazado 123132" d="M99.584,203.446a29.681,29.681,0,1,0,30.456,28.885A29.681,29.681,0,0,0,99.584,203.446Z" transform="translate(-70.688 -161.873)" fill="#69cdff" opacity="0.4"/>
      <g id="Grupo_95257" data-name="Grupo 95257" transform="translate(10.219)">
        <path id="Trazado_123133" data-name="Trazado 123133" d="M103.4,88.3h-2.61l4.13-7.311h2.61Z" transform="translate(-100.791 -80.993)" fill="#2993e2"/>
        <path id="Trazado_123134" data-name="Trazado 123134" d="M117.174,88.3h-2.61l4.13-7.311h2.61Z" transform="translate(-109.889 -80.993)" fill="#2993e2"/>
        <path id="Trazado_123135" data-name="Trazado 123135" d="M130.946,88.3h-2.61l4.13-7.311h2.61Z" transform="translate(-118.986 -80.993)" fill="#2993e2"/>
      </g>
      <g id="Grupo_95258" data-name="Grupo 95258" transform="translate(149.603 110.661)">
        <path id="Trazado_123136" data-name="Trazado 123136" d="M514.657,416.083h-3.244L516.546,407h3.244Z" transform="translate(-511.413 -406.998)" fill="#2993e2"/>
        <path id="Trazado_123137" data-name="Trazado 123137" d="M531.774,416.083H528.53L533.663,407h3.244Z" transform="translate(-522.72 -406.998)" fill="#2993e2"/>
        <path id="Trazado_123138" data-name="Trazado 123138" d="M548.891,416.083h-3.244L550.779,407h3.244Z" transform="translate(-534.026 -406.998)" fill="#2993e2"/>
        <path id="Trazado_123139" data-name="Trazado 123139" d="M566.008,416.083h-3.244L567.9,407h3.245Z" transform="translate(-545.333 -406.998)" fill="#2993e2"/>
        <path id="Trazado_123140" data-name="Trazado 123140" d="M583.126,416.083h-3.245L585.013,407h3.244Z" transform="translate(-556.64 -406.998)" fill="#2993e2"/>
      </g>
      <rect id="Rectángulo_35222" data-name="Rectángulo 35222" width="7.977" height="2.379" transform="translate(1.637 5.646) rotate(-45.003)" fill="#2993e2"/>
      <rect id="Rectángulo_35223" data-name="Rectángulo 35223" width="2.379" height="7.977" transform="matrix(0.707, -0.707, 0.707, 0.707, 1.637, 1.688)" fill="#2993e2"/>
      <g id="Grupo_95260" data-name="Grupo 95260" transform="translate(189.256 21.631)">
        <g id="Grupo_95259" data-name="Grupo 95259">
          <path id="Trazado_123141" data-name="Trazado 123141" d="M642.448,154.145a1.1,1.1,0,0,0-1.556,1.543,4.825,4.825,0,0,1-.028,6.816,1.1,1.1,0,1,0,1.542,1.555A7.019,7.019,0,0,0,642.448,154.145Z" transform="translate(-636.362 -150.731)" fill="#2993e2"/>
          <path id="Trazado_123142" data-name="Trazado 123142" d="M651.511,161.162a11.414,11.414,0,0,0,.067-16.122,1.1,1.1,0,0,0-1.556,1.543,9.22,9.22,0,0,1-.054,13.024,1.1,1.1,0,1,0,1.542,1.555Z" transform="translate(-642.376 -144.716)" fill="#2993e2"/>
          <path id="Trazado_123143" data-name="Trazado 123143" d="M631.927,163.766a2.161,2.161,0,1,0-.013,3.057A2.165,2.165,0,0,0,631.927,163.766Z" transform="translate(-628.232 -156.878)" fill="#2993e2"/>
        </g>
      </g>
      <g id="Grupo_95263" data-name="Grupo 95263" transform="translate(1.637 13.356)">
        <g id="Grupo_95262" data-name="Grupo 95262">
          <g id="Grupo_95261" data-name="Grupo 95261">
            <path id="Trazado_123144" data-name="Trazado 123144" d="M89.451,122.556l-.965,0L87.1,120.6a.581.581,0,0,0-.475-.247l-5.535-.011a.586.586,0,0,0-.477.245l-1.39,1.951-.966,0a2.738,2.738,0,0,0-2.735,2.725L75.51,133.2a2.739,2.739,0,0,0,2.725,2.735l11.191.021a2.738,2.738,0,0,0,2.735-2.724l.015-7.941A2.738,2.738,0,0,0,89.451,122.556ZM83.836,133.2a4.023,4.023,0,1,1,4.031-4.016A4.023,4.023,0,0,1,83.836,133.2Z" transform="translate(-75.51 -120.34)" fill="#2993e2"/>
            <path id="Trazado_123145" data-name="Trazado 123145" d="M94.889,138.54a2.66,2.66,0,1,0,2.654,2.664A2.659,2.659,0,0,0,94.889,138.54Z" transform="translate(-86.55 -132.362)" fill="#2993e2"/>
          </g>
        </g>
      </g>
      <g id="Grupo_95264" data-name="Grupo 95264" transform="translate(183.658 107.494)">
        <path id="Trazado_123146" data-name="Trazado 123146" d="M619.691,401.42l-.023-3.2a.556.556,0,0,0-.56-.551,2.148,2.148,0,0,0-2.132,2.165l.012,1.534-3.518.026-.579,0a5.875,5.875,0,0,1-1.135,3.195,1.148,1.148,0,0,1,.015,2.027,1.156,1.156,0,0,1,.016,2.153,1.159,1.159,0,0,0,1.167,1.149l.579,0,5.213-.038.476,0a2.172,2.172,0,0,0,2.157-2.188l-.03-4.18A2.168,2.168,0,0,0,619.691,401.42Z" transform="translate(-611.739 -397.668)" fill="#2993e2"/>
        <path id="Trazado_123147" data-name="Trazado 123147" d="M644.965,410.955l-1.634.012a.808.808,0,0,0-.8.813l.038,5.171a.808.808,0,0,0,.813.8l1.635-.013a.806.806,0,0,0,.8-.812l-.038-5.172A.807.807,0,0,0,644.965,410.955Z" transform="translate(-632.077 -406.445)" fill="#2993e2"/>
      </g>
    </g>
    <g id="Grupo_95284" data-name="Grupo 95284" transform="translate(101.79 24.779)">
      <rect id="Rectángulo_35224" data-name="Rectángulo 35224" width="146.567" height="96.163" transform="translate(1.615 27.097)" fill="#69cdff"/>
      <rect id="Rectángulo_35225" data-name="Rectángulo 35225" width="144.101" height="1.726" transform="translate(2.897 29.608)" fill="#e2e2e2" style="mix-blend-mode: multiply;isolation: isolate"/>
      <rect id="Rectángulo_35226" data-name="Rectángulo 35226" width="30.295" height="3.161" transform="translate(109.559 19.203)" fill="#0b3356"/>
      <path id="Trazado_123148" data-name="Trazado 123148" d="M314.342,89.785l-2.766-5.137H171.1l-2.963,2.673v6.613H314.342Z" transform="translate(-166.16 -64.326)" fill="#0b3356"/>
      <g id="Grupo_95266" data-name="Grupo 95266" transform="translate(141.864 23.422)">
        <line id="Línea_191" data-name="Línea 191" x2="2.792" y2="2.79" transform="translate(0 0)" fill="none" stroke="#fff" stroke-linecap="round" stroke-miterlimit="10" stroke-width="3"/>
        <line id="Línea_192" data-name="Línea 192" x1="2.792" y2="2.791" fill="none" stroke="#fff" stroke-linecap="round" stroke-miterlimit="10" stroke-width="3"/>
      </g>
      <g id="Grupo_95272" data-name="Grupo 95272" transform="translate(1.603)">
        <g id="Grupo_95271" data-name="Grupo 95271" clip-path="url(#clip-path)">
          <path id="Trazado_123149" data-name="Trazado 123149" d="M498.789,262.1a25.574,25.574,0,1,0,25.575,25.574A25.574,25.574,0,0,0,498.789,262.1Zm0,39.2a13.629,13.629,0,1,1,13.63-13.629A13.629,13.629,0,0,1,498.789,301.306Z" transform="translate(-369.284 -181.544)" fill="#9b9b9b" opacity="0.4" style="mix-blend-mode: color-burn;isolation: isolate"/>
          <path id="Trazado_123150" data-name="Trazado 123150" d="M447.9,128.794a15.715,15.715,0,1,0,15.715,15.715A15.715,15.715,0,0,0,447.9,128.794Zm0,24.09a8.375,8.375,0,1,1,8.375-8.375A8.375,8.375,0,0,1,447.9,152.884Z" transform="translate(-342.182 -93.487)" fill="#9b9b9b" opacity="0.4" style="mix-blend-mode: color-burn;isolation: isolate"/>
          <path id="Trazado_123151" data-name="Trazado 123151" d="M124.708,194.742A17.387,17.387,0,1,0,142.1,212.129,17.387,17.387,0,0,0,124.708,194.742Zm0,26.653a9.266,9.266,0,1,1,9.266-9.267A9.267,9.267,0,0,1,124.708,221.4Z" transform="translate(-127.591 -137.049)" fill="#9b9b9b" opacity="0.4" style="mix-blend-mode: color-burn;isolation: isolate"/>
          <path id="Trazado_123152" data-name="Trazado 123152" d="M228.367,204.076c-2.831-7.291-2.227-27.329,16.322-51.89-3.69-13.8,1.692-35.795,11.384-40.181l16.9.409s16.9,48.348,13.423,91.662Z" transform="translate(-206.719 -82.397)" fill="#9b9b9b" opacity="0.4" style="mix-blend-mode: color-burn;isolation: isolate"/>
          <g id="Grupo_95270" data-name="Grupo 95270" transform="translate(25.109 4.262)">
            <path id="Trazado_123153" data-name="Trazado 123153" d="M519.92,55.062c-.259-1.661-1-3.033-.5-6.629.171-1.226-.022-1.3.1-2.315.064-.542.436-1.072.437-1.564,0-1.517-.172-1.369-.159-2.217.248-1.922,3.443,1.023,2.269,4.983.108,2.151.349,2.114.542,1.935a6.961,6.961,0,0,0,1.819-3.032c.369-1.065.6-3.1,1.061-4.245a18.936,18.936,0,0,1,1.363-3.32c.728-1.108,1.372-1.77,1.994-.968.192.247.1,1.134-.421,2.287-.385.86-.357,1.2-.771,2.283a30.7,30.7,0,0,0-.91,4.245c.06.038,1.041-2.383,2.383-4.845.492-.9.892-1.51,1.173-2.075.482-.965,1.255-1,1.46-.787.443.459.394,1.1-.161,2.44-.308.741-.777,1.651-1.238,2.56a20.684,20.684,0,0,0-1.581,3.552c.013.017.18.643.39.325.768-1.161,2.56-4.9,3.547-6.2.716-.939,1.169-.264,1.131.543a3.254,3.254,0,0,1-.562,1.694c-.221.349-.656,1.519-1.1,2.324-.569,1.033-1.326,2.415-1.305,2.48,0,.015.171.39.389.021.4-.669.915-1.861,1.592-2.911a5.181,5.181,0,0,1,.988-1.653c.336-.333.635-.013.714.216.221.646.141.924-.218,1.793-.282.68-.542,1.313-.7,1.6-.342.613-.868,1.606-1.16,2.211a30.148,30.148,0,0,0-1.35,2.924c-.78,2.195-3.348,5.353-4.851,6.989-.343,1.293-3.346,11.2-3.346,11.2s-7.257.342-6.646-1.68S519.206,57.92,519.92,55.062Z" transform="translate(-422.82 -37.336)" fill="#ffa383"/>
            <path id="Trazado_123154" data-name="Trazado 123154" d="M405.3,149.623c2.569,1.1,18.148-5.7,24.3-6.527,1.651-.275,7.471-21.336,10.27-28.332,2.674-6.687,16.949,1.633,16.108,5.516s-13.235,34.36-15.62,37.6S412.49,171.464,410.3,178.958" transform="translate(-349.531 -86.819)" fill="#ff692e"/>
            <path id="Trazado_123155" data-name="Trazado 123155" d="M515.042,104a24.018,24.018,0,0,0,2.876-5.627c.306-1.407,8.658,1.478,7.893,3.068a14.623,14.623,0,0,0-1.225,6.107C524.631,109.172,514.309,105.18,515.042,104Z" transform="translate(-421.998 -77.408)" fill="#ea4613"/>
            <path id="Trazado_123156" data-name="Trazado 123156" d="M539.769,113.274s.138-3.843,1.7-6.216" transform="translate(-438.356 -83.391)" fill="#9b9b9b" style="mix-blend-mode: color-burn;isolation: isolate"/>
            <path id="Trazado_123157" data-name="Trazado 123157" d="M536.855,111.652s.138-3.842,1.7-6.217" transform="translate(-436.431 -82.319)" fill="#9b9b9b" style="mix-blend-mode: color-burn;isolation: isolate"/>
            <path id="Trazado_123158" data-name="Trazado 123158" d="M533.024,110.571a12.8,12.8,0,0,1,1.926-6.216" transform="translate(-433.9 -81.606)" fill="#9b9b9b" style="mix-blend-mode: color-burn;isolation: isolate"/>
            <path id="Trazado_123159" data-name="Trazado 123159" d="M529.824,109.316a12.8,12.8,0,0,1,1.989-6.2" transform="translate(-431.786 -80.789)" fill="#9b9b9b" style="mix-blend-mode: color-burn;isolation: isolate"/>
            <path id="Trazado_123160" data-name="Trazado 123160" d="M525.456,107.954s.688-4.014,2.477-6.033" transform="translate(-428.901 -79.998)" fill="#9b9b9b" style="mix-blend-mode: color-burn;isolation: isolate"/>
            <path id="Trazado_123161" data-name="Trazado 123161" d="M522.524,106.806s.689-4.015,2.478-6.033" transform="translate(-426.964 -79.24)" fill="#9b9b9b" style="mix-blend-mode: color-burn;isolation: isolate"/>
            <path id="Trazado_123162" data-name="Trazado 123162" d="M518.549,105.717s1.01-3.739,2.89-5.551" transform="translate(-424.339 -78.839)" fill="#9b9b9b" style="mix-blend-mode: color-burn;isolation: isolate"/>
            <path id="Trazado_123163" data-name="Trazado 123163" d="M337.235,139.282c-2-4.765,2.561-29.957-1.868-39.66-2.705-5.925-9.1-9.481-14.709-7.205-4.295-.135-7.074,3.038-9.205,6.874-4.047,7.287-.1,15.355-2.4,17.424-3.782,3.4-6.8,6-6.695,9.941.16,5.837,4.394,7.689,3.487,12.045C303.281,151.007,337.235,139.282,337.235,139.282Z" transform="translate(-281.53 -73.261)" fill="#2993e2"/>
            <path id="Trazado_123164" data-name="Trazado 123164" d="M326.3,168.19c-1.081,4.924,2.012,7.452,2.442,10.171.4,2.521-.052,6.088-2.425,7.572l5.02-1.072,1.371-10.482-3.589-6.519Z" transform="translate(-297.199 -123.554)" fill="#e2e2e2" style="mix-blend-mode: multiply;isolation: isolate"/>
            <path id="Trazado_123165" data-name="Trazado 123165" d="M317.034,215.4c5.938,2.715,15.207,8.954,16.832,13.918s-4.181,25.737-4.441,31.659-.413,9.351-.555,12.572c-.216,4.883-40.712,3.411-40.483-1.784.142-3.221.293-6.649.554-12.572s-3.7-27.125-1.641-31.927,11.837-10.2,17.991-12.384Z" transform="translate(-271.194 -154.617)" fill="#ff692e"/>
            <path id="Trazado_123166" data-name="Trazado 123166" d="M395.925,151.077c-.42,2.352-2.388,5.3-4.1,4.313a3.908,3.908,0,0,1-2.1-4.434,4.082,4.082,0,0,1,3.606-3.755C395.368,146.882,396.341,148.724,395.925,151.077Z" transform="translate(-339.181 -109.884)" fill="#e5886e"/>
            <path id="Trazado_123167" data-name="Trazado 123167" d="M401,148.041a1.976,1.976,0,0,0-3.041.924l.292-1.668a2.689,2.689,0,0,1,1.437-.12A1.849,1.849,0,0,1,401,148.041Z" transform="translate(-344.681 -109.86)" fill="#ffa383"/>
            <path id="Trazado_123168" data-name="Trazado 123168" d="M318.176,147.493c.21,2.38,1.912,5.495,3.71,4.658a3.909,3.909,0,0,0,2.483-4.232,4.082,4.082,0,0,0-3.261-4.057C319.1,143.364,317.967,145.113,318.176,147.493Z" transform="translate(-291.965 -107.646)" fill="#e5886e"/>
            <path id="Trazado_123169" data-name="Trazado 123169" d="M320.256,144.521a1.977,1.977,0,0,1,2.95,1.188l-.144-1.687a2.7,2.7,0,0,0-1.422-.245A1.847,1.847,0,0,0,320.256,144.521Z" transform="translate(-293.356 -107.635)" fill="#ffa383"/>
            <path id="Trazado_123170" data-name="Trazado 123170" d="M328.59,188.141c.631,2.622-.659,8.391-.9,9.836-.54.2-4.157,1.835-4.157,1.835-1.031,3.562,1.911,6.419,4.661,10.169,3.112,4.244,6.7,10.388,6.432,15.164l1.146.051c2.613-9.938,9.043-22.123,7.538-26.412a22.117,22.117,0,0,1-.124-9.686Z" transform="translate(-295.384 -136.951)" fill="#ffa383"/>
            <path id="Trazado_123171" data-name="Trazado 123171" d="M339.121,190.918a14.861,14.861,0,0,1-.092,2.484s4.009,5.2,7.03,5.329,7.088-4.326,7.088-4.326.072-3.1.268-4.39Z" transform="translate(-305.756 -138.189)" fill="#e5886e"/>
            <path id="Trazado_123172" data-name="Trazado 123172" d="M352.548,117.217a11.938,11.938,0,1,1-23.854-1.051c.389-8.843,5.916-12.86,12.5-12.57S352.928,108.559,352.548,117.217Z" transform="translate(-298.922 -81.094)" fill="#ffa383"/>
            <path id="Trazado_123173" data-name="Trazado 123173" d="M352.23,141.707c-.281,6.379-.517,11.719-3.1,15.08-1.558,2.024-5.52,5.447-8.315,6.235a8.045,8.045,0,0,1-3.32-.276c-2.692-1.089-6.043-4.742-7.355-6.8-2.278-3.575-2.043-8.915-1.762-15.294" transform="translate(-298.604 -105.585)" fill="#ffa383"/>
            <path id="Trazado_123174" data-name="Trazado 123174" d="M378.864,153.8c-.048,1.083-.739,1.935-1.544,1.9s-1.42-.945-1.373-2.028.738-1.936,1.546-1.9S378.911,152.712,378.864,153.8Z" transform="translate(-330.141 -112.924)" fill="#0e263f"/>
            <path id="Trazado_123175" data-name="Trazado 123175" d="M345.613,152.132c-.048,1.084-.741,1.935-1.547,1.9s-1.42-.945-1.372-2.028.74-1.936,1.545-1.9S345.661,151.047,345.613,152.132Z" transform="translate(-308.175 -111.824)" fill="#0e263f"/>
            <path id="Trazado_123176" data-name="Trazado 123176" d="M370.393,141.4s5.345.027,7.693,1.732" transform="translate(-326.474 -106.077)" fill="none" stroke="#0e263f" stroke-linecap="round" stroke-miterlimit="10" stroke-width="1"/>
            <path id="Trazado_123177" data-name="Trazado 123177" d="M342.173,141.884s-5-.19-7.543,1.527" transform="translate(-302.85 -106.391)" fill="none" stroke="#0e263f" stroke-linecap="round" stroke-miterlimit="10" stroke-width="1"/>
            <path id="Trazado_123178" data-name="Trazado 123178" d="M356.065,175.7a8.039,8.039,0,0,1,3.771.166c.575.337-1.278.67-1.917.642S355.5,175.944,356.065,175.7Z" transform="translate(-316.937 -128.636)" fill="#e5886e"/>
            <path id="Trazado_123179" data-name="Trazado 123179" d="M358.428,195.6a14.289,14.289,0,0,0-3.82-.168c-.614.081.805-.473,1.916-.424C357.539,195.052,359.011,195.754,358.428,195.6Z" transform="translate(-315.949 -141.484)" fill="#e5886e" opacity="0.5"/>
            <path id="Trazado_123180" data-name="Trazado 123180" d="M350.38,183.151a19.169,19.169,0,0,0,7.309.623c.27-.02.151.021-.117.329a4.934,4.934,0,0,1-3.687,1.948c-1.788-.093-3.323-2.326-3.711-2.972C350.025,182.831,350.174,183.079,350.38,183.151Z" transform="translate(-313.078 -133.536)" fill="#fff"/>
            <path id="Trazado_123181" data-name="Trazado 123181" d="M326.2,156.54c-.9-.665-1.462-1.5-.8-2.495a3.559,3.559,0,0,1,.735-.775c1.654-1.344.793,1.668.793,1.668Z" transform="translate(-296.563 -113.689)" fill="#ffa383"/>
            <path id="Trazado_123182" data-name="Trazado 123182" d="M348.929,181.955c1.459.245,3.271-.574,4.092.333,1.141-.726,3.1.569,4.593.567.028,0,.074.054-.029.085-.789.238-5.207,1.118-8.683-.826C348.73,182.018,348.745,181.924,348.929,181.955Z" transform="translate(-312.198 -132.795)" fill="#ea4939"/>
            <path id="Trazado_123183" data-name="Trazado 123183" d="M349.486,182.71a16.584,16.584,0,0,0,1.986,2.677,4.165,4.165,0,0,0,3.993.368,16.57,16.57,0,0,0,2.258-2.25l-.348.1a10.907,10.907,0,0,1-2.216,1.284,4.47,4.47,0,0,1-2.8.038c-1.181-.376-1.435-1.259-2.255-1.92l-.4-.241Z" transform="translate(-312.664 -133.363)" fill="#ea4939"/>
            <path id="Trazado_123184" data-name="Trazado 123184" d="M351.882,183.955a6.445,6.445,0,0,0,3.26,1.022,11.2,11.2,0,0,0,3.676-.465,23.282,23.282,0,0,1-3.593.193A11.02,11.02,0,0,1,351.882,183.955Z" transform="translate(-314.246 -134.186)" fill="#e2e2e2"/>
            <path id="Trazado_123185" data-name="Trazado 123185" d="M327.229,124.878c-.009-3.643,1.32-8.815,3.648-10.9,1.932-1.728,5.059-3.578,4.6-6.716a6.193,6.193,0,0,0,2.923,6.068c2.6,1.688,14.869,1.865,11.19,11.792l1.377-1.361.2-5.066-3.409-5.03-12.618-8.676-6.754,8.88-1.717,6.194Z" transform="translate(-297.59 -82.027)" fill="#e5886e"/>
            <path id="Trazado_123186" data-name="Trazado 123186" d="M367.6,123.208c.088-3.277.421-5.864-2.14-8.339-3.6-3.484-7-2.474-9.907-4.649a8.217,8.217,0,0,1-3.257-8.007l4.351-.429,4.407.815,4.995,3.973,2.428,5.8a18.367,18.367,0,0,1,.165,5.388A25.26,25.26,0,0,1,367.6,123.208Z" transform="translate(-314.448 -79.908)" fill="#2993e2"/>
            <path id="Trazado_123187" data-name="Trazado 123187" d="M335.761,103.1c-8.333,2.582-8.925,6.708-9.619,11.515a22.917,22.917,0,0,0,.606,9.014c-.168-2.1.335-9.88,4.43-12.708s3.819-4.9,3.819-4.9Z" transform="translate(-297.109 -80.775)" fill="#2993e2"/>
            <path id="Trazado_123188" data-name="Trazado 123188" d="M350.45,99.852s-.61-4,1.24-6.084a2.818,2.818,0,0,0-2.225,2.209C348.872,97.9,350.45,99.852,350.45,99.852Z" transform="translate(-312.561 -74.613)" fill="#e2e2e2" style="mix-blend-mode: multiply;isolation: isolate"/>
            <path id="Trazado_123189" data-name="Trazado 123189" d="M317.914,223.476c-.564,3.371,1.546,5.884,4.843,10.4s6.913,9.284,7.182,13.824c.309,5.217-2.076,30.67-2.076,30.67l2.431.107,1.849-30.68c.114-3.587-2.317-7.439-4.13-10.495s-6.183-8.2-7.115-10.124-1.36-3.236-.995-4.765A1.652,1.652,0,0,0,317.914,223.476Z" transform="translate(-291.748 -159.552)" fill="#ea4613"/>
            <path id="Trazado_123190" data-name="Trazado 123190" d="M358.171,280.341c.479-1.708,2.148-6.23,2.755-7.608s1.679,1.338,1.679,1.338-4.454,11.266-4.774,15-.365-5.715-.365-5.715Z" transform="translate(-317.934 -192.57)" fill="#ea4613"/>
            <path id="Trazado_123191" data-name="Trazado 123191" d="M420.03,267.764c.543-2.753,2.644-8.021,1.794-12.651s1.475-.553,3.066.161,23.32-5.06,25.193-8.586a5.2,5.2,0,0,1-1.683,1.49c-2.515,1.551-7.446,4.11-12.59,7.015C424.11,261.8,420.487,265.505,420.03,267.764Z" transform="translate(-359.262 -175.624)" fill="#ea4613"/>
            <path id="Trazado_123192" data-name="Trazado 123192" d="M454.6,200.374c1.458-.464,7.194-1.474,9.274.911s2.2.128,1.346-.884a8.713,8.713,0,0,1-1.6-4.486,7.34,7.34,0,0,1-1.289,2.357A61.7,61.7,0,0,0,454.6,200.374Z" transform="translate(-382.097 -142.086)" fill="#ea4613"/>
            <path id="Trazado_123193" data-name="Trazado 123193" d="M505.8,116.214c-.52.758,2.907,3.55,7.739,5.08s7.437,1.742,7.695,1.178c0,0,.2.441-1.862,5.811,0,0,1.03-3.76-1.183-3.947-2.618-.221-8.487-1.71-11.776-5.622-.737-.876-1.3-.515-2.367,1.509C505.043,117.512,505.323,116.615,505.8,116.214Z" transform="translate(-414.76 -89.439)" fill="#ea4613"/>
            <path id="Trazado_123194" data-name="Trazado 123194" d="M303.468,292.582s-3.682,8.625-2.306,10.644,4.348,2.514,4.348,3.89-3.247-.312-3.064,1.065c.128.961,10.112,9.675,12.326,13.06.958,1.464-.307,5.25-.03,5.8L313.6,327c-3.225-2.725-14.735-14.778-14.735-14.778s-3.337-12.2-2.907-13.029,3-7.157,3.274-7.617S303.468,292.582,303.468,292.582Z" transform="translate(-277.282 -205.214)" fill="#ea4613"/>
            <path id="Trazado_123195" data-name="Trazado 123195" d="M258.277,246.688c-3.729,3.012-18.751,28.495-16.745,36.949,1.713,7.218,20.524,22.51,23.367,23.245,4.93,1.274,18.309-11.99,11.846-15.538s-14.607-13.946-15-15.292S268.324,261,268.324,261" transform="translate(-241.233 -175.624)" fill="#ff692e"/>
            <path id="Trazado_123196" data-name="Trazado 123196" d="M404.281,324.193c-1.329,3.024-6.841,9.539-6.47,11.924s4.873,4.413,4.5,8.171C402.314,344.288,402.341,332.539,404.281,324.193Z" transform="translate(-344.573 -226.821)" fill="#ea4613"/>
            <path id="Trazado_123197" data-name="Trazado 123197" d="M359.157,260.389a62.814,62.814,0,0,0,1.729,7.4l1.05-2.582A6.1,6.1,0,0,1,359.157,260.389Z" transform="translate(-319.052 -184.675)" fill="#e2e2e2" style="mix-blend-mode: multiply;isolation: isolate"/>
            <path id="Trazado_123198" data-name="Trazado 123198" d="M364.25,258.74c2.262,1.775,11.851,3.273,15.4-2.171s2.159-9.881,2.159-9.881l-16.508,9.47Z" transform="translate(-322.416 -175.624)" fill="#ea4613"/>
            <path id="Trazado_123199" data-name="Trazado 123199" d="M241.124,347.609c.183,2.691,25.655,26.476,30.475,23.086,0,0-3.743,3.34-6.924,2.85-2.08-.245-16.879-12.076-21.53-19.5C240.451,349.934,241.031,348.181,241.124,347.609Z" transform="translate(-241.008 -242.288)" fill="#ea4613"/>
            <g id="Grupo_95269" data-name="Grupo 95269" transform="translate(0.116 25.428)">
              <g id="Grupo_95268" data-name="Grupo 95268" clip-path="url(#clip-path-2)">
                <g id="Grupo_95267" data-name="Grupo 95267" transform="translate(-0.116 4.161)">
                  <path id="Trazado_123200" data-name="Trazado 123200" d="M422.759,215.272a3,3,0,1,1-3-3A3,3,0,0,1,422.759,215.272Z" transform="translate(-357.104 -182.482)" fill="#ededed" style="mix-blend-mode: soft-light;isolation: isolate"/>
                  <path id="Trazado_123201" data-name="Trazado 123201" d="M448.708,242.483a3,3,0,1,1-3-3A3,3,0,0,1,448.708,242.483Z" transform="translate(-374.245 -200.455)" fill="#ededed" style="mix-blend-mode: soft-light;isolation: isolate"/>
                  <path id="Trazado_123202" data-name="Trazado 123202" d="M461.462,204.68a3,3,0,1,1-3-3A3,3,0,0,1,461.462,204.68Z" transform="translate(-382.67 -175.485)" fill="#ededed" style="mix-blend-mode: soft-light;isolation: isolate"/>
                  <path id="Trazado_123203" data-name="Trazado 123203" d="M493.353,242.483a3,3,0,1,1-3-3A3,3,0,0,1,493.353,242.483Z" transform="translate(-403.735 -200.455)" fill="#ededed" style="mix-blend-mode: soft-light;isolation: isolate"/>
                  <circle id="Elipse_5739" data-name="Elipse 5739" cx="2.997" cy="2.997" r="2.997" transform="translate(91.213 26.796)" fill="#ededed" style="mix-blend-mode: soft-light;isolation: isolate"/>
                  <path id="Trazado_123204" data-name="Trazado 123204" d="M414.071,292.436a3,3,0,1,1-3-3A3,3,0,0,1,414.071,292.436Z" transform="translate(-351.365 -233.452)" fill="#ededed" style="mix-blend-mode: soft-light;isolation: isolate"/>
                  <path id="Trazado_123205" data-name="Trazado 123205" d="M372.068,321.687a3,3,0,1,1-3-3A3,3,0,0,1,372.068,321.687Z" transform="translate(-323.62 -252.774)" fill="#ededed" style="mix-blend-mode: soft-light;isolation: isolate"/>
                  <path id="Trazado_123206" data-name="Trazado 123206" d="M398.127,359.327a3,3,0,1,1-3-3A3,3,0,0,1,398.127,359.327Z" transform="translate(-340.834 -277.638)" fill="#ededed" style="mix-blend-mode: soft-light;isolation: isolate"/>
                  <path id="Trazado_123207" data-name="Trazado 123207" d="M367.558,390.677a3,3,0,1,1-3-3A3,3,0,0,1,367.558,390.677Z" transform="translate(-320.64 -298.346)" fill="#ededed" style="mix-blend-mode: soft-light;isolation: isolate"/>
                  <path id="Trazado_123208" data-name="Trazado 123208" d="M323.24,364.969a3,3,0,1,1-3.317-2.981C320.028,361.977,321.509,363.629,323.24,364.969Z" transform="translate(-291.367 -281.375)" fill="#ededed" style="mix-blend-mode: soft-light;isolation: isolate"/>
                  <path id="Trazado_123209" data-name="Trazado 123209" d="M302.03,414.673a3,3,0,1,1-3-3A3,3,0,0,1,302.03,414.673Z" transform="translate(-277.356 -314.196)" fill="#ededed" style="mix-blend-mode: soft-light;isolation: isolate"/>
                  <path id="Trazado_123210" data-name="Trazado 123210" d="M274.4,369.018a3,3,0,1,1-3-3A3,3,0,0,1,274.4,369.018Z" transform="translate(-259.107 -284.039)" fill="#ededed" style="mix-blend-mode: soft-light;isolation: isolate"/>
                  <path id="Trazado_123211" data-name="Trazado 123211" d="M290.688,327.679a3,3,0,1,1-3-3A3,3,0,0,1,290.688,327.679Z" transform="translate(-269.864 -256.733)" fill="#ededed" style="mix-blend-mode: soft-light;isolation: isolate"/>
                  <path id="Trazado_123212" data-name="Trazado 123212" d="M247,318.951a3,3,0,1,1-3-3A3,3,0,0,1,247,318.951Z" transform="translate(-241.008 -250.967)" fill="#ededed" style="mix-blend-mode: soft-light;isolation: isolate"/>
                  <path id="Trazado_123213" data-name="Trazado 123213" d="M302.03,285.651a3,3,0,1,1-3-3A3,3,0,0,1,302.03,285.651Z" transform="translate(-277.356 -228.97)" fill="#ededed" style="mix-blend-mode: soft-light;isolation: isolate"/>
                  <path id="Trazado_123214" data-name="Trazado 123214" d="M265.572,276.362a3,3,0,1,1-3-3A3,3,0,0,1,265.572,276.362Z" transform="translate(-253.274 -222.834)" fill="#ededed" style="mix-blend-mode: soft-light;isolation: isolate"/>
                  <path id="Trazado_123215" data-name="Trazado 123215" d="M298.161,236.891a3,3,0,1,1-3-3A3,3,0,0,1,298.161,236.891Z" transform="translate(-274.801 -196.762)" fill="#ededed" style="mix-blend-mode: soft-light;isolation: isolate"/>
                  <path id="Trazado_123216" data-name="Trazado 123216" d="M333.7,310.122a3,3,0,1,1-3-3A3,3,0,0,1,333.7,310.122Z" transform="translate(-298.276 -245.135)" fill="#ededed" style="mix-blend-mode: soft-light;isolation: isolate"/>
                  <path id="Trazado_123217" data-name="Trazado 123217" d="M335.067,264.166a3,3,0,1,1-3.4-4.92C332.4,260.4,333.652,262.143,335.067,264.166Z" transform="translate(-299.923 -213.509)" fill="#ededed" style="mix-blend-mode: soft-light;isolation: isolate"/>
                  <path id="Trazado_123218" data-name="Trazado 123218" d="M488.681,166.143a3,3,0,1,1-3-3A3,3,0,0,1,488.681,166.143Z" transform="translate(-400.649 -150.029)" fill="#ededed" style="mix-blend-mode: soft-light;isolation: isolate"/>
                  <path id="Trazado_123219" data-name="Trazado 123219" d="M535.865,159.067a3,3,0,1,1-3-3A3,3,0,0,1,535.865,159.067Z" transform="translate(-431.817 -145.355)" fill="#ededed" style="mix-blend-mode: soft-light;isolation: isolate"/>
                  <path id="Trazado_123220" data-name="Trazado 123220" d="M513.415,127.5a3,3,0,1,1-3-3,3.039,3.039,0,0,1,.375.023,13.277,13.277,0,0,0,1.907,1.03A2.984,2.984,0,0,1,513.415,127.5Z" transform="translate(-416.987 -124.505)" fill="#ededed" style="mix-blend-mode: soft-light;isolation: isolate"/>
                </g>
              </g>
            </g>
            <path id="Trazado_123222" data-name="Trazado 123222" d="M420.03,267.764c.543-2.753,2.644-8.021,1.794-12.651s1.475-.553,3.066.161,23.32-5.06,25.193-8.586a5.2,5.2,0,0,1-1.683,1.49c-2.515,1.551-7.446,4.11-12.59,7.015C424.11,261.8,420.487,265.505,420.03,267.764Z" transform="translate(-359.262 -175.624)" fill="#ea4613" opacity="0.5" style="mix-blend-mode: multiply;isolation: isolate"/>
            <path id="Trazado_123223" data-name="Trazado 123223" d="M454.6,200.374c1.458-.464,7.194-1.474,9.274.911s2.2.128,1.346-.884a8.713,8.713,0,0,1-1.6-4.486,7.34,7.34,0,0,1-1.289,2.357A61.7,61.7,0,0,0,454.6,200.374Z" transform="translate(-382.097 -142.086)" fill="#ea4613" opacity="0.5" style="mix-blend-mode: multiply;isolation: isolate"/>
            <path id="Trazado_123224" data-name="Trazado 123224" d="M505.8,116.214c-.52.758,2.907,3.55,7.739,5.08s7.437,1.742,7.695,1.178c0,0,.2.441-1.862,5.811,0,0,1.03-3.76-1.183-3.947-2.618-.221-8.487-1.71-11.776-5.622-.737-.876-1.3-.515-2.367,1.509C505.043,117.512,505.323,116.615,505.8,116.214Z" transform="translate(-414.76 -89.439)" fill="#ea4613" opacity="0.5" style="mix-blend-mode: multiply;isolation: isolate"/>
            <path id="Trazado_123225" data-name="Trazado 123225" d="M307.528,294.718s-3.682,8.625-2.306,10.644,4.348,2.514,4.348,3.89-3.247-.312-3.063,1.065c.128.961,10.112,9.675,12.326,13.06.958,1.464-.307,5.25-.03,5.8l-1.139-.049c1.533-3.125,1.26-5.021-1.339-6.367-7.249-4.136-14.194-14.433-14.194-14.433a5.11,5.11,0,0,1,.125-2.144C303.968,301.6,307.528,294.718,307.528,294.718Z" transform="translate(-281.342 -207.351)" fill="#ea4613" opacity="0.5" style="mix-blend-mode: multiply;isolation: isolate"/>
            <path id="Trazado_123226" data-name="Trazado 123226" d="M404.281,324.193c-1.329,3.024-6.841,9.539-6.47,11.924s4.873,4.413,4.5,8.171C402.314,344.288,402.341,332.539,404.281,324.193Z" transform="translate(-344.573 -226.821)" fill="#ea4613" opacity="0.5" style="mix-blend-mode: multiply;isolation: isolate"/>
            <path id="Trazado_123227" data-name="Trazado 123227" d="M364.25,258.74c2.262,1.775,11.851,3.273,15.4-2.171s2.159-9.881,2.159-9.881l-16.508,9.47Z" transform="translate(-322.416 -175.624)" fill="#ea4613" opacity="0.5" style="mix-blend-mode: multiply;isolation: isolate"/>
            <path id="Trazado_123228" data-name="Trazado 123228" d="M241.124,347.609c.183,2.691,25.655,26.476,30.475,23.086,0,0-3.743,3.34-6.924,2.85-2.08-.245-16.879-12.076-21.53-19.5C240.451,349.934,241.031,348.181,241.124,347.609Z" transform="translate(-241.008 -242.288)" fill="#ea4613" opacity="0.5" style="mix-blend-mode: multiply;isolation: isolate"/>
            <path id="Trazado_123229" data-name="Trazado 123229" d="M373.862,123.58c1.2,5.369.266,6.283,2.832,10.751,1.957,3.4,6.1,10.418,2.078,15.447-1.356,1.7-3.772,3-3.933,5.4-.122,1.814,1.221,3.58,1.935,5.186,1.463,3.294,2.942,7.712.815,10.99a11.589,11.589,0,0,1-8.055,5.035c-3.771.471-8.1-.447-9.788-4.283-1.839-4.174.969-7.429,3.762-10.117,1.259-1.212,2.81-2.247,2.991-4.16.186-1.964-.866-3.353-1.84-4.974-4.53-7.536,7.365-12.532,7.557-18.935.088-2.93-1.262-4.2.114-6.857C372.33,127.059,373.861,123.575,373.862,123.58Z" transform="translate(-319.052 -94.305)" fill="#2993e2"/>
            <path id="Trazado_123230" data-name="Trazado 123230" d="M364.206,203.128c4.313,2.47,7.551,3.613,7.573,5.352s-9.939,6.725-11.9,11.734l.01-.214s-.488-2.415,1.849-5.8c1.295-1.875,3.15-3.31,3.671-5.663C365.694,207.255,364.275,205.047,364.206,203.128Z" transform="translate(-319.508 -146.851)" fill="#e2e2e2" style="mix-blend-mode: multiply;isolation: isolate"/>
            <path id="Trazado_123231" data-name="Trazado 123231" d="M366.645,319.736a1.789,1.789,0,1,1-1.785-1.9A1.847,1.847,0,0,1,366.645,319.736Z" transform="translate(-321.639 -222.619)" fill="#2993e2"/>
            <path id="Trazado_123232" data-name="Trazado 123232" d="M364.072,367.063a1.789,1.789,0,1,1-1.786-1.9A1.848,1.848,0,0,1,364.072,367.063Z" transform="translate(-319.94 -253.881)" fill="#2993e2"/>
            <path id="Trazado_123233" data-name="Trazado 123233" d="M365.054,324.822c0-.183.375.347,1.113.347.77,0,1.113-.488,1.113-.347a1.141,1.141,0,0,1-2.226,0Z" transform="translate(-322.947 -227.211)" fill="#2993e2"/>
            <path id="Trazado_123234" data-name="Trazado 123234" d="M362.482,372.15c0-.183.376.348,1.113.348.77,0,1.113-.488,1.113-.348a1.141,1.141,0,0,1-2.226,0Z" transform="translate(-321.248 -258.474)" fill="#2993e2"/>
            <path id="Trazado_123235" data-name="Trazado 123235" d="M365.054,324.822c0-.183.375.347,1.113.347.77,0,1.113-.488,1.113-.347a1.141,1.141,0,0,1-2.226,0Z" transform="translate(-322.947 -227.211)" fill="#ededed" style="mix-blend-mode: soft-light;isolation: isolate"/>
            <path id="Trazado_123236" data-name="Trazado 123236" d="M362.482,372.15c0-.183.376.348,1.113.348.77,0,1.113-.488,1.113-.348a1.141,1.141,0,0,1-2.226,0Z" transform="translate(-321.248 -258.474)" fill="#ededed" style="mix-blend-mode: soft-light;isolation: isolate"/>
          </g>
        </g>
      </g>
      <rect id="Rectángulo_35227" data-name="Rectángulo 35227" width="145.285" height="10.274" transform="translate(2.897 112.986)" fill="#0b3356" opacity="0.6" style="mix-blend-mode: multiply;isolation: isolate"/>
      <rect id="Rectángulo_35228" data-name="Rectángulo 35228" width="17.855" height="0.988" transform="translate(2.897 111.998)" fill="#ea4939"/>
      <rect id="Rectángulo_35229" data-name="Rectángulo 35229" width="121.519" height="0.988" transform="translate(25.479 111.998)" fill="#0b3356" opacity="0.4" style="mix-blend-mode: multiply;isolation: isolate"/>
      <rect id="Rectángulo_35230" data-name="Rectángulo 35230" width="4.454" height="0.988" transform="translate(21.025 111.998)" fill="#fff" opacity="0.5"/>
      <g id="Grupo_95273" data-name="Grupo 95273" transform="translate(139.39 115.555)">
        <path id="Trazado_123238" data-name="Trazado 123238" d="M574.236,365.2h-1.282v1.281" transform="translate(-572.954 -365.201)" fill="none" stroke="#fff" stroke-linejoin="round" stroke-width="3"/>
        <path id="Trazado_123239" data-name="Trazado 123239" d="M582.1,366.481V365.2h-1.281" transform="translate(-578.151 -365.2)" fill="none" stroke="#fff" stroke-linejoin="round" stroke-width="3"/>
        <path id="Trazado_123240" data-name="Trazado 123240" d="M580.82,374.358H582.1v-1.282" transform="translate(-578.15 -370.403)" fill="none" stroke="#fff" stroke-linejoin="round" stroke-width="3"/>
        <path id="Trazado_123241" data-name="Trazado 123241" d="M572.954,373.076v1.282h1.282" transform="translate(-572.954 -370.403)" fill="none" stroke="#fff" stroke-linejoin="round" stroke-width="3"/>
      </g>
      <rect id="Rectángulo_35231" data-name="Rectángulo 35231" width="3.491" height="2.601" transform="translate(132.805 116.909)" fill="none" stroke="#fff" stroke-linecap="round" stroke-linejoin="round" stroke-width="3"/>
      <path id="Trazado_123242" data-name="Trazado 123242" d="M162.314,81.35V186.988H312.209V81.35H299.092l-.373,3.161h10.592v99.315h-144.1V84.511H279.89l-.047-3.161Z" transform="translate(-162.314 -62.147)" fill="#0b3356"/>
      <g id="Grupo_95274" data-name="Grupo 95274" transform="translate(131.108 82.796)">
        <path id="Trazado_123243" data-name="Trazado 123243" d="M575.315,284.471c-1.4,1.874-18.949,6.339-21.529,6.053s-6.37-12.08-4.9-15.148,20.315-7.761,22.423-6.458S576.717,282.6,575.315,284.471Z" transform="translate(-548.556 -268.695)" fill="#fff"/>
        <path id="Trazado_123244" data-name="Trazado 123244" d="M584.9,293.026l-4.978-2.088a.776.776,0,0,0-1.054.9l1.577,6.281a.776.776,0,0,0,1.356.3l3.4-4.193A.776.776,0,0,0,584.9,293.026Z" transform="translate(-568.563 -283.346)" fill="#2993e2"/>
      </g>
      <path id="Trazado_123245" data-name="Trazado 123245" d="M279.777,176.716H271.75a3.61,3.61,0,0,0-3.6,3.6v3.641a3.61,3.61,0,0,0,3.6,3.6h5.992l1.142,1.477a.515.515,0,0,0,.876-.1l.659-1.438a3.61,3.61,0,0,0,2.958-3.538v-3.641A3.61,3.61,0,0,0,279.777,176.716Zm-8.027,6.538a.993.993,0,1,1,.994-.994A.993.993,0,0,1,271.75,183.254Zm4.034,0a.993.993,0,1,1,.993-.994A.994.994,0,0,1,275.784,183.254Zm4.034,0a.993.993,0,1,1,.993-.994A.993.993,0,0,1,279.819,183.254Z" transform="translate(-232.225 -125.142)" fill="#fff"/>
      <g id="Grupo_95277" data-name="Grupo 95277" transform="translate(98.677 94.967)">
        <g id="Grupo_95276" data-name="Grupo 95276">
          <g id="Grupo_95275" data-name="Grupo 95275">
            <path id="Trazado_123246" data-name="Trazado 123246" d="M455,312.261l.05.018,5.769,2.033,3.339-5.125.03-.045a2.971,2.971,0,1,0-4.98-3.243l-.818,1.255-1.413-.5a2.971,2.971,0,1,0-1.976,5.6Z" transform="translate(-453.013 -304.551)" fill="#fff"/>
          </g>
        </g>
      </g>
      <g id="Grupo_95280" data-name="Grupo 95280" transform="translate(132.805 60.765)">
        <g id="Grupo_95279" data-name="Grupo 95279">
          <g id="Grupo_95278" data-name="Grupo 95278">
            <path id="Trazado_123247" data-name="Trazado 123247" d="M553.886,206.928l.02.031,2.292,3.486,3.928-1.4.034-.012a2.027,2.027,0,0,0-1.363-3.817l-.962.344-.562-.854a2.026,2.026,0,1,0-3.387,2.226Z" transform="translate(-553.555 -203.79)" fill="#fff"/>
          </g>
        </g>
      </g>
      <g id="Grupo_95283" data-name="Grupo 95283" transform="translate(17.188 38.285)">
        <g id="Grupo_95282" data-name="Grupo 95282">
          <g id="Grupo_95281" data-name="Grupo 95281">
            <path id="Trazado_123248" data-name="Trazado 123248" d="M214.3,142.816l.034.013,3.932,1.393,2.283-3.491.02-.031a2.027,2.027,0,0,0-3.392-2.218l-.559.855-.964-.341a2.026,2.026,0,1,0-1.354,3.819Z" transform="translate(-212.949 -137.567)" fill="#fff"/>
          </g>
        </g>
      </g>
    </g>
    <g id="Grupo_95287" data-name="Grupo 95287" transform="translate(89.964 75.912)">
      <path id="Trazado_123249" data-name="Trazado 123249" d="M174.073,418.246c0,4.55-10.432,8.239-23.3,8.239s-23.3-3.689-23.3-8.239,10.431-8.238,23.3-8.238S174.073,413.7,174.073,418.246Z" transform="translate(-127.475 -330.376)" fill="#69cdff" opacity="0.2"/>
      <g id="Grupo_95286" data-name="Grupo 95286" transform="translate(5.048)">
        <rect id="Rectángulo_35232" data-name="Rectángulo 35232" width="2.662" height="5.203" transform="translate(16.665 27.303)" fill="#123456"/>
        <g id="Grupo_95285" data-name="Grupo 95285">
          <path id="Trazado_123250" data-name="Trazado 123250" d="M187.036,175.415h-7.08l-1.2,5.61h9.484Z" transform="translate(-166.395 -175.415)" fill="#0b3356"/>
          <rect id="Rectángulo_35233" data-name="Rectángulo 35233" width="4.477" height="2.471" rx="1.236" transform="translate(14.828 1.269)"/>
          <rect id="Rectángulo_35234" data-name="Rectángulo 35234" width="35.265" height="22.522" rx="5" transform="translate(0 4.137)" fill="#0b3356"/>
          <rect id="Rectángulo_35235" data-name="Rectángulo 35235" width="35.265" height="22.522" rx="5" transform="translate(0 5.063)" fill="#0a1d35"/>
          <rect id="Rectángulo_35236" data-name="Rectángulo 35236" width="19.638" height="14.204" rx="5" transform="translate(2.204 10.312)" fill="#0a1d35"/>
          <rect id="Rectángulo_35237" data-name="Rectángulo 35237" width="19.638" height="14.205" rx="5" transform="translate(2.204 11.122)" fill="#69cdff"/>
          <path id="Trazado_123251" data-name="Trazado 123251" d="M163.639,222.386h-2l4.474-14.205h2Z" transform="translate(-155.088 -197.058)" fill="#fff" style="mix-blend-mode: soft-light;isolation: isolate"/>
          <path id="Trazado_123252" data-name="Trazado 123252" d="M154.33,222.386h-.368l4.474-14.205h.368Z" transform="translate(-150.019 -197.058)" fill="#fff" style="mix-blend-mode: soft-light;isolation: isolate"/>
          <path id="Trazado_123253" data-name="Trazado 123253" d="M176.786,222.386h-5.61l4.474-14.205h5.609Z" transform="translate(-161.39 -197.058)" fill="#fff" style="mix-blend-mode: soft-light;isolation: isolate"/>
          <rect id="Rectángulo_35238" data-name="Rectángulo 35238" width="2.49" height="1.374" rx="0.687" transform="translate(25.29 7.42)" fill="#e2e2e2"/>
          <rect id="Rectángulo_35239" data-name="Rectángulo 35239" width="2.49" height="1.374" rx="0.687" transform="translate(28.946 7.42)" fill="#e2e2e2"/>
          <rect id="Rectángulo_35240" data-name="Rectángulo 35240" width="2.49" height="1.375" rx="0.687" transform="translate(25.29 9.748)" fill="#e2e2e2"/>
          <rect id="Rectángulo_35241" data-name="Rectángulo 35241" width="2.49" height="1.375" rx="0.687" transform="translate(28.946 9.748)" fill="#e2e2e2"/>
          <rect id="Rectángulo_35242" data-name="Rectángulo 35242" width="2.49" height="1.374" rx="0.687" transform="translate(25.29 12.076)" fill="#e2e2e2"/>
          <rect id="Rectángulo_35243" data-name="Rectángulo 35243" width="2.49" height="1.374" rx="0.687" transform="translate(28.946 12.076)" fill="#e2e2e2"/>
          <path id="Trazado_123254" data-name="Trazado 123254" d="M221.69,227.35a3.907,3.907,0,1,1-3.907-3.908A3.907,3.907,0,0,1,221.69,227.35Z" transform="translate(-189.595 -207.139)" fill="#0a1d35"/>
          <path id="Trazado_123255" data-name="Trazado 123255" d="M222.313,228.633a3.249,3.249,0,1,1-3.248-3.249A3.248,3.248,0,0,1,222.313,228.633Z" transform="translate(-190.877 -208.422)" fill="#0b3356"/>
          <path id="Trazado_123256" data-name="Trazado 123256" d="M223.166,230.386a2.347,2.347,0,1,1-2.347-2.347A2.347,2.347,0,0,1,223.166,230.386Z" transform="translate(-192.631 -210.176)" fill="#0a1d35"/>
        </g>
        <rect id="Rectángulo_35244" data-name="Rectángulo 35244" width="9.041" height="1.089" transform="translate(13.475 31.961)" fill="#123456"/>
        <path id="Trazado_123257" data-name="Trazado 123257" d="M208.162,270.117a.544.544,0,1,1-.544-.545A.545.545,0,0,1,208.162,270.117Z" transform="translate(-185.102 -237.611)" fill="#123456"/>
        <path id="Trazado_123258" data-name="Trazado 123258" d="M181.806,270.117a.545.545,0,1,1-.545-.545A.545.545,0,0,1,181.806,270.117Z" transform="translate(-167.692 -237.611)" fill="#123456"/>
        <rect id="Rectángulo_35245" data-name="Rectángulo 35245" width="9.041" height="1.089" transform="translate(13.475 34.511)" fill="#123456"/>
        <path id="Trazado_123259" data-name="Trazado 123259" d="M208.162,277.628a.544.544,0,1,1-.544-.544A.544.544,0,0,1,208.162,277.628Z" transform="translate(-185.102 -242.573)" fill="#123456"/>
        <path id="Trazado_123260" data-name="Trazado 123260" d="M181.806,277.628a.545.545,0,1,1-.545-.544A.545.545,0,0,1,181.806,277.628Z" transform="translate(-167.692 -242.573)" fill="#123456"/>
        <rect id="Rectángulo_35246" data-name="Rectángulo 35246" width="8.402" height="2.549" transform="translate(13.795 32.506)" fill="#123456"/>
        <line id="Línea_193" data-name="Línea 193" x1="16.665" y2="52.351" transform="translate(0 35.056)" fill="none" stroke="#153556" stroke-linecap="round" stroke-miterlimit="10" stroke-width="5"/>
        <line id="Línea_194" data-name="Línea 194" x1="16.665" y1="52.351" transform="translate(19.855 35.056)" fill="none" stroke="#153556" stroke-linecap="round" stroke-miterlimit="10" stroke-width="5"/>
        <line id="Línea_195" data-name="Línea 195" y2="56.043" transform="translate(18.251 35.537)" fill="none" stroke="#153556" stroke-linecap="round" stroke-miterlimit="10" stroke-width="5"/>
      </g>
    </g>
  </g>
</svg>
